<?xml version="1.0" encoding="utf-8"?>
<!-- Generator: Adobe Illustrator 24.0.3, SVG Export Plug-In . SVG Version: 6.00 Build 0)  -->
<svg version="1.1" xmlns="http://www.w3.org/2000/svg" xmlns:xlink="http://www.w3.org/1999/xlink" x="0px" y="0px"
	 viewBox="0 0 834 1194" enable-background="new 0 0 834 1194" xml:space="preserve">
<g id="レイヤー1">
	<g>
		<path fill="none" d="M189.58,488.796c0.471,1.467,0.958,2.93,1.487,4.377c0.271,0.741,0.572,1.475,0.928,2.178
			c1.712-0.969,3.68-1.49,5.656-1.483c-0.033-0.363-0.067-0.726-0.1-1.088c-0.406-2.9-0.811-5.8-1.217-8.7
			c-2.966-0.183-5.885-1.188-8.319-2.835c0.257,2.029,0.622,4.042,1.091,6.03C189.262,487.783,189.417,488.291,189.58,488.796z"/>
		<path fill="none" d="M202.651,495.124c0.09,0.053,0.161,0.115,0.242,0.172c1.843-4.98,3.365-10.072,4.557-15.246
			c-1.174,1.031-2.452,1.992-3.88,2.68c-1.896,0.913-3.953,1.348-6.019,1.38c0.334,3.267,0.668,6.534,1.002,9.801
			C199.968,494.028,201.429,494.398,202.651,495.124z"/>
		<path fill="#7DDDB2" d="M201.456,454.896c0.06-0.467,0.069-0.961-0.176-1.375c-0.344-0.581-1.041-0.69-1.655-0.771
			c-0.338-0.045-0.678-0.069-1.019-0.066c-0.149,0.001-0.298,0.007-0.447,0.018c-0.172,0.012-0.358,0.014-0.516,0.093
			c-0.354,0.178-0.352,0.533-0.303,0.873c0.035,0.243,0.072,0.486,0.108,0.729C198.794,454.4,200.141,454.56,201.456,454.896z"/>
		<path fill="#E0D47F" d="M207.903,479.645c-0.149,0.136-0.3,0.271-0.453,0.404c-1.191,5.173-2.713,10.266-4.557,15.246
			c-0.081-0.057-0.152-0.118-0.242-0.172c-1.223-0.726-2.683-1.095-4.098-1.213c-0.334-3.267-0.668-6.534-1.002-9.801
			c-0.406,0.006-0.812-0.005-1.218-0.03c0.406,2.9,0.811,5.8,1.217,8.7c0.033,0.363,0.067,0.726,0.1,1.088
			c-1.976-0.007-3.943,0.514-5.656,1.483c-0.356-0.703-0.657-1.437-0.928-2.178c-0.529-1.447-1.016-2.91-1.487-4.377
			c-0.162-0.506-0.318-1.013-0.474-1.521c-0.469-1.988-0.834-4.001-1.091-6.03c-0.61-0.412-1.185-0.867-1.726-1.357
			c-0.017,0.06-0.025,0.125-0.008,0.199c0.856,3.862,1.919,7.673,3.175,11.422c0.461,1.476,0.98,2.935,1.559,4.373
			c-0.248,0.075-0.489,0.163-0.709,0.294c-0.52,0.311-0.817,0.777-0.979,1.302c-0.034,0.038-0.071,0.073-0.105,0.112
			c-0.151,0.172-0.128,0.362-0.027,0.495c-0.053,0.44-0.037,0.897,0.015,1.328c0.075,0.625,0.205,1.238,0.361,1.844
			c0.215,1.547,0.518,3.08,0.929,4.589c0.247,0.906,0.529,1.803,0.846,2.688c0.304,0.849,0.574,1.948,1.153,2.659
			c0.449,0.551,1.166,0.636,1.831,0.727c1.043,0.144,2.098,0.167,3.146,0.052c1.622-0.178,3.387-0.62,4.454-1.954
			c1.078-1.348,1.185-3.199,1.414-4.839c0.28-2.008,0.574-4.014,0.839-6.023c0.145-1.1,0.095-2.101-0.393-2.92
			c0.712-2.087,1.379-4.188,1.994-6.304c1.294-3.721,2.375-7.514,3.239-11.359C208.656,478.938,208.283,479.298,207.903,479.645z
			 M203.094,497.583c-0.194,1.171-1.439,1.433-2.418,1.491c-0.934,0.055-1.871,0.069-2.807,0.043
			c-1.964-0.055-3.924-0.291-5.851-0.674c-0.539-0.107-0.914-0.642-0.991-1.15c-0.087-0.579,0.2-1.057,0.66-1.378
			c0.835-0.581,1.8-0.863,2.807-0.94c0.01-0.001,0.019,0.002,0.028,0.001c0.069-0.028,0.139-0.054,0.215-0.066
			c2.662-0.436,5.291-0.069,7.72,1.11C203.041,496.304,203.189,497.011,203.094,497.583z"/>
		<path fill="#95D487" d="M202.458,496.021c-2.429-1.18-5.059-1.546-7.72-1.11c-0.076,0.012-0.146,0.038-0.215,0.066
			c-0.01,0-0.019-0.002-0.028-0.001c-1.007,0.077-1.972,0.359-2.807,0.94c-0.46,0.321-0.747,0.799-0.66,1.378
			c0.076,0.508,0.451,1.042,0.991,1.15c1.926,0.383,3.887,0.619,5.851,0.674c0.936,0.026,1.872,0.012,2.807-0.043
			c0.979-0.058,2.224-0.32,2.418-1.491C203.189,497.011,203.041,496.304,202.458,496.021z"/>
		<path fill="#EB5B1E" d="M212.54,464.986c-1.216-4.565-5.475-8.349-10.328-9.771c-0.149-0.119-0.335-0.214-0.562-0.275
			c-0.065-0.017-0.13-0.028-0.195-0.044c-1.315-0.336-2.662-0.496-4.006-0.499c-5.205-0.012-10.352,2.378-13.299,6.534
			c-3.788,5.344-3.426,12.667,0.839,17.644c0.4,0.466,0.84,0.898,1.298,1.313c0.541,0.49,1.116,0.945,1.726,1.357
			c2.434,1.646,5.353,2.651,8.319,2.835c0.406,0.025,0.812,0.036,1.218,0.03c2.066-0.031,4.122-0.466,6.019-1.38
			c1.428-0.688,2.706-1.649,3.88-2.68c0.152-0.134,0.304-0.269,0.453-0.404c0.381-0.347,0.753-0.707,1.119-1.074
			c0.863-0.868,1.667-1.794,2.307-2.816C213.305,472.6,213.472,468.484,212.54,464.986z M193.531,456.099
			c0.695-0.065,1.391-0.13,2.086-0.195c0.867-0.225,1.748-0.361,2.65-0.311c0.214-0.019,0.428-0.037,0.642-0.055
			c0.029-0.002,0.049,0.006,0.075,0.009c0.093-0.134,0.266-0.219,0.425-0.163c1.462,0.517,2.71,1.427,3.94,2.349
			c0.17,0.127,0.258,0.336,0.141,0.536c-0.104,0.178-0.358,0.254-0.536,0.141c-0.178-0.113-0.359-0.22-0.539-0.328
			c-0.025-0.009-0.049-0.01-0.075-0.025c-0.924-0.535-1.873-1.024-2.845-1.466c-0.075-0.034-0.121-0.1-0.152-0.174
			c-0.245,0.958-0.491,1.917-0.736,2.875c0.005,0.023,0.006,0.047,0.011,0.07c0.047,0.207-0.062,0.424-0.274,0.482
			c-0.135,0.037-0.285-0.012-0.383-0.11c-0.065,0.025-0.134,0.04-0.199,0.032c-0.192-0.023-0.339-0.192-0.34-0.385
			c-0.006-0.982,0.144-1.964,0.435-2.902c-0.541,0.051-1.081,0.101-1.622,0.152c-0.498,0.086-0.991,0.195-1.476,0.34
			c-0.228,0.068-0.455,0.142-0.679,0.228c-0.272,0.093-0.445-0.103-0.467-0.323c-0.027,0.003-0.055,0.005-0.082,0.008
			C193.028,456.93,193.032,456.145,193.531,456.099z M206.657,478.187c-2.263,2.118-4.925,3.991-8.019,4.564
			c-0.054,0.038-0.117,0.069-0.196,0.077c-0.747,0.074-1.488,0.051-2.219-0.05c-3.249-0.314-6.377-1.676-8.78-3.914
			c-2.894-2.696-4.582-6.536-4.719-10.476c-0.018-0.505,0.767-0.503,0.784,0c0.001,0.031,0.004,0.061,0.005,0.092
			c0.237-0.07,0.518,0.045,0.481,0.352c-0.452,3.725,1.737,6.97,4.502,9.24c2.219,1.822,4.96,3.538,7.872,3.931
			c0.168,0.015,0.337,0.027,0.505,0.036c-0.433-2.569-0.631-5.161-0.6-7.753c-0.092-2.192-0.01-4.393,0.268-6.579
			c0.061-0.478,0.79-0.494,0.781-0.043c0.155,0.074,0.278,0.229,0.244,0.442c-0.317,1.979-0.483,3.977-0.516,5.976
			c0.092,2.462,0.417,4.913,0.98,7.324c5.755-1.83,10.588-6.043,13.199-11.489c0.195-0.407,0.84-0.115,0.716,0.302
			C211.018,473.341,209.013,475.982,206.657,478.187z"/>
		<path fill="#BB541F" d="M193.531,456.883c0.027-0.003,0.055-0.005,0.082-0.008c0.022,0.22,0.194,0.416,0.467,0.323
			c0.224-0.086,0.451-0.16,0.679-0.228c0.485-0.145,0.978-0.254,1.476-0.34c0.541-0.051,1.081-0.101,1.622-0.152
			c-0.29,0.938-0.441,1.92-0.435,2.902c0.001,0.193,0.148,0.362,0.34,0.385c0.065,0.008,0.134-0.007,0.199-0.032
			c0.099,0.098,0.249,0.147,0.383,0.11c0.212-0.058,0.321-0.275,0.274-0.482c-0.005-0.023-0.006-0.047-0.011-0.07
			c0.245-0.958,0.491-1.917,0.736-2.875c0.031,0.074,0.077,0.14,0.152,0.174c0.972,0.442,1.921,0.931,2.845,1.466
			c0.025,0.015,0.05,0.016,0.075,0.025c0.18,0.108,0.362,0.215,0.539,0.328c0.179,0.114,0.432,0.037,0.536-0.141
			c0.117-0.2,0.029-0.409-0.141-0.536c-1.23-0.921-2.478-1.831-3.94-2.349c-0.158-0.056-0.332,0.029-0.425,0.163
			c-0.025-0.003-0.046-0.011-0.075-0.009c-0.214,0.018-0.428,0.036-0.642,0.055c-0.902-0.05-1.783,0.087-2.65,0.311
			c-0.695,0.065-1.391,0.13-2.086,0.195C193.032,456.145,193.028,456.93,193.531,456.883z"/>
		<path fill="#BB541F" d="M211.946,470.216c0.124-0.417-0.521-0.709-0.716-0.302c-2.611,5.447-7.444,9.659-13.199,11.489
			c-0.562-2.411-0.887-4.862-0.98-7.324c0.034-1.999,0.2-3.997,0.516-5.976c0.034-0.213-0.089-0.368-0.244-0.442
			c0.009-0.451-0.72-0.436-0.781,0.043c-0.278,2.187-0.36,4.387-0.268,6.579c-0.031,2.592,0.167,5.184,0.6,7.753
			c-0.169-0.01-0.337-0.021-0.505-0.036c-2.912-0.393-5.652-2.109-7.872-3.931c-2.765-2.269-4.954-5.515-4.502-9.24
			c0.037-0.307-0.244-0.422-0.481-0.352c-0.001-0.031-0.004-0.061-0.005-0.092c-0.017-0.503-0.802-0.505-0.784,0
			c0.137,3.94,1.825,7.781,4.719,10.476c2.403,2.237,5.531,3.6,8.78,3.914c0.731,0.101,1.472,0.125,2.219,0.05
			c0.079-0.008,0.141-0.038,0.196-0.077c3.094-0.573,5.756-2.446,8.019-4.564C209.013,475.982,211.018,473.341,211.946,470.216z"/>
	</g>
</g>
<g id="参考">
</g>
</svg>
