<?xml version="1.0" encoding="utf-8"?>
<!-- Generator: Adobe Illustrator 24.0.3, SVG Export Plug-In . SVG Version: 6.00 Build 0)  -->
<svg version="1.1" xmlns="http://www.w3.org/2000/svg" xmlns:xlink="http://www.w3.org/1999/xlink" x="0px" y="0px"
	 viewBox="0 0 834 1194" enable-background="new 0 0 834 1194" xml:space="preserve">
<g id="レイヤー1">
	<g>
		<path fill="none" d="M51.984,715.304c-0.076-0.634-0.154-1.267-0.232-1.901c-1.634,2.963-3.186,5.973-5.815,7.768
			c-0.94,0.642-1.976,1.091-3.008,1.546c0.544,0.023,1.091,0.06,1.632,0.096l8.211-0.539
			C52.513,719.951,52.265,717.626,51.984,715.304z"/>
		<path fill="none" d="M93.418,690.166c0.244,0.095,0.455,0.263,0.634,0.506c0.015,0.019,0.031,0.039,0.046,0.058
			c0.245,0.311,0.416,0.681,0.512,1.111c0.025,0.226,0.05,0.452,0.075,0.678c0.002,0.462-0.084,0.896-0.258,1.301
			c-0.058,0.101-0.115,0.201-0.173,0.302c0.254-0.188,0.518-0.364,0.806-0.513c0.815-0.419,1.583-0.09,2.017,0.479
			c0.018-0.001,0.036,0,0.054-0.001c-0.038-0.048-0.08-0.085-0.115-0.14c-0.014-0.021-0.029-0.042-0.043-0.062
			c-0.145-0.211-0.252-0.455-0.341-0.715c-0.056-0.073-0.105-0.156-0.142-0.253c-0.325-0.447-0.292-1.176-0.009-1.646
			c0.04-0.227,0.101-0.445,0.182-0.656c0.095-0.183,0.189-0.366,0.284-0.548c0.165-0.264,0.36-0.452,0.587-0.562
			c0.218-0.171,0.453-0.25,0.706-0.237c0.253-0.016,0.489,0.06,0.709,0.228c0.229,0.107,0.427,0.292,0.595,0.554
			c0.014,0.021,0.029,0.042,0.043,0.062c0.23,0.335,0.39,0.731,0.481,1.188c0.023,0.239,0.047,0.478,0.071,0.717
			c0.002,0.487-0.078,0.942-0.242,1.364c-0.095,0.183-0.189,0.366-0.284,0.548c-0.055,0.088-0.118,0.155-0.18,0.226
			c0.363,0.034,0.725,0.072,1.084,0.113c1.182,0.133,2.365,0.263,3.546,0.399c0.926,0.106,1.846,0.221,2.729,0.507
			c-1.463-13.094-1.994-26.199-1.009-39.398c0.498-6.68,1.524-13.316,1.927-20.002c-2.394,2.039-4.694,4.239-6.39,6.811
			c-1.002,1.555-1.796,3.242-2.275,5.118l-0.012,0.049l-0.021,0.015c-0.058,0.234-0.123,0.465-0.17,0.705
			c-0.218,1.107-0.267,2.391,0.415,3.237c0.369,0.458,0.909,0.725,1.251,1.208c0.844,1.194,0.095,2.894-0.549,4.231
			c-1.069,2.221-1.792,4.595-2.336,7.034c-0.018,0.008-0.037,0.015-0.055,0.023c-0.655,2.943-1.046,5.984-1.414,8.99
			c-0.673,5.505-1.372,11.14-3.699,16.066c-0.145,0.308-0.299,0.613-0.459,0.914c0.208-0.129,0.427-0.205,0.664-0.202
			C92.931,689.95,93.183,690.015,93.418,690.166z"/>
		<path fill="none" d="M69.598,712.134c-0.006,0.029-0.011,0.059-0.017,0.089c1.363-1.018,2.87-1.738,4.441-2.226
			c-0.516-0.394-0.894-0.955-1.016-1.706c-0.202-1.245,0.09-2.644,0.279-3.878c0.31-2.014,0.96-4.048,2.3-5.604
			c0.153-0.225,0.346-0.418,0.561-0.585c0.009-0.008,0.015-0.017,0.024-0.025c0.017-0.015,0.035-0.026,0.052-0.04
			c-0.665-0.098-1.33-0.187-1.998-0.228c-0.44-0.027-0.879-0.031-1.317-0.02c-0.066,0.321-0.131,0.643-0.2,0.963
			C71.752,703.313,70.543,707.693,69.598,712.134z"/>
		<path fill="none" d="M106.586,703.085c-1.356,0.228-2.709,0.311-4.068,0.367c0.233,0.242,0.451,0.505,0.649,0.799
			c0.189,0.279,0.346,0.576,0.484,0.882c1.454-0.497,2.285-0.839,2.285-0.839c0.675-0.023,1.346-0.001,2.016,0.042
			c-0.072-0.524-0.142-1.048-0.214-1.572C107.367,702.906,106.98,703.018,106.586,703.085z"/>
		<path fill="none" d="M81.943,700.906c0.678,1.046,1.2,2.223,1.536,3.422c0.331,1.183,0.554,2.539,0.128,3.728
			c-0.114,0.318-0.268,0.592-0.444,0.842c1.634-0.045,3.267-0.092,4.894-0.272c0.17-0.019,0.335-0.043,0.504-0.063
			c0.23-0.099,0.462-0.155,0.688-0.168c0.382-0.216,0.845-0.225,1.263-0.091c2.305-0.34,4.453-0.769,6.367-1.225
			c0.019-0.222,0.037-0.445,0.077-0.662c0.074-0.401,0.203-0.81,0.376-1.205c0.031-0.227,0.072-0.453,0.121-0.677
			c-0.522,0.376-1.011,0.799-1.522,1.19c-1.476,1.128-3.334,2.022-5.223,1.455c-1.858-0.558-3.191-2.399-2.667-4.356
			c0.266-0.994,0.929-1.828,1.499-2.66c0.596-0.87,1.193-1.739,1.789-2.609c0.593-0.864,1.19-1.751,1.905-2.516
			c-0.156,0.067-0.318,0.113-0.489,0.111c-0.27,0.023-0.522-0.041-0.756-0.193c-0.244-0.094-0.455-0.263-0.634-0.506
			c-0.015-0.019-0.031-0.038-0.046-0.058c-0.245-0.31-0.416-0.681-0.512-1.111c-0.01-0.092-0.02-0.184-0.031-0.276
			c-0.1-0.194-0.151-0.412-0.131-0.634c-2.452,3.456-5.94,6.029-9.861,6.218c-0.244,0.012-0.488,0.012-0.731,0.007
			C80.807,699.247,81.436,700.124,81.943,700.906z"/>
		<path fill="#BEECAF" d="M111.026,633.04c-1.091,0.89-2.211,1.795-3.313,2.733c-0.403,6.686-1.429,13.323-1.927,20.002
			c-0.985,13.199-0.454,26.304,1.009,39.398c0.152,0.049,0.306,0.092,0.456,0.153c1.744,0.709,3.115,2.296,3.036,4.264
			c-0.065,1.616-1.177,2.651-2.547,3.174c0.071,0.524,0.142,1.048,0.214,1.572c1.978,0.127,3.937,0.51,5.889,1.005
			c0.017-0.32,0.03-0.641,0.047-0.961c0.829-0.206,1.52-0.858,1.498-1.975c-0.009-0.47-0.018-0.939-0.028-1.409
			c0.515-0.356,0.864-0.918,0.815-1.652c-0.35-5.262-0.701-10.524-1.051-15.786c0.126-3.801,0.125-7.604-0.124-11.403
			c-0.131-1.995-0.343-3.991-0.572-5.988c-0.177-6.673-0.353-13.346-0.53-20.019c0.866-5.55,2.253-11.426,0.303-16.731
			C113.538,630.91,112.261,632.033,111.026,633.04z"/>
		<path fill="#BEECAF" d="M112.865,616.622c-0.816,1.107-1.621,2.241-2.395,3.421c0.73,0.476,1.426,1.022,2.039,1.678v0.001
			c0.286,0.306,0.536,0.637,0.767,0.977c-0.053-2.016-0.107-4.033-0.16-6.049C113.032,616.641,112.948,616.635,112.865,616.622z"/>
		<path fill="#BEECAF" d="M114.376,765.07c-1.142-0.866-2.328-1.665-3.544-2.41c-0.06,4.751-0.133,9.503-0.221,14.254
			c-0.075,0.529-0.14,1.059-0.234,1.589c-0.623,3.53-1.439,7.023-2.014,10.562c-0.57,3.51-0.886,7.049-0.957,10.605
			c-0.2,9.981,1.357,19.969,1.96,29.949c-0.119,4.107-0.229,8.213-0.36,12.32c-0.062,1.937-0.125,3.873-0.189,5.81
			c-0.078,2.34,3.827,2.973,4.178,0.565c0.028-0.189,0.045-0.377,0.071-0.566c0.002,0,0.003,0,0.005,0.001
			c0.001-0.018,0.001-0.036,0.002-0.055c0.762-5.595,0.791-11.174,0.512-16.751c0.298-10.124,0.573-20.249,0.8-30.375
			c0.174-7.761,0.332-15.523,0.467-23.285c0.198-1.325,0.373-2.653,0.482-3.989c0.2-2.469,0.197-4.946,0.101-7.419
			C115.077,765.605,114.724,765.334,114.376,765.07z"/>
		<path fill="#BEECAF" d="M65.346,743.751c-0.072-0.042-0.144-0.086-0.217-0.127c-0.273-0.155-0.55-0.3-0.827-0.444
			c-0.095-0.049-0.188-0.103-0.284-0.15c-0.368-0.184-0.741-0.358-1.122-0.516c-1.949-0.813-4.019-1.235-6.061-1.753
			c-0.568,1.645-1.13,3.291-1.731,4.862c1.127,12.685,2.112,25.384,3.066,38.082c2.309,30.724,3.207,61.539,2.571,92.344
			c-0.178,8.627-0.474,17.251-0.887,25.87c-0.21,4.389-0.451,8.777-0.722,13.163c-0.203,3.287-0.534,7.419,3.255,8.758
			c0.921,0.325,1.903-0.229,2.402-0.978c0.578-0.867,1.337-1.711,1.43-2.783c0.206-2.376,0.154-4.805,0.23-7.189
			c0.156-4.872,0.312-9.745,0.468-14.617c0.309-9.665,0.618-19.329,0.928-28.994c0.305-9.534,0.737-19.082,0.457-28.622
			c-0.28-9.513-1.207-18.992-1.415-28.508c-0.209-9.588-0.029-19.184,0.043-28.772c0.073-9.716,0.146-19.432,0.219-29.147
			c0.023-3.112,0.024-6.229,0.036-9.346C66.577,744.491,65.966,744.111,65.346,743.751z"/>
		<path fill="#8E8C67" d="M52.772,722.275l0.12-0.008c0.003-0.121,0.008-0.243,0.032-0.37c0.608-3.24,3.857-3.06,7.009-3.268
			c0.479-0.322,0.961-0.636,1.457-0.922c1.487-0.855,3.06-1.458,4.682-1.891c0.671-0.77,1.312-1.588,2.017-2.311
			c0.469-0.48,0.973-0.896,1.491-1.283c0.006-0.029,0.011-0.059,0.017-0.089c0.945-4.441,2.155-8.821,3.11-13.26
			c0.069-0.32,0.134-0.642,0.2-0.963c-3.313,0.079-6.568,1.163-9.751,2.272c-1.873,3.226-5.643,5.343-8.18,8.274
			c-1.263,1.459-2.257,3.195-3.223,4.947c0.078,0.633,0.156,1.267,0.232,1.901C52.265,717.626,52.513,719.951,52.772,722.275z"/>
		<path fill="#8E8C67" d="M109.332,616.758c-0.157,0.112-0.337,0.217-0.518,0.341c-0.202,0.138-0.392,0.313-0.542,0.594
			c-0.042,0.37,0.17,0.746,0.408,0.983c0.239,0.239,0.502,0.386,0.744,0.59c0.114,0.096,0.219,0.213,0.32,0.333
			c0.244,0.141,0.485,0.289,0.724,0.444c0.774-1.18,1.58-2.314,2.395-3.421c-0.32-0.05-0.636-0.121-0.94-0.233
			c-0.711-0.018-1.422-0.163-2.123-0.328C109.767,616.355,109.538,616.611,109.332,616.758z"/>
		<path fill="#8E8C67" d="M56.215,740.604c-0.546-0.146-1.085-0.317-1.625-0.484c0.171,1.846,0.335,3.692,0.499,5.539
			c0.005-0.012,0.009-0.025,0.014-0.037c0.601-1.57,1.164-3.216,1.731-4.862C56.628,740.708,56.421,740.659,56.215,740.604z"/>
		<path fill="#D5AE53" d="M-5.222,725.889c-0.824-0.917-1.618-1.914-2.352-2.966c-0.311-4.493-0.621-8.985-0.931-13.478
			c-0.668-0.254-1.459-1.163-1.962-1.693c-0.736-0.775-1.358-1.341-2.2-2.008c-0.4-0.318-0.841-0.64-1.183-1.032
			c-0.198-0.227-0.414-0.734-0.653-0.949c-1.077-0.972-2.948-0.732-4.267-1.05c-1.343-0.324-2.92-0.767-4.142-1.463
			c-0.743-0.423-1.53-0.922-2.198-1.486c-0.507-0.428-0.894-1.142-1.43-1.498c-0.594-0.395-1.327-0.066-1.992-0.207
			c-0.601-0.127-1.234-0.451-1.83-0.645c-1.229-0.401-2.435-0.342-3.715-0.337c-1.297,0.004-2.211-0.491-3.449-0.843
			c-0.944-0.269-1.928-0.158-2.868-0.427c-1.303-0.373-2.667-0.2-3.97-0.484c-1.329-0.29-2.596-0.726-3.933-1.116
			c-1.672-0.488-2.774,0.81-4.295,1.2c-0.494,0.126-1.178,0.309-1.693,0.343c-0.616,0.041-1.093-0.286-1.684-0.369
			c-1.064-0.149-2.001-0.23-3.035-0.652c-1.153-0.47-1.645-1.581-1.977-2.855c-0.262-1.005-0.572-2.039-0.698-3.083
			c-0.705-0.588-1.384-1.216-2.106-1.811c-0.995-0.82-1.962-1.987-2.657-3.126c-0.571-0.937-0.998-1.957-1.466-2.953
			c-0.953-0.241-1.914-0.444-2.849-0.763c-1.796-0.612-3.542-0.877-5.413-0.852c-1.396,0.018-2.429-1.382-3.554-2.145
			c-0.453-0.307-1.039-0.599-1.55-0.732c-0.582-0.152-1.162-0.436-1.761-0.526c-0.53-0.08-1.032-0.052-1.516,0.209
			c-0.38,0.206-0.648,0.628-1.068,0.741c-0.592,0.159-1.105-0.037-1.623-0.296c-1.619-0.808-3.422-0.89-5.104-1.452
			c-1.864-0.623-3.301-2.194-5.34-2.149c-1.72,0.038-3.465-1.183-4.676-2.498c0.249,0.972,0.498,1.944,0.747,2.915
			c1.553,6.036,3.202,12.267,6.649,17.211c0.257,0.369,0.523,0.733,0.801,1.088c0.21,0.268,0.432,0.523,0.654,0.78
			c2.179,2.521,4.881,4.483,7.836,5.713c0.859,0.672,1.717,1.345,2.576,2.015c2.384,1.86,4.795,3.736,7.502,4.941
			c0.349,0.155,0.702,0.295,1.057,0.428c0.003,0.001,0.006,0.002,0.009,0.003c2.467,0.919,5.062,1.302,7.689,1.441
			c2.102,0.111,4.224,0.069,6.319,0.019c2.095-0.05,4.189-0.1,6.284-0.15c0,0,0.001,0,0.001,0c3.42-0.082,6.84-0.163,10.26-0.245
			c0.065-0.001,0.131-0.003,0.196-0.005c1.905-0.047,3.84-0.12,5.638-0.807c1.154-0.441,2.196-1.115,3.188-1.893
			c2.426,1.986,5.467,3.364,8.208,4.869c4.136,2.271,8.004,5.244,12.079,7.614c1.526,0.888,3.08,1.694,4.69,2.343
			c1.174,2.644,2.898,5.105,4.76,7.177c1.901,2.116,3.994,4.077,5.959,6.14c0-0.001,0-0.001,0-0.002
			C-1.228,729.966-3.32,728.005-5.222,725.889z"/>
		<path fill="#D5AE53" d="M36.608,726.426c0.784-3.512,3.485-3.831,6.32-3.709c1.032-0.455,2.067-0.904,3.008-1.546
			c2.63-1.795,4.182-4.805,5.815-7.768c0.966-1.752,1.961-3.489,3.223-4.947c2.538-2.931,6.308-5.048,8.18-8.274
			c3.182-1.109,6.438-2.193,9.751-2.272c0.438-0.01,0.877-0.007,1.317,0.02c0.668,0.041,1.333,0.13,1.998,0.228
			c0,0,0.001,0,0.001-0.001c0.2-0.171,0.424-0.286,0.657-0.348c0.544-0.196,1.161-0.227,1.772-0.029
			c0.508,0.165,0.969,0.457,1.389,0.815c0.243,0.005,0.487,0.005,0.731-0.007c3.922-0.189,7.409-2.762,9.861-6.218
			c0.005-0.054,0.007-0.108,0.021-0.162c0.032-0.129,0.087-0.247,0.154-0.355c0.042-0.189,0.095-0.374,0.171-0.552
			c0.101-0.176,0.202-0.353,0.303-0.529c0.176-0.256,0.384-0.44,0.627-0.552c0.029-0.021,0.06-0.028,0.089-0.046
			c0.161-0.301,0.314-0.606,0.459-0.914c2.327-4.926,3.026-10.561,3.699-16.066c0.367-3.006,0.759-6.046,1.414-8.99
			c-0.069,0.03-0.136,0.061-0.21,0.086c-0.509,0.171-1.029,0.116-1.537,0.254c-0.627,0.17-1.223,0.598-1.768,0.961
			c-0.661,0.44-1.589,0.773-1.843,1.681c-0.261,0.931,0.174,1.945-0.635,2.718c-0.536,0.513-1.466,0.535-2.079,0.957
			c-0.561,0.386-0.557,0.569-1.226,0.698c-0.354,0.068-0.616,0.14-0.966,0.245c-0.613,0.185-1.237-0.027-1.845,0.149
			c-0.766,0.222-1.521,0.322-2.26,0.721c-0.674,0.363-1.331,0.768-2.006,1.136c-1.326,0.723-2.287,2.031-3.643,2.686
			c-1.116,0.54-2.78,0.67-3.978,0.346c-0.188-0.051-0.363-0.115-0.531-0.189c-0.52,1.17-1.1,2.307-1.832,3.318
			c-0.813,1.123-1.476,1.345-2.752,1.315c-0.992-0.024-2.166,0.148-3.12,0.41c-0.661,0.181-1.195,0.173-1.883,0.245
			c-0.936,0.098-1.917,0.513-2.834,0.731c-0.825,0.197-2.139,0.434-2.85,0.95c-0.806,0.585-0.596,1.367-0.871,2.277
			c-0.323,1.07-1.18,2.989-2.057,3.58c-1.129,0.763-2.484,0.478-3.54,1.545c-0.719,0.726-1.076,1.76-1.502,2.684
			c-0.444,0.963-1.124,2.009-1.455,3.033c-0.289,0.896-0.377,1.641-0.976,2.358c-1.149,1.375-2.945,2.264-4.654,2.026
			c-0.42-0.058-0.832-0.127-1.237-0.208c-0.223,0.397-0.473,0.757-0.753,1.196c-0.644,1.01-1.119,2.157-1.741,3.194
			c-0.529,0.882-1.209,2.19-1.985,2.813c-0.595,0.477-1.534,0.408-2.217,0.623c-1.028,0.323-2.182,0.633-2.991,1.438
			c-0.647,0.644-0.44,1.216-0.78,2.015c-0.348,0.817-1.201,1.914-1.92,2.366c-0.648,0.407-1.556,0.218-2.163,0.707
			c-0.699,0.563-0.684,1.565-1.674,1.656c-0.562,0.052-1.114-0.257-1.665-0.334c-0.488-0.069-0.966-0.01-1.454-0.02
			c-1.609-0.033-2.77-0.73-4.245-1.27c-0.933-0.341-1.748-0.609-2.593-1.134c-0.84,0.171-1.666,0.221-2.677,0.064
			c-0.798-0.124-1.597-0.243-2.396-0.361c0.399,3.249,0.564,6.505,0.474,9.75c-0.111,3.979-0.586,7.935-0.805,11.907
			c-0.203,3.679-0.187,7.371,0.049,11.064c0.003,0.052,0.008,0.104,0.012,0.156c0.188,0.214,0.381,0.423,0.595,0.613
			c1.547,1.372,3.576,1.832,5.579,1.938c0.286,0.015,0.572,0.023,0.855,0.026c1.098,0.009,2.212-0.066,3.317-0.231
			c4.789-0.714,9.42-3.109,11.923-7.571c2.363-4.212,2.695-9.873,4.919-13.937C36.701,727.266,36.506,726.885,36.608,726.426z"/>
		<path fill="#B68435" d="M99.962,657.148c0.644-1.337,1.392-3.037,0.549-4.231c-0.341-0.483-0.882-0.75-1.251-1.208
			c-0.682-0.847-0.632-2.131-0.415-3.237c0.047-0.24,0.112-0.471,0.17-0.705l-0.017,0.012c-0.156,0.116-0.34,0.243-0.551,0.282
			c-0.264,0.052-0.47-0.038-0.669-0.121c-0.087-0.037-0.175-0.073-0.271-0.1c-0.187-0.049-0.355-0.044-0.533-0.041
			c-0.111,0.002-0.223,0.005-0.344-0.004c-0.488-0.034-0.736-0.254-1.022-0.508c-0.102-0.091-0.211-0.187-0.341-0.283
			c-0.652-0.479-0.986-0.062-1.448,0.515c-0.092,0.116-0.187,0.233-0.286,0.346c-0.112,0.127-0.219,0.252-0.324,0.375
			c-0.532,0.621-1.034,1.207-1.759,1.6c-0.074,0.041-0.154,0.098-0.236,0.157c-0.243,0.175-0.519,0.376-0.807,0.279
			c-0.235-0.077-0.407-0.387-0.558-0.66c-0.07-0.125-0.135-0.244-0.191-0.309c-0.619-0.723-1.232-0.77-2.032-0.766l-0.143,0.002
			c-0.627,0.005-1.163,0.013-1.778-0.257c-0.176-0.077-0.356-0.168-0.54-0.262c-0.419-0.213-0.852-0.433-1.267-0.496
			c-0.759-0.117-7.379,1.462-7.402,1.468c-0.683,0.183-0.994,0.915-1.323,1.692c-0.248,0.586-0.506,1.192-0.942,1.577
			c-0.291,0.258-0.581,0.502-0.87,0.745c-0.481,0.406-0.979,0.825-1.46,1.291c-0.209,0.201-0.395,0.445-0.593,0.703
			c-0.398,0.517-0.808,1.054-1.413,1.234c-0.68,0.205-1.44-0.177-2.111-0.514c-0.294-0.147-0.571-0.286-0.826-0.372
			c-0.061-0.021-0.12-0.037-0.179-0.052c-0.13,0.835-0.373,1.552-0.629,2.312c-0.119,0.351-0.241,0.713-0.353,1.091
			c-0.712,2.413-2.255,3.783-3.889,5.233c-0.247,0.219-0.497,0.441-0.748,0.67c-0.161,0.147-0.313,0.29-0.461,0.428
			c-0.621,0.582-1.157,1.085-1.93,1.526c-0.313,0.178-0.605,0.358-0.892,0.534c-0.628,0.385-1.221,0.749-1.947,1.06l-0.4,0.169
			c-2.274,0.965-4.422,1.876-5.586,4.426c-0.636,1.393-1.33,2.521-2.651,3.502c-0.517,0.383-0.956,0.374-1.386,0.368
			c-0.377-0.007-0.728-0.013-1.147,0.228c-0.362,0.208-0.71,0.471-1.046,0.726c-0.418,0.316-0.85,0.643-1.328,0.881
			c-0.303,0.151-0.61,0.285-0.907,0.416c-0.54,0.237-1.05,0.462-1.556,0.779c-0.269,0.168-0.57,0.479-0.887,0.807
			c-0.686,0.709-1.459,1.516-2.269,1.221c-0.668-0.243-1.152-1.082-1.541-1.758c-0.053,0.082-0.106,0.163-0.154,0.246
			c-0.101,0.177-0.193,0.355-0.284,0.53c-0.256,0.492-0.496,0.958-0.896,1.362c-0.237,0.24-0.499,0.445-0.752,0.643
			c-0.256,0.201-0.522,0.408-0.755,0.649c-0.557,0.575-0.751,0.814-0.781,1.589c-0.01,0.259,0.013,0.549,0.038,0.855
			c0.049,0.596,0.099,1.213-0.088,1.722c-0.096,0.262-0.209,0.442-0.309,0.601c-0.156,0.248-0.28,0.445-0.297,0.875
			c-0.017,0.41-0.006,0.838,0.005,1.252c0.005,0.207,0.011,0.414,0.013,0.618c0.017,1.54-0.327,2.367-1.361,3.275
			c-0.377,0.331-0.731,0.719-1.074,1.094c-0.45,0.493-0.916,1.003-1.447,1.401c-0.084,0.063-0.172,0.132-0.264,0.203
			c-0.471,0.367-1.005,0.784-1.532,0.877c-0.31,0.057-0.646,0.017-0.969-0.018c-0.242-0.027-0.472-0.054-0.686-0.042
			c-0.741,0.035-1.475,0.486-2.185,0.92c-0.452,0.277-0.919,0.563-1.387,0.741c-0.367,0.141-0.709,0.163-1.039,0.183
			c-0.205,0.012-0.416,0.025-0.634,0.067c-0.278,0.054-0.509,0.195-0.753,0.343c-0.161,0.099-0.328,0.201-0.514,0.279
			c-0.92,0.388-2.405,0.787-3.407,0.787c-0.03,0-0.059,0-0.088-0.001c-0.895-0.023-1.64-0.684-2.361-1.324
			c-0.477-0.424-0.928-0.823-1.412-1.043c-0.332,2.127-0.805,4.243-1.32,6.35c0.764,2.956,1.326,5.932,1.693,8.913
			c0.799,0.118,1.598,0.238,2.396,0.361c1.011,0.157,1.837,0.107,2.677-0.064c0.845,0.525,1.66,0.792,2.593,1.134
			c1.475,0.539,2.636,1.237,4.245,1.27c0.488,0.01,0.966-0.049,1.454,0.02c0.551,0.077,1.102,0.386,1.665,0.334
			c0.989-0.091,0.974-1.093,1.674-1.656c0.607-0.489,1.515-0.3,2.163-0.707c0.719-0.452,1.572-1.549,1.92-2.366
			c0.34-0.798,0.133-1.371,0.78-2.015c0.809-0.805,1.962-1.115,2.991-1.438c0.683-0.214,1.622-0.146,2.217-0.623
			c0.776-0.622,1.456-1.931,1.985-2.813c0.622-1.037,1.097-2.184,1.741-3.194c0.28-0.439,0.53-0.799,0.753-1.196
			c0.406,0.081,0.818,0.149,1.237,0.208c1.709,0.238,3.505-0.652,4.654-2.026c0.6-0.717,0.687-1.462,0.976-2.358
			c0.33-1.024,1.011-2.07,1.455-3.033c0.426-0.923,0.783-1.957,1.502-2.684c1.056-1.067,2.411-0.782,3.54-1.545
			c0.876-0.592,1.734-2.51,2.057-3.58c0.275-0.91,0.064-1.692,0.871-2.277c0.711-0.516,2.025-0.753,2.85-0.95
			c0.917-0.218,1.898-0.633,2.834-0.731c0.688-0.072,1.223-0.064,1.883-0.245c0.955-0.262,2.129-0.433,3.12-0.41
			c1.275,0.03,1.939-0.192,2.752-1.315c0.732-1.011,1.312-2.148,1.832-3.318c0.168,0.074,0.343,0.138,0.531,0.189
			c1.198,0.324,2.862,0.194,3.978-0.346c1.356-0.656,2.317-1.964,3.643-2.686c0.675-0.368,1.332-0.773,2.006-1.136
			c0.739-0.398,1.493-0.498,2.26-0.721c0.609-0.176,1.232,0.035,1.845-0.149c0.35-0.105,0.612-0.177,0.966-0.245
			c0.669-0.129,0.665-0.312,1.226-0.698c0.613-0.422,1.543-0.444,2.079-0.957c0.808-0.774,0.374-1.787,0.635-2.718
			c0.255-0.907,1.183-1.241,1.843-1.681c0.545-0.363,1.141-0.791,1.768-0.961c0.508-0.138,1.027-0.083,1.537-0.254
			c0.074-0.025,0.141-0.056,0.21-0.086c0.018-0.008,0.037-0.015,0.055-0.023C98.17,661.742,98.892,659.368,99.962,657.148z"/>
		<path fill="#B68435" d="M114.45,628.298c-0.517,1.954-2.009,3.33-3.492,4.572l-0.534,0.447c-3.358,2.807-6.791,5.683-9.101,9.267
			c1.697-2.571,3.996-4.772,6.39-6.811c1.102-0.938,2.222-1.844,3.313-2.733c1.235-1.007,2.512-2.13,3.174-3.623
			c0.108-0.244,0.204-0.496,0.276-0.761c0.168-0.617,0.203-1.25,0.149-1.879C114.63,627.298,114.579,627.811,114.45,628.298z"/>
		<path fill="#8C6947" d="M112.508,621.722v-0.001c-0.613-0.656-1.309-1.202-2.039-1.678c-0.238-0.155-0.48-0.303-0.724-0.444
			c0.249,0.296,0.452,0.656,0.584,1.057c0.783,0.483,1.525,1.036,2.178,1.717c0.94,0.98,1.67,2.284,1.955,3.66
			c-0.471,0.417-1.01,0.741-1.591,0.928c-1.025,0.332-2.146,0.236-3.133-0.213c-0.383-0.027-0.765-0.098-1.145-0.188
			c-0.145,0.037-0.294,0.074-0.451,0.111c-1.859,0.446-3.082,2.134-4.924,2.642c-0.642,0.177-1.569,0.089-2.208-0.02
			c-1.025-0.175-2.073-0.42-3.125-0.586c-1.095-0.173-2,0.324-2.99,0.648c-0.845,0.277-1.271,1.07-2.07,1.527
			c-0.871,0.498-1.828,0.832-2.483,1.563c-0.497,0.555-0.792,1.216-1.365,1.717c-0.465,0.407-0.806,0.691-1.431,0.731
			c-0.725,0.046-1.387-0.241-2.097-0.295c-1.742-0.133-3.141-0.556-4.845,0.183c-0.829,0.359-1.727,0.951-2.455,1.472
			c-0.521,0.373-1.172,1.113-1.797,1.34c-0.465,0.169-1.002-0.037-1.488,0.095c-0.235,0.064-0.423,0.209-0.644,0.292
			c-0.403,0.151-0.826,0.219-1.231,0.364c-0.489,0.174-0.854,0.473-1.312,0.686c-0.664,0.309-1.126,0.616-1.72,1.026
			c-0.776,0.537-1.367,0.493-1.911,1.16c-0.476,0.583-1.12,1.072-1.479,1.738c-0.351,0.652-0.281,1.442-0.648,2.084
			c-0.613,1.072-2.204,1.482-3.365,1.918c-0.802,0.3-1.669,0.46-2.478,0.746c-0.867,0.307-1.125,0.675-1.718,1.268
			c-0.582,0.582-1.105,0.482-1.903,0.725c-0.637,0.194-0.997,0.534-1.506,0.911c-0.386,0.285-0.817,0.474-1.159,0.813
			c-0.298,0.295-0.461,0.673-0.754,0.967c-0.372,0.373-0.934,0.671-1.431,0.911c-0.901,0.437-1.31,0.427-1.843,1.232
			c-0.469,0.709-0.685,0.925-1.6,1.184c-1.351,0.382-2.777,0.94-4.035,1.509c-1.484,0.671-2.617,1.296-4.369,1.087
			c-0.76-0.091-1.716-0.135-2.408-0.447c-0.326-0.147-3.209,0.144-4.22,0.402c-1.052,0.268-2.243,0.721-3.172,1.22
			c-1.085,0.583-1.552,1.925-2.204,2.861c-1.29,1.853-3.379,2.901-5.391,3.985c-1.066,0.574-2.544,1.313-2.938,2.485
			c-0.432,1.282,0.698,2.222-0.194,3.431c-0.732,0.991-1.308,1.648-2.671,1.825c-0.49,0.064-0.898,0.048-1.379,0.194
			c-0.529,0.161-1.054,0.466-1.6,0.572c-0.534,0.104-1.055,0.011-1.598,0.116c-0.452,0.088-0.685,0.207-1.142,0.22
			c-0.113,0.003-0.21-0.003-0.303-0.011c-0.226,0.912-0.536,1.815-0.749,2.729c-1.056,4.53,0.316,9.229,0.516,13.86
			c0.099,2.3-0.095,4.583-0.449,6.854c0.483,0.22,0.935,0.619,1.412,1.043c0.721,0.64,1.466,1.301,2.361,1.324
			c0.029,0.001,0.059,0.001,0.088,0.001c1.002,0,2.487-0.399,3.407-0.787c0.185-0.078,0.352-0.181,0.514-0.279
			c0.244-0.149,0.475-0.29,0.753-0.343c0.218-0.041,0.429-0.055,0.634-0.067c0.33-0.021,0.672-0.042,1.039-0.183
			c0.468-0.179,0.935-0.465,1.387-0.741c0.71-0.435,1.445-0.885,2.185-0.92c0.214-0.011,0.443,0.015,0.686,0.042
			c0.324,0.035,0.659,0.074,0.969,0.018c0.527-0.093,1.061-0.51,1.532-0.877c0.092-0.071,0.18-0.14,0.264-0.203
			c0.532-0.398,0.997-0.908,1.447-1.401c0.342-0.375,0.696-0.763,1.074-1.094c1.034-0.908,1.378-1.735,1.361-3.275
			c-0.002-0.204-0.007-0.411-0.013-0.618c-0.011-0.414-0.022-0.842-0.005-1.252c0.018-0.43,0.141-0.627,0.297-0.875
			c0.1-0.159,0.213-0.34,0.309-0.601c0.187-0.509,0.136-1.125,0.088-1.722c-0.025-0.307-0.048-0.596-0.038-0.855
			c0.031-0.775,0.225-1.014,0.781-1.589c0.233-0.241,0.499-0.448,0.755-0.649c0.253-0.198,0.515-0.403,0.752-0.643
			c0.399-0.404,0.64-0.87,0.896-1.362c0.091-0.175,0.183-0.353,0.284-0.53c0.047-0.084,0.101-0.165,0.154-0.246
			c0.389,0.676,0.873,1.515,1.541,1.758c0.81,0.295,1.583-0.512,2.269-1.221c0.318-0.328,0.618-0.639,0.887-0.807
			c0.506-0.317,1.016-0.542,1.556-0.779c0.297-0.131,0.604-0.265,0.907-0.416c0.478-0.238,0.91-0.565,1.328-0.881
			c0.336-0.255,0.684-0.518,1.046-0.726c0.42-0.241,0.77-0.234,1.147-0.228c0.43,0.007,0.869,0.015,1.386-0.368
			c1.321-0.98,2.015-2.109,2.651-3.502c1.165-2.55,3.312-3.46,5.586-4.426l0.4-0.169c0.726-0.311,1.319-0.676,1.947-1.06
			c0.287-0.177,0.58-0.357,0.892-0.534c0.772-0.441,1.309-0.944,1.93-1.526c0.148-0.138,0.3-0.281,0.461-0.428
			c0.251-0.229,0.501-0.451,0.748-0.67c1.634-1.45,3.178-2.82,3.889-5.233c0.112-0.378,0.234-0.741,0.353-1.091
			c0.257-0.759,0.5-1.476,0.629-2.312c0.059,0.015,0.118,0.031,0.179,0.052c0.255,0.086,0.532,0.225,0.826,0.372
			c0.671,0.337,1.431,0.719,2.111,0.514c0.605-0.181,1.016-0.717,1.413-1.234c0.198-0.258,0.384-0.501,0.593-0.703
			c0.481-0.466,0.979-0.885,1.46-1.291c0.289-0.243,0.579-0.487,0.87-0.745c0.436-0.385,0.693-0.991,0.942-1.577
			c0.329-0.776,0.64-1.508,1.323-1.692c0.023-0.006,6.643-1.584,7.402-1.468c0.415,0.063,0.848,0.283,1.267,0.496
			c0.184,0.093,0.364,0.184,0.54,0.262c0.615,0.27,1.151,0.262,1.778,0.257l0.143-0.002c0.8-0.004,1.412,0.043,2.032,0.766
			c0.056,0.065,0.121,0.183,0.191,0.309c0.152,0.274,0.323,0.583,0.558,0.66c0.288,0.098,0.564-0.103,0.807-0.279
			c0.082-0.059,0.162-0.117,0.236-0.157c0.725-0.393,1.228-0.979,1.759-1.6c0.106-0.123,0.213-0.248,0.324-0.375
			c0.099-0.113,0.194-0.23,0.286-0.346c0.462-0.577,0.796-0.994,1.448-0.515c0.13,0.096,0.238,0.192,0.341,0.283
			c0.286,0.254,0.534,0.474,1.022,0.508c0.121,0.008,0.234,0.006,0.344,0.004c0.177-0.003,0.345-0.008,0.533,0.041
			c0.096,0.026,0.184,0.063,0.271,0.1c0.199,0.084,0.405,0.173,0.669,0.121c0.211-0.039,0.396-0.167,0.551-0.282l0.017-0.012
			l0.021-0.015l0.012-0.049c0.479-1.875,1.272-3.562,2.275-5.118c2.309-3.584,5.743-6.46,9.101-9.267l0.534-0.447
			c1.483-1.242,2.975-2.618,3.492-4.572c0.129-0.488,0.181-1,0.175-1.521c-0.015-1.38-0.492-2.822-1.349-4.078
			C113.044,622.359,112.795,622.028,112.508,621.722z"/>
		<path fill="#BC973A" d="M11.982,674.954c0.543-0.105,1.064-0.013,1.598-0.116c0.545-0.106,1.071-0.41,1.6-0.572
			c0.481-0.147,0.888-0.131,1.379-0.194c1.363-0.177,1.939-0.834,2.671-1.825c0.893-1.209-0.237-2.149,0.194-3.431
			c0.394-1.172,1.872-1.911,2.938-2.485c2.012-1.084,4.101-2.132,5.391-3.985c0.651-0.936,1.118-2.278,2.204-2.861
			c0.93-0.499,2.12-0.952,3.172-1.22c1.01-0.258,3.893-0.549,4.22-0.402c0.692,0.312,1.649,0.356,2.408,0.447
			c1.753,0.209,2.886-0.416,4.369-1.087c1.258-0.569,2.684-1.127,4.035-1.509c0.915-0.259,1.131-0.474,1.6-1.184
			c0.532-0.806,0.941-0.796,1.843-1.232c0.497-0.241,1.059-0.539,1.431-0.911c0.294-0.294,0.457-0.672,0.754-0.967
			c0.341-0.338,0.773-0.528,1.159-0.813c0.509-0.376,0.869-0.717,1.506-0.911c0.798-0.243,1.321-0.143,1.903-0.725
			c0.593-0.593,0.851-0.961,1.718-1.268c0.809-0.286,1.677-0.446,2.478-0.746c1.162-0.435,2.752-0.845,3.365-1.918
			c0.367-0.642,0.297-1.432,0.648-2.084c0.359-0.666,1.003-1.155,1.479-1.738c0.544-0.667,1.135-0.623,1.911-1.16
			c0.594-0.411,1.057-0.717,1.72-1.026c0.458-0.213,0.823-0.511,1.312-0.686c0.405-0.145,0.828-0.213,1.231-0.364
			c0.221-0.083,0.41-0.228,0.644-0.292c0.486-0.132,1.023,0.074,1.488-0.095c0.625-0.227,1.276-0.967,1.797-1.34
			c0.728-0.521,1.626-1.113,2.455-1.472c1.704-0.739,3.103-0.316,4.845-0.183c0.71,0.054,1.372,0.341,2.097,0.295
			c0.625-0.04,0.966-0.324,1.431-0.731c0.572-0.501,0.868-1.162,1.365-1.717c0.655-0.731,1.612-1.065,2.483-1.563
			c0.8-0.457,1.225-1.251,2.07-1.527c0.991-0.324,1.895-0.821,2.99-0.648c1.052,0.166,2.1,0.411,3.125,0.586
			c0.638,0.109,1.566,0.197,2.208,0.02c1.842-0.508,3.065-2.197,4.924-2.642c0.157-0.038,0.306-0.074,0.451-0.111
			c-0.449-0.106-0.895-0.241-1.335-0.379c-1.214-0.382-2.427-0.763-3.641-1.145c-0.414-0.13-0.838-0.262-1.267-0.229
			c-0.764,0.058-1.408,0.617-2.101,0.977c-0.956,0.498-2.105,0.591-3.081,0.181c-2.583,1.164-4.95,3.136-7.636,4.09
			c-1.919,0.681-3.955,0.824-5.943,1.196c-3.305,0.618-6.487,1.871-9.569,3.326c-2.452,1.158-4.97,2.475-7.635,2.366
			c-1.182-0.049-2.349-0.38-3.532-0.365c-1.493,0.019-2.985,0.589-4.455,0.298c-0.063-0.012-0.126-0.031-0.188-0.049
			c-2.625,0.508-5.393,0.648-7.761,1.961c-0.807,0.448-1.562,1.03-2.428,1.313c-1.721,0.562-3.562-0.14-5.355-0.045
			c-1.301,0.069-2.556,0.558-3.852,0.712c-0.963,0.114-1.941,0.026-2.88-0.236c-2.662,1.232-5.554,2.065-8.146,3.487
			c-4.196,2.302-7.527,6.109-11.302,9.172c-0.523,0.424-1.067,0.841-1.686,1.055c-0.626,0.216-1.295,0.212-1.951,0.206
			c-0.322-0.003-0.645-0.006-0.967-0.009c0.413,2.814,0.881,5.644,0.26,8.393c-0.477,2.113-1.592,4.139-1.65,6.292
			c-0.038,1.408,0.381,2.823,0.327,4.231c-0.023,0.609-0.136,1.209-0.283,1.805c0.094,0.008,0.19,0.015,0.303,0.011
			C11.296,675.161,11.529,675.042,11.982,674.954z"/>
		<path fill="#726347" d="M14.8,654.244c0.62-0.214,1.163-0.63,1.686-1.055c3.775-3.063,7.106-6.87,11.302-9.172
			c2.592-1.422,5.484-2.255,8.146-3.487c0.939,0.262,1.917,0.35,2.88,0.236c1.296-0.153,2.55-0.643,3.852-0.712
			c1.793-0.095,3.634,0.607,5.355,0.045c0.866-0.283,1.621-0.865,2.428-1.313c2.368-1.313,5.136-1.453,7.761-1.961
			c0.063,0.018,0.125,0.037,0.188,0.049c1.47,0.29,2.962-0.279,4.455-0.298c1.183-0.015,2.349,0.317,3.532,0.365
			c2.665,0.11,5.183-1.207,7.635-2.366c3.081-1.455,6.264-2.709,9.569-3.326c1.988-0.371,4.024-0.514,5.943-1.196
			c2.686-0.953,5.053-2.925,7.636-4.09c0.976,0.41,2.125,0.317,3.081-0.181c0.693-0.36,1.337-0.919,2.101-0.977
			c0.429-0.033,0.853,0.099,1.267,0.229c1.214,0.382,2.427,0.763,3.641,1.145c0.44,0.138,0.886,0.273,1.335,0.379
			c0.38,0.09,0.762,0.161,1.145,0.188c0.986,0.449,2.107,0.545,3.133,0.213c0.58-0.188,1.119-0.511,1.591-0.928
			c-0.286-1.375-1.015-2.68-1.955-3.66c-0.653-0.681-1.395-1.233-2.178-1.717c0.077,0.234,0.137,0.476,0.158,0.729
			c0.025,0.3,0.006,0.605-0.052,0.902c-0.161,0.505-0.467,1.03-1.03,1.288c-0.918,0.421-2.008,0.49-3.059,0.522
			c-0.501,0.015-1.003,0.026-1.505,0.038c-1.922,0.043-3.847,0.116-5.736,0.374c-0.225,0.031-0.45,0.064-0.676,0.093
			c-0.38,0.048-0.758,0.077-1.132,0.049c-0.622-0.048-1.239-0.27-1.621-0.713c-0.248-0.287-0.386-0.628-0.493-0.975
			c-0.183-0.596-0.284-1.229-0.343-1.869c-0.307,0.047-0.617,0.08-0.922,0.142c-0.597,0.121-1.197,0.273-1.808,0.257
			c-0.373-0.01-0.748-0.107-1.071-0.279c-0.027,0.516-0.098,1.028-0.231,1.533c-0.489,0.075-0.996,0.154-1.547,0.152
			c-3.419-0.013-6.772,0.569-10.171,0.815c-0.291,0.123-0.581,0.249-0.87,0.377c-0.012,0.489-0.045,0.977-0.098,1.464
			c-0.055,0.5-0.192,1.065-0.846,1.322c-0.366,0.144-0.825,0.159-1.264,0.171c-1.913,0.051-3.826,0.102-5.739,0.153
			c-0.432,0.065-0.867,0.112-1.309,0.112c-0.341,0.001-0.682-0.022-1.023-0.05c-0.149,0.004-0.299,0.008-0.448,0.012
			c-0.85,0.023-1.742,0.037-2.561-0.112c-1.133,0.129-2.256,0.463-3.381,0.443c-0.166,0.278-0.369,0.534-0.644,0.721
			c-0.37,0.251-0.801,0.387-1.248,0.469c-0.583,0.107-1.2,0.12-1.796,0.124c-0.764,0.006-1.529,0.013-2.294,0.029
			c0.406,1.864,0.676,3.765,0.243,5.588c-0.417,0.146-0.86,0.327-1.43,0.347c-3.16,0.111-6.276,0.605-9.441,0.759
			c-1.007,0.049-2.025,0.125-3.024,0.043c-0.919-0.076-1.522-0.649-1.839-1.261c-0.411-0.793-0.61-1.662-0.716-2.558
			c-0.234-0.03-0.468-0.069-0.699-0.118c-0.779,0.363-1.58,0.694-2.387,1.018c-0.022,0.509-0.08,1.015-0.187,1.516
			c-0.344,0.217-0.722,0.498-1.314,0.542c-1.35,0.099-2.699,0.235-4.051,0.36c-0.026,0.014-0.053,0.026-0.078,0.04
			c-1.041,0.569-2.023,1.225-2.969,1.933c0.089,0.16,0.177,0.317,0.259,0.482c0.307,0.612,0.525,1.385,0.526,2.191
			c0.001,0.28-0.025,0.562-0.075,0.84c-0.181,0.432-0.455,0.93-1.055,1.11c-0.956,0.287-2.014,0.373-3.056,0.424
			c-0.497,0.024-0.995,0.043-1.493,0.059c-0.376,0.012-0.752,0.029-1.128,0.042c-0.65,0.569-1.305,1.131-1.979,1.668
			c-0.508,0.405-1.036,0.804-1.648,1.021c-0.618,0.22-1.287,0.242-1.943,0.263c-1.58,0.049-3.16,0.098-4.74,0.147
			c-0.098,2.505,0.007,5.02,0.326,7.53c0.064,0.501,0.136,1.003,0.21,1.505c0.322,0.003,0.645,0.006,0.967,0.009
			C13.505,654.456,14.174,654.459,14.8,654.244z"/>
		<path fill="#726347" d="M-14.932,650.702c-0.381,0.036-0.759,0.051-1.128,0.016c-0.091-0.009-0.18-0.028-0.269-0.044
			c0.152,4.213,1.944,8.611,3.167,12.855c0.734,2.547,1.259,5.111,1.654,7.683c0.653,4.249,0.95,8.522,1.244,12.779
			c0.22,3.188,0.441,6.376,0.661,9.564c0.366,5.296,0.732,10.593,1.098,15.889c0.311,4.493,0.621,8.985,0.931,13.478
			c0.734,1.052,1.528,2.049,2.352,2.966c1.901,2.116,3.994,4.077,5.959,6.141c-0.482-5.241-1.085-10.483-1.69-15.718
			c-1.671-14.463-3.343-28.926-5.014-43.389c-0.713-6.173-1.435-12.382-3.619-18.424c-0.488-1.351-1.048-2.717-1.582-4.088
			c-1.035,0.05-2.066,0.116-3.09,0.222C-14.482,650.656-14.707,650.68-14.932,650.702z"/>
		<g>
			<path fill="#D5AE53" d="M161.155,719.6c0.129-0.298,0.25-0.6,0.373-0.901c-0.004,0.001-0.007,0.003-0.011,0.004
				C161.395,719.001,161.283,719.305,161.155,719.6z"/>
		</g>
		<g>
			<path fill="#D5AE53" d="M158.992,723.94c-0.355,0.627-0.73,1.242-1.113,1.851C158.262,725.182,158.636,724.567,158.992,723.94z"
				/>
		</g>
		<g>
			<path fill="#D5AE53" d="M161.152,719.607c-0.287,0.661-0.595,1.312-0.913,1.958C160.557,720.919,160.865,720.268,161.152,719.607
				z"/>
		</g>
		<g>
			<path fill="#D5AE53" d="M136.502,732.567c-4.528,0.404-8.936,2.181-12.546,5.059c-2.084,1.661-4.006,3.734-6.536,4.458
				c-0.627,0.18-1.299,0.279-1.829,0.673c-0.986,0.732-1.129,2.166-1.633,3.312c-1.426,3.243-5.752,3.891-8.979,2.701
				c-3.227-1.19-5.873-3.653-8.969-5.176c-1.169-0.575-2.483-1.021-3.741-0.713c-0.848,0.207-1.611,0.744-2.476,0.848
				c-1.753,0.209-3.222-1.371-4.944-1.77c-2.754-0.639-5.177,1.757-7.589,3.282c-1.874,1.184-4.019,1.883-6.203,2.062
				c-1.948-1.099-3.778-2.432-5.71-3.549c0.621,0.36,1.231,0.74,1.838,1.131c1.487,0.957,2.955,1.957,4.513,2.777
				c4.231,2.226,9.128,2.999,13.817,2.303c1.37,1.871,3.284,3.365,5.319,4.434c3.188,1.673,6.711,2.5,10.104,3.654
				c3.441,1.17,6.777,2.7,9.895,4.611c1.216,0.746,2.403,1.544,3.544,2.41c0.348,0.264,0.701,0.535,1.056,0.803
				c1.503,1.13,3.092,2.183,4.909,2.195c2.082,0.014,3.969-1.644,4.596-3.679c2.199-0.7,4.21-2.352,5.57-4.334
				c2.153-3.139,3.085-6.979,4.251-10.642c1.35-4.241,3.497-8.796,7.556-10.238c1.136-0.404,2.352-0.529,3.472-0.976
				c1.114-0.445,2.091-1.193,3.021-1.971c1.634-1.368,3.169-2.862,4.594-4.464c-2.973,0.534-5.989,0.806-9.005,0.796
				C141.763,732.55,139.125,732.333,136.502,732.567z"/>
		</g>
		<g>
			<path fill="#D5AE53" d="M154.783,730.123c-0.449,0.556-0.907,1.106-1.381,1.639C153.877,731.228,154.334,730.679,154.783,730.123
				z"/>
		</g>
		<g>
			<path fill="#D5AE53" d="M160.003,722.038c-0.324,0.64-0.657,1.275-1.01,1.898C159.346,723.313,159.68,722.678,160.003,722.038z"
				/>
		</g>
		<g>
			<path fill="#D5AE53" d="M157.601,726.225c-0.781,1.209-1.617,2.379-2.505,3.505C155.985,728.604,156.821,727.434,157.601,726.225
				z"/>
		</g>
		<g>
			<path fill="#D5AE53" d="M62.895,742.513c0.38,0.159,0.754,0.332,1.122,0.516C63.649,742.845,63.276,742.671,62.895,742.513z"/>
		</g>
		<g>
			<path fill="#D5AE53" d="M64.301,743.18c0.278,0.144,0.555,0.29,0.827,0.444C64.856,743.469,64.579,743.323,64.301,743.18z"/>
		</g>
		<g>
			<path fill="#B68435" d="M159.67,719.292c-1.171,0.831-2.398,1.545-3.668,2.121c-1.273,0.577-2.592,1.024-3.796,1.789
				c-1.081,0.687-2.045,1.615-3.098,2.361c-3.605,2.553-7.983,2.807-12.15,2.62c-2.673-0.12-5.341-0.396-8.005-0.727
				c-1.042,0.369-2.108,0.641-3.218,0.754c-5.468,0.554-11.038-2.853-16.3-1.208c-3.428,1.072-6.123,4.16-9.657,4.743
				c-2.149,0.354-4.318-0.273-6.44-0.773c-15.141-3.571-44.158-0.73-53.658-2.512c0.132,1.003,0.445,1.989,0.922,2.857
				c1.426,2.598,3.948,4.326,6.504,5.691c2.395,1.279,4.907,2.312,7.486,3.112c0.54,0.168,1.079,0.339,1.625,0.484
				c0.206,0.055,0.413,0.104,0.62,0.156c2.041,0.517,4.112,0.94,6.061,1.753c0.38,0.159,0.753,0.333,1.122,0.516
				c0.096,0.048,0.189,0.101,0.284,0.15c0.278,0.144,0.555,0.29,0.827,0.444c0.073,0.041,0.144,0.085,0.217,0.127
				c1.932,1.117,3.763,2.451,5.71,3.549c2.184-0.178,4.329-0.878,6.203-2.062c2.412-1.524,4.836-3.921,7.589-3.282
				c1.722,0.4,3.191,1.979,4.944,1.77c0.866-0.103,1.628-0.64,2.476-0.848c1.259-0.307,2.573,0.138,3.741,0.713
				c3.096,1.523,5.742,3.986,8.969,5.176c3.227,1.19,7.553,0.543,8.979-2.701c0.504-1.147,0.647-2.581,1.633-3.312
				c0.53-0.393,1.202-0.493,1.829-0.673c2.53-0.724,4.452-2.797,6.536-4.458c3.61-2.877,8.017-4.655,12.546-5.059
				c2.623-0.234,5.261-0.017,7.894-0.008c3.017,0.01,6.033-0.262,9.005-0.796l0,0c0,0,0.001-0.001,0.001-0.001
				c0.474-0.533,0.932-1.083,1.381-1.639c0.105-0.13,0.21-0.261,0.313-0.392c0.888-1.126,1.724-2.296,2.505-3.505
				c0.093-0.144,0.185-0.289,0.277-0.434c0.384-0.609,0.758-1.224,1.113-1.851c0.001-0.001,0.001-0.003,0.002-0.004
				c0.353-0.623,0.686-1.258,1.01-1.898c0.08-0.157,0.158-0.315,0.236-0.473c0.318-0.646,0.626-1.297,0.913-1.958
				c0.001-0.002,0.002-0.005,0.003-0.007c0.128-0.295,0.239-0.598,0.362-0.896C160.912,718.926,160.296,719.122,159.67,719.292z"/>
		</g>
		<g>
			<path fill="#B68435" d="M52.892,722.268l-0.12,0.008l-8.211,0.539c0.994,0.067,1.963,0.125,2.827,0.052
				c1.834-0.155,3.706-0.112,5.5-0.482C52.887,722.346,52.891,722.306,52.892,722.268z"/>
		</g>
		<path fill="#B3DFA4" d="M92.605,605.844C92.605,605.844,92.605,605.844,92.605,605.844c0.246-0.028,0.492-0.063,0.735-0.11
			c1.064-0.206,2.096-0.594,3.177-0.667c0.822-0.056,1.645,0.073,2.459,0.201c0.625,0.098,1.25,0.197,1.874,0.295
			c0.002-0.008,0.002-0.015,0.004-0.022c0.417-0.146,0.86-0.327,1.43-0.347c2.985-0.105,5.932-0.543,8.917-0.722
			c-0.015-0.01-0.027-0.025-0.043-0.035c-0.552-0.346-1.229-0.411-1.88-0.448c-2.808-0.156-5.633,0.081-8.382,0.672
			c-1.726-0.985-3.9-0.844-5.837-0.342c-1.02,0.264-2.022,0.615-3.03,0.925C92.297,605.379,92.513,605.568,92.605,605.844z"/>
		<path fill="#B3DFA4" d="M50.713,597.842c-0.094-0.56-0.162-1.12-0.193-1.679c-2.527,0.656-5.007,1.589-7.553,2.038
			C45.57,598.266,48.139,598.044,50.713,597.842z"/>
		<path fill="#B3DFA4" d="M116.958,614.185c-0.423,0.127-0.914,0.139-1.381,0.145c-3.253,0.042-6.474,0.327-9.718,0.47
			c-0.901,0.041-1.857,0.064-2.66-0.27c-0.201-0.084-0.376-0.188-0.538-0.302c-0.195,0.063-0.378,0.158-0.534,0.316
			c-0.042,0.164-0.004,0.326,0.068,0.476c0.385-0.059,0.771-0.113,1.161-0.141c0.837-0.06,1.674-0.017,2.507,0.029
			c0.784,0.044,1.568,0.09,2.354,0.144c0.516,0.036,1.098,0.116,1.399,0.465c0.16,0.185,0.206,0.371,0.185,0.544
			c0.7,0.165,1.412,0.31,2.123,0.328c0.304,0.112,0.62,0.183,0.94,0.233c0.083,0.013,0.167,0.019,0.251,0.027
			c0.655,0.069,1.321,0.021,1.947-0.19c1.468-0.494,2.651-1.762,3.042-3.26c0.05-0.191,0.088-0.393,0.046-0.586
			c-0.076-0.347-0.384-0.586-0.666-0.803c-0.006-0.005-0.012-0.01-0.018-0.015C117.499,612.653,117.538,613.542,116.958,614.185z"/>
		<path fill="#B3DFA4" d="M20.248,600.7c-0.028-0.259-0.048-0.5-0.061-0.725c-0.452,0.058-0.905,0.103-1.36,0.14
			c0.182,0.202,0.368,0.42,0.559,0.658C19.673,600.748,19.96,600.727,20.248,600.7z"/>
		<path fill="#B3DFA4" d="M40.854,603.751c-0.451,0.069-0.92,0.135-1.422,0.144c-0.126,0.051-0.255,0.091-0.379,0.108
			c-0.622,0.085-1.333,0.004-1.811,0.489c-0.097,0.376,0.182,0.762,0.503,0.945c0.321,0.183,0.683,0.233,1.021,0.364
			c0.776,0.302,1.4,1.076,1.537,1.96c0.018,0.11,0.004,0.222,0.006,0.334c2.608,0.146,5.289,0.671,7.415-0.725
			c0.112-0.074,0.214-0.161,0.32-0.243c-0.714,0.013-1.428,0.031-2.142,0.025c-1.055-0.008-2.058-0.176-2.773-0.706
			c-1.317-0.977-1.498-2.69-1.751-4.146c-0.231-1.328-0.58-2.68-0.111-3.892c-0.194,0.014-0.388,0.03-0.583,0.037
			C41.06,600.22,41.307,602.026,40.854,603.751z"/>
		<path fill="#B3DFA4" d="M66.819,602.168c-0.423,0.128-0.914,0.139-1.381,0.145c-0.8,0.01-1.599,0.036-2.396,0.07
			c0.559,0.051,1.118,0.101,1.678,0.155c0.513,0.05,1.102,0.154,1.359,0.549c0.373,0.572-0.198,1.101-0.672,1.262
			c-0.223,0.076-0.472,0.134-0.715,0.219c-0.27,0.095-0.525,0.236-0.726,0.51c-0.068,0.381,0.184,0.769,0.471,0.984
			c0.287,0.216,0.607,0.317,0.904,0.489c0.118,0.068,0.224,0.163,0.332,0.253c0.028-0.511,0.099-1.019,0.231-1.519
			c0.489-0.075,0.996-0.154,1.547-0.152c0.156,0.001,0.312-0.007,0.468-0.009c-0.094-0.946-0.095-1.911-0.035-2.857
			c0.036-0.582,0.093-1.162,0.18-1.737c-0.009-0.065,0.044-0.653,0.231-1.218c-0.328-0.093-0.658-0.18-0.989-0.266
			c0.004,0.175,0.007,0.349,0.012,0.522C67.349,600.488,67.446,601.472,66.819,602.168z"/>
		<path fill="#B3DFA4" d="M24.225,600.342c-0.029-0.41-0.045-0.821-0.05-1.233c-0.464,0.139-0.929,0.271-1.398,0.387
			c0.121,0.295,0.228,0.612,0.318,0.943C23.471,600.406,23.847,600.371,24.225,600.342z"/>
		<path fill="#B3DFA4" d="M7.854,602.792c1.301-0.154,2.604-0.3,3.914-0.385c0.275-0.018,0.559-0.033,0.826,0.031
			c0.817,0.194,1.098,0.976,1.216,1.631c0.425,2.365,0.52,4.759,0.281,7.125c-0.003,0.034-0.011,0.069-0.015,0.103
			c1.712,0.1,3.418,0.155,5.116,0.146c0.127-0.434,0.223-0.874,0.293-1.317c-0.097-0.027-0.197-0.046-0.29-0.083
			c-1.222-0.482-1.615-1.614-1.844-2.614c-0.338-1.477-0.592-2.98-0.536-4.458c-0.873-1.013-1.403-1.95-1.647-2.72
			c-2.546,0.008-5.109-0.094-7.646,0.063c0.148,0.756,0.212,1.545,0.305,2.284C7.835,602.661,7.845,602.727,7.854,602.792z"/>
		<path fill="#B3DFA4" d="M98.903,607.966c-0.12,0.402,0.212,0.816,0.596,0.985c0.384,0.169,0.818,0.179,1.223,0.287
			c0.013,0.003,0.024,0.009,0.037,0.013c-0.072-0.539-0.114-1.077-0.119-1.612C100.011,607.613,99.367,607.573,98.903,607.966z"/>
		<path fill="#B3DFA4" d="M25.62,610.737c-0.161-0.209-0.256-0.448-0.326-0.694c-0.721,0.047-1.442,0.089-2.164,0.131
			c0.298,0.328,0.205,0.282,0.241,0.567c0.009,0.052,0.018,0.105,0.025,0.156c0,0.109-0.028,0.21-0.082,0.304
			c-0.022,0.028-0.043,0.056-0.065,0.084c0.889-0.066,1.775-0.157,2.658-0.272C25.8,610.932,25.701,610.842,25.62,610.737z"/>
		<path fill="#B3DFA4" d="M9.943,746.591c-0.235-3.693-0.252-7.385-0.049-11.064c0.219-3.972,0.694-7.929,0.805-11.907
			c0.091-3.245-0.074-6.501-0.474-9.75c-0.366-2.981-0.929-5.957-1.693-8.913c0.515-2.107,0.988-4.223,1.32-6.35
			c0.355-2.271,0.549-4.554,0.449-6.854c-0.2-4.632-1.571-9.331-0.516-13.86c0.213-0.914,0.523-1.817,0.749-2.729
			c0.148-0.596,0.26-1.196,0.283-1.805c0.053-1.407-0.365-2.823-0.327-4.231c0.058-2.154,1.173-4.18,1.65-6.292
			c0.621-2.749,0.153-5.578-0.26-8.393c-0.074-0.502-0.146-1.004-0.21-1.505c-0.319-2.509-0.424-5.025-0.326-7.53
			c1.58-0.049,3.16-0.098,4.74-0.147c0.656-0.02,1.324-0.043,1.943-0.263c0.612-0.218,1.14-0.617,1.648-1.021
			c0.673-0.537,1.328-1.099,1.979-1.668c-1.526,0.054-3.051,0.118-4.564,0.222c-0.225,0.015-0.45,0.032-0.675,0.045
			c-0.382,0.023-0.759,0.025-1.125-0.016c-0.625-0.072-1.219-0.279-1.638-0.669c-0.279-0.26-0.473-0.566-0.627-0.89
			c-0.496-1.045-0.603-2.302-0.706-3.449c-0.052-0.562-0.111-1.125-0.13-1.682c-0.078-0.599-0.022-1.77,0.503-2.368
			c0.402-0.051,0.821-0.027,1.23-0.005c0.1,0.005,0.199,0.011,0.297,0.016c1.028,0.054,2.057,0.031,3.075-0.056
			c0.92-0.078,1.834-0.199,2.753-0.289c-0.388-1.187-0.409-2.534-0.499-3.8c-0.163,0.018-0.325,0.041-0.489,0.051
			c-0.299,0.018-0.598,0.021-0.897,0.013c-0.233-0.006-0.466-0.026-0.698-0.046c0.209,1.325,0.265,2.652-0.102,3.929
			c-0.561,0.004-1.13-0.02-1.664-0.044c-2.851-0.125-5.658,0.234-8.471,0.571c0.123,0.369,0.22,0.744,0.302,1.106
			c0.465,2.038,0.916,4.147,0.344,6.136c-0.561,0.004-1.13-0.02-1.664-0.044c-3.378-0.148-6.695,0.382-10.034,0.749
			c0.195,0.356,0.04,0.723-0.103,0.962c-0.091,0.152-0.201,0.302-0.32,0.462c-0.135,0.181-0.26,0.39-0.358,0.679
			c-0.017,0.359,0.156,0.723,0.346,0.982c0.19,0.262,0.396,0.455,0.585,0.69c0.432,0.539,0.757,1.32,0.794,2.155
			c0.013,0.29-0.01,0.583-0.064,0.871c-0.171,0.468-0.461,0.98-1.042,1.199c-0.937,0.354-2.011,0.432-3.058,0.473
			c-0.499,0.02-0.999,0.034-1.499,0.048c-0.875,0.024-1.751,0.055-2.624,0.098c0.533,1.371,1.093,2.737,1.582,4.088
			c2.184,6.042,2.906,12.251,3.619,18.424c1.671,14.463,3.343,28.926,5.014,43.389c0.605,5.235,1.208,10.477,1.69,15.718
			c0,0.001,0,0.001,0,0.002c0.883,9.594,1.356,19.185,0.659,28.727l0.213-3.122c-0.293,7.729,0.21,15.499,1.502,23.228
			c0.479,2.862,1.115,5.818,3.27,8.305c3.539-10.805,4.991-22.027,4.304-33.254c-0.187-3.056-0.531-6.112-0.73-9.168
			C9.951,746.695,9.947,746.643,9.943,746.591z"/>
		<path fill="#B3DFA4" d="M69.736,614.932c-0.467-0.042-0.921-0.127-1.336-0.306c-0.798-0.346-1.281-0.936-1.607-1.601
			c0.074,1.342-0.035,2.736-0.19,4.024c-0.079,0.65-0.18,1.315-0.389,1.931c1.104-0.043,2.204-0.123,3.303-0.214
			C69.46,617.485,69.535,616.199,69.736,614.932z"/>
		<path fill="#B3DFA4" d="M68.964,627.313c0.442-0.001,0.877-0.047,1.309-0.112c-0.777,0.021-1.555,0.042-2.332,0.062
			C68.282,627.292,68.623,627.314,68.964,627.313z"/>
		<path fill="#B3DFA4" d="M61.759,623.984c-0.143-0.497-0.282-0.999-0.397-1.501c-0.766,0.33-1.538,0.643-2.319,0.927
			c0.085,0.098,0.181,0.187,0.288,0.247c0.321,0.183,0.683,0.233,1.021,0.364c0.776,0.302,1.4,1.076,1.537,1.96
			c0.089,0.557-0.047,1.136-0.338,1.624c1.125,0.02,2.249-0.314,3.381-0.443c-0.289-0.053-0.569-0.123-0.834-0.224
			C62.557,626.355,62.08,625.095,61.759,623.984z"/>
		<path fill="#B3DFA4" d="M78.22,624.091c0.289-0.128,0.579-0.254,0.87-0.377c-0.292,0.021-0.583,0.044-0.876,0.059
			C78.214,623.879,78.223,623.985,78.22,624.091z"/>
		<path fill="#B3DFA4" d="M27.227,635.868c0.009,0.348,0.142,0.699,0.283,0.981c0.055,0.11,0.11,0.209,0.166,0.31
			c0.946-0.708,1.928-1.364,2.969-1.933c0.026-0.014,0.053-0.026,0.078-0.04c-1.135,0.105-2.272,0.199-3.415,0.26
			C27.279,635.575,27.251,635.714,27.227,635.868z"/>
		<path fill="#B3DFA4" d="M37.422,628.973c-0.548-0.004-1.079-0.055-1.565-0.173c0.28,1.319,0.475,2.654,0.418,3.968
			c0.807-0.324,1.608-0.655,2.387-1.018c0.231,0.049,0.465,0.088,0.699,0.118c-0.114-0.959-0.121-1.948-0.142-2.916
			C38.62,628.961,38.02,628.977,37.422,628.973z"/>
		<path fill="#B3DFA4" d="M-11.272,629.774c-2.594-0.275-5.233-0.537-7.798-0.059c-0.519,0.096-1.032,0.225-1.543,0.359
			c0.073,0.938,0.068,1.896,0.097,2.824c0.029,0.92,0.127,1.904-0.5,2.599c-0.423,0.127-0.914,0.139-1.381,0.145
			c-3.253,0.042-6.474,0.327-9.718,0.47c-0.901,0.041-1.857,0.064-2.66-0.27c-1.326-0.552-1.742-1.814-1.997-2.929
			c-0.168-0.734-0.32-1.475-0.426-2.216c-0.055,0.003-0.11,0.011-0.166,0.013c-0.369,0.01-0.727-0.021-1.082-0.069
			c0.447,1.969,0.699,3.977,0.336,5.92c-0.195,0.206-0.415,0.457-0.747,0.609c0.339,0.04,0.677,0.085,1.011,0.153
			c1.699,0.345,3.229,1.245,4.871,1.8c1.476,0.499,3.029,0.715,4.572,0.929c2.983,0.414,5.966,0.827,8.949,1.241
			c0.303,0.231,0.616,0.441,0.937,0.634c0.08-0.143,0.171-0.275,0.285-0.372c0.399-0.056,0.815-0.02,1.22,0.009
			c0.099,0.007,0.198,0.014,0.296,0.02c1.019,0.067,2.044,0.041,3.053-0.066c1.103-0.117,2.19-0.33,3.298-0.411
			c0.674-0.05,1.348-0.046,2.022-0.035c-0.096-0.229-0.159-0.471-0.2-0.699c-0.425-2.366-0.52-4.759-0.281-7.125
			c0.061-0.608,0.205-1.295,0.864-1.616c0.368-0.18,0.828-0.204,1.267-0.224c2.473-0.111,4.946-0.223,7.418-0.334
			c-0.071-0.592-0.12-1.185-0.15-1.779C-3.173,630.605-7.307,630.194-11.272,629.774z"/>
		<g>
			<path fill="#3B744F" d="M21.562,617.067c1.098-0.055,1.482,0.081,1.827,0.177c1.238,0.919-0.548,1.37-0.906,1.032
				c-0.28,0.418-0.454,0.331-0.521,0.372c-0.005,0.008-0.01,0.016-0.014,0.024c-0.001,0.005-0.003,0.01-0.004,0.014
				c0.004,0.006,0.007,0.013,0.011,0.018c-0.004-0.005-0.008-0.01-0.012-0.015c-0.001,0.002-0.001,0.004-0.002,0.006
				c0.003,0.009,0.004,0.019,0.008,0.028c0.031,0.049,0.072,0.093,0.088,0.151c0.002,0.018,0.005,0.036,0.007,0.055
				c0.012,0.011,0.037,0.03,0.053,0.043c1.081,0.698,1.335,1.007,1.161,1.52c-1.294,1.371-1.516,3.463-1.816,5.441
				c3.405-0.023,6.767-0.36,10.16-0.51c0.51-0.023,1.037-0.03,1.538,0.041c-0.095-0.453-0.167-0.91-0.242-1.344
				c-0.242-1.394-0.626-2.817-0.045-4.075c0.506-0.049,1.044-0.038,1.55-0.026c3.868,0.106,7.658-0.432,11.504-0.6
				c0.525-0.023,1.076-0.032,1.56,0.129c0.464,0.154,0.784,0.423,1.016,0.741c0.146,0.017,0.291,0.036,0.435,0.055
				c0.059,0.008,0.119,0.015,0.178,0.022c1.064,0.123,2.144,0.094,3.198-0.081c1.106-0.183,2.185-0.524,3.304-0.605
				c0.851-0.061,1.703,0.031,2.548,0.125c0.562,0.063,1.124,0.127,1.687,0.193c0.233,0.027,0.468,0.055,0.7,0.094
				c0.204,0.034,0.399,0.096,0.582,0.174c0.019-0.453,0.089-0.901,0.237-1.341c0.561,0.003,1.13,0.028,1.664,0.053
				c1.072,0.05,2.138,0.043,3.199,0.002c0.209-0.616,0.31-1.281,0.389-1.931c0.156-1.288,0.264-2.683,0.19-4.024
				c-0.258-0.527-0.419-1.099-0.543-1.643c-0.061-0.268-0.121-0.538-0.178-0.808c-0.133,0.141-0.279,0.271-0.458,0.369
				c-0.899,0.49-2.006,0.548-3.061,0.571c-0.503,0.011-1.007,0.018-1.51,0.028c-1.932,0.035-3.867,0.108-5.758,0.43
				c-0.225,0.038-0.45,0.08-0.676,0.117c-0.379,0.061-0.758,0.103-1.136,0.082c-0.62-0.036-1.249-0.265-1.613-0.735
				c-0.232-0.3-0.342-0.659-0.426-1.018c-0.253-1.085-0.302-2.25-0.281-3.379c-1.037,0.041-2.073,0.07-3.11,0.089
				c-0.106,0.081-0.208,0.169-0.32,0.243c-2.125,1.396-4.806,0.871-7.415,0.725c0.012,0.774-0.325,1.561-0.989,2.011
				c-0.37,0.251-0.801,0.387-1.248,0.469c-0.583,0.107-1.2,0.12-1.796,0.124c-2.425,0.018-4.873,0.003-7.243,0.483
				c-0.597,0.121-1.197,0.273-1.808,0.257c-0.473-0.013-0.955-0.152-1.318-0.428c-0.883,0.116-1.769,0.206-2.658,0.272
				c-0.01,0.013-0.02,0.026-0.03,0.038c-0.055,0.059-0.119,0.1-0.194,0.125c-0.072,0.038-0.149,0.055-0.232,0.052
				c-0.314-0.05-0.189-0.012-0.33-0.066c-0.173,0.031-0.124,0.02-0.211,0.014c-0.013,0.217-0.024,0.434-0.047,0.651
				c1.853-0.066,0.726,2.581-0.348,1.993c-0.401,0.989-0.926,1.425-1.502,1.406C21.33,616.03,21.412,616.638,21.562,617.067z"/>
		</g>
		<g>
			<path fill="#3B744F" d="M13.227,612.809c-0.368,0.18-0.828,0.204-1.267,0.224c-1.536,0.069-3.073,0.138-4.609,0.208
				c-0.071,0.182-0.162,0.328-0.278,0.397c0.634,0.695,1.439,1.375,1.865,1.256c0.469-0.132,0.768,0.274,0.744,0.648
				c-0.004,0.237-0.122,0.476-0.396,0.584c-0.208,0.127-0.422,0.236-0.636,0.344c1.077,0.633,0.665,1.718,0.598,2.063
				c-0.326,0.97-0.646,1.465-1.02,1.698c-0.899,1.987-0.233,3.042-1.871,3.249c1.655-0.075,3.311-0.149,4.967-0.224
				c1.151-0.052,2.38-0.09,3.394,0.365c1.09,0.489,1.634,1.401,1.97,2.368c2.605-1.141,4.718-2.392,1.693-5.178
				c-2.789-1.515,1.807-1.851-2.025-3.1c-2.23-0.897-0.574-2.174,0.173-1.965c0.216-0.091,0.393-0.163,0.555-0.226
				c-0.695,0.002-1.043-0.05-1.341-0.266c-0.862-1.663,2.686-1.762,3.015-2.6c0.176-0.391,0.314-0.799,0.434-1.213
				c-1.698,0.008-3.404-0.047-5.116-0.146C14.008,611.877,13.849,612.506,13.227,612.809z"/>
		</g>
		<g>
			<path fill="#3B744F" d="M4.997,623.274c-0.687,0.153-0.475,0.049-0.854,0.066c-0.036,0.09-0.079,0.168-0.124,0.245
				c0.508-0.023,1.017-0.046,1.525-0.069c-0.319-0.012-0.311-0.063-0.404-0.138C5.084,623.35,5.036,623.316,4.997,623.274z"/>
		</g>
		<g>
			<path fill="#3B744F" d="M-14.574,622.227c-0.916,0.219-1.092,0.266-1.463,0.367c0.072,0.148,0.075,0.319,0,0.48
				c0.224,0.159,0.218,0.096,0.278,0.123c0.877-0.026,0.538-0.12,0.94,0.073c0.459,0.108,0.423,0.169,0.517,0.211
				c0.269-0.198,0.183-0.139,0.279-0.178c0.986-0.172,0.571-0.175,1.029-0.142c0.184-0.053,0.387-0.017,0.54,0.099
				c1.203,0.318,0.422,1.316,0.099,1.234c-0.987,0.898-1.729-0.041-1.897-0.148c-0.077,0.079-0.17,0.137-0.273,0.169
				c-0.105,0.102-0.247,0.162-0.396,0.176c-1.495,0.556-2.144,0.468-2.658,0.534c-1.482,0.759-2.654,1.384-3.697,1.986
				c0.408,0.891,0.586,1.863,0.663,2.862c0.511-0.134,1.024-0.262,1.543-0.359c2.565-0.477,5.203-0.216,7.798,0.059
				c3.965,0.421,8.099,0.831,11.847-0.478c-0.063-1.274-0.038-2.549,0.09-3.816c0.043-0.422,0.137-0.876,0.404-1.225
				c-0.308-0.089-0.57-0.191-0.739-0.269c-3.431,0.152-7.212-0.25-4.934-2.656c-0.012-0.01-0.024-0.022-0.042-0.059
				c-1.762-0.86-1.899-2.671-1.244-3.944c-0.328,0.034-0.54,0.043-0.809-0.016c-1.164-0.329-0.739-1.287-0.502-1.271
				c0.002-0.001,0.003-0.002,0.005-0.003c0.036-0.017,0.073-0.028,0.112-0.038c0.56-0.08,0.559,0.059,0.684,0.037
				c0.783-1.486,2.289-0.737,2.449-0.378c1.124-1.453,1.415-2.06,2.199-2.652c-0.186-0.85-0.078-1.346,0.131-1.587
				c-0.269-0.524-0.442-1.095-0.577-1.651c-1.904-0.167-3.808-0.301-5.708-0.375c0.006,0.562-0.056,1.119-0.24,1.663
				c-0.561-0.003-1.13-0.028-1.664-0.053c-4.278-0.199-8.447,0.503-12.694,0.686c-0.092,0.004-0.185,0.004-0.278,0.005
				c0.704,1.101,1.358,2.053,2.125,2.852c0.604,0.123,0.567,0.273,0.771,0.39c0.703,0.149,0.608,0.375,0.787,0.496
				c0.486,0.314,0.54,0.278,0.718,0.436c0.889,0.228,0.869,0.367,1.176,0.544c1.036,0.125,1.949,0.955,2.1,1.123
				c0.174,1.023-0.509,1.45-1.401,1.613C-14.369,620.978-7.709,620.817-14.574,622.227z"/>
		</g>
		<g>
			<path fill="#3B744F" d="M58.828,622.712c-0.065,0.251,0.045,0.501,0.215,0.697c0.781-0.284,1.553-0.597,2.319-0.927
				c-0.037-0.162-0.073-0.324-0.103-0.486c-0.196,0.117-0.415,0.199-0.62,0.227C60.017,622.308,59.306,622.227,58.828,622.712z"/>
		</g>
		<g>
			<path fill="#3B744F" d="M18.02,628.521c-0.283,0.112-0.491,0.188-0.662,0.242c0.039,0.208,0.075,0.416,0.108,0.624
				c0.233,0.02,0.465,0.039,0.698,0.046C18.463,628.794,19.038,628.34,18.02,628.521z"/>
		</g>
		<path fill="#E6FFE1" d="M8.228,620.231c0.373-0.233,0.694-0.728,1.02-1.698c0.067-0.345,0.479-1.43-0.598-2.063
			c-4.156,2.087-9.507,0.722-13.297,0.739c-0.586,0.041-0.958,0.089-1.243,0.119c-0.655,1.273-0.519,3.083,1.244,3.944
			c0.017,0.037,0.029,0.049,0.042,0.059c-2.278,2.406,1.503,2.807,4.934,2.656c0.168,0.077,0.43,0.18,0.739,0.269
			c0.117-0.154,0.259-0.293,0.46-0.391c0.368-0.18,0.828-0.204,1.267-0.224c0.408-0.018,0.816-0.037,1.224-0.055
			c0.044-0.077,0.088-0.155,0.124-0.245c0.379-0.016,0.167,0.088,0.854-0.066c0.039,0.042,0.087,0.075,0.143,0.104
			c0.093,0.075,0.085,0.126,0.404,0.138c0.271-0.012,0.542-0.025,0.812-0.037C7.996,623.272,7.329,622.218,8.228,620.231z"/>
		<path fill="#E6FFE1" d="M19.852,626.042c0.451-0.101,0.957-0.103,1.437-0.105c0.051,0,0.102-0.004,0.153-0.004
			c0.301-1.978,0.523-4.07,1.816-5.441c0.175-0.513-0.079-0.822-1.161-1.52c-0.016-0.012-0.041-0.032-0.053-0.043
			c-0.002-0.018-0.005-0.036-0.007-0.055c-0.016-0.058-0.057-0.102-0.088-0.151c-0.003-0.009-0.005-0.019-0.008-0.028
			c0.001-0.002,0.001-0.004,0.002-0.006c0.004,0.005,0.008,0.01,0.012,0.015c-0.004-0.006-0.007-0.012-0.011-0.018
			c0.001-0.005,0.003-0.01,0.004-0.014c0.005-0.008,0.009-0.016,0.014-0.024c0.067-0.041,0.241,0.046,0.521-0.372
			c0.358,0.338,2.144-0.113,0.906-1.032c-0.345-0.097-0.729-0.232-1.827-0.177c-0.15-0.429-0.232-1.037-1.207-1.569
			c-0.087-0.003-0.176-0.015-0.265-0.038c-1.449,0.012-2.372,0.059-3.006,0.061c-0.162,0.064-0.339,0.135-0.555,0.226
			c-0.746-0.209-2.402,1.068-0.173,1.965c3.832,1.249-0.764,1.585,2.025,3.1c3.025,2.786,0.911,4.036-1.693,5.178
			c0.137,0.396,0.244,0.799,0.333,1.19c0.12,0.524,0.237,1.053,0.338,1.584c0.171-0.054,0.379-0.131,0.662-0.242
			c1.018-0.18,0.443,0.273,0.144,0.912c0.299,0.008,0.597,0.005,0.897-0.013c0.164-0.01,0.326-0.033,0.489-0.051
			c-0.006-0.078-0.01-0.158-0.016-0.235C19.446,628.054,19.24,626.925,19.852,626.042z"/>
		<path fill="#62B35F" d="M-6.639,606.626c0.591,0.217,1.276,0.205,1.927,0.176c0.642-0.028,1.282-0.072,1.922-0.114
			c-0.133-1.125-0.13-2.246,0.182-3.331c0.561-0.004,1.13,0.02,1.664,0.043c2.961,0.13,5.875-0.263,8.798-0.609
			c-0.009-0.065-0.018-0.131-0.027-0.196c-0.093-0.739-0.157-1.527-0.305-2.284c-0.18-0.92-0.487-1.792-1.152-2.458
			c-0.569-0.571-1.452-0.863-2.461-0.891c-1.737-0.048-3.482,0.039-5.222,0.117c-2.075,0.093-4.14,0.295-6.17,0.524
			c-0.614,0.069-0.925,0.449-1.197,0.737c-0.213,1.14-0.21,2.302-0.085,3.465c0.091,0.842,0.244,1.685,0.435,2.52
			C-8.127,605.211-7.758,606.215-6.639,606.626z"/>
		<path fill="#5DAF5F" d="M20.47,602.268c-0.103-0.585-0.172-1.099-0.222-1.568c-0.287,0.026-0.575,0.048-0.862,0.072
			C19.736,601.21,20.097,601.702,20.47,602.268z"/>
		<path fill="#5DAF5F" d="M25.212,609.722c-0.199-0.897-0.278-1.84-0.275-2.767c-0.001-0.873,0.049-1.745,0.171-2.607
			c-0.004-0.03,0.003-0.147,0.021-0.298c-0.157-0.224-0.271-0.472-0.351-0.71c-0.326-0.967-0.481-1.976-0.553-2.998
			c-0.377,0.029-0.754,0.064-1.13,0.097c0.487,1.802,0.432,4.039-1.036,5.672c0.01,0.041,0.019,0.082,0.033,0.122
			c0.025,0.05,0.053,0.099,0.084,0.145c0.031,0.035,0.064,0.069,0.099,0.1c0.052,0.035,0.107,0.067,0.163,0.095
			c0.06,0.021,0.121,0.037,0.183,0.049c0.066,0.005,0.131,0.005,0.197,0c0.041-0.009,0.082-0.017,0.122-0.03
			c0.228-0.111,0.254-0.074,0.361-0.093c0.142,0.019,0.136,0.018,0.168,0.023c0.413,0.115,0.496,0.395,0.568,0.575
			c0.22,0.822-0.661,1.192-1.1,0.987c-0.677,0.601-0.517,1.569-0.564,1.65c0.546,0.098,0.533,0.221,0.654,0.327
			c0.041,0.044,0.073,0.079,0.104,0.114c0.722-0.042,1.443-0.084,2.164-0.131C25.263,609.937,25.236,609.83,25.212,609.722z"/>
		<path fill="#5DAF5F" d="M19.225,605.218c-0.995-0.766-1.787-1.525-2.41-2.248c-0.056,1.478,0.198,2.981,0.536,4.458
			c0.229,1,0.622,2.133,1.844,2.614c0.093,0.037,0.193,0.056,0.29,0.083C19.771,608.326,19.63,606.518,19.225,605.218z"/>
		<path fill="#57AB60" d="M54.387,597.6c0.525-0.023,1.076-0.032,1.56,0.129c1.017,0.337,1.362,1.215,1.538,1.985
			c0.215,0.938,0.374,1.883,0.45,2.827c0.649-0.13,1.297-0.258,1.958-0.305c0.832-0.059,1.665,0.012,2.491,0.086
			c0.219,0.02,0.439,0.041,0.658,0.061c0.797-0.034,1.596-0.06,2.396-0.07c0.466-0.006,0.957-0.017,1.381-0.145
			c0.627-0.695,0.53-1.68,0.5-2.599c-0.006-0.173-0.009-0.348-0.012-0.522c-0.039-1.854-0.015-3.788-0.857-5.411
			c-0.317-0.611-0.92-1.185-1.839-1.261c-0.999-0.083-2.017-0.006-3.024,0.043c-3.166,0.155-6.281,0.648-9.441,0.759
			c-0.571,0.02-1.014,0.201-1.43,0.347c-0.206,0.866-0.247,1.75-0.196,2.64c0.032,0.559,0.099,1.119,0.193,1.679
			C51.935,597.746,53.158,597.654,54.387,597.6z"/>
		<path fill="#57AB60" d="M100.855,605.54c-0.002,0.008-0.002,0.015-0.004,0.022c0.142,0.022,0.283,0.044,0.425,0.067
			c0.509,0.08,1.108,0.232,1.279,0.718c0.252,0.717-0.687,1.291-1.448,1.303c-0.153,0.002-0.31-0.004-0.468-0.01
			c0.005,0.536,0.047,1.073,0.119,1.612c0.914,0.26,1.653,1.063,1.829,1.999c0.032,0.172,0.039,0.347,0.034,0.522
			c0.17,0.02,0.34,0.038,0.51,0.058c0.233,0.027,0.468,0.055,0.7,0.094c0.56,0.095,1.106,0.33,1.271,0.824
			c0.224,0.672-0.542,1.223-1.164,1.307c-0.418,0.057-0.876,0.043-1.276,0.172c0.162,0.114,0.336,0.218,0.538,0.302
			c0.803,0.334,1.759,0.311,2.66,0.27c3.244-0.144,6.466-0.429,9.718-0.47c0.466-0.006,0.957-0.017,1.381-0.145
			c0.58-0.643,0.541-1.531,0.508-2.389c-0.003-0.07-0.006-0.141-0.008-0.211c-0.064-2.008,0.052-4.158-0.869-5.934
			c-0.317-0.611-0.92-1.185-1.839-1.261c-0.999-0.083-2.017-0.006-3.024,0.043c-0.175,0.009-0.349,0.027-0.524,0.037
			c-2.985,0.179-5.932,0.617-8.917,0.722C101.715,605.213,101.272,605.394,100.855,605.54z"/>
		<path fill="#57AB60" d="M82.882,598.718c0.313,0.645-0.442,1.196-1.06,1.282c-0.291,0.041-0.608,0.051-0.912,0.098
			c-0.338,0.054-0.657,0.159-0.91,0.425c-0.094,0.391,0.198,0.792,0.533,0.984c0.336,0.193,0.712,0.248,1.064,0.388
			c0.807,0.321,1.455,1.128,1.597,2.047c0.049,0.319,0.037,0.647-0.029,0.964c-0.026,0.105-0.065,0.208-0.104,0.31
			c0.012-0.002,0.024-0.003,0.036-0.005c1.106-0.183,2.185-0.524,3.304-0.605c0.851-0.061,1.703,0.031,2.548,0.125
			c0.562,0.063,1.124,0.127,1.687,0.193c0.233,0.028,0.468,0.055,0.7,0.094c0.102,0.017,0.202,0.045,0.301,0.072
			c-0.004-0.097-0.008-0.194-0.011-0.29c-0.064-2.008,0.052-4.158-0.869-5.934c-0.317-0.611-0.92-1.185-1.839-1.261
			c-0.999-0.083-2.017-0.006-3.024,0.043c-1.565,0.076-3.118,0.236-4.67,0.391c0.113,0.014,0.227,0.028,0.34,0.042
			C82.074,598.149,82.668,598.277,82.882,598.718z"/>
		<path fill="#51A761" d="M66.672,608.633c0.037,0.309,0.022,0.626-0.041,0.933c-0.102,0.363-0.288,0.72-0.559,1.009
			c0.057,0.27,0.117,0.54,0.178,0.808c0.124,0.544,0.285,1.116,0.543,1.643c0.326,0.665,0.809,1.254,1.607,1.601
			c0.414,0.18,0.869,0.264,1.336,0.306c0.035-0.218,0.061-0.437,0.103-0.653c0,0,0.2-2.046,1.158-2.238
			c0.389-0.078,0.789,0.006,1.182,0.065c1.079,0.163,2.185,0.14,3.256-0.068c0.66-0.128,1.309-0.32,1.963-0.469
			c-0.049-0.488-0.075-0.979-0.073-1.467c-0.001-0.873,0.049-1.745,0.171-2.607c-0.006-0.042,0.009-0.235,0.047-0.486
			c-1.93,0.025-3.861,0.1-5.742,0.482c-0.225,0.046-0.451,0.096-0.677,0.14c-0.378,0.074-0.758,0.128-1.139,0.114
			c-0.619-0.023-1.26-0.26-1.604-0.757c-0.217-0.313-0.299-0.69-0.359-1.061c-0.043-0.266-0.075-0.535-0.102-0.805
			c-0.156,0.002-0.312,0.009-0.468,0.009c-0.551-0.002-1.058,0.077-1.547,0.152c-0.131,0.501-0.203,1.008-0.231,1.519
			C66.191,607.237,66.583,607.896,66.672,608.633z"/>
		<path fill="#4BA362" d="M-0.633,612.329c1.422-0.611,2.251-0.742,3.038-0.681c-0.017-2.987,1.732-0.585,1.21,0.149
			c1.339,0.305,1.965,0.566,2.537,1.027c0.031-0.066,0.03-0.065,0.036-0.079c1.198-3.286,1.602-0.628,1.164,0.495
			c1.536-0.069,3.073-0.138,4.609-0.208c0.439-0.02,0.899-0.044,1.267-0.224c0.622-0.303,0.78-0.932,0.848-1.513
			c0.004-0.034,0.012-0.069,0.015-0.103c0.239-2.366,0.144-4.759-0.281-7.125c-0.118-0.655-0.399-1.436-1.216-1.631
			c-0.267-0.063-0.551-0.049-0.826-0.031c-1.31,0.085-2.613,0.231-3.914,0.385c-2.923,0.346-5.837,0.739-8.798,0.609
			c-0.534-0.023-1.103-0.047-1.664-0.043c-0.312,1.085-0.314,2.205-0.182,3.331c0.111,0.938,0.314,1.879,0.525,2.806
			c0.021,0.09,0.044,0.183,0.067,0.275c0.135,0.556,0.308,1.127,0.577,1.651C-1.215,610.951-0.425,611.464-0.633,612.329z"/>
		<path fill="#74BF5C" d="M78.215,623.773c-0.01,0.001-0.02,0.001-0.03,0.002c-0.641,0.034-1.294,0.086-1.925,0.006
			c-0.873-0.111-1.315-0.817-1.527-1.446c-0.137-0.406-0.237-0.82-0.321-1.238c-0.378,0.062-0.754,0.131-1.127,0.219
			c-0.601,0.142-1.203,0.323-1.821,0.311c-0.617-0.011-1.271-0.254-1.596-0.779c-0.202-0.327-0.255-0.722-0.292-1.104
			c-0.031-0.325-0.044-0.651-0.059-0.978c-1.099,0.091-2.199,0.172-3.303,0.214c-1.061,0.041-2.127,0.048-3.199-0.002
			c-0.534-0.025-1.103-0.051-1.664-0.053c-0.148,0.44-0.218,0.888-0.237,1.341c0.318,0.135,0.584,0.336,0.689,0.65
			c0.15,0.45-0.146,0.842-0.544,1.08c0.031,0.162,0.066,0.324,0.103,0.486c0.115,0.503,0.254,1.004,0.397,1.501
			c0.32,1.111,0.797,2.371,2.339,2.955c0.265,0.1,0.546,0.171,0.834,0.224c0.819,0.149,1.711,0.135,2.561,0.112
			c0.149-0.004,0.299-0.008,0.448-0.012c0.777-0.021,1.555-0.042,2.332-0.062c1.913-0.051,3.826-0.102,5.739-0.153
			c0.439-0.012,0.898-0.027,1.264-0.171c0.654-0.257,0.791-0.822,0.846-1.322c0.053-0.487,0.086-0.975,0.098-1.464
			C78.223,623.985,78.214,623.879,78.215,623.773z"/>
		<path fill="#5DAF5F" d="M23.163,633.025c0.795-0.007,1.592-0.01,2.39-0.001c0.521,0.006,1.087,0.041,1.479,0.297
			c0.545,0.356,0.529,0.841,0.491,1.2c-0.02,0.194-0.065,0.386-0.123,0.583c-0.032,0.108-0.063,0.221-0.091,0.341
			c1.142-0.061,2.28-0.155,3.415-0.26c1.352-0.125,2.701-0.261,4.051-0.36c0.592-0.043,0.969-0.325,1.314-0.542
			c0.106-0.501,0.165-1.007,0.187-1.516c0.056-1.315-0.138-2.649-0.418-3.968c-0.451-0.11-0.864-0.278-1.208-0.532
			c-0.925-0.686-1.286-1.735-1.509-2.802c-0.501-0.07-1.028-0.064-1.538-0.041c-3.394,0.149-6.755,0.487-10.16,0.51
			c-0.051,0-0.102,0.004-0.153,0.004c-0.48,0.002-0.986,0.004-1.437,0.105c-0.612,0.883-0.406,2.012-0.319,3.091
			c0.006,0.077,0.011,0.157,0.016,0.235c0.09,1.266,0.111,2.613,0.499,3.8c0.192-0.019,0.383-0.044,0.576-0.059
			C21.471,633.046,22.318,633.033,23.163,633.025z"/>
		<path fill="#57AB60" d="M50.62,629.404c-0.597,0.121-1.197,0.273-1.808,0.257c-0.611-0.016-1.245-0.237-1.605-0.704
			c-0.094-0.122-0.162-0.255-0.22-0.392c-1.07,0.12-2.155,0.207-3.244,0.254c-1.507,0.064-3.016,0.11-4.524,0.132
			c0.021,0.968,0.029,1.957,0.142,2.916c0.106,0.896,0.305,1.765,0.716,2.558c0.317,0.611,0.92,1.185,1.839,1.261
			c0.999,0.083,2.017,0.006,3.024-0.043c3.166-0.155,6.281-0.648,9.441-0.759c0.571-0.02,1.014-0.201,1.43-0.347
			c0.433-1.823,0.162-3.724-0.243-5.588C53.904,628.983,52.243,629.075,50.62,629.404z"/>
		<path fill="#51A761" d="M24.777,603.34c0.08,0.238,0.194,0.487,0.351,0.71c0.065-0.565,0.308-1.754,0.975-1.988
			c0.406-0.065,0.822,0.008,1.228,0.061c0.059,0.008,0.119,0.015,0.178,0.022c1.064,0.123,2.144,0.093,3.198-0.081
			c1.106-0.183,2.185-0.524,3.304-0.605c0.851-0.061,1.703,0.031,2.548,0.125c0.562,0.063,1.124,0.127,1.687,0.193
			c0.233,0.027,0.468,0.055,0.7,0.094c0.56,0.095,1.106,0.33,1.271,0.824c0.18,0.538-0.277,0.994-0.785,1.199
			c0.502-0.009,0.972-0.075,1.422-0.144c0.453-1.725,0.206-3.531-0.17-5.306c-0.056-0.265-0.115-0.53-0.175-0.793
			c-0.281-1.23-0.72-2.623-2.15-3.243c-0.908-0.394-2.001-0.364-3.027-0.318c-3.043,0.136-6.076,0.346-9.123,0.427
			c-0.453,0.013-0.928,0.031-1.324,0.184c-0.643,0.508-0.663,1.346-0.682,2.108c-0.019,0.761-0.038,1.531-0.028,2.298
			c0.006,0.413,0.022,0.824,0.05,1.233C24.296,601.364,24.451,602.373,24.777,603.34z"/>
		<path fill="#51A761" d="M81.593,615.255c0.384,0.17,0.818,0.179,1.223,0.287c0.932,0.249,1.687,1.063,1.865,2.011
			c0.178,0.948-0.231,1.981-1.01,2.55c-0.859,0.628-2,0.664-3.064,0.668c-2.07,0.008-4.16-0.008-6.197,0.324
			c0.084,0.418,0.184,0.833,0.321,1.238c0.212,0.629,0.654,1.334,1.527,1.446c0.631,0.08,1.284,0.028,1.925-0.006
			c0.01-0.001,0.02-0.002,0.03-0.002c0.292-0.016,0.584-0.038,0.876-0.059c3.399-0.247,6.752-0.828,10.171-0.815
			c0.551,0.002,1.058-0.077,1.547-0.152c0.133-0.505,0.204-1.017,0.231-1.533c-0.205-0.109-0.394-0.243-0.534-0.424
			c-0.231-0.3-0.329-0.659-0.408-1.014c-0.199-0.898-0.278-1.84-0.275-2.767c-0.001-0.575,0.032-1.148,0.081-1.72
			c-0.177,0.023-0.355,0.039-0.535,0.036c-0.617-0.011-1.271-0.254-1.596-0.78c-0.129-0.208-0.194-0.445-0.236-0.687
			c-2.054,0.017-4.112,0.068-6.116,0.474c-0.143,0.029-0.286,0.06-0.429,0.09C80.98,614.771,81.257,615.107,81.593,615.255z"/>
		<path fill="#4BA362" d="M17.02,627.179c-0.089-0.39-0.195-0.794-0.333-1.19c-0.336-0.968-0.88-1.879-1.97-2.368
			c-1.013-0.455-2.243-0.417-3.394-0.365c-1.655,0.075-3.311,0.149-4.967,0.224c-0.271,0.012-0.542,0.024-0.812,0.037
			c-0.508,0.023-1.017,0.046-1.525,0.069c-0.408,0.018-0.816,0.037-1.224,0.055c-0.439,0.02-0.899,0.044-1.267,0.224
			c-0.201,0.098-0.342,0.237-0.46,0.391c-0.267,0.349-0.361,0.803-0.404,1.225c-0.128,1.267-0.153,2.542-0.09,3.816
			c0.029,0.593,0.079,1.187,0.15,1.779c-2.473,0.111-4.946,0.223-7.418,0.334c-0.439,0.02-0.899,0.044-1.267,0.224
			c-0.658,0.321-0.802,1.008-0.864,1.616c-0.239,2.366-0.144,4.759,0.281,7.125c0.041,0.228,0.104,0.47,0.2,0.699
			c0.167,0.003,0.335,0.003,0.502,0.007c0.79,0.018,1.58,0.04,2.372,0.072c0.518,0.021,1.093,0.078,1.439,0.381
			c0.096,0.084,0.159,0.171,0.207,0.258c3.339-0.367,6.656-0.897,10.034-0.749c0.534,0.023,1.103,0.047,1.664,0.044
			c0.572-1.989,0.121-4.098-0.344-6.136c-0.083-0.363-0.179-0.737-0.302-1.106c2.814-0.336,5.621-0.695,8.471-0.571
			c0.534,0.023,1.103,0.047,1.664,0.044c0.367-1.277,0.311-2.603,0.102-3.929c-0.033-0.208-0.068-0.416-0.108-0.624
			C17.257,628.232,17.14,627.703,17.02,627.179z"/>
		<path fill="#68B75E" d="M41.378,602.301c0.253,1.457,0.434,3.17,1.751,4.146c0.715,0.53,1.717,0.698,2.773,0.706
			c0.713,0.005,1.428-0.012,2.142-0.025c1.037-0.019,2.073-0.048,3.11-0.089c0.001-0.076,0-0.154,0.002-0.23
			c0.014-0.577,0.042-1.153,0.102-1.723c-0.031-0.24,0.111-1.935,0.896-2.29c0.394-0.067,0.802-0.008,1.201,0.037
			c0.097,0.011,0.195,0.021,0.292,0.03c1.003,0.092,2.018,0.061,3.01-0.087c0.429-0.064,0.854-0.15,1.28-0.235
			c-0.076-0.944-0.235-1.889-0.45-2.827c-0.176-0.77-0.521-1.648-1.538-1.985c-0.484-0.16-1.034-0.152-1.56-0.129
			c-1.229,0.054-2.452,0.146-3.674,0.242c-2.574,0.203-5.143,0.424-7.746,0.359c-0.028-0.001-0.056,0-0.083-0.001
			c-0.507-0.012-1.044-0.023-1.55,0.026c-0.028,0.06-0.043,0.122-0.067,0.183C40.798,599.621,41.147,600.973,41.378,602.301z"/>
		<path fill="#68B75E" d="M39.219,628.952c1.508-0.023,3.017-0.068,4.524-0.132c1.09-0.047,2.175-0.134,3.244-0.254
			c-0.084-0.201-0.142-0.411-0.189-0.622c-0.199-0.898-0.278-1.84-0.275-2.768c-0.001-0.873,0.049-1.745,0.171-2.607
			c-0.019-0.143,0.151-1.989,0.996-2.286c0.262-0.042,0.528-0.024,0.793,0.006c-0.232-0.318-0.551-0.587-1.016-0.741
			c-0.484-0.16-1.034-0.152-1.56-0.129c-3.846,0.168-7.636,0.706-11.504,0.6c-0.507-0.012-1.044-0.023-1.55,0.026
			c-0.581,1.258-0.198,2.68,0.045,4.075c0.075,0.434,0.148,0.891,0.242,1.344c0.223,1.068,0.584,2.117,1.509,2.802
			c0.344,0.255,0.757,0.423,1.208,0.532c0.486,0.119,1.017,0.17,1.565,0.173C38.02,628.977,38.62,628.961,39.219,628.952z"/>
		<path fill="#8FC774" d="M24.276,642.206c1.042-0.051,2.1-0.137,3.056-0.424c0.599-0.18,0.874-0.678,1.055-1.11
			c0.05-0.278,0.076-0.56,0.075-0.84c-0.002-0.806-0.219-1.579-0.526-2.191c-0.082-0.164-0.17-0.321-0.259-0.482
			c-0.056-0.1-0.111-0.2-0.166-0.31c-0.141-0.282-0.274-0.633-0.283-0.981c0.024-0.154,0.052-0.293,0.082-0.423
			c0.028-0.12,0.059-0.234,0.091-0.341c0.059-0.197,0.103-0.39,0.123-0.583c0.038-0.359,0.054-0.844-0.491-1.2
			c-0.392-0.256-0.959-0.291-1.479-0.297c-0.798-0.009-1.594-0.007-2.39,0.001c-0.846,0.008-1.692,0.022-2.539,0.085
			c-0.193,0.014-0.384,0.04-0.576,0.059c-0.919,0.09-1.832,0.21-2.753,0.289c-1.018,0.086-2.047,0.11-3.075,0.056
			c-0.098-0.005-0.198-0.01-0.297-0.016c-0.409-0.022-0.828-0.046-1.23,0.005c-0.525,0.598-0.581,1.769-0.503,2.368
			c0.019,0.557,0.079,1.12,0.13,1.682c0.103,1.147,0.21,2.404,0.706,3.449c0.154,0.324,0.347,0.63,0.627,0.89
			c0.419,0.389,1.013,0.597,1.638,0.669c0.366,0.041,0.743,0.039,1.125,0.016c0.225-0.014,0.45-0.03,0.675-0.045
			c1.513-0.105,3.038-0.168,4.564-0.222c0.376-0.013,0.752-0.03,1.128-0.042C23.28,642.249,23.779,642.23,24.276,642.206z"/>
		<path fill="#B5D78A" d="M102.63,615.489c0.321,0.183,0.683,0.233,1.021,0.365c0.775,0.302,1.4,1.076,1.537,1.96
			c0.139,0.873-0.224,1.83-0.983,2.346c-0.37,0.252-0.801,0.387-1.248,0.469c-0.583,0.107-1.2,0.12-1.796,0.124
			c-2.113,0.015-4.24,0.026-6.321,0.341c0.059,0.64,0.16,1.273,0.343,1.869c0.107,0.347,0.245,0.689,0.493,0.975
			c0.383,0.443,0.999,0.665,1.621,0.713c0.374,0.028,0.752-0.001,1.132-0.049c0.226-0.029,0.451-0.062,0.676-0.093
			c1.889-0.257,3.814-0.33,5.736-0.374c0.502-0.011,1.004-0.023,1.505-0.038c1.051-0.032,2.141-0.1,3.059-0.522
			c0.562-0.258,0.868-0.784,1.03-1.288c0.058-0.297,0.077-0.603,0.052-0.902c-0.021-0.253-0.081-0.495-0.158-0.729
			c-0.132-0.401-0.335-0.761-0.584-1.057c-0.102-0.12-0.206-0.237-0.32-0.333c-0.243-0.204-0.506-0.351-0.744-0.59
			c-0.238-0.237-0.451-0.613-0.408-0.983c0.149-0.281,0.339-0.457,0.542-0.594c0.181-0.123,0.361-0.228,0.518-0.341
			c0.205-0.147,0.435-0.403,0.47-0.698c0.02-0.173-0.026-0.359-0.185-0.544c-0.301-0.349-0.883-0.429-1.399-0.465
			c-0.785-0.054-1.57-0.1-2.354-0.144c-0.833-0.046-1.67-0.09-2.507-0.029c-0.39,0.028-0.776,0.082-1.161,0.141
			C102.29,615.215,102.449,615.385,102.63,615.489z"/>
		<path fill="#DCE7A0" d="M67.886,602.266c-0.061,0.947-0.059,1.912,0.035,2.857c0.027,0.27,0.058,0.539,0.102,0.805
			c0.06,0.371,0.142,0.748,0.359,1.061c0.344,0.498,0.985,0.734,1.604,0.757c0.382,0.014,0.761-0.041,1.139-0.114
			c0.226-0.044,0.452-0.095,0.677-0.14c1.881-0.382,3.812-0.457,5.742-0.482c0.094-0.609,0.35-1.59,0.949-1.8
			c0.406-0.065,0.822,0.008,1.228,0.061c0.059,0.008,0.119,0.015,0.178,0.022c1.052,0.121,2.12,0.093,3.162-0.076
			c0.039-0.102,0.078-0.205,0.104-0.31c0.066-0.317,0.079-0.645,0.029-0.964c-0.143-0.92-0.791-1.726-1.597-2.047
			c-0.351-0.14-0.728-0.195-1.064-0.388c-0.335-0.192-0.627-0.593-0.533-0.984c0.253-0.266,0.573-0.371,0.91-0.425
			c0.305-0.047,0.621-0.057,0.912-0.098c0.618-0.087,1.373-0.638,1.06-1.282c-0.213-0.44-0.808-0.568-1.319-0.633
			c-0.113-0.014-0.227-0.028-0.34-0.042c-0.659-0.083-1.318-0.166-1.977-0.247c-0.821-0.101-1.648-0.201-2.475-0.144
			c-1.088,0.075-2.134,0.419-3.207,0.603c-0.984,0.169-1.994,0.202-2.989,0.097c-0.097-0.01-0.193-0.022-0.29-0.034
			c-0.396-0.052-0.8-0.124-1.191-0.051c-0.395,0.124-0.641,0.577-0.796,1.046c-0.187,0.565-0.24,1.152-0.231,1.218
			C67.979,601.104,67.922,601.684,67.886,602.266z"/>
		<path fill="#D1DA9C" d="M101.577,613.8c-0.859,0.628-2,0.664-3.064,0.668c-2.454,0.009-4.936-0.021-7.324,0.544
			c-0.426,0.101-0.853,0.218-1.286,0.275c-0.05,0.571-0.082,1.145-0.081,1.72c-0.002,0.927,0.076,1.87,0.275,2.767
			c0.079,0.355,0.177,0.715,0.408,1.014c0.14,0.181,0.329,0.315,0.534,0.424c0.323,0.172,0.697,0.269,1.071,0.279
			c0.611,0.016,1.212-0.136,1.808-0.257c0.305-0.062,0.615-0.095,0.922-0.142c2.081-0.315,4.208-0.326,6.321-0.341
			c0.596-0.004,1.213-0.017,1.796-0.124c0.447-0.081,0.878-0.217,1.248-0.469c0.759-0.515,1.122-1.472,0.983-2.346
			c-0.138-0.884-0.762-1.658-1.537-1.96c-0.338-0.132-0.7-0.182-1.021-0.365c-0.182-0.103-0.341-0.274-0.435-0.469
			c-0.073-0.15-0.11-0.312-0.068-0.476c0.156-0.159,0.339-0.253,0.534-0.316c0.401-0.13,0.858-0.115,1.276-0.172
			c0.622-0.084,1.388-0.634,1.164-1.307c-0.165-0.494-0.711-0.729-1.271-0.824c-0.232-0.039-0.467-0.067-0.7-0.094
			c-0.17-0.02-0.34-0.039-0.51-0.058C102.598,612.558,102.214,613.335,101.577,613.8z"/>
		<path fill="#D1DA9C" d="M61.889,625.982c-0.138-0.884-0.762-1.658-1.537-1.96c-0.338-0.132-0.699-0.181-1.021-0.364
			c-0.107-0.061-0.203-0.149-0.288-0.247c-0.171-0.196-0.28-0.446-0.215-0.697c0.478-0.485,1.189-0.404,1.811-0.489
			c0.205-0.028,0.424-0.11,0.62-0.227c0.398-0.237,0.694-0.629,0.544-1.08c-0.105-0.314-0.37-0.515-0.689-0.65
			c-0.183-0.078-0.378-0.139-0.582-0.174c-0.232-0.039-0.467-0.067-0.7-0.094c-0.562-0.066-1.125-0.13-1.687-0.193
			c-0.845-0.094-1.697-0.186-2.548-0.125c-1.119,0.08-2.198,0.422-3.304,0.605c-1.053,0.174-2.134,0.204-3.198,0.081
			c-0.059-0.007-0.119-0.014-0.178-0.022c-0.144-0.019-0.289-0.038-0.435-0.055c-0.265-0.031-0.531-0.048-0.793-0.006
			c-0.845,0.297-1.014,2.143-0.996,2.286c-0.122,0.862-0.172,1.734-0.171,2.607c-0.002,0.927,0.076,1.87,0.275,2.768
			c0.047,0.211,0.104,0.422,0.189,0.622c0.058,0.137,0.126,0.27,0.22,0.392c0.36,0.466,0.994,0.688,1.605,0.704
			c0.611,0.016,1.212-0.136,1.808-0.257c1.623-0.329,3.284-0.42,4.948-0.454c0.765-0.016,1.531-0.023,2.294-0.029
			c0.596-0.004,1.213-0.017,1.796-0.124c0.447-0.081,0.878-0.217,1.248-0.469c0.275-0.187,0.478-0.443,0.644-0.721
			C61.843,627.117,61.978,626.538,61.889,625.982z"/>
		<path fill="#D1DA9C" d="M24.936,606.955c-0.002,0.927,0.076,1.87,0.275,2.767c0.024,0.107,0.051,0.214,0.082,0.321
			c0.07,0.246,0.165,0.485,0.326,0.694c0.081,0.105,0.181,0.195,0.287,0.276c0.363,0.277,0.845,0.416,1.318,0.428
			c0.611,0.016,1.212-0.136,1.808-0.257c2.37-0.481,4.818-0.466,7.243-0.483c0.596-0.004,1.213-0.017,1.796-0.124
			c0.447-0.082,0.878-0.217,1.248-0.469c0.663-0.45,1.001-1.237,0.989-2.011c-0.002-0.112,0.012-0.224-0.006-0.334
			c-0.138-0.884-0.762-1.658-1.537-1.96c-0.338-0.132-0.699-0.181-1.021-0.364c-0.321-0.183-0.6-0.568-0.503-0.945
			c0.478-0.485,1.189-0.404,1.811-0.489c0.124-0.017,0.253-0.057,0.379-0.108c0.508-0.205,0.964-0.661,0.785-1.199
			c-0.165-0.494-0.711-0.729-1.271-0.824c-0.232-0.039-0.467-0.067-0.7-0.094c-0.562-0.066-1.125-0.13-1.687-0.193
			c-0.845-0.094-1.697-0.186-2.548-0.125c-1.119,0.08-2.198,0.422-3.304,0.605c-1.053,0.174-2.134,0.204-3.198,0.081
			c-0.059-0.007-0.119-0.014-0.178-0.022c-0.406-0.053-0.822-0.126-1.228-0.061c-0.667,0.234-0.91,1.423-0.975,1.988
			c-0.017,0.151-0.025,0.268-0.021,0.298C24.986,605.21,24.935,606.082,24.936,606.955z"/>
		<path fill="#D1DA9C" d="M90.634,604.926c-0.562-0.066-1.125-0.13-1.687-0.193c-0.845-0.094-1.697-0.186-2.548-0.125
			c-1.119,0.08-2.198,0.422-3.304,0.605c-0.012,0.002-0.024,0.003-0.036,0.005c-1.042,0.169-2.11,0.198-3.162,0.076
			c-0.059-0.007-0.119-0.014-0.178-0.022c-0.406-0.053-0.822-0.126-1.228-0.061c-0.599,0.21-0.855,1.191-0.949,1.8
			c-0.039,0.251-0.053,0.444-0.047,0.486c-0.122,0.862-0.172,1.734-0.171,2.607c-0.001,0.488,0.024,0.979,0.073,1.467
			c0.401-0.091,0.803-0.17,1.214-0.198c0.822-0.056,1.645,0.073,2.459,0.201c0.766,0.12,1.533,0.241,2.299,0.361
			c0.509,0.08,1.108,0.232,1.279,0.717c0.252,0.717-0.687,1.291-1.447,1.303c-0.76,0.012-1.624-0.175-2.204,0.316
			c-0.015,0.05-0.004,0.1-0.006,0.15c0.143-0.03,0.287-0.061,0.429-0.09c2.003-0.406,4.062-0.457,6.116-0.474
			c-0.024-0.138-0.043-0.278-0.056-0.417c-0.176-1.822-0.087-3.669,0.263-5.466c0,0,0.2-2.045,1.158-2.237
			c0.389-0.078,0.789,0.006,1.182,0.065c0.833,0.126,1.683,0.138,2.52,0.042c0,0,0,0,0,0c-0.092-0.276-0.308-0.464-0.573-0.6
			c-0.123-0.063-0.256-0.113-0.397-0.152c-0.099-0.027-0.199-0.055-0.301-0.072C91.102,604.981,90.867,604.953,90.634,604.926z"/>
		<path fill="#EFEFAB" d="M87.773,614.544c0.325,0.525,0.978,0.768,1.596,0.78c0.18,0.003,0.358-0.013,0.535-0.036
			c0.432-0.057,0.859-0.174,1.286-0.275c2.388-0.565,4.87-0.535,7.324-0.544c1.064-0.004,2.205-0.04,3.064-0.668
			c0.637-0.466,1.02-1.242,1.044-2.028c0.005-0.175-0.001-0.35-0.034-0.522c-0.175-0.935-0.914-1.738-1.829-1.999
			c-0.013-0.004-0.024-0.009-0.037-0.013c-0.406-0.108-0.839-0.118-1.223-0.287c-0.384-0.17-0.716-0.583-0.596-0.985
			c0.464-0.393,1.108-0.353,1.736-0.326c0.158,0.007,0.315,0.013,0.468,0.01c0.76-0.012,1.699-0.586,1.448-1.303
			c-0.171-0.486-0.77-0.638-1.279-0.718c-0.142-0.022-0.283-0.044-0.425-0.067c-0.625-0.098-1.25-0.197-1.874-0.295
			c-0.814-0.128-1.637-0.256-2.459-0.201c-1.081,0.073-2.114,0.461-3.177,0.667c-0.243,0.047-0.489,0.082-0.735,0.11
			c-0.837,0.096-1.687,0.084-2.52-0.042c-0.392-0.059-0.793-0.143-1.182-0.065c-0.958,0.192-1.158,2.237-1.158,2.237
			c-0.35,1.797-0.439,3.644-0.263,5.466c0.013,0.139,0.032,0.278,0.056,0.417C87.579,614.099,87.644,614.336,87.773,614.544z"/>
		<path fill="#EFEFAB" d="M72.179,612.106c-0.392-0.059-0.793-0.143-1.182-0.065c-0.958,0.192-1.158,2.238-1.158,2.238
			c-0.042,0.216-0.068,0.435-0.103,0.653c-0.201,1.267-0.276,2.553-0.219,3.835c0.015,0.326,0.027,0.653,0.059,0.978
			c0.037,0.382,0.09,0.777,0.292,1.104c0.325,0.525,0.978,0.768,1.596,0.779c0.617,0.011,1.22-0.169,1.821-0.311
			c0.373-0.088,0.75-0.158,1.127-0.219c2.037-0.333,4.127-0.317,6.197-0.324c1.064-0.004,2.205-0.04,3.064-0.668
			c0.778-0.569,1.188-1.603,1.01-2.55c-0.178-0.948-0.933-1.763-1.865-2.011c-0.406-0.108-0.839-0.118-1.223-0.287
			c-0.336-0.148-0.613-0.484-0.601-0.835c0.002-0.05-0.009-0.1,0.006-0.15c0.58-0.492,1.444-0.304,2.204-0.316
			c0.76-0.012,1.699-0.586,1.447-1.303c-0.171-0.486-0.77-0.638-1.279-0.717c-0.766-0.12-1.533-0.241-2.299-0.361
			c-0.814-0.128-1.637-0.257-2.459-0.201c-0.41,0.028-0.813,0.107-1.214,0.198c-0.655,0.149-1.304,0.341-1.963,0.469
			C74.364,612.246,73.258,612.269,72.179,612.106z"/>
		<path fill="#C8DF95" d="M51.435,610.418c0.084,0.359,0.194,0.718,0.426,1.018c0.364,0.47,0.992,0.699,1.613,0.735
			c0.378,0.021,0.757-0.021,1.136-0.082c0.226-0.037,0.451-0.078,0.676-0.117c1.891-0.321,3.826-0.395,5.758-0.43
			c0.504-0.009,1.008-0.017,1.51-0.028c1.055-0.023,2.162-0.081,3.061-0.571c0.179-0.097,0.325-0.227,0.458-0.369
			c0.271-0.289,0.457-0.645,0.559-1.009c0.062-0.307,0.078-0.624,0.041-0.933c-0.089-0.737-0.481-1.396-0.998-1.83
			c-0.108-0.091-0.214-0.185-0.332-0.253c-0.297-0.172-0.617-0.273-0.904-0.489c-0.287-0.215-0.539-0.603-0.471-0.984
			c0.201-0.274,0.456-0.415,0.726-0.51c0.243-0.086,0.492-0.143,0.715-0.219c0.473-0.161,1.044-0.69,0.672-1.262
			c-0.257-0.395-0.846-0.499-1.359-0.549c-0.56-0.054-1.119-0.105-1.678-0.155c-0.219-0.02-0.439-0.041-0.658-0.061
			c-0.827-0.073-1.659-0.145-2.491-0.086c-0.661,0.047-1.309,0.175-1.958,0.305c-0.425,0.085-0.851,0.171-1.28,0.235
			c-0.993,0.148-2.007,0.18-3.01,0.087c-0.097-0.009-0.194-0.019-0.292-0.03c-0.399-0.044-0.807-0.104-1.201-0.037
			c-0.785,0.355-0.927,2.05-0.896,2.29c-0.06,0.57-0.087,1.146-0.102,1.723c-0.002,0.076-0.001,0.154-0.002,0.23
			C51.132,608.168,51.182,609.333,51.435,610.418z"/>
		<g>
			<path fill="#B3DFA4" d="M166.328,713.25c-2.337-2.793-6.232-3.415-9.787-3.58c-0.947-0.044-1.894-0.062-2.842-0.071
				c3.133,0.697,6.229,1.64,9.255,2.851c0.563,0.226,1.194,0.54,1.388,1.223c0.244,0.855-0.339,1.708-0.896,2.307
				c-1.165,1.253-2.433,2.36-3.776,3.313c0.626-0.17,1.242-0.366,1.847-0.589c0.004-0.001,0.007-0.003,0.011-0.004
				c1.572-0.581,3.07-1.354,4.458-2.414c0.439-0.335,0.888-0.741,0.993-1.296C167.099,714.356,166.735,713.736,166.328,713.25z"/>
		</g>
		<g>
			<path fill="#B3DFA4" d="M59.933,718.629c1.721-0.113,3.414-0.34,4.631-1.307c0.546-0.435,1.034-0.96,1.509-1.506
				c-1.623,0.434-3.195,1.036-4.682,1.891C60.894,717.993,60.412,718.307,59.933,718.629z"/>
		</g>
		<g>
			<path fill="#B3DFA4" d="M93.336,730.972c2.122,0.5,4.291,1.128,6.44,0.773c3.535-0.583,6.23-3.672,9.657-4.743
				c5.262-1.645,10.832,1.762,16.3,1.208c1.109-0.112,2.176-0.385,3.218-0.754c-7.462-0.925-14.904-2.287-22.388-1.928
				c-3.841,0.184-7.678,0.823-11.517,0.566c-2.949-0.197-5.867-0.922-8.82-0.995c-3.576-0.09-7.117,0.776-10.681,1.151
				c-7.423,0.782-22.502,0.665-22.657-3.866c-1.795,0.37-3.666,0.326-5.5,0.482c-0.864,0.073-1.834,0.016-2.827-0.052
				c-0.541-0.037-1.088-0.073-1.632-0.096c-2.835-0.122-5.537,0.197-6.32,3.709c-0.102,0.459,0.092,0.84,0.534,1.158
				c0.518,0.373,1.382,0.659,2.536,0.875C49.178,730.242,78.195,727.401,93.336,730.972z"/>
		</g>
		<g>
			<path fill="#6CC15B" d="M105.936,704.294c0,0-0.831,0.342-2.285,0.839c0.016,0.036,0.036,0.07,0.051,0.106
				c0.402,0.802,0.629,1.672,0.675,2.559c0.032,0.217,0.061,0.433,0.086,0.647c0.15,1.299-0.068,2.701-0.962,3.698
				c2.601-1.24,6.675-2.394,10.806-3.345c-0.111-0.072-0.215-0.153-0.312-0.243c-0.952-0.893-0.885-2.254-0.06-3.188
				c-0.031-0.008-0.063-0.017-0.094-0.025c-1.952-0.495-3.911-0.878-5.889-1.005C107.283,704.293,106.611,704.271,105.936,704.294z"
				/>
		</g>
		<g>
			<path fill="#6CC15B" d="M156.381,711.834c1.059,0.562,2.183,1.307,2.448,2.477c0.253,1.118-0.407,2.285-1.329,2.966
				c-0.922,0.681-2.065,0.978-3.178,1.255c-4.273,1.065-8.821,2.198-11.854,5.392c-0.634,0.668-1.203,1.427-1.996,1.896
				c-2.158,1.276-4.836-0.052-7.169-0.972c-4.255-1.678-8.925-1.935-13.348-3.101c-2.681-0.707-5.262-1.746-7.834-2.782
				c-3.794-1.528-12.529-0.714-11.383-4.585c0.106-0.359,0.391-0.717,0.82-1.071c-0.164,0.021-0.328,0.016-0.489-0.016
				c-0.567,0.011-1.139-0.127-1.658-0.458c-1.901-1.21-2.716-3.579-2.532-5.756c-1.914,0.456-4.062,0.885-6.367,1.225
				c0.231,0.074,0.453,0.18,0.63,0.348c0.784,0.742,1.479,1.562,2.113,2.435c0.594,0.817,1.168,1.712,1.513,2.666
				c0.385,1.066,0.178,2.327-0.717,3.075c-0.662,0.553-1.43,0.739-2.242,0.852c0.011,0.646-0.069,1.293-0.25,1.905
				c-0.103,0.347-0.245,0.688-0.399,1.015c-0.284,0.603-0.852,0.969-1.524,0.982c-0.81,0.015-1.518-0.428-1.941-1.107
				c-0.497-0.798-0.558-1.787-0.525-2.73c-0.417-0.08-0.828-0.193-1.227-0.353c-0.595-0.238-1.139-0.485-1.542-1.007
				c-0.441-0.571-0.539-1.264-0.355-1.958c0.213-0.802,0.604-1.606,0.995-2.336c0.783-1.458,1.954-2.827,3.488-3.517
				c0.01-0.005,0.02-0.006,0.031-0.011c-0.169,0.02-0.333,0.044-0.504,0.063c-1.627,0.18-3.26,0.227-4.894,0.272
				c-0.676,0.961-1.762,1.442-2.995,1.587c-0.006,0.001-0.012,0.001-0.018,0.002c0.013,0.513-0.023,1.028-0.134,1.544
				c-0.259,1.205-1.001,2.324-2.068,2.955c-0.484,0.286-1.106,0.284-1.59,0c-0.525-0.307-0.708-0.789-0.78-1.36
				c-0.123-0.979-0.102-1.986,0.049-2.973c-0.598-0.091-1.154-0.31-1.605-0.654c-1.571,0.488-3.078,1.208-4.441,2.226
				c-0.518,0.387-1.022,0.802-1.491,1.283c-0.705,0.723-1.346,1.541-2.017,2.311c-0.475,0.545-0.962,1.071-1.509,1.506
				c-1.217,0.967-2.909,1.194-4.631,1.307c-3.152,0.208-6.401,0.028-7.009,3.268c-0.024,0.127-0.03,0.249-0.032,0.37
				c-0.001,0.039-0.005,0.079-0.003,0.117c0.155,4.531,15.234,4.648,22.657,3.866c3.564-0.375,7.105-1.24,10.681-1.151
				c2.953,0.074,5.871,0.798,8.82,0.995c3.839,0.257,7.675-0.382,11.517-0.566c7.484-0.359,14.926,1.003,22.388,1.928
				c2.665,0.33,5.332,0.606,8.005,0.727c4.167,0.187,8.545-0.067,12.15-2.62c1.054-0.746,2.018-1.674,3.098-2.361
				c1.204-0.765,2.523-1.212,3.796-1.789c1.27-0.576,2.497-1.29,3.668-2.121c1.343-0.953,2.612-2.06,3.776-3.313
				c0.557-0.599,1.14-1.452,0.896-2.307c-0.195-0.682-0.825-0.997-1.388-1.223c-3.026-1.211-6.122-2.154-9.255-2.851
				c-1.917-0.426-3.847-0.756-5.786-0.987C150.846,709.392,153.699,710.412,156.381,711.834z"/>
		</g>
		<path fill="#57AE61" d="M127.439,709.885c-0.753,1.294-2.252,1.014-3.475,0.831c-0.133-0.02-0.265-0.043-0.398-0.063
			c0.153,0.543,0.264,1.084,0.342,1.588c0.303,1.968,0.286,4.133-0.463,6.007c-0.395,0.987-1.017,1.899-1.98,2.409
			c-0.999,0.529-2.188,0.597-3.199,0.056c-2.044-1.094-2.065-3.533-1.916-5.542c0.14-1.885,0.383-3.763,0.708-5.625
			c-0.892-0.153-1.976-0.243-2.75-0.748c-4.131,0.951-8.205,2.105-10.806,3.345c-0.055,0.061-0.103,0.126-0.163,0.184
			c-0.33,0.318-0.714,0.556-1.122,0.722c-0.035,0.022-0.067,0.048-0.103,0.069c-0.183,0.106-0.37,0.165-0.556,0.189
			c-0.429,0.354-0.714,0.712-0.82,1.071c-1.146,3.871,7.589,3.057,11.383,4.585c2.572,1.036,5.153,2.075,7.834,2.782
			c4.423,1.166,9.093,1.423,13.348,3.101c2.333,0.92,5.01,2.248,7.169,0.972c0.793-0.469,1.362-1.228,1.996-1.896
			c3.033-3.193,7.581-4.326,11.854-5.392c1.113-0.277,2.255-0.574,3.178-1.255c0.922-0.681,1.582-1.848,1.329-2.966
			c-0.265-1.169-1.388-1.915-2.448-2.477c-2.682-1.422-5.535-2.442-8.468-3.222c-2.936-0.781-5.951-1.314-8.967-1.73
			c0.254,0.674,0.476,1.358,0.658,2.053c0.141,0.536,0.002,1.144-0.405,1.533c-1.019,0.972-2.501,0.674-3.387-0.32
			c-0.598-0.671-1.014-1.542-1.381-2.355c-0.211-0.469-0.397-0.942-0.566-1.418c-0.588,0.678-1.111,1.402-1.938,1.818
			c-0.742,0.374-1.678,0.493-2.402-0.002c-0.613-0.418-0.958-1.06-0.988-1.799c-0.002-0.039,0.003-0.079,0.003-0.118
			c-0.186,0.016-0.371,0.026-0.557,0.046c-0.399,0.043-0.941,0.113-1.59,0.206c0.028,0.026,0.055,0.053,0.083,0.08
			C127.383,707.462,128.169,708.63,127.439,709.885z"/>
		<path fill="#FFFFFF" d="M129.525,708.19c0.724,0.495,1.66,0.375,2.402,0.002c0.827-0.416,1.35-1.139,1.938-1.818
			c0.168,0.476,0.354,0.949,0.566,1.418c0.367,0.813,0.783,1.684,1.381,2.355c0.887,0.994,2.368,1.293,3.387,0.32
			c0.407-0.389,0.546-0.997,0.405-1.533c-0.182-0.695-0.405-1.379-0.658-2.053c-0.276-0.734-0.59-1.454-0.939-2.156
			c0.175-0.087,0.35-0.178,0.513-0.291c0.981-0.679,1.669-1.713,1.655-2.942c-0.029-2.604-2.729-4.543-4.871-5.501
			c-0.689-0.308-1.565-0.247-2.035,0.388c-0.407,0.088-0.776,0.326-0.99,0.723c-1.087,2.014-2.042,4.095-2.878,6.225
			c-0.361,0.921-0.862,1.934-0.862,2.945c0,0.039-0.004,0.079-0.003,0.118C128.567,707.13,128.912,707.772,129.525,708.19z"/>
		<path fill="#FFFFFF" d="M76.146,698.223c-0.215,0.167-0.409,0.36-0.561,0.585c-1.339,1.556-1.99,3.59-2.3,5.604
			c-0.19,1.234-0.482,2.634-0.279,3.878c0.122,0.751,0.499,1.312,1.016,1.706c0.451,0.345,1.007,0.564,1.605,0.654
			c-0.151,0.987-0.173,1.995-0.049,2.973c0.072,0.571,0.255,1.053,0.78,1.36c0.485,0.284,1.106,0.286,1.59,0
			c1.067-0.631,1.809-1.749,2.068-2.955c0.111-0.516,0.147-1.03,0.134-1.544c0.006-0.001,0.012-0.001,0.018-0.002
			c1.233-0.145,2.32-0.626,2.995-1.587c0.175-0.25,0.33-0.524,0.444-0.842c0.426-1.189,0.203-2.545-0.128-3.728
			c-0.336-1.2-0.858-2.377-1.536-3.422c-0.507-0.782-1.135-1.659-1.901-2.31c-0.421-0.358-0.881-0.65-1.389-0.815
			c-0.611-0.198-1.228-0.167-1.772,0.029c-0.234,0.062-0.457,0.177-0.657,0.348c0,0-0.001,0-0.001,0.001
			c-0.017,0.014-0.035,0.025-0.052,0.04C76.162,698.206,76.155,698.215,76.146,698.223z"/>
		<path fill="#FFFFFF" d="M89.249,708.394c-0.227,0.014-0.459,0.069-0.688,0.168c-0.01,0.004-0.02,0.006-0.031,0.011
			c-1.534,0.69-2.705,2.059-3.488,3.517c-0.392,0.73-0.783,1.533-0.995,2.336c-0.184,0.694-0.086,1.387,0.355,1.958
			c0.403,0.522,0.946,0.768,1.542,1.007c0.399,0.16,0.81,0.272,1.227,0.353c-0.033,0.943,0.028,1.932,0.525,2.73
			c0.423,0.679,1.131,1.122,1.941,1.107c0.672-0.013,1.24-0.378,1.524-0.982c0.153-0.326,0.296-0.668,0.399-1.015
			c0.181-0.612,0.262-1.259,0.25-1.905c0.812-0.113,1.58-0.299,2.242-0.852c0.895-0.747,1.102-2.009,0.717-3.075
			c-0.345-0.954-0.918-1.85-1.513-2.666c-0.635-0.872-1.33-1.693-2.113-2.435c-0.177-0.168-0.399-0.274-0.63-0.348
			C90.094,708.169,89.631,708.178,89.249,708.394z"/>
		<path fill="#FFFFFF" d="M104.065,694.667c-1.182-0.136-2.364-0.266-3.546-0.399c-0.359-0.04-0.722-0.078-1.084-0.113
			c-0.124,0.142-0.256,0.263-0.407,0.336c-0.218,0.171-0.453,0.25-0.706,0.237c-0.253,0.016-0.489-0.06-0.709-0.228
			c-0.181-0.085-0.337-0.232-0.48-0.414c-0.018,0.001-0.036,0-0.054,0.001c-0.434-0.569-1.203-0.898-2.017-0.479
			c-0.289,0.148-0.552,0.325-0.806,0.513c-0.043,0.076-0.087,0.151-0.13,0.227c-0.176,0.256-0.384,0.44-0.627,0.552
			c-0.085,0.061-0.174,0.099-0.264,0.137c-0.715,0.764-1.312,1.651-1.905,2.516c-0.596,0.87-1.192,1.739-1.789,2.609
			c-0.571,0.832-1.234,1.667-1.499,2.66c-0.524,1.957,0.809,3.798,2.667,4.356c1.889,0.567,3.747-0.327,5.223-1.455
			c0.511-0.391,1-0.814,1.522-1.19c-0.049,0.224-0.089,0.45-0.121,0.677c-0.172,0.395-0.302,0.804-0.376,1.205
			c-0.04,0.217-0.058,0.44-0.077,0.662c-0.185,2.177,0.631,4.546,2.532,5.756c0.519,0.331,1.091,0.469,1.658,0.458
			c0.161,0.032,0.324,0.037,0.489,0.016c0.186-0.024,0.373-0.083,0.556-0.189c0.036-0.021,0.068-0.048,0.103-0.069
			c0.407-0.166,0.792-0.404,1.122-0.722c0.06-0.058,0.108-0.123,0.163-0.184c0.894-0.997,1.112-2.399,0.962-3.698
			c-0.025-0.214-0.054-0.43-0.086-0.647c-0.046-0.887-0.273-1.756-0.675-2.559c-0.016-0.036-0.035-0.07-0.051-0.106
			c-0.139-0.306-0.296-0.603-0.484-0.882c-0.198-0.294-0.417-0.557-0.649-0.799c1.359-0.057,2.713-0.139,4.068-0.367
			c0.394-0.066,0.781-0.178,1.153-0.32c1.369-0.523,2.482-1.558,2.547-3.174c0.079-1.968-1.291-3.555-3.036-4.264
			c-0.15-0.061-0.303-0.104-0.456-0.153C105.911,694.888,104.991,694.773,104.065,694.667z"/>
		<path fill="#FFFFFF" d="M113.995,708.554c0.097,0.091,0.201,0.171,0.312,0.243c0.775,0.506,1.858,0.595,2.75,0.748
			c-0.324,1.862-0.568,3.74-0.708,5.625c-0.149,2.008-0.129,4.448,1.916,5.542c1.01,0.541,2.2,0.472,3.199-0.056
			c0.963-0.51,1.585-1.422,1.98-2.409c0.75-1.874,0.766-4.039,0.463-6.007c-0.078-0.504-0.189-1.045-0.342-1.588
			c0.133,0.02,0.265,0.044,0.398,0.063c1.223,0.183,2.722,0.463,3.475-0.831c0.731-1.255-0.056-2.423-0.962-3.281
			c-0.028-0.026-0.055-0.053-0.083-0.08c-1.795-1.703-3.538-3.517-5.56-4.954c-0.694-0.493-1.753-0.123-2.155,0.565
			c-0.087,0.148-0.137,0.299-0.171,0.45c-0.559,0.274-1.113,0.557-1.658,0.858c-0.928,0.512-2.022,1.024-2.786,1.772
			c-0.048,0.047-0.084,0.101-0.128,0.15C113.111,706.3,113.043,707.661,113.995,708.554z"/>
		<path fill="#737373" d="M97.611,694.501c0.22,0.168,0.457,0.243,0.709,0.228c0.253,0.012,0.488-0.067,0.706-0.237
			c0.151-0.074,0.284-0.194,0.407-0.336c0.062-0.071,0.125-0.138,0.18-0.226c0.095-0.183,0.189-0.366,0.284-0.548
			c0.163-0.422,0.244-0.877,0.242-1.364c-0.024-0.239-0.047-0.478-0.071-0.717c-0.09-0.457-0.251-0.853-0.481-1.188
			c-0.014-0.021-0.029-0.042-0.043-0.062c-0.168-0.262-0.367-0.447-0.595-0.554c-0.22-0.167-0.457-0.243-0.709-0.228
			c-0.253-0.012-0.489,0.067-0.706,0.237c-0.227,0.11-0.423,0.298-0.587,0.562c-0.095,0.183-0.189,0.366-0.284,0.548
			c-0.081,0.21-0.142,0.429-0.182,0.656c0.032-0.054,0.053-0.119,0.093-0.165c0.193-0.225,0.43-0.317,0.677-0.261
			c0.23,0.052,0.445,0.243,0.577,0.519c0.131,0.273,0.161,0.634,0.101,0.949c-0.012,0.064-0.031,0.123-0.051,0.182
			c-0.013,0.237-0.081,0.465-0.215,0.621c-0.196,0.228-0.451,0.342-0.704,0.288c-0.127-0.027-0.238-0.114-0.328-0.233
			c0.089,0.259,0.197,0.504,0.341,0.715c0.014,0.021,0.029,0.042,0.043,0.062c0.035,0.055,0.077,0.092,0.115,0.14
			C97.274,694.269,97.43,694.416,97.611,694.501z"/>
		<path fill="#737373" d="M91.788,691.318c0.269,0.022,0.517,0.161,0.682,0.409c0.158,0.238,0.208,0.551,0.184,0.833
			c-0.05,0.582-0.383,1.203-0.945,1.268c-0.252,0.029-0.514-0.071-0.687-0.296c-0.09-0.117-0.149-0.257-0.188-0.403
			c-0.026-0.039-0.046-0.083-0.068-0.125c0.01,0.092,0.02,0.184,0.031,0.276c0.096,0.43,0.267,0.8,0.512,1.111
			c0.015,0.019,0.031,0.039,0.046,0.058c0.179,0.243,0.39,0.412,0.634,0.506c0.235,0.152,0.487,0.216,0.756,0.193
			c0.172,0.002,0.333-0.043,0.489-0.111c0.09-0.039,0.179-0.076,0.264-0.137c0.242-0.112,0.451-0.296,0.627-0.552
			c0.043-0.076,0.087-0.151,0.13-0.227c0.058-0.101,0.115-0.201,0.173-0.302c0.174-0.406,0.26-0.839,0.258-1.301
			c-0.025-0.226-0.05-0.452-0.075-0.678c-0.096-0.43-0.267-0.8-0.512-1.111c-0.015-0.019-0.031-0.039-0.046-0.058
			c-0.179-0.243-0.39-0.412-0.634-0.506c-0.235-0.152-0.487-0.216-0.756-0.193c-0.237-0.003-0.456,0.072-0.664,0.202
			c-0.029,0.018-0.06,0.026-0.089,0.046c-0.242,0.112-0.451,0.296-0.627,0.552c-0.101,0.176-0.202,0.353-0.303,0.529
			c-0.076,0.178-0.129,0.364-0.171,0.552C91.023,691.507,91.393,691.285,91.788,691.318z"/>
		<path fill="#FFFFFF" d="M90.766,693.004c0.022,0.042,0.041,0.086,0.068,0.125c0.039,0.146,0.098,0.285,0.188,0.403
			c0.173,0.225,0.434,0.325,0.687,0.296c0.562-0.064,0.895-0.686,0.945-1.268c0.024-0.282-0.026-0.595-0.184-0.833
			c-0.165-0.248-0.413-0.386-0.682-0.409c-0.394-0.033-0.764,0.189-0.979,0.536c-0.067,0.108-0.121,0.226-0.154,0.355
			c-0.013,0.054-0.016,0.108-0.021,0.162C90.615,692.592,90.665,692.811,90.766,693.004z"/>
		<path fill="#FFFFFF" d="M96.959,693.402c0.253,0.054,0.508-0.059,0.704-0.288c0.134-0.157,0.203-0.384,0.215-0.621
			c0.019-0.059,0.038-0.118,0.051-0.182c0.06-0.315,0.03-0.675-0.101-0.949c-0.132-0.276-0.346-0.467-0.577-0.519
			c-0.247-0.056-0.485,0.037-0.677,0.261c-0.039,0.046-0.06,0.111-0.093,0.165c-0.284,0.47-0.316,1.2,0.009,1.646
			c0.036,0.097,0.086,0.18,0.142,0.253C96.722,693.289,96.832,693.375,96.959,693.402z"/>
		<path fill="#FFFFFF" d="M8.65,616.469c0.215-0.108,0.429-0.217,0.636-0.344c0.273-0.109,0.392-0.347,0.396-0.584
			c0.024-0.374-0.275-0.78-0.744-0.648c-0.426,0.119-1.231-0.562-1.865-1.256c0.116-0.069,0.207-0.215,0.278-0.397
			c0.438-1.123,0.034-3.781-1.164-0.495c-0.006,0.014-0.005,0.013-0.036,0.079c-0.572-0.461-1.198-0.722-2.537-1.027
			c0.522-0.734-1.227-3.135-1.21-0.149c-0.787-0.061-1.616,0.07-3.038,0.681c0.209-0.865-0.582-1.378-0.988-0.91
			c-0.208,0.241-0.317,0.736-0.131,1.587c-0.784,0.592-1.075,1.199-2.199,2.652c-0.16-0.359-1.666-1.109-2.449,0.378
			c-0.125,0.022-0.124-0.117-0.684-0.037c-0.039,0.01-0.076,0.021-0.112,0.038c-0.002,0.001-0.003,0.002-0.005,0.003
			c-0.237-0.016-0.663,0.943,0.502,1.271c0.269,0.059,0.481,0.05,0.809,0.016c0.285-0.03,0.657-0.078,1.243-0.119
			C-0.857,617.191,4.495,618.556,8.65,616.469z"/>
		<path fill="#FFFFFF" d="M16.815,602.97c0.623,0.723,1.415,1.482,2.41,2.248c0.405,1.3,0.546,3.109,0.26,4.907
			c-0.071,0.443-0.167,0.883-0.293,1.317c-0.121,0.413-0.258,0.821-0.434,1.213c-0.329,0.837-3.877,0.936-3.015,2.6
			c0.298,0.215,0.646,0.268,1.341,0.266c0.634-0.002,1.557-0.049,3.006-0.061c0.089,0.024,0.178,0.036,0.265,0.038
			c0.576,0.019,1.1-0.417,1.502-1.406c1.074,0.588,2.201-2.059,0.348-1.993c0.023-0.217,0.035-0.434,0.047-0.651
			c0.088,0.006,0.038,0.017,0.211-0.014c0.14,0.054,0.016,0.016,0.33,0.066c0.083,0.003,0.16-0.014,0.232-0.052
			c0.075-0.024,0.139-0.066,0.194-0.125c0.01-0.013,0.02-0.026,0.03-0.038c0.022-0.028,0.043-0.056,0.065-0.084
			c0.055-0.094,0.082-0.195,0.082-0.304c-0.006-0.051-0.016-0.103-0.025-0.156c-0.037-0.285,0.057-0.239-0.241-0.567
			c-0.032-0.035-0.063-0.07-0.104-0.114c-0.121-0.107-0.108-0.229-0.654-0.327c0.048-0.082-0.113-1.049,0.564-1.65
			c0.439,0.206,1.319-0.165,1.1-0.987c-0.072-0.18-0.156-0.461-0.568-0.575c-0.031-0.004-0.026-0.003-0.168-0.023
			c-0.107,0.019-0.133-0.018-0.361,0.093c-0.04,0.013-0.081,0.021-0.122,0.03c-0.066,0.005-0.131,0.005-0.197,0
			c-0.062-0.012-0.123-0.028-0.183-0.049c-0.056-0.028-0.111-0.059-0.163-0.095c-0.035-0.031-0.068-0.065-0.099-0.1
			c-0.031-0.047-0.059-0.095-0.084-0.145c-0.014-0.04-0.023-0.081-0.033-0.122c1.469-1.633,1.523-3.87,1.036-5.672
			c-0.089-0.331-0.197-0.648-0.318-0.943c-0.982-2.405-2.814-3.397-2.59,0.479c0.013,0.225,0.033,0.466,0.061,0.725
			c0.05,0.469,0.119,0.982,0.222,1.568c-0.373-0.566-0.734-1.058-1.084-1.495c-0.191-0.238-0.377-0.456-0.559-0.658
			c-2.652-2.937-4.375-2.123-3.659,0.135C15.412,601.02,15.942,601.956,16.815,602.97z"/>
	</g>
</g>
<g id="参考">
</g>
</svg>
