<?xml version="1.0" encoding="utf-8"?>
<!-- Generator: Adobe Illustrator 24.0.3, SVG Export Plug-In . SVG Version: 6.00 Build 0)  -->
<svg version="1.1" xmlns="http://www.w3.org/2000/svg" xmlns:xlink="http://www.w3.org/1999/xlink" x="0px" y="0px"
	 viewBox="0 0 834 1194" enable-background="new 0 0 834 1194" xml:space="preserve">
<g id="レイヤー1">
	<g>
		<path fill="#D87B3C" d="M65.203,148.441c-0.024-0.054-0.047-0.109-0.07-0.164C65.157,148.332,65.18,148.387,65.203,148.441z"/>
		<path fill="#D87B3C" d="M132.837,115.277c0.096,1.052,0.133,2.109,0.107,3.165C132.97,117.386,132.935,116.329,132.837,115.277z"
			/>
		<path fill="#D87B3C" d="M132.354,112.101c0.098,0.459,0.183,0.92,0.257,1.383C132.537,113.021,132.453,112.56,132.354,112.101z"/>
		<path fill="#D87B3C" d="M132.642,113.676c0.076,0.5,0.139,1.001,0.187,1.505C132.781,114.677,132.719,114.176,132.642,113.676z"/>
		<path fill="#D87B3C" d="M121.176,128.452c-2.614,2.805-4.578,6.272-7.7,8.498c-3.383,2.412-7.964,3.046-11.875,1.646
			c-2.964-1.062-5.831-3.241-8.915-2.603c-2.501,0.518-4.225,2.738-6.329,4.185c-4.373,3.007-10.933,3.026-13.728,7.537
			c-1.249,2.016-1.423,4.541-2.589,6.606c-0.402,0.713-0.915,1.338-1.502,1.885c-0.823-1.79-1.582-3.624-2.35-5.451
			c2.193,5.228,4.315,10.504,8.088,14.673c1.984,2.192,4.502,4.063,7.418,4.553c3.103,0.522,6.24-0.567,9.115-1.844
			c2.214-0.983,4.428-2.131,6.041-3.938c1.768-1.981,2.656-4.574,3.502-7.091c0.194-0.577,0.388-1.154,0.581-1.731
			c0.115-0.02,0.23-0.042,0.343-0.065c1.783-0.36,3.565-0.72,5.348-1.08c3.609-0.729,7.596-1.701,9.627-4.772
			c1.761-2.663,1.514-6.125,2.233-9.236c1.012-4.379,4.15-8.214,8.241-10.074c1.362-0.619,2.879-1.072,3.873-2.19
			c0.679-0.763,1.034-1.757,1.317-2.738c0.632-2.193,0.972-4.467,1.029-6.749c-0.028,1.075-0.118,2.149-0.273,3.213
			C128.307,122.813,124.251,125.153,121.176,128.452z"/>
		<path fill="#D87B3C" d="M132.329,111.977c-0.059-0.269-0.124-0.537-0.192-0.804c-0.003,0-0.006,0-0.009,0
			C132.196,111.441,132.27,111.707,132.329,111.977z"/>
		<path fill="#AE402F" d="M130.836,111.136c-1.448-0.061-2.896-0.138-4.342-0.225c-11.491,1.522-23.144,1.785-34.74,2.29
			c-12.063,0.525-24.613,1.238-35.74-3.436c-1.185,0.363-2.217,0.998-2.484,2.152c-0.233,1.007,0.247,2.025,0.67,2.968
			c1.656,3.702,2.594,7.723,2.747,11.775c0.167,4.425-0.463,9.32,2.204,12.855c0.853,1.13,1.989,1.981,3.26,2.595
			c0.389,1.239,0.991,2.414,1.553,3.591c0.405,0.849,0.792,1.709,1.17,2.576c0.024,0.054,0.047,0.109,0.07,0.164
			c0.333,0.768,0.66,1.54,0.984,2.314c0.767,1.828,1.527,3.661,2.35,5.451c0.587-0.547,1.1-1.172,1.502-1.885
			c1.166-2.065,1.34-4.59,2.589-6.606c2.795-4.511,9.355-4.53,13.728-7.537c2.105-1.447,3.828-3.667,6.329-4.185
			c3.083-0.638,5.95,1.541,8.915,2.603c3.912,1.401,8.492,0.766,11.875-1.646c3.122-2.225,5.086-5.693,7.7-8.498
			c3.075-3.299,7.131-5.639,11.495-6.764c0.155-1.064,0.245-2.138,0.273-3.213c0-0.011,0.001-0.022,0.001-0.033
			c0.026-1.056-0.011-2.113-0.107-3.165c-0.003-0.032-0.005-0.064-0.008-0.096c-0.048-0.503-0.111-1.005-0.187-1.505
			c-0.01-0.064-0.021-0.128-0.031-0.192c-0.074-0.463-0.159-0.924-0.257-1.383c-0.009-0.042-0.016-0.083-0.025-0.125
			c-0.059-0.27-0.133-0.536-0.2-0.804C131.697,111.169,131.265,111.154,130.836,111.136z"/>
		<path fill="#DCE3C7" d="M136.794,106.596c-0.419-0.463-0.958-0.786-1.534-1.036c0.111,0.958-0.167,1.942-0.966,2.56
			c-0.104,0.08-0.211,0.148-0.318,0.21c-0.129,0.205-0.298,0.383-0.508,0.502c-2.132,1.208-5.244,1.352-6.695-0.957
			c-0.646-1.028-0.771-2.287-0.632-3.51c-0.043-0.002-0.085-0.004-0.128-0.006c-0.025,0.571-0.148,1.146-0.444,1.731
			c-1.258,2.479-4.127,3.977-6.747,4.515c-2.999,0.615-6.236,0.453-9.259,0.087c-2.742-0.332-5.966-0.997-7.791-3.273
			c-0.184-0.229-0.336-0.465-0.473-0.702c-0.286,1.429-0.981,3.212-1.425,3.402c-0.749,0.321-1.424,0.428-2.228,0.245
			c-0.587-0.134-1.152-0.436-1.653-0.764c-0.39-0.256-0.788-0.534-1.155-0.845c-0.868,0.99-2.054,1.714-3.338,2.067
			c-0.649,0.178-1.307,0.256-1.965,0.267c-0.197,0.096-0.428,0.154-0.698,0.151c-2.393-0.026-4.959-0.111-7.129-1.207
			c-0.903,0.2-1.865,0.178-2.851,0.181c-1.913,0.006-3.819,0.199-5.73,0.235c-0.692,0.013-1.392-0.004-2.091-0.05
			c-3.548,0.254-7.723-0.352-8.025-2.758c-0.017-0.132-0.018-0.265-0.03-0.397c-0.31-0.305-0.596-0.626-0.853-0.966
			c-0.785,0.154-1.57,0.31-2.351,0.488c-1.7,0.388-3.733,1.225-3.857,2.964c0.032,0.013,0.064,0.024,0.096,0.038
			c11.127,4.674,23.678,3.962,35.74,3.436c11.596-0.505,23.249-0.768,34.74-2.29c1.447,0.087,2.894,0.164,4.342,0.225
			c0.429,0.018,0.861,0.033,1.293,0.037c0.003,0,0.006,0,0.009,0c1.215,0.009,2.429-0.082,3.552-0.522
			c0.653-0.256,1.289-0.655,1.615-1.275C137.771,108.487,137.466,107.34,136.794,106.596z"/>
		<path fill="#3B744F" d="M101.396,105.264c0.069,0.332,0.018,0.862-0.099,1.452c0.137,0.238,0.289,0.473,0.473,0.702
			c1.826,2.276,5.05,2.941,7.791,3.273c3.023,0.366,6.26,0.529,9.259-0.087c2.62-0.538,5.49-2.035,6.747-4.515
			c0.296-0.584,0.419-1.159,0.444-1.731c0.051-1.16-0.336-2.306-0.733-3.486c-0.544-1.619-1.147-3.218-1.806-4.794
			c-0.659-1.578-1.37-3.13-2.132-4.658c-0.526-2.646-0.405-5.631-2.652-7.544c-2.421-2.061-5.854-1.178-8.226,0.507
			c-4.825,3.426-6.236,9.352-8.506,14.483c-0.562,1.271-1.09,2.64-1.29,4.003C100.979,103.652,101.229,104.456,101.396,105.264z
			 M112.679,98.522c2.002,0,1.998,3.106,0,3.106C110.677,101.628,110.681,98.522,112.679,98.522z M105.718,106.809
			c-2.002,0-1.998-3.106,0-3.106C107.719,103.703,107.716,106.809,105.718,106.809z"/>
		<path fill="#3B744F" d="M87.178,98.95c0.978,0.365,1.184,1.66,0.624,2.427c0.211,1.348,0.168,2.712-0.316,4.03
			c-0.856,2.331-2.888,4.416-5.44,4.551c-0.111,0.033-0.227,0.048-0.34,0.073c2.17,1.096,4.736,1.181,7.129,1.207
			c0.27,0.003,0.501-0.055,0.698-0.151c0.658-0.011,1.316-0.088,1.965-0.267c1.283-0.352,2.469-1.076,3.338-2.067
			c-0.489-0.414-0.924-0.888-1.205-1.462c-0.913-1.866-0.366-4.238,0.346-6.09c0.255-0.662,0.538-1.323,0.985-1.836
			c-0.03-0.081-0.06-0.162-0.089-0.243c-0.886-2.398-1.798-4.789-2.846-7.122c-0.333-0.742-0.679-1.566-1.089-2.361
			c0.306,0.909-0.164,2.114-1.409,2.114c-2.002,0-1.998-3.106,0-3.106c0.52,0,0.902,0.212,1.152,0.523
			c-0.62-1.104-1.385-2.11-2.458-2.694c-2.241-1.22-4.574-0.023-5.957,1.845c1.287,2.659,2.59,5.312,3.83,7.993
			C86.482,97.152,86.864,98.038,87.178,98.95z"/>
		<path fill="#74BF5C" d="M126.772,107.875c1.451,2.309,4.563,2.165,6.695,0.957c0.21-0.119,0.379-0.297,0.508-0.502
			c0.108-0.062,0.214-0.13,0.318-0.21c0.799-0.618,1.078-1.602,0.966-2.56c-0.032-0.271-0.09-0.541-0.182-0.799
			c-0.331-0.926-0.83-1.807-1.382-2.619c-0.538-0.791-1.142-1.653-1.894-2.259c-0.998-0.804-2.344-1.047-3.442-0.271
			c-0.948,0.67-1.432,1.703-1.783,2.778c-0.201,0.615-0.359,1.289-0.437,1.975C126.001,105.587,126.125,106.846,126.772,107.875z"/>
		<path fill="#74BF5C" d="M93.631,107.292c0.28,0.573,0.715,1.047,1.205,1.462c0.367,0.311,0.765,0.589,1.155,0.845
			c0.501,0.328,1.066,0.63,1.653,0.764c0.804,0.183,1.478,0.076,2.228-0.245c0.444-0.19,1.139-1.973,1.425-3.402
			c0.118-0.589,0.168-1.12,0.099-1.452c-0.167-0.808-0.417-1.612-0.73-2.393c-0.4-0.998-0.905-1.957-1.498-2.828
			c-0.696-1.021-1.802-1.921-3.117-1.438c-0.455,0.167-0.805,0.434-1.089,0.761c-0.448,0.513-0.731,1.174-0.985,1.836
			C93.265,103.053,92.718,105.426,93.631,107.292z"/>
		<path fill="#74BF5C" d="M62.979,107.241c-0.07-0.722-0.09-1.446-0.055-2.167c-0.014-0.101-0.027-0.203-0.041-0.304
			c-0.007-0.191,0.034-0.368,0.111-0.536c0.07-0.695,0.171-1.386,0.323-2.06c0.38-1.683,0.87-3.531,1.669-4.883
			c0.897-1.517,2.394-1.91,3.648-1.246c1.18,0.625,2.039,1.937,2.889,3.24c0.95,1.454,1.899,2.908,2.849,4.363
			c0.944,1.446,2.118,2.923,1.682,5.167c-0.145,0.745-2.413,1.394-5.019,1.581c0.699,0.046,1.399,0.063,2.091,0.05
			c1.912-0.037,3.818-0.229,5.73-0.235c0.986-0.003,1.948,0.02,2.851-0.181c0.113-0.025,0.229-0.04,0.34-0.073
			c2.553-0.134,4.584-2.22,5.44-4.551c0.484-1.317,0.526-2.681,0.316-4.03c-0.248,0.339-0.64,0.576-1.188,0.576
			c-2.002,0-1.998-3.106,0-3.106c0.212,0,0.397,0.041,0.564,0.103c-0.314-0.912-0.696-1.798-1.084-2.636
			c-1.24-2.681-2.543-5.334-3.83-7.993c-0.189-0.39-0.379-0.78-0.567-1.171c-1.213-2.524-2.471-5.403-5.087-6.772
			c-1.444-0.756-3.141-0.999-4.675-0.365c-1.404,0.581-2.455,1.741-3.38,2.909c-2.013,2.543-3.578,5.444-4.945,8.375
			c-1.371,2.939-2.828,6.101-3.101,9.37c-0.175,2.103,0.426,4.032,1.616,5.607C62.382,106.614,62.669,106.936,62.979,107.241z
			 M81.596,109.561c-2.002,0-1.998-3.106,0-3.106C83.597,106.455,83.594,109.561,81.596,109.561z M78.034,85.733
			c2.002,0,1.998,3.106,0,3.106C76.032,88.839,76.036,85.733,78.034,85.733z M73.215,94.944c0.063-0.193,0.17-0.359,0.321-0.5
			c0.108-0.108,0.216-0.216,0.324-0.324c0.194-0.192,0.422-0.326,0.685-0.399c0.138-0.018,0.275-0.037,0.413-0.055
			c0.28,0.001,0.542,0.072,0.784,0.212c0.105,0.081,0.21,0.162,0.314,0.243c0.151,0.141,0.258,0.307,0.321,0.5
			c0.097,0.185,0.142,0.384,0.134,0.598c0.008,0.214-0.037,0.413-0.134,0.598c-0.063,0.193-0.17,0.359-0.321,0.5
			c-0.108,0.108-0.216,0.216-0.324,0.324c-0.194,0.192-0.422,0.326-0.685,0.399c-0.138,0.018-0.275,0.037-0.413,0.055
			c-0.28-0.001-0.542-0.072-0.784-0.212c-0.105-0.081-0.209-0.162-0.314-0.243c-0.151-0.141-0.258-0.307-0.321-0.5
			c-0.097-0.185-0.142-0.384-0.134-0.598C73.073,95.329,73.118,95.129,73.215,94.944z"/>
		<path fill="#A2CF7F" d="M76.054,108.815c0.436-2.245-0.738-3.722-1.682-5.167c-0.95-1.454-1.899-2.909-2.849-4.363
			c-0.851-1.303-1.71-2.615-2.889-3.24c-1.254-0.664-2.751-0.27-3.648,1.246c-0.799,1.352-1.288,3.2-1.669,4.883
			c-0.152,0.674-0.253,1.365-0.323,2.06c0.009-0.02,0.012-0.042,0.023-0.062c0.063-0.193,0.17-0.359,0.321-0.5
			c0.141-0.151,0.307-0.258,0.5-0.321c0.185-0.097,0.384-0.142,0.598-0.134c0.054,0,0.108,0,0.162,0
			c0.28,0.001,0.542,0.072,0.784,0.212c0.105,0.081,0.21,0.162,0.314,0.243c0.192,0.194,0.326,0.422,0.399,0.685
			c0.018,0.138,0.037,0.275,0.055,0.413c0.008,0.214-0.037,0.413-0.134,0.598c-0.063,0.193-0.17,0.359-0.321,0.5
			c-0.141,0.151-0.307,0.258-0.5,0.321c-0.185,0.097-0.384,0.142-0.598,0.134c-0.054,0-0.108,0-0.162,0
			c-0.28-0.001-0.542-0.072-0.784-0.212c-0.105-0.081-0.209-0.162-0.314-0.243c-0.192-0.194-0.326-0.422-0.399-0.685
			c-0.005-0.036-0.01-0.072-0.015-0.109c-0.035,0.72-0.015,1.444,0.055,2.167c0.013,0.132,0.014,0.265,0.03,0.397
			c0.302,2.406,4.477,3.012,8.025,2.758C73.64,110.209,75.909,109.56,76.054,108.815z M67.795,101.281
			c0.048-0.202,0.141-0.378,0.278-0.528c0.109-0.169,0.255-0.302,0.436-0.4c0.216-0.108,0.432-0.216,0.648-0.324
			c0.242-0.14,0.503-0.211,0.784-0.212c0.138,0.019,0.275,0.037,0.413,0.055c0.263,0.074,0.491,0.207,0.685,0.399
			c0.081,0.105,0.162,0.21,0.243,0.314c0.114,0.178,0.175,0.371,0.184,0.577c0.046,0.206,0.037,0.413-0.028,0.619
			c-0.048,0.202-0.141,0.378-0.278,0.528c-0.109,0.169-0.255,0.302-0.436,0.4c-0.216,0.108-0.432,0.216-0.648,0.324
			c-0.242,0.14-0.503,0.211-0.784,0.212c-0.138-0.019-0.275-0.037-0.413-0.055c-0.263-0.074-0.491-0.207-0.685-0.399
			c-0.081-0.105-0.162-0.21-0.243-0.314c-0.113-0.178-0.175-0.371-0.184-0.577C67.721,101.694,67.73,101.488,67.795,101.281z"/>
		<path fill="#F0FF9E" d="M105.718,106.809c1.998,0,2.002-3.106,0-3.106C103.719,103.703,103.716,106.809,105.718,106.809z"/>
		<path fill="#F0FF9E" d="M112.679,101.628c1.998,0,2.002-3.106,0-3.106C110.681,98.522,110.677,101.628,112.679,101.628z"/>
		<path fill="#F0FF9E" d="M63.337,105.868c0.105,0.081,0.209,0.162,0.314,0.243c0.242,0.14,0.503,0.211,0.784,0.212
			c0.054,0,0.108,0,0.162,0c0.214,0.008,0.413-0.037,0.598-0.134c0.193-0.063,0.359-0.17,0.5-0.321
			c0.151-0.141,0.258-0.307,0.321-0.5c0.097-0.185,0.142-0.384,0.134-0.598c-0.019-0.138-0.037-0.275-0.055-0.413
			c-0.074-0.263-0.207-0.491-0.399-0.685c-0.105-0.081-0.21-0.162-0.314-0.243c-0.242-0.14-0.503-0.211-0.784-0.212
			c-0.054,0-0.108,0-0.162,0c-0.214-0.008-0.413,0.037-0.598,0.134c-0.193,0.063-0.359,0.17-0.5,0.321
			c-0.151,0.141-0.258,0.307-0.321,0.5c-0.01,0.02-0.014,0.042-0.023,0.062c-0.077,0.168-0.118,0.345-0.111,0.536
			c0.014,0.101,0.027,0.203,0.041,0.304c0.005,0.036,0.01,0.072,0.015,0.109C63.012,105.446,63.145,105.674,63.337,105.868z"/>
		<path fill="#F0FF9E" d="M67.951,102.478c0.081,0.105,0.162,0.21,0.243,0.314c0.194,0.192,0.422,0.326,0.685,0.399
			c0.138,0.018,0.275,0.037,0.413,0.055c0.28-0.001,0.542-0.072,0.784-0.212c0.216-0.108,0.432-0.216,0.648-0.324
			c0.181-0.098,0.326-0.231,0.436-0.4c0.137-0.15,0.23-0.326,0.278-0.528c0.065-0.206,0.074-0.413,0.028-0.619
			c-0.009-0.207-0.071-0.399-0.184-0.577c-0.081-0.105-0.162-0.21-0.243-0.314c-0.194-0.192-0.422-0.326-0.685-0.399
			c-0.138-0.018-0.275-0.037-0.413-0.055c-0.28,0.001-0.542,0.072-0.784,0.212c-0.216,0.108-0.432,0.216-0.648,0.324
			c-0.181,0.098-0.326,0.231-0.436,0.4c-0.137,0.15-0.23,0.326-0.278,0.528c-0.065,0.206-0.074,0.413-0.028,0.619
			C67.776,102.107,67.838,102.3,67.951,102.478z"/>
		<path fill="#F0FF9E" d="M73.536,96.64c0.105,0.081,0.21,0.162,0.314,0.243c0.242,0.141,0.503,0.211,0.784,0.212
			c0.138-0.018,0.275-0.037,0.413-0.055c0.263-0.074,0.491-0.207,0.685-0.399c0.108-0.108,0.216-0.216,0.324-0.324
			c0.151-0.141,0.258-0.307,0.321-0.5c0.097-0.185,0.142-0.384,0.134-0.598c0.008-0.214-0.037-0.413-0.134-0.598
			c-0.063-0.193-0.17-0.359-0.321-0.5c-0.105-0.081-0.21-0.162-0.314-0.243c-0.242-0.14-0.503-0.211-0.784-0.212
			c-0.138,0.019-0.275,0.037-0.413,0.055c-0.263,0.074-0.491,0.207-0.685,0.399c-0.108,0.108-0.216,0.216-0.324,0.324
			c-0.151,0.141-0.258,0.307-0.321,0.5c-0.097,0.185-0.142,0.384-0.134,0.598c-0.008,0.214,0.037,0.413,0.134,0.598
			C73.278,96.333,73.385,96.5,73.536,96.64z"/>
		<path fill="#F0FF9E" d="M78.034,88.839c1.998,0,2.002-3.106,0-3.106C76.036,85.733,76.032,88.839,78.034,88.839z"/>
		<path fill="#F0FF9E" d="M81.596,106.455c-1.998,0-2.002,3.106,0,3.106C83.594,109.561,83.597,106.455,81.596,106.455z"/>
		<path fill="#F0FF9E" d="M87.178,98.95c-0.167-0.062-0.352-0.103-0.564-0.103c-1.998,0-2.002,3.106,0,3.106
			c0.548,0,0.94-0.237,1.188-0.576C88.363,100.61,88.156,99.315,87.178,98.95z"/>
		<path fill="#F0FF9E" d="M89.528,88.647c-1.998,0-2.002,3.106,0,3.106c1.245,0,1.715-1.205,1.409-2.114
			c-0.058-0.171-0.145-0.329-0.257-0.469C90.43,88.859,90.049,88.647,89.528,88.647z"/>
	</g>
</g>
<g id="参考">
</g>
</svg>
