<?xml version="1.0" encoding="utf-8"?>
<!-- Generator: Adobe Illustrator 24.0.3, SVG Export Plug-In . SVG Version: 6.00 Build 0)  -->
<svg version="1.1" xmlns="http://www.w3.org/2000/svg" xmlns:xlink="http://www.w3.org/1999/xlink" x="0px" y="0px"
	 viewBox="0 0 834 1194" enable-background="new 0 0 834 1194" xml:space="preserve">
<g id="レイヤー1">
	<g>
		<path fill="#F8F5E6" d="M557.535,391.832c-1.231-18.525-13.055-34.494-18.639-52.2c-3.904-12.381-2.831-28.077,4.339-37.869
			c-4.292-6.06-7.312-13.319-10.614-20.061c-5.954-12.156-13.526-23.437-21.073-34.674c-4.965-7.392-10.027-14.894-16.885-20.574
			c-7.551-6.254-16.845-9.943-25.968-13.534c-9.062-3.566-18.124-7.132-27.186-10.699c-4.089-1.609-8.67-3.226-12.752-1.602
			c-2.353,0.936-4.173,2.832-5.868,4.713c-6.064,6.732-11.535,13.997-16.33,21.685c-3.449,5.53-6.675,11.425-11.798,15.455
			c-6.308,4.962-14.942,6.627-20.51,12.408c-2.707,2.81-4.507,6.431-7.414,9.034c-7.479,6.694-19.034,4.489-28.861,6.53
			c-5.195,1.079-9.956,3.393-14.643,5.934c-5.902-1.528-11.805-3.055-17.707-4.583c-4.279-1.107-8.6-2.231-12.521-4.271
			c-4.679-2.435-8.617-6.087-13.177-8.738c-7.149-4.156-15.556-5.705-22.803-9.687c-4.198-2.307-7.963-5.409-12.369-7.29
			c-4.406-1.882-9.882-2.323-13.697,0.575c-1.902,1.444-3.173,3.542-4.645,5.423c-1.773,2.266-3.9,4.245-6.265,5.88
			c-1.38-0.667-2.8-1.253-4.271-1.733c-2.539-0.829-5.173-1.329-7.738-2.071c-10.754-3.107-19.784-10.234-29.293-16.25
			c-0.299-0.879-0.563-1.766-0.772-2.665c-1.689-7.277-0.024-15.069-2.061-22.257c-1.726-6.088-5.937-11.134-10.303-15.715
			c-7.247-7.604-15.239-14.499-23.824-20.553c-4.798-3.384-9.911-6.561-15.64-7.846c-5.73-1.285-12.23-0.393-16.557,3.576
			c-6.369,5.843-6.276,16.183-11.792,22.838c-0.484,0.584-1.006,1.133-1.559,1.653c-14.17-3.212-28.526-4.104-41.608,1.589
			c-3.978,1.731-7.727,4.043-11.899,5.235c-6.466,1.848-13.349,0.857-20.074,0.889c-6.725,0.033-14.101,1.478-18.293,6.737
			c-3.76,4.718-4.172,11.582-8.342,15.942c-5.538,5.79-14.803,4.696-22.808,5.03c-20.139,0.841-37.817,13.199-57.218,18.667
			c-16.37,4.614-34.609,4.561-49.327,12.489v319.554C-99.393,594.668-61.49,601.75-24.44,608.5
			c29.286,5.335,58.846,10.692,88.596,9.65c48.978-1.716,95.516-20.587,140.856-39.19c15.048-6.174,30.178-12.39,43.972-21.01
			c17.12-10.698,32.326-25.154,51.519-31.411c22.008-7.174,45.908-2.524,69.028-3.657c47.666-2.334,90.252-28.988,130.379-54.82
			c14.09-9.07,28.361-18.293,39.567-30.751C550.683,424.854,558.646,408.551,557.535,391.832z"/>
		<g>
			<g>
				<path fill="#E6E0D6" d="M465.469,259.89c-1.088-3.373-4.832-5.063-8.278-5.892c-3.446-0.829-7.21-1.304-9.844-3.676
					l-62.53-4.481c-4.23,0.971-8.184,3.118-11.302,6.137c-0.571,0.553-1.127,1.154-1.413,1.896c-0.35,0.909-0.254,1.92-0.152,2.889
					c0.831,7.949,1.663,15.899,2.495,23.848c0.207,1.979,0.429,4.011,1.339,5.78c2.634,5.12,9.562,5.913,15.308,5.527
					c3.784-0.254,7.55-0.732,11.313-1.21c1.527-0.194,3.069-0.391,4.513-0.923c1.06-0.39,2.043-0.951,3.026-1.511
					c5.662,2.174,11.384,4.19,17.105,6.205c2.604,0.917,5.246,1.842,8,2.043c2.565,0.187,5.13-0.261,7.663-0.708
					c2.646-0.467,5.292-0.933,7.939-1.4c2.514-0.443,5.138-0.934,7.154-2.499c3.026-2.348,3.923-6.461,4.617-10.228
					c0.981-5.321,1.962-10.642,2.944-15.964C465.721,263.79,466.072,261.761,465.469,259.89z"/>
			</g>
			<g>
				<path fill="#F8F2EA" d="M428.265,268.526c3.979-0.459,7.857-1.625,11.847-1.984c7.82-0.702,15.794,1.72,23.489,0.16
					c0.563-0.114,1.112-0.272,1.662-0.425c0.034-0.184,0.068-0.368,0.102-0.552c0.357-1.934,0.708-3.963,0.104-5.834
					c-1.088-3.373-4.832-5.063-8.278-5.892c-3.446-0.829-7.21-1.304-9.844-3.676l-62.53-4.481c-4.23,0.971-8.184,3.118-11.302,6.137
					c-0.441,0.427-0.87,0.885-1.175,1.412c9.239,4.724,19.343,7.915,29.32,10.945C410.314,266.964,419.28,269.563,428.265,268.526z"
					/>
			</g>
			<path fill="#E6E0D6" d="M464.71,226.361c-1.663-7.374-5.511-13.98-9.305-20.474c-0.048-3.782,0.036-7.565,0.28-11.341
				c0.174-2.683,0.42-5.362,0.74-8.032c0.305-2.543,0.879-5.097,1.022-7.655c0.085-1.511,0.016-4.049-1.82-4.527
				c-1.705-0.444-2.886,1.015-3.408,2.44c-1.785,4.878-3.009,10.021-4.528,14.989c-0.944,3.087-1.972,6.189-3.37,9.1
				c-2.527,0.933-5.2,1.447-7.888,1.791c-4.106,0.526-8.261,0.922-12.401,1.012c-5.888,0.128-12.004-0.583-17.327-3.103
				c-4.23-7.084-6.573-15.064-9.695-22.765c-0.694-1.711-1.88-3.437-3.893-3.588c-1.88-0.141-3.016,1.359-3.539,2.984
				c-0.843,2.619-1.16,5.515-1.631,8.221c-0.512,2.94-0.965,5.89-1.365,8.847c-0.548,4.056-0.975,8.126-1.311,12.204
				c-2.271,4.482-4.237,9.117-5.851,13.879c-2.146,6.33-4.086,13.166-4.579,19.86c-0.21,2.844,0.331,5.6,2.386,7.69
				c2.122,2.159,5.098,3.658,7.768,5.01c6.116,3.096,12.667,4.849,19.544,4.753c3.099-0.044,6.204-0.209,9.311-0.431
				c12.301,2.339,24.867,3.77,37.228,1.163c3.487-0.735,6.896-1.797,10.166-3.217c1.27-0.551,2.836-1.071,3.719-2.2
				c0.887-1.135,0.806-2.702,0.865-4.066C466.154,241.385,466.376,233.751,464.71,226.361z"/>
			<g>
				<path fill="#FFFFFF" d="M414.768,210.225c0.001,0.041-0.005,0.083-0.001,0.123c0.029,0.316,0.09,0.628,0.28,0.891
					c0.109,0.15,0.239,0.283,0.387,0.393c0.055,0.062,0.089,0.136,0.154,0.19c0.167,0.139,0.364,0.255,0.592,0.245
					c0.223-0.01,0.43-0.086,0.592-0.245c0.753-0.745,0.902-1.897,0.454-2.838c-0.105-0.221-0.281-0.39-0.482-0.523
					c-0.074-0.136-0.161-0.265-0.277-0.376c-0.328-0.312-0.79-0.468-1.223-0.285c-0.731,0.308-0.84,1.222-0.679,1.91
					C414.606,209.892,414.681,210.062,414.768,210.225z"/>
				<path fill="#FFFFFF" d="M433.175,211.442c0.098,0.166,0.193,0.334,0.315,0.486c0.056,0.044,0.113,0.087,0.169,0.131
					c0.096,0.061,0.2,0.094,0.311,0.099c0.177,0.024,0.38,0.002,0.533-0.099c0.277-0.184,0.455-0.414,0.57-0.723
					c0.089-0.24,0.079-0.482,0.043-0.728c0.146-0.584,0.142-1.212-0.074-1.758c-0.079-0.2-0.184-0.394-0.385-0.5
					c-0.174-0.092-0.411-0.151-0.607-0.087c-0.185-0.099-0.392-0.136-0.611-0.076c-0.292,0.08-0.492,0.303-0.585,0.584
					c-0.037,0.112-0.038,0.229-0.061,0.343c-0.001,0.001-0.002,0.002-0.003,0.003c-0.277,0.392-0.284,0.914-0.103,1.347
					C432.725,210.831,432.924,211.161,433.175,211.442z"/>
				<path fill="#FFFFFF" d="M449.721,212.493c-2.813,2.895-7.344,6.257-11.62,5.638c-2.294-0.332-4.542-1.001-6.836-1.365
					c-2.225-0.353-4.468-0.612-6.717-0.751c-2.171-0.134-4.347-0.142-6.506,0.155c-1.107,0.152-2.237,0.521-3.354,0.549
					c-1.234,0.031-2.567-0.371-3.763-0.656c-4.142-0.991-8.686-2.769-10.465-6.988c-0.412-0.977-2.032-0.548-1.614,0.445
					c1.716,4.069,5.465,6.361,9.557,7.603c2.242,0.68,4.917,1.53,7.273,1.172c2.637-0.4,5.105-0.774,7.785-0.664
					c2.749,0.113,5.494,0.425,8.204,0.888c2.526,0.431,5.205,1.445,7.784,1.383c4.254-0.103,8.612-3.3,11.455-6.225
					C451.655,212.904,450.473,211.719,449.721,212.493z"/>
			</g>
		</g>
		<path fill="#F4E6E5" d="M-120.029,791.106V283.842c61.24-22.776,130.027-16.491,194.109-2.382
			c31.105,6.848,62.113,15.473,93.944,16.575c56.986,1.974,115.875-20.041,169.807-1.53c26.53,9.106,49.624,27.534,77.111,33.126
			c11.833,2.407,24.036,2.319,36.084,1.506c48.287-3.259,95.938-17.979,144.201-14.374c16.816,1.256,33.378,4.727,49.881,8.19
			c13.607,2.855,27.214,5.71,40.82,8.565c18.025,3.782,38.462,9.547,48.512,23.932c-3.823,9.866-7.645,19.732-11.468,29.599
			c-3.795,9.795-7.604,19.635-9.906,29.884c-1.236,5.501-2.029,11.087-2.716,16.686c0.948,5.067,1.302,10.173,0.234,15.187
			c-0.6,2.817-1.636,5.52-2.668,8.209c-3.602,9.386-7.207,18.779-11.38,27.926c-1.162,2.548-2.388,5.149-2.592,7.942
			c-0.091,1.246,0.011,2.565-0.565,3.674c-0.401,0.771-1.088,1.35-1.791,1.86c-5.589,4.058-13.373,4.869-19.678,2.05
			c-1.351-0.604-2.695-1.375-4.174-1.406c-1.219-0.026-2.382,0.457-3.549,0.81c-2.873,0.869-5.976,0.966-8.898,0.279
			c-0.703-5.996-2.045-11.891-3.5-17.754c-2.823,0.322-5.728-0.101-8.28-1.358c-2.314,0.177-4.664-0.147-6.844-0.942
			c-1.686-1.741-3.47-3.385-5.33-4.939c-0.11,0.384-0.227,0.766-0.308,1.159c-0.603,2.931-1.035,6.832-3.973,7.401
			c-2.269,0.439-4.356-1.695-6.663-1.559c-1.279,0.075-2.399,0.836-3.585,1.321c-2.857,1.17-6.086,0.735-9.14,0.281
			c-0.198-0.029-0.396-0.059-0.593-0.088c-3.64,3.046-7.449,5.99-9.906,9.975c-0.973,1.578-1.724,3.307-2.914,4.728
			c-2.648,3.162-6.958,4.269-10.975,5.202c-0.821,0.191-1.661,0.383-2.5,0.293c-1.596-0.172-2.907-1.323-4.435-1.814
			c-1.649-0.529-3.431-0.26-5.153-0.074c-0.039,0.004-0.079,0.005-0.118,0.009c-2.677,2.829-5.201,5.801-7.54,8.915
			c-3.159,4.207-6.002,8.664-9.478,12.614c-1.694,1.925-3.53,3.719-5.364,5.511c-3.339,3.262-6.678,6.525-10.017,9.787
			c-6.839,6.683-13.739,13.407-21.11,19.485c-2.499,10.134-7.511,19.657-14.611,27.314c-4.804,5.181-10.553,9.604-14.239,15.633
			c-2.19,3.583-3.561,7.596-5.383,11.379c-9.234,19.175-28.891,30.716-47.454,41.125c-3.386,1.899-7.366,3.851-10.98,2.431
			c-2.329-0.915-3.92-3.044-5.385-5.073c-3.468-4.801-6.936-9.603-10.404-14.404c-5.063,3.609-10.126,7.218-15.189,10.827
			c-2.953,2.105-5.989,4.25-9.493,5.183c-4.46,1.189-9.178,0.293-13.705-0.607c-3.145-0.625-6.528-1.383-8.641-3.795
			c-2.279-2.601-2.622-6.662-5.356-8.778c-3.362-2.603-8.2-0.847-12.034,0.988c-10.811,5.175-21.622,10.35-32.432,15.524
			c-3.251,1.556-6.544,3.139-9.286,5.479c-2.015,1.719-3.68,3.803-5.459,5.765c-1.574,1.736-3.244,3.383-4.973,4.964
			c-12.049,11.017-28.942,18.979-44.568,14.248c-2.438-0.738-4.981-1.782-7.447-1.144c-2.064,0.533-3.638,2.142-5.348,3.414
			c-1.628,1.211-3.4,2.122-5.266,2.81c-2.855,3.736-5.2,7.776-6.615,12.284c-0.869,2.77-1.361,5.643-1.85,8.505
			c-1.256,7.349-2.511,14.699-3.767,22.048c-0.297,1.737-0.598,3.49-1.268,5.119c-1.031,2.508-2.87,4.581-4.386,6.829
			c-4.033,5.982-5.756,13.172-8.399,19.886c-3.543,9.002-8.744,17.144-14.637,24.846c0,0-34.771,41.526-55.671,52.12
			s-56.159,12.12-61.928,17.597c-5.77,5.477-67.248,66.514-129.322,54.596c-18.523-3.556-61.169-27.875-62.094-30.386
			C-120.954,882.524-120.029,791.106-120.029,791.106"/>
		<g>
			<path fill="#E5CEBF" d="M-120.029,791.106V283.842c61.24-22.776,130.027-16.491,194.109-2.382
				c31.105,6.848,62.113,15.473,93.944,16.575c56.986,1.974,115.875-20.041,169.807-1.53c26.53,9.106,49.624,27.534,77.111,33.126
				c11.833,2.407,24.036,2.319,36.084,1.506c48.287-3.259,95.938-17.979,144.201-14.374c16.816,1.256,33.378,4.727,49.881,8.19
				c13.607,2.855,27.214,5.71,40.82,8.565c18.025,3.782,38.462,9.547,48.512,23.932c-3.823,9.866-7.645,19.732-11.468,29.599
				c-1.267,3.271-2.531,6.548-3.745,9.842c-2.298,1.712-4.79,3.148-7.484,4.198c-4.746,1.85-9.923,2.479-14.565,4.577
				c-15.188,6.863-20.182,26.817-34.325,35.634c-2.005,1.25-4.244,2.27-6.606,2.325c-1.862,0.043-3.678-0.514-5.479-0.988
				c-6.028-1.586-12.286-2.261-18.515-2.045c-0.977,1.088-1.979,2.135-3.034,3.088c-3.861,3.488-8.57,5.871-13.218,8.212
				c-14.227,7.165-28.874,14.456-44.732,15.966c-3.594,0.342-7.386,0.431-10.487,2.281c-4.195,2.503-6.092,7.597-9.77,10.813
				c-4.621,4.04-11.225,4.532-17.211,5.889c-10.16,2.303-19.602,7.679-26.769,15.24c-7.087,7.477-11.911,16.921-19.333,24.067
				c-4.325,4.164-10.118,7.417-15.953,8.369c-7.402,11.454-16.887,22.293-20.903,35.255c-1.669,5.386-2.627,11.516-6.975,15.105
				c-4.417,3.645-11.19,3.571-15.256,7.603c-3.392,3.364-4.122,8.886-7.859,11.862c-2.58,2.056-6.05,2.459-9.252,3.256
				c-8.606,2.144-16.009,7.507-24.131,11.071c-8.122,3.564-18.23,5.086-25.387-0.154c-4.426-3.241-7.223-8.735-12.35-10.688
				c-7.124-2.713-14.525,2.636-21.943,4.395c-10.12,2.4-19.929-1.992-28.784-8.093c-5.994,5.365-12.418,10.251-19.194,14.587
				c-2.128,1.362-4.441,2.714-6.968,2.694c-2.633-0.021-5.12-1.544-7.746-1.354c-2.671,0.194-4.866,2.096-6.834,3.913
				c-6.689,6.179-13.245,12.5-19.8,18.82c-5.215,5.028-10.43,10.057-15.645,15.085c-11.426,11.016-23.376,22.927-26.991,38.381
				c-1.039,4.439-1.368,9.117-3.368,13.214c-2.792,5.718-8.388,9.445-13.733,12.897c-7.414,4.788-15.336,9.739-24.159,9.932
				c-3.905,0.086-7.958-1.182-11.219-3.384c-8.216,1.889-16.888,1.716-24.918-0.898c-3.471-1.13-7.097-2.682-10.638-1.798
				c-5.386,1.345-7.817,7.424-11.593,11.493c-6.584,7.095-17.323,7.956-26.994,8.35c-8.68,0.353-17.36,0.707-26.04,1.06
				c-0.275,0.616-0.556,1.227-0.854,1.827c-7.108,14.312-22.041,22.877-36.664,29.322c-9.318,4.106-19.032,7.82-27.836,12.838
				c-8.58,9.583-20.716,26.525-25.328,34.627c-4.612,8.102-30.024,1.841-34.076-18.415c-4.051-20.256-24.186-12.883-31.305-9.944
				C-120.115,800.313-120.029,791.106-120.029,791.106z"/>
		</g>
		<path fill="#CAA582" d="M685.928,333.519c-13.607-2.855-27.214-5.71-40.82-8.565c-16.503-3.463-33.065-6.934-49.881-8.19
			c-48.263-3.605-95.914,11.114-144.201,14.374c-12.048,0.813-24.251,0.901-36.084-1.506c-27.486-5.592-50.58-24.02-77.111-33.126
			c-53.932-18.51-112.821,3.504-169.807,1.53c-31.831-1.103-62.839-9.727-93.944-16.575
			c-64.083-14.109-132.869-20.393-194.109,2.382v427.087c1.657,0.251,3.341,0.147,4.936-0.423c2.458-0.878,4.465-2.741,6.912-3.647
			c7.032-2.605,15.306,3.3,22.136,0.203c5.887-2.669,7.223-10.348,7.249-16.812c0.026-6.464-0.106-13.839,4.654-18.213
			c3.277-3.012,7.989-3.684,12.331-4.665c12.607-2.848,24.222-9.616,33.186-18.914c2.424,3.104,5.185,5.944,8.259,8.405
			c0.922,0.738,1.931,1.47,3.105,1.605c2.14,0.247,3.924-1.5,5.44-3.03c8.096-8.171,18.689-14.052,30.085-15.615
			c2.549-0.35,5.152-0.493,7.776-0.539c3.971,15.352,9.714,30.246,17.107,44.274c1.345,2.552,2.807,5.15,5.094,6.908
			c1.793,1.378,3.97,2.141,6.106,2.883c8.892,3.088,18.595,6.192,27.512,3.179c2.388-0.807,4.64-2.038,7.104-2.571
			c8.272-1.791,15.914,4.478,24.067,6.747c1.365,0.38,2.841,0.644,4.182,0.184c1.529-0.524,2.595-1.882,3.555-3.182
			c3.969-5.374,8.618-11.481,15.287-11.874c2.868-0.169,5.681,0.798,8.549,0.964c4.148,0.24,8.114-1.254,11.475-3.73
			c2.912,1.258,5.964,2.186,9.09,2.732c3.546,0.619,7.413,0.714,10.51-1.121c4.318-2.558,5.837-7.942,7.299-12.743
			c9.362-30.745,31.624-57.336,60.245-71.958c7.609-3.888,16.326-7.636,19.735-15.471c1.583-3.639,1.853-7.903,4.28-11.042
			c4.535-5.864,14.064-4.931,19.576-9.887c3.328-2.993,4.597-7.597,5.641-11.949c0.89-3.709,1.725-7.432,2.514-11.164
			c9.654-2.761,19.309-5.522,28.963-8.283c2.181-0.624,4.429-1.282,6.181-2.723c3.135-2.578,3.936-6.948,5.509-10.69
			c3.561-8.471,11.733-14.345,20.485-17.148c8.751-2.803,18.115-2.922,27.301-2.681c2.801,0.073,5.706,0.159,8.282-0.943
			c3.743-1.601,6.014-5.332,8.533-8.53c6.755-8.574,16.199-13.986,26.5-17.913c9.15,0.003,18.704-0.949,26.858,2.771
			c5.57,2.54,10.272,7.195,16.307,8.219c9.966,1.691,18.303-6.848,27.008-11.986c13.578-8.014,31.144-8.491,43.154-18.706
			c2.539-2.159,4.811-4.743,7.828-6.159c4.703-2.207,10.325-1.179,15.261-2.801c5.32-1.749,9.133-6.287,13.141-10.198
			c2.21-2.156,4.565-4.158,7.032-6.014c0.939,0.081,1.873,0.099,2.782,0.044c6.974-0.425,13.891-3.199,20.771-1.976
			c3.728,0.662,7.203,2.476,10.966,2.893c11.66,1.294,19.994-10.277,28.799-18.029c14.138-12.446,33.581-16.321,51.712-21.423
			c9.916-2.791,20.147-6.468,28.821-11.95c2.426-6.261,4.851-12.521,7.277-18.782C724.39,343.065,703.952,337.301,685.928,333.519z"
			/>
		<g>
			<path fill="#A98861" d="M-115.422,414.357c-7.679,2.771-14.517,8.524-17.873,15.837c-3.811,1.934-7.255,4.747-10.253,7.824
				c-9.436,9.681-15.772,23.777-12.045,36.772c4.041,14.09,18.454,23.062,23.507,36.821c1.016,2.766,1.724,5.804,2.542,8.754
				c-1.89,10.098-1.314,20.659,1.737,30.472c2.076,6.677,5.422,13.194,10.866,17.581c10.86,8.75,27.044,7.037,39.036,14.157
				c3.702,2.198,6.873,5.168,10.249,7.841c15.363,12.165,34.657,17.996,53.445,23.57c3.825,1.135,7.717,2.279,11.706,2.262
				c4.035-0.017,7.966-1.223,11.979-1.652c5.032-0.538,10.105,0.152,15.119,0.84c6.486,0.891,12.972,1.781,19.458,2.672
				c6.699,0.92,13.749,1.753,20.573,1.568c0.172,0.179,0.351,0.351,0.537,0.513c3.077,2.689,7.364,3.484,11.445,3.692
				c4.427,0.225,8.882-0.118,13.222-1.019c4.522-0.938,8.914-2.477,13.476-3.2c5.92-0.938,11.966-0.478,17.946-0.873
				c19.833-1.308,37.885-11.853,57.423-15.508c7.408-1.385,15.173-1.825,21.902-5.219c10.23-5.16,16.076-16.071,20.68-26.563
				c2.553-5.819,4.991-11.826,9.123-16.654c3.044-3.557,6.884-6.324,10.435-9.375c3.924-3.372,7.504-7.136,10.708-11.197
				c2.457,0.25,4.979,0.037,7.295-0.66c7.527-2.267,13.355-8.088,19.003-13.555c9.944-9.627,21.205-19.197,34.909-21.136
				c3.415-0.483,7.013-0.505,10.065-2.112c2.518-1.326,4.381-3.59,6.409-5.587c7.931-7.805,18.76-11.776,29.235-15.529
				c1.916-0.687,3.896-1.383,5.929-1.275c2.516,0.134,4.78,1.473,7.032,2.6c4.929,2.468,10.295,4.06,15.772,4.681
				c1.242,0.141,2.564,0.218,3.677-0.35c1.193-0.609,1.917-1.839,2.576-3.005c6.974-12.339,110.801-13.921,84.506-41.69
				L-115.422,414.357z"/>
		</g>
		<path fill="#DAB185" d="M685.928,333.519c-2.397-0.503-4.794-1.006-7.191-1.509c-11.21-2.352-22.419-4.704-33.629-7.056
			c-16.503-3.463-33.065-6.934-49.881-8.19c-48.263-3.605-95.914,11.114-144.201,14.374c-12.048,0.813-24.251,0.901-36.084-1.506
			c-27.486-5.592-50.58-24.02-77.111-33.126c-53.932-18.51-112.821,3.504-169.807,1.53c-31.831-1.103-62.839-9.727-93.944-16.575
			c-64.083-14.109-132.869-20.393-194.109,2.382v146.977c3.638,3.351,7.277,6.703,10.915,10.054
			c1.248,1.149,2.496,2.299,3.743,3.448c5.119,4.715,10.365,9.514,16.736,12.316c4.001,1.759,8.313,2.668,12.59,3.566
			c13.624,2.86,27.311,5.722,41.08,7.743c5.519,7.662,13.748,13.727,21.612,19.276c2.022,1.427,4.128,2.89,6.561,3.344
			c2.626,0.49,5.303-0.254,7.913-0.823c20.301-4.419,41.47,1.778,60.276,10.609c7.116,3.342,14.247,7.127,22.059,8.013
			c7.747,0.878,15.534-1.185,22.837-3.917c16.076-6.015,30.634-15.234,45.369-24.124c24.258,4.498,48.801,7.457,73.433,8.843
			c8.558,0.481,17.418,0.727,25.387-2.431c6.963-2.76,12.674-7.897,19.043-11.84c16.996-10.522,38.257-12.309,55.352-22.67
			c1.938-1.175,3.831-2.463,5.726-3.745c10.699,0.685,21.248-2.626,31.849-4.407c10.922-1.835,23.175-1.698,31.776,5.279
			c1.937,1.571,3.747,3.514,6.172,4.1c2.609,0.631,5.289-0.462,7.778-1.467c13.457-5.436,27.697-8.93,42.141-10.34
			c4.531-0.442,9.234-0.722,13.265-2.838c3.623-1.902,6.358-5.112,9.62-7.581c11.28-8.538,28.436-8.234,41.025-13.381
			c5.517,2.061,11.128,3.872,16.819,5.39c2.936,0.784,6.085,1.489,8.966,0.52c2.563-0.862,4.513-2.918,6.352-4.901
			c5.274-5.686,10.548-11.371,15.823-17.057c2.185-2.356,4.485-4.79,7.495-5.914c4.548-1.698,9.564-0.051,14.387,0.503
			c17.677,2.029,33.332-10.775,45.88-23.391c1.899-1.91,3.825-3.852,5.781-5.782c1.563-1.543,3.144-3.079,4.756-4.581
			c0.414,0.067,0.825,0.138,1.232,0.216c5.604,1.065,11.329,2.795,16.906,1.595c6.35-1.366,11.325-6.286,17.376-8.647
			c6.278-2.449,13.814-2.215,18.901-6.634c1.673-1.454,3.221-3.461,5.434-3.568c1.635-0.079,3.09,0.935,4.487,1.789
			c3.436,2.1,7.794-0.174,12.353-4.006C707.607,338.568,696.365,335.709,685.928,333.519z"/>
		<g>
			<path fill="#E9E6D1" d="M10.901,265.289c2.158-0.868,4.157-2.049,5.916-3.713c2.948-2.787,4.742-6.545,7.017-9.903
				c0.985-1.453,2.085-2.841,3.282-4.14c2.18-4.07,4.359-8.14,6.539-12.21c0.795-1.484,1.63-3.016,2.974-4.03
				c1.974-1.489,4.636-1.576,7.109-1.602c0.534-0.006,1.069-0.011,1.604-0.014c-0.489-2.842-0.874-5.702-1.134-8.574
				c-7.073-4.39-13.69-9.513-19.674-15.3c-0.704-0.681-1.401-1.376-2.087-2.083c-6.274,12.888-9.099,26.419-15.241,39.336
				C8.113,250.484,9.189,258.012,10.901,265.289z"/>
			<path fill="#E9E6D1" d="M720.701,336.278c-5.54,1.6-12.804,2.347-19.492,1.916c-11.996-0.774-21.925-4.307-29.724-8.263
				c0.689,4.224,0.689,8.529-0.196,12.723c-0.085,0.404-0.181,0.81-0.293,1.211c3.431-1.607,6.881-3.167,10.388-4.59
				c4.026-1.634,8.523-3.098,12.632-1.685c2.904,0.999,5.142,3.287,7.685,5.008c4.076,2.758,9.254,4.075,14.04,2.928
				c3.17-0.76,6.079-2.703,7.969-5.327c-0.269-0.631-0.602-1.226-0.996-1.749C722.113,337.652,721.427,336.943,720.701,336.278z"/>
			<path fill="#E9E6D1" d="M95.172,234.794c6.151-2.121,13.077-1.118,19.797,0.972c0.796-0.421,1.61-0.795,2.444-1.118
				c-6.588-9.309-15.083-17.378-22.428-26.205c-10.254-12.323-18.42-26.352-26.87-40.082c-5.429,0.438-10.736,1.387-15.777,3.394
				C72.423,187.056,82.474,211.957,95.172,234.794z"/>
			<path fill="#E9E6D1" d="M423.842,345.797c0.332,0.324,0.655,0.655,0.967,0.995c1.125-0.939,2.351-1.756,3.653-2.429
				C426.92,344.723,425.38,345.214,423.842,345.797z"/>
			<path fill="#E9E6D1" d="M556.337,292.258c2.314-1.257,5.049-2.313,8.097-3.033c3.465-2.245,8.14-4.108,13.442-5.414
				c-6.992-2.204-14.164-3.833-21.424-4.852c-4.604-0.646-9.52-1.002-13.691,1.052c-0.138,0.068-0.265,0.15-0.4,0.223
				C548.058,282.435,552.412,287.416,556.337,292.258z"/>
			<path fill="#E9E6D1" d="M-10.758,357.846c-1.442-1.618-2.58-3.398-3.518-5.285c-0.505,4.277-2.206,8.368-5.201,11.526
				c-4.547,4.795-10.981,7.193-16.894,10.143c-5.959,2.973-11.571,6.64-16.688,10.901c19.389-1.821,38.948-1.785,58.337,0.051
				c-6.013-6.969-10.521-15.451-12.557-24.202C-8.532,360.061-9.703,359.03-10.758,357.846z"/>
			<path fill="#E9E6D1" d="M368.77,267.427c2.285,0.068,4.571,0.164,6.848,0.22c-2.365-1.018-4.828-1.72-7.346-2.231
				c0.024,0.105,0.047,0.21,0.072,0.315C368.476,266.296,368.626,266.861,368.77,267.427z"/>
			<path fill="#E9E6D1" d="M637.958,351.732c-11.108,1.764-22.152-2.066-31.493-8.616c-1.001,1.61-2.085,3.208-3.298,4.789
				c-6.136,7.995-16.734,15.863-31.234,20.791c0.368,2.898-0.158,5.749-1.988,8.151c-1.467,1.925-3.565,3.253-5.615,4.538
				c-5.373,3.368-10.865,6.788-17.024,8.296c-5.798,1.42-11.863,1.065-17.821,0.701c-17.035-1.039-34.07-2.079-51.106-3.118
				c-9.268,4.712-19.578,8.22-26.093,16.107c1.994-0.073,3.992-0.26,5.975-0.453c6.787-0.661,13.574-1.322,20.361-1.983
				c0.564-0.055,1.132-0.114,1.699-0.18c9.998,4.504,22.656,4.027,33.604,1.076c15.067-4.061,29.211-11.792,44.722-13.502
				c7.114-0.784,14.5-0.302,21.217-2.772c4.948-1.819,9.187-5.123,13.336-8.376c7.244-5.68,14.488-11.36,21.732-17.039
				c8.84,0.839,18.088-0.69,26.597-3.464c6.445-2.101,12.634-4.85,18.771-7.738c-1.31-0.156-2.622-0.343-3.867-0.43
				C650.173,348.074,644.155,350.748,637.958,351.732z"/>
			<path fill="#E9E6D1" d="M501.976,351.386c-0.076,0.478-0.157,0.955-0.241,1.432c0.797-0.322,1.596-0.639,2.398-0.947
				C503.408,351.733,502.69,351.565,501.976,351.386z"/>
			<path fill="#E9E6D1" d="M265.774,380.746c-4.982-1.065-10.009-3.338-13.399-6.999c-13.531,0.444-27.634-1-40.003,4.451
				c-14.832,6.537-25.666,22.417-41.828,23.639c-9.413,0.712-18.363-3.903-26.345-8.941c-4.585-2.894-9.185-6.109-12.05-10.712
				c-2.865-4.603-3.589-10.943-0.378-15.313c1.759-2.394,4.434-3.914,7.027-5.364c18.3-10.23,36.601-20.459,54.901-30.689
				c1.557-2.198,3.151-4.363,4.839-6.437c2.831-3.477,5.97-6.681,9.347-9.609c-14.023-0.235-28.076-5.466-40.568-12.269
				c-2.122-1.156-4.223-2.377-6.274-3.673c-1.977-0.128-4.04-0.497-5.949-0.631c-6.26-0.436-12.278,2.237-18.475,3.221
				c-9.036,1.435-18.029-0.834-26.098-5.255c-4.533,2.337-9.915,3.328-14.936,2.562c-8.139-1.243-15.214-5.848-21.205-11.652
				c-5.924,9.146-14.72,16.196-23.999,21.984c-1.187,0.741-2.394,1.458-3.61,2.163c0.604,1.958,1.08,3.961,1.441,5.997
				c0.856-0.129,1.718-0.234,2.593-0.279c9.188-0.478,17.173,3.912,24.144,10.168c7.493-1.377,15.018-1.6,22.105,0.98
				c7.105,2.586,12.975,7.764,17.991,13.421c7.954,8.972,14.183,22.782,7.029,32.406c-5.563,7.483-16.34,8.307-25.646,7.731
				c-9.307-0.576-19.534-1.635-27.115,3.794c-2.496,1.788-4.608,4.236-7.499,5.269c-2.255,0.806-4.77,0.66-7.008,1.512
				c-0.783,0.298-1.499,0.712-2.182,1.183c1.467,0.374,2.938,0.736,4.4,1.132c13.586,3.683,27.036,8.315,41.049,9.637
				c12.445,1.174,25.687-0.598,36.096-7.287c3.211,0.978,6.39,2.042,9.478,3.324c8.398,3.487,16.102,8.565,24.685,11.57
				s18.727,3.639,26.243-1.48c5.825-3.967,9.18-10.746,14.761-15.05c5.925-4.57,13.664-5.866,21.057-7.019
				c4.039-0.63,8.077-1.259,12.116-1.889c6.742,3.376,14.177,5.358,21.718,5.587c7.718,0.235,15.861-1.165,22.868,2.078
				c5.117,2.367,8.845,6.883,13.132,10.545c12.568,10.735,31.062,13.979,46.569,8.259c1.824-0.673,3.601-1.458,5.348-2.309
				c-23.308-3.173-42.153-23.448-65.676-27.421C279.619,381.922,272.567,382.198,265.774,380.746z"/>
			<path fill="#E9E6D1" d="M301.938,309.574c0.393-6.873,3.246-13.091,7.652-18.462c-2.592-4.185-4.913-8.42-6.257-12.764
				c-0.3-0.969-0.543-1.939-0.746-2.909c-0.555,2.276-1.072,4.582-2.279,6.553c-2.661,4.347-8.063,6.132-13.112,6.828
				c-8.162,1.125-16.845,0.081-24.119-3.607c-1.092,3.259-2.807,6.285-5.201,8.849c-0.123,0.132-0.256,0.251-0.382,0.38
				c7.595-0.516,15.252,0.014,22.698,1.689c8.574,1.929,17.749,6.14,20.722,14.41c3.409,9.485-2.716,19.288-6.109,28.873
				c7.309-0.285,14.632-0.342,21.861,0.412C306.95,331.614,301.333,320.171,301.938,309.574z"/>
			<path fill="#EDD6CE" d="M93.474,282.313c-5.732-6.523-10.55-14.245-11.692-22.853s2.067-18.167,9.425-22.778
				c1.276-0.8,2.602-1.419,3.965-1.889c-12.698-22.837-22.749-47.738-42.834-63.039c-0.445,0.177-0.894,0.343-1.334,0.537
				c-6.803,2.998-12.764,7.96-18.785,12.574c-1.23,4.671-4.394,9.109-6.991,13.588c-1.009,1.74-1.921,3.498-2.781,5.266
				c0.686,0.707,1.383,1.402,2.087,2.083c5.984,5.787,12.601,10.911,19.674,15.3c0.26,2.873,0.645,5.732,1.134,8.574
				c4.155-0.029,8.332,0.049,12.362,1.022c10.758,2.598,19.381,11.718,22.483,22.342c3.101,10.623,1.013,22.406-4.54,31.979
				c-0.405,0.698-0.829,1.381-1.266,2.055c5.991,5.805,13.066,10.41,21.205,11.652c5.021,0.767,10.402-0.225,14.936-2.562
				C104.106,292.65,98.275,287.776,93.474,282.313z"/>
			<path fill="#E3DFBC" d="M-42.594,211.892c8.135-5.769,19.278-3.29,28.857-0.516c4.281,1.24,8.697,2.565,12.092,5.452
				c6.059,5.151,7.391,13.832,8.313,21.731c0.174,1.492,0.353,2.993,0.536,4.496c6.142-12.917,8.968-26.448,15.241-39.336
				c0.86-1.768,1.773-3.526,2.781-5.266c2.597-4.478,5.761-8.916,6.991-13.588c-7.106,5.445-14.294,10.404-23.044,11.065
				c-8.569,0.648-16.753-3.121-24.174-7.603c-0.816,1.488-1.729,2.919-2.787,4.251c-8.909,11.221-25.378,13.71-36.232,22.679
				c-2.43,8.034-6.776,15.843-12.914,23.067c-0.455,0.536-0.923,1.068-1.395,1.599c2.928,5.001,5.683,10.29,8.165,15.934
				c0.662-10.655,3.997-21.045,8.329-30.83C-49.638,220.071-47.016,215.028-42.594,211.892z"/>
			<path fill="#D1CDEB" d="M-27.562,303.956c-5.756-9.646-5.537-23.756,3.359-30.614c9.561-7.371,24.345-3.725,35.105-8.053
				c-1.712-7.277-2.788-14.805-3.695-22.234c-0.184-1.503-0.362-3.004-0.536-4.496c-0.922-7.899-2.254-16.58-8.313-21.731
				c-3.396-2.887-7.812-4.212-12.092-5.452c-9.58-2.774-20.722-5.253-28.857,0.516c-4.421,3.136-7.043,8.179-9.238,13.135
				c-4.332,9.785-7.667,20.175-8.329,30.83c1.819,4.137,3.496,8.458,4.979,13.004c2.147,6.583,3.862,13.68,5.016,21.008
				c0.326,0.39,0.65,0.782,0.993,1.16c4.283,4.716,9.685,8.267,14.288,12.671c6.772,6.48,11.741,14.825,14.211,23.866
				c0.707,2.587,1.233,5.268,1.736,7.96c3.723,4.683,5.371,11.04,4.663,17.035c0.938,1.887,2.076,3.668,3.518,5.285
				c1.055,1.184,2.226,2.215,3.478,3.132c-2.19-9.411-1.521-19.133,3.257-27.619c0.743-1.32,1.632-2.647,2.975-3.348
				c1.636-0.854,3.597-0.616,5.436-0.47c5.968,0.474,12.03-0.271,17.705-2.176c8.877-2.979,16.98-8.768,26.12-10.147
				c-0.361-2.036-0.838-4.038-1.441-5.997c-11.416,6.61-24.056,11.461-37.191,11.586C-4.955,322.947-20.114,316.439-27.562,303.956z
				"/>
			<path fill="#D9D2D9" d="M300.914,310.542c-2.973-8.271-12.147-12.482-20.722-14.41c-7.447-1.675-15.103-2.205-22.698-1.689
				c-3.433,3.522-7.801,5.987-12.115,8.368c-7.753,4.28-15.653,8.554-24.273,10.587c-4.37,1.031-8.794,1.449-13.22,1.375
				c-3.377,2.928-6.516,6.132-9.347,9.609c-1.689,2.074-3.282,4.239-4.839,6.437c-18.3,10.23-36.601,20.459-54.901,30.689
				c-2.593,1.449-5.268,2.97-7.027,5.364c-3.211,4.369-2.488,10.71,0.378,15.313c2.865,4.603,7.465,7.818,12.05,10.712
				c7.982,5.038,16.932,9.653,26.345,8.941c16.163-1.222,26.996-17.102,41.828-23.639c12.368-5.451,26.472-4.007,40.003-4.451
				c-1.232-1.331-2.254-2.84-2.97-4.548c-3.614-8.627,2.048-18.886,10.118-23.613c8.07-4.728,17.822-5.32,27.164-5.794
				c2.7-0.137,5.408-0.272,8.117-0.377C298.198,329.83,304.323,320.026,300.914,310.542z"/>
			<path fill="#D9D2D9" d="M400.645,327.637c-4.169-0.428-8.08-2.035-12.049-3.437c8.028,4.612,16.056,9.224,24.084,13.836
				c3.916,2.25,7.963,4.643,11.161,7.761c1.538-0.582,3.078-1.073,4.62-1.434c0.347-0.179,0.701-0.346,1.058-0.505
				c2.764-6.395,3.389-13.509,5.2-20.249c1.061-3.95,2.719-7.957,5.166-11.199c-2.148-1.662-4.362-3.242-6.673-4.701
				c-1.698-1.072-3.44-2.076-5.202-3.046c-0.337,1.845-0.818,3.666-1.483,5.44C422.59,320.6,411.799,328.781,400.645,327.637z"/>
			<path fill="#EDD6CE" d="M701.208,338.194c6.688,0.431,13.952-0.316,19.492-1.916c-2.818-2.579-6.454-4.275-10.027-5.755
				c-13.761-5.701-28.177-9.812-42.872-12.244c1.75,3.699,3.028,7.638,3.683,11.652C679.283,333.887,689.212,337.42,701.208,338.194
				z"/>
			<path fill="#E3EACA" d="M263.077,285.214c7.274,3.687,15.958,4.732,24.119,3.607c5.049-0.696,10.45-2.481,13.112-6.828
				c1.207-1.971,1.723-4.277,2.279-6.553c-1.58-7.536-0.378-15.055,1.604-22.142c1.931-6.906,4.817-13.86,10.67-18.562
				c-2.079-0.864-4.228-1.522-6.47-1.856c-9.88-1.472-19.46,3.475-28.227,8.264c-8.066,4.406-16.131,8.812-24.197,13.218
				c0.745,0.796,1.468,1.616,2.139,2.487C264.2,264.758,266.186,275.938,263.077,285.214z"/>
			<path fill="#E5F0C7" d="M95.172,234.794c-1.363,0.47-2.689,1.089-3.965,1.889c-7.358,4.611-10.567,14.17-9.425,22.778
				s5.96,16.33,11.692,22.853c4.801,5.463,10.632,10.337,17.047,13.852c8.069,4.421,17.063,6.69,26.098,5.255
				c6.197-0.984,12.215-3.657,18.475-3.221c1.909,0.133,3.972,0.502,5.949,0.631c-4.918-3.107-9.515-6.69-13.19-11.171
				c-3.932-4.795-6.712-10.759-7.227-16.875c-2.361,0.347-4.692,0.831-6.95,1.486c-4.071-8.979-6.22-19.226-10.592-28.179
				c-1.623-3.322-3.55-6.446-5.671-9.444c-0.834,0.323-1.649,0.697-2.444,1.118C108.249,233.676,101.323,232.673,95.172,234.794z"/>
			<path fill="#E5F0C7" d="M671.485,329.931c-0.655-4.014-1.933-7.953-3.683-11.652c-3.064-0.507-6.139-0.947-9.224-1.307
				c-9.049-1.056-18.333-1.516-26.803-4.873c-2.132-0.845-4.171-1.871-6.161-2.994c-0.623,0.754-1.246,1.507-1.839,2.261
				c-8.068,10.265-10.793,21.266-17.31,31.748c9.341,6.55,20.385,10.38,31.493,8.616c6.197-0.984,12.215-3.657,18.475-3.221
				c1.246,0.087,2.557,0.274,3.867,0.43c3.569-1.679,7.122-3.403,10.696-5.077c0.112-0.401,0.208-0.807,0.293-1.211
				C672.173,338.459,672.174,334.154,671.485,329.931z"/>
			<path fill="#DBF4CE" d="M-26.719,118.578c4.771,1.935,8.579,5.749,11.453,10.021c3.845,5.714,6.108,12.18,7.123,18.937
				c13.491-7.541,26.982-15.083,40.473-22.624c0.185-0.261,0.377-0.516,0.564-0.777c-4.222-3.432-8.79-6.454-13.808-8.532
				c-12.842-5.317-27.331-4.077-41.167-2.747c-1.146,0.11-2.309,0.231-3.45,0.428c-1.058,1.46-1.86,3.111-2.403,4.861
				C-27.528,118.282-27.121,118.415-26.719,118.578z"/>
			<path fill="#DBF4CE" d="M411.079,369.223c1.988-3.303,4.445-6.3,6.963-9.249c0.146-2.215,0.666-4.401,1.577-6.429
				c1.176-2.619,2.988-4.917,5.19-6.753c-0.312-0.34-0.635-0.671-0.967-0.995c-3.198-3.118-7.245-5.511-11.161-7.761
				c-8.028-4.612-16.056-9.224-24.084-13.836c-0.432-0.153-0.865-0.299-1.299-0.445c-2.244,6.373-7.575,11.57-14.112,15.646
				c16.43,4.568,27.831,23.377,24.433,40.387c-0.89,4.453-2.677,8.613-5.129,12.358c0.816-0.013,1.628-0.035,2.435-0.065
				c3.671-0.137,7.388-0.377,11.087-0.458C405.18,383.938,407.065,375.89,411.079,369.223z"/>
			<path fill="#DBD7BC" d="M478.378,387.263c-3.786-0.231-7.572-0.462-11.358-0.693c-10.112-0.617-20.334-1.253-30.021-4.217
				c-5.541-1.695-11.043-4.286-14.715-8.768c-3.089-3.769-4.562-8.759-4.242-13.612c-2.519,2.949-4.975,5.946-6.963,9.249
				c-4.014,6.667-5.899,14.715-5.067,22.4c6.322-0.138,12.594,0.19,18.503,2.309c7.074,2.536,13.232,7.528,20.604,8.983
				c2.359,0.466,4.759,0.544,7.166,0.455C458.8,395.483,469.11,391.975,478.378,387.263z"/>
			<path fill="#DBD7BC" d="M429.52,343.857c2.16-0.959,4.483-1.539,6.849-1.634c2.661-0.107,5.256,0.334,7.825,1.007
				c6.625,9.508,15.222,18.042,26.46,19.011c8.694,0.749,16.984-3.288,24.962-6.825c2.022-0.896,4.062-1.767,6.119-2.598
				c0.085-0.477,0.166-0.954,0.241-1.432c-9.913-2.494-18.88-9.033-25.123-17.279c-6.127-8.092-9.98-18.821-7.525-28.466
				c-3.818,1.413-7.575,3.032-11.303,4.655c-4.511,1.964-9.022,3.928-13.534,5.891c-1.494-1.308-3.034-2.563-4.604-3.778
				c-2.447,3.242-4.105,7.249-5.166,11.199C432.909,330.348,432.283,337.462,429.52,343.857z"/>
			<path fill="#E3DFBC" d="M556.337,292.258c0.093,0.114,0.186,0.229,0.279,0.343c2.801,3.466,5.681,7.149,6.44,11.54
				c0.533,3.081-0.038,6.25-0.906,9.254c-2.5,8.648-7.525,16.55-14.298,22.481c-2.549,2.233-5.331,4.185-8.171,6.033
				c-1.891,1.23-3.832,2.417-5.816,3.529c11.218-0.057,22.646,3.156,30.968,10.606c3.609,3.231,6.511,8.001,7.101,12.651
				c14.501-4.928,25.099-12.796,31.234-20.791c1.213-1.581,2.297-3.179,3.298-4.789c6.517-10.482,9.242-21.483,17.31-31.748
				c0.593-0.754,1.216-1.507,1.839-2.261c-5.077-2.862-9.803-6.41-14.691-9.622c-10.221-6.717-21.382-11.996-33.046-15.673
				c-5.303,1.306-9.978,3.17-13.442,5.414C561.386,289.945,558.651,291.001,556.337,292.258z"/>
			<path fill="#F2CFD5" d="M304.19,253.297c-1.982,7.087-3.184,14.606-1.604,22.142c0.203,0.97,0.447,1.939,0.746,2.909
				c1.344,4.345,3.665,8.579,6.257,12.764c-4.406,5.371-7.259,11.589-7.652,18.462c-0.605,10.596,5.012,22.04,14.727,30.252
				c2.899,0.302,5.785,0.729,8.647,1.332c4.58,0.965,9.27,2.345,13.955,3.547c9.704-3.702,19.449-7.315,29.503-6.176
				c1.507,0.171,2.978,0.473,4.415,0.873c6.537-4.076,11.868-9.273,14.112-15.646c-1.21-0.407-2.427-0.788-3.664-1.09
				c-16.749-4.083-36.408,4.974-50.699-4.668c-8.379-5.653-12.057-17.367-8.414-26.795c1.049-2.717,2.619-5.209,4.417-7.5
				c6.686-8.52,16.742-14.318,27.464-15.837c4.073-0.577,8.218-0.562,12.368-0.438c-0.144-0.565-0.294-1.13-0.427-1.696
				c-0.025-0.105-0.047-0.21-0.072-0.315c-4.771-0.968-9.736-1.268-14.596-1.786c-2.007-0.214-4.007-0.485-6.003-0.781
				c-6.914-7.601-13.828-16.383-20.742-21.077c-3.846-2.611-7.809-5.264-12.07-7.035
				C309.007,239.438,306.121,246.391,304.19,253.297z"/>
			<path fill="#EADBD8" d="M61.815,390.708c2.891-1.033,5.003-3.481,7.499-5.269c7.58-5.43,17.808-4.37,27.115-3.794
				c9.306,0.576,20.083-0.248,25.646-7.731c7.153-9.623,0.925-23.433-7.029-32.406c-5.016-5.658-10.886-10.835-17.991-13.421
				c-7.087-2.58-14.611-2.357-22.105-0.98c-6.971-6.257-14.956-10.647-24.144-10.168c-0.876,0.046-1.737,0.15-2.593,0.279
				c-9.14,1.379-17.243,7.168-26.12,10.147c-5.676,1.905-11.738,2.65-17.705,2.176c-1.84-0.146-3.801-0.384-5.436,0.47
				c-1.343,0.701-2.232,2.028-2.975,3.348c-4.777,8.487-5.447,18.208-3.257,27.619c2.036,8.751,6.545,17.233,12.557,24.202
				c15.965,1.512,31.81,4.257,47.349,8.223c0.683-0.471,1.399-0.885,2.182-1.183C57.045,391.369,59.56,391.514,61.815,390.708z"/>
			<path fill="#F0E2CD" d="M356.402,267.864c-10.723,1.519-20.779,7.318-27.464,15.837c-1.798,2.291-3.368,4.784-4.417,7.5
				c-3.643,9.428,0.036,21.142,8.414,26.795c14.291,9.643,33.95,0.585,50.699,4.668c1.237,0.301,2.454,0.683,3.664,1.09
				c0.434,0.146,0.867,0.292,1.299,0.445c3.969,1.402,7.879,3.01,12.049,3.437c11.153,1.144,21.944-7.037,25.882-17.535
				c0.665-1.774,1.146-3.595,1.483-5.44c-8.969-4.936-18.545-8.895-26.485-15.33c-8.675-7.03-15.283-16.922-25.467-21.501
				c-0.146-0.066-0.294-0.123-0.441-0.186c-2.277-0.056-4.562-0.152-6.848-0.22C364.621,267.302,360.475,267.287,356.402,267.864z"
				/>
			<path fill="#E9DFD6" d="M476.853,334.107c6.243,8.245,15.21,14.785,25.123,17.279c0.715,0.18,1.432,0.348,2.156,0.484
				c8.57-3.299,17.44-5.795,26.575-6.34c1.048-0.063,2.102-0.086,3.157-0.092c1.984-1.112,3.925-2.299,5.816-3.529
				c2.84-1.848,5.622-3.801,8.171-6.033c6.773-5.931,11.798-13.833,14.298-22.481c0.868-3.004,1.439-6.173,0.906-9.254
				c-0.759-4.391-3.639-8.074-6.44-11.54c-0.092-0.114-0.186-0.229-0.279-0.343c-3.925-4.842-8.279-9.823-13.975-12.024
				c-3.015,1.618-5.305,4.322-7.468,6.995c-11.099,2.392-21.495,10.296-32.962,12.748c-6.127,1.31-12.483,1.031-18.685,1.922
				c-4.774,0.687-9.39,2.066-13.919,3.742C466.873,315.286,470.726,326.015,476.853,334.107z"/>
			<path fill="#E7E3C9" d="M161.044,298.83c2.051,1.296,4.151,2.518,6.274,3.673c12.492,6.803,26.546,12.034,40.568,12.269
				c4.427,0.074,8.85-0.344,13.22-1.375c8.62-2.033,16.52-6.306,24.273-10.587c4.314-2.381,8.682-4.846,12.115-8.368
				c0.125-0.129,0.259-0.248,0.382-0.38c2.394-2.564,4.109-5.59,5.201-8.849c3.108-9.276,1.123-20.455-4.971-28.365
				c-0.671-0.871-1.394-1.691-2.139-2.487c-5.239,2.862-10.477,5.724-15.716,8.585c-2.439,1.332-4.95,2.748-7.182,4.43
				c-10.334-1.642-20.719-2.141-30.957-0.134c-4.553,0.892-9.005,2.27-13.578,3.051c-11.96,2.043-24.191-0.057-36.323-0.218
				c-3.822-0.051-7.743,0.146-11.583,0.71c0.515,6.116,3.295,12.079,7.227,16.875C151.529,292.14,156.126,295.723,161.044,298.83z"
				/>
			<path fill="#DFDCC0" d="M80.187,253.041c-3.101-10.623-11.725-19.743-22.483-22.342c-4.03-0.973-8.208-1.051-12.362-1.022
				c-0.535,0.004-1.07,0.009-1.604,0.014c-2.473,0.026-5.134,0.112-7.109,1.602c-1.344,1.014-2.179,2.546-2.974,4.03
				c-2.18,4.07-4.359,8.14-6.539,12.21c-1.197,1.298-2.297,2.686-3.282,4.14c-2.276,3.359-4.069,7.116-7.017,9.903
				c-1.759,1.663-3.759,2.845-5.916,3.713c-10.76,4.328-25.544,0.681-35.105,8.053c-8.896,6.858-9.114,20.968-3.359,30.614
				c7.448,12.482,22.607,18.991,37.142,18.852c13.136-0.126,25.776-4.977,37.191-11.586c1.216-0.704,2.423-1.422,3.61-2.163
				c9.279-5.788,18.074-12.838,23.999-21.984c0.437-0.674,0.861-1.358,1.266-2.055C81.199,275.447,83.288,263.664,80.187,253.041z"
				/>
			<path fill="#E9DDCB" d="M373.186,339.401c-1.437-0.399-2.908-0.702-4.415-0.873c-10.054-1.139-19.799,2.474-29.503,6.176
				c-4.685-1.202-9.375-2.582-13.955-3.547c-2.862-0.603-5.747-1.029-8.647-1.332c-7.229-0.754-14.552-0.697-21.861-0.412
				c-2.71,0.106-5.417,0.24-8.117,0.377c-9.341,0.474-19.093,1.066-27.164,5.794c-8.071,4.728-13.732,14.987-10.118,23.613
				c0.716,1.708,1.738,3.218,2.97,4.548c3.389,3.66,8.417,5.934,13.399,6.999c6.793,1.452,13.845,1.176,20.695,2.332
				c23.524,3.973,42.368,24.248,65.676,27.421c2.854-1.392,5.626-2.964,8.388-4.534c8.224-4.671,16.449-9.343,24.673-14.014
				c2.421,0.188,4.866,0.233,7.282,0.194c2.453-3.745,4.24-7.905,5.129-12.358C401.016,362.778,389.616,343.969,373.186,339.401z"/>
			<path fill="#D9D4D9" d="M564.832,356.045c-8.321-7.45-19.75-10.663-30.968-10.606c-1.055,0.005-2.108,0.029-3.157,0.092
				c-9.135,0.545-18.005,3.041-26.575,6.34c-0.802,0.309-1.601,0.626-2.398,0.947c-2.057,0.831-4.098,1.702-6.119,2.598
				c-7.977,3.537-16.267,7.574-24.962,6.825c-11.238-0.968-19.835-9.503-26.46-19.011c-2.569-0.673-5.164-1.114-7.825-1.007
				c-2.365,0.095-4.689,0.675-6.849,1.634c-0.357,0.159-0.711,0.326-1.058,0.505c-1.302,0.673-2.527,1.49-3.653,2.429
				c-2.202,1.837-4.014,4.135-5.19,6.753c-0.911,2.029-1.431,4.215-1.577,6.429c-0.321,4.853,1.153,9.842,4.242,13.612
				c3.672,4.482,9.174,7.073,14.715,8.768c9.687,2.963,19.91,3.6,30.021,4.217c3.786,0.231,7.572,0.462,11.358,0.693
				c17.035,1.04,34.07,2.079,51.106,3.118c5.958,0.364,12.023,0.718,17.821-0.701c6.159-1.508,11.651-4.928,17.024-8.296
				c2.051-1.286,4.148-2.613,5.615-4.538c1.83-2.401,2.356-5.253,1.988-8.151C571.343,364.046,568.44,359.275,564.832,356.045z"/>
			<path fill="#D9D2D9" d="M-8.143,147.536c-4.809,2.688-9.619,5.377-14.428,8.065c-2.593,1.449-5.268,2.97-7.027,5.364
				c-3.211,4.369-2.488,10.71,0.378,15.313c2.865,4.603,7.465,7.818,12.05,10.712c0.715,0.451,1.441,0.897,2.171,1.338
				c7.421,4.482,15.605,8.252,24.174,7.603c8.75-0.662,15.938-5.62,23.044-11.065c6.02-4.613,11.982-9.576,18.785-12.574
				c0.441-0.194,0.889-0.36,1.334-0.537c5.042-2.006,10.349-2.955,15.777-3.394c-9.484-15.41-19.328-30.445-32.89-42.27
				c-0.764-0.666-1.544-1.315-2.332-1.956c-0.186,0.26-0.379,0.515-0.564,0.777C18.839,132.454,5.348,139.995-8.143,147.536z"/>
		</g>
		<g>
			<path fill="#FFFFFF" d="M20.757,295.956c0.173-0.443,0.21-0.937,0.046-1.446c-0.382-1.18-1.729-2.188-3.02-1.715
				c-1.241,0.456-2.482,0.911-3.724,1.367c-1.458,0.535-2.887,1.013-3.74,2.415c-0.706,1.16-0.677,2.555-0.542,3.853
				c0.15,1.433,0.342,2.863,0.575,4.285c0.201,1.225,0.285,2.788,1.026,3.826c0.653,0.914,1.639,1.46,2.78,1.455
				c0.591-0.003,1.198-0.132,1.784-0.205c0.625-0.078,1.25-0.155,1.875-0.233c0.748-0.093,1.558-0.113,2.285-0.302
				c0.952-0.247,1.725-0.871,2.108-1.777c0.406-0.962,0.135-1.936-0.028-2.921C21.708,301.691,21.232,298.824,20.757,295.956z"/>
			<path fill="#FFFFFF" d="M58.607,276.821c-0.267-1.228-0.438-2.546-0.843-3.737c-0.66-1.943-2.79-2.709-4.626-1.934
				c-0.407,0.172-0.748,0.403-1.061,0.658c-0.071,0.001-0.144-0.003-0.211,0.001c-0.012,0.001-0.011,0.001-0.021,0.002
				c-0.125-0.026-0.25-0.056-0.375-0.083c-0.877-0.185-1.735-0.228-2.543,0.241c-0.598,0.347-1.039,0.902-1.326,1.522
				c-0.977,2.118-1.222,4.404-1.257,6.715c-0.016,1.055-0.013,2.11-0.018,3.165c-0.004,0.996-0.058,2.057,0.254,3.018
				c0.47,1.448,1.592,2.509,3.12,2.715c0.973,0.131,1.985,0.054,2.963-0.019c2.576-0.192,4.888-0.8,6.932-2.432
				c0.689-0.55,0.804-1.596,0.631-2.388C59.686,281.783,59.147,279.302,58.607,276.821z"/>
			<path fill="#FFFFFF" d="M90.964,244.089c-0.938-1.579-1.887-3.152-2.846-4.718c-0.586-0.957-1.651-1.341-2.676-1.117
				c-0.076-0.009-0.148-0.025-0.227-0.027c-2.037-0.054-4.058,0.166-5.663,1.54c-1.685,1.442-1.907,3.536-1.335,5.567
				c0.954,3.392,2.429,6.667,4.319,9.639c0.816,1.282,2.743,1.7,3.856,0.497c0.499-0.54,1.001-1.079,1.534-1.586
				c0.26-0.247,0.529-0.48,0.804-0.709c0.041-0.031,0.089-0.068,0.142-0.105c0.141-0.098,0.284-0.194,0.431-0.283
				c0.146-0.09,0.295-0.174,0.447-0.254c0.108-0.057,0.204-0.102,0.228-0.116c0.331-0.125,0.665-0.236,0.992-0.374
				c1.008-0.425,1.928-1.17,2.205-2.286c0.311-1.256-0.232-2.297-0.846-3.347C91.877,245.634,91.422,244.861,90.964,244.089z
				 M89.103,247.531C89.176,247.5,89.188,247.5,89.103,247.531L89.103,247.531z"/>
		</g>
		<g>
			<path fill="#FFFFFF" d="M198.039,364.916c-0.154-0.286-0.365-0.516-0.632-0.689c-0.237-0.217-0.515-0.363-0.835-0.439
				c-0.628-0.143-1.334-0.112-1.892,0.247c-0.51,0.329-1.016,0.847-1.128,1.467c-0.22,1.219-0.482,2.44-0.631,3.67
				c-0.013,0.338,0.058,0.653,0.211,0.946c0.099,0.304,0.268,0.568,0.508,0.79c0.222,0.239,0.486,0.409,0.79,0.508
				c0.292,0.154,0.608,0.224,0.946,0.211c0.635-0.028,1.293-0.237,1.736-0.719c0.128-0.166,0.256-0.331,0.384-0.497
				c0.117-0.202,0.199-0.413,0.255-0.632c0.178-0.991,0.357-1.981,0.536-2.972c0.102-0.326,0.117-0.653,0.044-0.979
				C198.316,365.502,198.218,365.198,198.039,364.916z"/>
			<path fill="#FFFFFF" d="M217.064,356.257c-0.053-0.098-0.121-0.18-0.187-0.265c-0.075-0.148-0.167-0.287-0.282-0.412
				c-0.173-0.267-0.403-0.478-0.689-0.632c-0.282-0.179-0.586-0.276-0.913-0.291c-0.326-0.073-0.653-0.058-0.979,0.044
				c-0.594,0.192-1.167,0.56-1.467,1.128c-0.31,0.587-0.423,1.239-0.248,1.892c0.248,0.921,0.496,1.843,0.744,2.764
				c0.076,0.319,0.222,0.598,0.439,0.835c0.173,0.267,0.403,0.478,0.689,0.632c0.282,0.179,0.586,0.277,0.913,0.291
				c0.326,0.073,0.653,0.059,0.979-0.044c0.594-0.192,1.167-0.56,1.467-1.128c0.082-0.195,0.165-0.391,0.247-0.586
				c0.038-0.143,0.045-0.286,0.058-0.429c0.084-0.155,0.153-0.317,0.193-0.492c0.029-0.217,0.058-0.435,0.088-0.653
				c-0.001-0.443-0.113-0.856-0.335-1.239C217.542,357.2,217.303,356.729,217.064,356.257z"/>
			<path fill="#FFFFFF" d="M252.961,344.771c-0.016-1.157-0.423-2.319-0.69-3.439c-0.283-1.186-0.565-2.371-0.848-3.557
				c-0.188-0.789-0.535-1.39-1.262-1.787c-0.422-0.23-0.965-0.36-1.476-0.307c-0.289-0.183-0.62-0.305-0.99-0.329
				c-1.214-0.078-2.428-0.156-3.641-0.235c-1.372-0.088-2.494,0.796-2.718,2.16c-0.318,1.935-0.48,3.892-0.47,5.854
				c0.006,1.243-0.017,2.46,0.341,3.66c0.415,1.388,1.697,2.545,3.184,2.584c1.207,0.032,2.16-0.492,3.11-1.162
				c0.02,0.002,0.04,0.003,0.06,0.005c0.165,0.018,0.33,0.046,0.494,0.072c0.947,0.155,1.883,0.214,2.8-0.139
				C252.235,347.62,252.981,346.186,252.961,344.771z"/>
			<path fill="#FFFFFF" d="M281.576,325.203c-0.122-1.329-0.403-2.665-0.673-3.885c-0.234-1.059-0.508-2.088-1.251-2.918
				c-0.701-0.783-1.847-1.235-2.889-1.125c-1.545,0.163-2.768,1.024-3.462,2.254c-0.421,0.166-0.82,0.412-1.174,0.773
				c-0.916,0.936-1.055,2.173-0.908,3.409c0.108,0.915,0.217,1.831,0.325,2.746c0.218,1.838,0.359,3.844,1.795,5.2
				c1.539,1.452,3.939,1.571,5.683,0.399c0.612-0.411,1.084-0.89,1.458-1.413c0.243,0.01,0.488-0.008,0.734-0.088
				c1.227-0.399,2.113-1.706,1.707-3.02C282.653,326.667,282.195,325.858,281.576,325.203z"/>
			<path fill="#FFFFFF" d="M313.364,288.376c-0.032-1.06-0.682-2.025-1.771-2.334c-1.645-0.468-3.302,0.078-4.552,1.186
				c-1.199,1.063-1.716,2.578-1.846,4.132c-0.118,1.412,0.246,2.854,0.527,4.229c0.277,1.353,0.553,2.705,0.83,4.058
				c0.372,1.821,2.879,2.353,4.103,1.083c0.12-0.125,0.528-0.391,0.606-0.557c0.024-0.017,0.048-0.034,0.073-0.05
				c0.119-0.079,0.241-0.154,0.364-0.225c0.124-0.071,0.254-0.131,0.377-0.203c0.011-0.006,0.013-0.008,0.023-0.014
				c0.277-0.097,0.55-0.194,0.836-0.262c0.111-0.026,0.223-0.046,0.335-0.071c0.029-0.006,0.036-0.008,0.057-0.013
				c0.386-0.049,0.78-0.085,1.155-0.195c1.058-0.309,1.895-1.018,2.324-2.034c0.766-1.815-0.35-3.46-1.238-4.974
				C314.832,290.88,314.098,289.628,313.364,288.376z"/>
			<path fill="#FFFFFF" d="M336.133,253.679c-0.106-0.288-0.259-0.561-0.445-0.809c-0.004-0.007-0.005-0.015-0.009-0.021
				c-0.716-1.224-2.158-1.453-3.359-0.881c-3.22,1.535-6.373,3.732-6.724,7.584c-0.183,2.012,0.545,4.071,1.209,5.941
				c0.704,1.979,1.549,3.914,2.516,5.779c0.627,1.21,2.236,1.479,3.359,0.881c1.651-0.88,3.304-1.757,4.955-2.639
				c0.83-0.444,1.665-0.97,2.166-1.796c0.612-1.009,0.651-2.215,0.277-3.314C338.853,260.801,337.447,257.25,336.133,253.679z"/>
		</g>
		<g>
			<path fill="#FFFFFF" d="M366.929,375.327c0.013-0.338-0.058-0.653-0.211-0.946c-0.099-0.304-0.268-0.568-0.508-0.79
				c-0.166-0.128-0.331-0.256-0.497-0.384c-0.383-0.222-0.796-0.334-1.239-0.335c-0.217,0.029-0.435,0.058-0.653,0.088
				c-0.416,0.117-0.777,0.327-1.083,0.631c-0.153,0.181-0.295,0.373-0.437,0.562c-0.022,0.029-0.043,0.058-0.063,0.088
				c-0.04,0.06-0.075,0.123-0.106,0.188c-0.103,0.216-0.191,0.442-0.282,0.663c-0.014,0.033-0.027,0.067-0.038,0.101
				c-0.025,0.072-0.044,0.146-0.059,0.22c-0.007,0.035-0.012,0.071-0.017,0.107c-0.002,0.014-0.003,0.028-0.005,0.042
				c-0.058,0.167-0.098,0.339-0.106,0.519c-0.073,0.326-0.059,0.653,0.044,0.979c0.021,0.049,0.042,0.099,0.063,0.148
				c0.006,0.036,0.008,0.072,0.014,0.107c0.013,0.075,0.032,0.149,0.056,0.221c0.076,0.319,0.222,0.598,0.439,0.835
				c0.173,0.267,0.403,0.478,0.689,0.632c0.195,0.082,0.391,0.165,0.586,0.247c0.435,0.117,0.87,0.117,1.305,0
				c0.009-0.002,0.018-0.004,0.027-0.007c0.085-0.027,0.526-0.21,0.604-0.255c0.007-0.004,0.014-0.008,0.022-0.012
				c0.032-0.019,0.48-0.365,0.507-0.391c0.007-0.007,0.014-0.013,0.021-0.02c0.04-0.038,0.361-0.455,0.391-0.506
				c0.064-0.106,0.092-0.203,0.147-0.334c0.05-0.119,0.109-0.22,0.137-0.34c0.025-0.106,0.082-0.554,0.09-0.665
				c0-0.009,0.002-0.017,0.002-0.026c0-0.125-0.032-0.272-0.046-0.379c-0.001-0.009-0.003-0.032-0.005-0.045l0,0
				C366.871,375.981,366.941,375.665,366.929,375.327z"/>
			<path fill="#FFFFFF" d="M386.476,365.699c-0.023-1.258,0.09-2.668-0.61-3.778c-0.494-0.784-1.206-1.296-2.072-1.599
				c-0.716-0.251-1.454-0.206-2.186-0.085c-0.607,0.1-1.155,0.396-1.652,0.749c-0.338,0.024-0.672,0.101-0.996,0.238
				c-0.946,0.399-1.639,1.173-1.924,2.169c-0.177,0.62-0.163,1.272-0.152,1.909c0.009,0.521,0.018,1.043,0.027,1.564
				c0.011,0.657,0.027,1.288,0.135,1.941c0.156,0.942,0.76,1.707,1.519,2.247c1.015,0.723,2.269,0.63,3.429,0.476
				c0.589-0.078,1.178-0.156,1.768-0.235c1.216-0.163,2.206-0.836,2.611-2.044c0.209-0.625,0.144-1.317,0.132-1.966
				C386.495,366.756,386.486,366.227,386.476,365.699z"/>
			<path fill="#FFFFFF" d="M405.921,343.243c-0.321-1.482-0.448-3.215-1.528-4.371c-0.227-0.243-0.491-0.438-0.776-0.582
				c-0.172-0.196-0.369-0.376-0.601-0.552c-0.869-0.66-2.209-0.75-3.218-0.414c-1.037,0.345-1.928,1.037-2.477,1.988
				c-1.055,1.831-0.591,4.029-0.251,5.984c0.151,0.873,0.328,1.741,0.531,2.603c0.24,1.024,0.421,2.221,1.168,3.013
				c0.572,0.605,1.353,0.929,2.187,0.904c0.601-0.018,1.077-0.237,1.614-0.458c0.838-0.346,1.677-0.692,2.515-1.038
				c0.59-0.243,1.152-0.531,1.467-1.128c0.318-0.603,0.393-1.221,0.247-1.892C406.507,345.947,406.214,344.595,405.921,343.243z"/>
			<path fill="#FFFFFF" d="M418.366,312.39c-0.143-0.931-0.244-1.955-0.738-2.782c-0.757-1.267-2.236-2.094-3.729-1.719
				c-0.072,0.018-0.133,0.046-0.201,0.068c-0.01-0.002-0.019-0.008-0.029-0.01c-1.506-0.299-3.057-0.416-4.472,0.296
				c-1.758,0.885-2.22,2.718-2.245,4.536c-0.041,3.064,0.432,6.171,1.368,9.088c0.486,1.513,2.183,2.276,3.606,1.467
				c0.099-0.059,0.201-0.114,0.303-0.166c0.244-0.115,0.206-0.103-0.114,0.035c0.143-0.12,0.478-0.168,0.656-0.215
				c0.111-0.029,0.224-0.055,0.337-0.078c0.273-0.047,0.226-0.045-0.14,0.007c0.117-0.078,0.464-0.036,0.604-0.038
				c0.189-0.003,0.375,0.011,0.563,0.02c0.081,0.016,0.162,0.031,0.243,0.049c0.214,0.05,0.418,0.121,0.626,0.187
				c0.079,0.039,0.158,0.078,0.235,0.121c1.665,0.887,3.634-0.221,3.694-2.12c0.058-1.852,0.007-3.704-0.166-5.549
				C418.668,314.518,418.528,313.451,418.366,312.39z"/>
			<path fill="#FFFFFF" d="M433.327,282.397c-0.734-3.967-1.469-7.934-2.203-11.902c-0.374-2.021-0.746-4.043-1.122-6.063
				c-0.36-1.933-1.122-3.867-3.174-4.519c-3.272-1.04-6.309,1.645-7.562,4.45c-0.004,0.008-0.006,0.016-0.009,0.024
				c-0.384,0.232-0.654,0.519-0.833,0.836c-1.564-0.287-3.49,0.964-3.001,3.009c1.167,4.888,2.727,9.665,4.672,14.299
				c0.913,2.174,1.818,5.381,4.671,5.512c1.389,0.064,2.702-0.745,3.929-1.297c1.168-0.526,2.336-1.051,3.504-1.577
				C433.239,284.702,433.511,283.39,433.327,282.397z"/>
		</g>
		<g>
			<path fill="#FFFFFF" d="M34.5,178.777c-0.636-2.352-1.272-4.705-1.908-7.057c-0.271-1.001-1.301-1.85-2.367-1.802
				c-0.151,0.007-0.298,0.027-0.44,0.056c-0.253-0.091-0.522-0.151-0.812-0.153c-2.274-0.01-4.601,0.685-6.421,2.065
				c-0.977,0.74-1.309,1.571-1.128,2.772c0.318,2.11,0.7,4.209,1.153,6.295c0.466,2.144,0.754,5.178,3.322,5.788
				c1.234,0.293,2.528-0.17,3.725-0.455c1.046-0.249,2.101-0.473,3.141-0.747c1.654-0.436,2.769-1.81,2.533-3.564
				C35.152,180.893,34.784,179.829,34.5,178.777z"/>
			<path fill="#FFFFFF" d="M65.89,151.547c-0.552-1.895-1.104-3.79-1.656-5.684c-0.538-1.847-1.011-3.738-1.625-5.555
				c-0.75-2.221-2.64-3.476-4.672-2.267c-1.461,0.868-2.807,2.153-4.165,3.21c-0.082,0.064-0.168,0.127-0.253,0.19
				c-1.951-0.09-3.893,0.733-5.266,2.342c-0.691,0.81-0.828,1.998-0.345,2.975c2.28,4.614,4.077,9.458,5.394,14.515
				c0.432,1.657,1.946,2.101,3.242,1.467c3.014-1.474,6.211-3.072,8.905-5.2C67.44,155.965,66.499,153.638,65.89,151.547z"/>
		</g>
	</g>
</g>
<g id="参考">
</g>
</svg>
