<?xml version="1.0" encoding="utf-8"?>
<!-- Generator: Adobe Illustrator 24.0.3, SVG Export Plug-In . SVG Version: 6.00 Build 0)  -->
<svg version="1.1" id="レイヤー_1" xmlns="http://www.w3.org/2000/svg" xmlns:xlink="http://www.w3.org/1999/xlink" x="0px"
	 y="0px" viewBox="0 0 550 172" enable-background="new 0 0 550 172" xml:space="preserve">
<path d="M357.394,62.428c-4.331,0.117-8.659,0.578-12.991,0.648c-2.712,0.015-2.243-0.249-2.354-2.305
	c-0.022-0.414,0.02-0.832,0.014-1.246c-0.032-2.387-0.55-1.754,2.014-1.983c1.58-0.087,3.167-0.052,4.75-0.057
	c6.918-0.027,13.834-0.049,20.751-0.073c0.334-0.001,0.669,0.02,1-0.004c2.345-0.077,2.02-0.124,2.039-2.096
	c0.046-1.917,0.066-3.833,0.109-5.75c0.01-0.497,0.032-1.001,0.119-1.489c0.056-0.318-0.073-0.889,0.368-0.879
	c1.297-0.091,2.608-0.083,3.9-0.064c1.414,0.021,0.943-0.013,1.054,1.769c0.07,2.166,0.083,4.334,0.173,6.5
	c0.12,2.164-0.414,2.071,2.06,2.029c3.417,0.014,6.833-0.056,10.249-0.105c1.848-0.027,1.757-0.247,1.855,2.187
	c-0.121,3.382,0,3.219-3.788,2.998c-2.912-0.055-5.827-0.093-8.739-0.033c-2.259,0-1.842-0.417-1.895,1.946
	c-0.125,4.83-0.214,9.662-0.25,14.493c-0.031,1.83,0.219,1.822,0.468,2.697c0.542,1.904,0.617,3.817-0.041,5.663
	c-1.245,3.495-1.296,7.19-1.912,10.784c-1.254,7.306-2.118,14.681-4.048,21.861c-1.212,3.652-0.039,3.554-4.09,2.055
	c-2.57-1.067-2.325-0.408-1.448-2.91c1.577-4.853,2.585-9.826,3.259-14.871c0.308-2.309,0.544-4.627,0.771-6.944
	c0.187-2.505,0.565-2.057-1.64-1.586c-2.944,0.697-5.608,0.066-8.204-1.276c-2.206-1.14-4.049-2.793-5.243-4.879
	c-2.06-3.601-1.866-7.415,0.259-10.935c2.79-4.625,7.465-6.453,13.141-5.508c4.052,0.749,3.69,2.533,3.726-3.032
	c0.073-1.908-0.095-3.829-0.198-5.74c-0.124-2.141,0.478-1.794-1.991-1.863c-0.249-0.013-0.501,0.002-0.751,0.002H357.394
	C357.395,62.531,357.393,62.323,357.394,62.428 M372.337,83.448c0.092-3.198,0.63-3.147-2.15-4.391
	c-1.032-0.462-1.737-0.799-3.515-0.919c-2.647-0.179-4.199,0.822-5.768,2.679c-1.585,1.877-1.209,4.046-0.241,6.123
	c1.166,2.503,3.369,3.702,6.313,3.59c2.613-0.099,4.089-1.393,4.855-3.551C372.19,85.97,372.167,84.658,372.337,83.448"/>
<path d="M288.779,78.798c0.09,5.996,0.318,11.993,0.22,17.985c-0.066,4.071-0.558,8.137-0.924,12.198
	c-0.141,1.556-0.297,1.611-1.898,1.529c-0.332-0.018-0.664-0.054-0.995-0.1c-2.835-0.467-2.69,0.331-2.299-3.026
	c0.887-8.311,0.826-16.644,0.547-24.977c-0.136-4.064-0.212-4.062-4.207-4.159c-4.556-0.032-3.552-0.091-4.082,3.554
	c-1.295,8.902-2.432,17.689-3.623,26.606c-0.276,3.008-0.358,4.94-0.479,7.354c-0.097,1.913-0.239,3.828-0.445,5.732
	c-0.057,0.521-0.118,1.617-0.424,1.677c-1.719,0.019-3.169,0.149-4.651,0.202c-0.836,0-0.807-0.545-0.797-0.876
	c0.035-1.13,0.023-1.546,0.08-2.482c1.015-9.441,2.133-18.873,3.071-28.323c0.707-7.134,1.977-13.066,3.091-21.245
	c0.551-2.69,1.201-5.361,1.805-8.041c0.074-0.324,0.157-0.649,0.2-0.978c0.729-2.716,0.606-2.42-1.971-2.392
	c-1.833-0.042-3.669,0.03-5.499-0.071c-2.194-0.09-1.812,0.153-1.706-2.082c0.304-3.464-0.568-3.343,3.926-3.466
	c0.582-0.017,1.17-0.053,1.741-0.048c5.444,0.042,2.565-0.709,1.479-2.108c-0.013-0.055-0.184,0.055,0.389-0.436
	c2.276-1.951,4.546-3.909,6.821-5.863c0.252-0.217,1.201-1.037,1.479-1.219c0.803-0.575,3.573,2.235,3.8,2.851
	c0.017,0.588-0.625,1.307-1.136,1.778c-1.468,1.355-3.034,2.603-4.54,3.92c-0.224,0.195-0.585,0.509-0.48,0.805
	c0.101,0.286,0.565,0.308,0.85,0.312c2.666,0.039,5.334,0.016,8,0.068c2.562-0.02,2.249-0.135,2.139,2.667
	c-0.054,2.725,0.094,2.331-2.315,2.344c-1.666,0.03-3.333,0.078-4.999,0.098c-2.432,0.029-1.953,0.097-2.341,2.119
	c-0.582,3.029-1.16,6.058-1.734,9.088c-0.444,2.341-0.201,2.674,2.129,2.737c2.583,0.071,5.166,0.079,7.747,0.146
	c1.704,0.044,1.666,0.069,1.682,1.882C288.444,75.971,288.708,77.384,288.779,78.798C288.828,78.798,288.73,78.798,288.779,78.798"
	/>
<path d="M33.341,58.314c6.382-0.162,12.657,0.632,18.394,4.113c9.21,5.586,14.114,15.613,14.504,26.161
	c0.224,6.039-1.801,11.205-5.219,16.033c-1.153,1.629-2.238,3.355-3.635,4.754c-4.526,4.532-9.953,7.457-16.329,8.433
	c-2.465,0.377-4.954,0.666-7.442,0.813c-2.359,0.139-2.523-0.373-2.411-2.809c0.004-0.083,0.01-0.167,0.016-0.249
	c0.138-2.126,0.138-2.119,2.341-2.283c6.897-0.513,13.142-2.385,18.452-7.013c4.096-3.569,7.003-7.732,7.741-13.254
	c1.33-9.956-1.285-18.703-9.374-24.96c-7.134-5.518-17.309-5.078-25.793-3.979c-2.639,0.342-5.249,0.909-7.874,1.365
	c-1.988,0.344-2.123,0.261-2.698-1.546c-0.101-0.317-0.182-0.641-0.254-0.967c-0.375-1.711-0.388-2.126,1.264-2.515
	c2.018-0.476,4.073-0.855,6.135-1.075C25.188,58.906,29.286,58.418,33.341,58.314"/>
<path d="M308.677,102.851c0,5.329,0.023,10.656-0.015,15.985c-0.01,1.491-0.048,2.721-0.164,4.533
	c-0.056,0.745,0.014,0.865-0.595,0.88c-1.46,0.135-3.1,0.088-4.565,0.073c-0.187-0.002-0.292,0.003-0.342-1.007
	c-0.043-0.759,0.014-1.431,0.035-2.178c0.125-4.243,0.15-8.551,0.261-12.795c0.091-3.491,0.19-6.983,0.154-10.475
	c-0.034-3.486-0.107-6.994-0.233-10.479c-0.003-0.083-0.004-0.167-0.009-0.249c-0.167-4.821,0.339-3.733-3.677-2.215
	c-1.455,0.596-3.019,0.927-4.473,1.525c-0.908,0.373-1.216-0.021-1.474-0.724c-0.115-0.313-0.21-0.633-0.3-0.953
	c-0.903-3.002-1.126-2.195,1.798-3.299c7.945-2.98,14.11-8.043,17.997-15.69c1.109-1.961,0.391-1.809,2.468-1.104
	c0.472,0.16,0.927,0.382,1.36,0.628c1.851,0.952,1.763,0.255,0.708,2.366c-1.556,3.433-3.438,6.645-6.22,9.265
	c-1.411,1.383-1.577,1.211-0.605,2.439c1.704,2.153,3.933,4.334,5.629,6.492c0.934,1.117,0.801,1.25,2.146,0.19
	c1.675-1.365,3.34-2.744,4.965-4.168c1.965-1.654,1.439-1.283,2.896-0.094c0.387,0.315,0.767,0.645,1.106,1.01
	c1.528,1.585,1.566,1.299,0.017,2.55c-1.747,1.409-3.362,2.978-5.064,4.444c-0.377,0.325-0.812,0.583-1.198,0.9
	c-1.379,1.127-1.397,0.574-0.439,2.431c1.607,3.192,3.171,6.406,4.695,9.638c0.627,1.327,0.533,1.419-0.831,1.961
	c-4.421,1.661-3.501,2.14-5.287-2.244c-2.333-6.275-4.519-8.763-7.087-12.847c-0.885-1.409-2.028-2.431-2.984-3.794
	c-0.118-0.167-0.437-0.331-0.606-0.285c-0.16,0.044-0.274,0.353-0.348,0.568c-0.051,0.146,0.005,0.328,0.005,0.494
	C308.401,92.032,308.677,97.442,308.677,102.851C308.769,102.851,308.586,102.851,308.677,102.851"/>
<path d="M155.349,123.529c-0.101-0.005-0.203-0.011-0.304-0.019c-3.194-0.213-6.467-1.193-8.749-3.438
	c-2.737-2.696-3.631-6.992-2.534-10.674c0.767-2.576,2.434-4.823,4.543-6.465c2.316-1.802,4.855-1.97,7.685-2.446
	c0.749-0.125,1.178-0.07,1.157,0.135c-0.025,0.248-0.063,1.553-0.074,1.802c-0.017,0.37,0.021,3.042-0.285,3.138
	c-1.092,0.341-2.388,0.809-2.774,0.932c-3.689,1.177-5.308,3.901-4.629,7.694c0.301,1.684,1.723,3.02,3.138,3.399
	c5.373,1.445,7.321,0.544,10.995-1.169c4.6-2.144,7.517-5.771,9.112-10.405c0.598-1.738,0.447-3.815,0.36-5.677
	c-0.347-7.315-3.556-11.794-9.782-14.707c-0.894-0.418-0.857-0.417-2.016-0.681c-1.998-0.457-1.692-0.075-1.628-1.973
	c0.017-0.499,0.064-0.999,0.055-1.497c-0.009-0.493-0.12-2.276,0.066-2.335c0.783-0.248,2.201,0.125,2.873,0.316
	c2.171,0.618,4.241,1.576,6.131,2.805c3.781,2.461,6.86,6.029,8.598,10.203c2.921,7.025,1.949,15.529-2.482,21.713
	C170.434,120.281,162.841,123.92,155.349,123.529"/>
<path d="M451.458,101.032c0.053,7.062-2.139,13.226-8.062,17.384c-5.399,3.79-11.44,6.013-18.136,3.999
	c-6.171-1.854-9.381-5.479-9.101-11.993c0.031-0.734,0.194-1.505,0.437-2.176c1.721-4.739,5.63-7.616,10.658-8.675
	c2.899-0.442,2.355-0.659,2.443,2.102c0.018,0.58-0.177,1.155-0.202,1.735c-0.076,1.897,0.114,1.692-1.651,1.721
	c-2.411,0.053-3.969,1.659-5.344,3.32c-0.566,0.685-0.806,1.858-0.761,2.788c0.132,2.722,1.804,5.174,4.386,5.965
	c5.837,1.788,9.054,0.421,12.891-2.397c0.803-0.59,1.595-1.291,2.345-1.937c1.815-1.568,3.037-3.561,3.6-5.883
	c1.213-4.997,1.136-9.902-1.221-14.624c-1.264-2.531-2.938-4.623-5.543-5.877c-2.335-1.125-4.688-2.347-7.334-2.494
	c-0.493-0.027-0.968-0.039-1.459-0.118c-1.607-0.259-1.191,0.167-1.118-1.674c0.535-4.368-0.64-3.292,3.378-3.058
	c4.535,0.269,8.624,2.016,12.263,4.539c2.854,1.979,4.389,5.178,5.757,8.332C450.929,94.876,451.423,97.913,451.458,101.032"/>
<path d="M114.049,120.758c-0.304,0.396-0.501,0.765-0.798,1.016c-0.893,0.749-1.86,1.411-2.729,2.185
	c-0.708,0.631-1.162,0.362-1.641-0.241c-1.194-1.498-2.479-2.931-3.585-4.491c-4.576-6.455-8.835-13.12-12.941-19.881
	c-2.375-3.912-4.624-7.901-6.906-11.869c-0.912-1.586-0.815-1.545,0.336-2.974c4.28-5.31,8.53-10.645,12.75-16.003
	c1.904-2.419,3.729-4.901,5.552-7.384c0.638-0.869,1.167-1.819,1.733-2.739c0.61-0.993,1.876-2.532,2.56-3.47
	c1.902-2.613,1.635-2.361,4.765-0.566c1.248,0.8,1.303,1.021,0.492,2.393c-3.056,5.174-6.628,9.986-10.353,14.689
	c-3.669,4.636-7.297,9.304-10.997,13.915c-0.741,0.924-0.834,1.698-0.251,2.708c1.371,2.381,2.556,4.876,4.031,7.188
	c3.493,5.471,7.027,10.922,10.718,16.261c1.84,2.662,4.066,5.057,6.101,7.586C113.295,119.586,113.633,120.151,114.049,120.758"/>
<path d="M156.946,54.522c0-0.011,0-0.031,0-0.006c4.412-0.114,8.827-0.102,13.239-0.218c0.416-0.011,0.815-0.032,1.227-0.002
	c0.293,0.043,1.878,2.444,1.753,2.687c-0.528,1.023-1.143,2.024-1.811,2.97c-1.055,1.494-2.225,2.909-3.276,4.406
	c-6.839,9.743-14.824,18.41-24.185,25.778c-2.092,1.647-4.204,3.287-6.456,4.71c-1.186,0.75-1.186,0.75-1.859-0.368
	c-0.558-0.925-1.108-1.854-1.657-2.785c-0.609-1.033-0.731-0.995,0.153-1.613c7.224-5.058,14.262-11.33,20.394-17.669
	c3.39-3.505,6.404-7.186,9.185-11.201c1.055-1.598,0.612-1.663-0.681-1.668c-2.494-0.01-4.99,0.109-7.485,0.149
	c-4.414,0.069-8.827,0.142-13.241,0.138c-0.449,0-1.261,0.115-1.308-0.218c-0.184-1.297-0.165-3.525-0.111-4.838
	c0.009-0.211,0.535-0.194,0.673-0.208c0.334-0.034,0.668-0.053,1.002-0.062c0.762-0.019,1.529,0.013,2.287,0.013h2.384h4.768h4.766
	C156.728,54.515,156.946,54.515,156.946,54.522"/>
<path d="M226.858,121.294c-2.644-0.087-5.135-0.497-7.814-1.991c-8.041-4.484-8.41-14.136-4.585-19.647
	c0.381-0.547,0.717-1.128,1.137-1.642c1.333-1.635,2.894-2.639,5.039-3.396c1.6-0.565,3.059-0.792,4.609-1.092
	c1.446-0.186,1.235-0.663,1.044-1.567c-0.431-2.034-1.338-3.762-3.464-4.568c-0.669-0.253-1.771-0.149-1.91-0.635
	c-0.381-1.321-0.097-2.936-0.117-4.327c-0.01-0.722,0.317-0.605,0.961-0.541c4.576,0.457,7.772,3.2,9.085,7.744
	c0.361,1.247,1,3.267,1.295,3.625c0.397,0.218,2.513,0.178,3.752,0.242c0.249,0.013,0.499,0.015,0.749,0.02
	c2.988,0.053,3.12,0.258,2.972,3.357c-0.055,1.159-0.496,1.317-1.658,1.303c-1.415-0.018-2.83,0.058-4.245,0.048
	c-1.828-0.019-1.641,0.03-1.615,2.021c0.019,1.332-0.007,2.664-0.005,3.996c0.001,0.899-0.361,1.423-1.337,1.355
	c-0.332-0.023-0.665-0.035-0.998-0.044c-3.326-0.082-3.288-0.456-3.204-3.845c0.018-0.165,0-0.307,0.022-0.471
	c0.161-3.248,0.19-3.283-2.625-2.611c-4.341,1.191-5.957,3.758-6.187,8.714c-0.175,3.817,2.359,7.531,6.309,8.339
	c2.105,0.43,4.346,0.387,6.492,0.496c2.179,0.021,1.878-0.493,1.951,1.129c-0.022,4.594,0.825,4.007-3.333,4.033
	C228.594,121.309,227.735,121.323,226.858,121.294"/>
<path d="M431.201,53.928c4.415,0,8.831,0.053,13.247,0.059c0.498,0,1.333-0.073,1.473,0.111c0.292,0.382,1.247,1.572,1.651,2.31
	c0.353,0.65-0.155,0.769-0.703,1.244c-4.783,4.147-9.574,8.287-14.357,12.435c-7.259,6.295-13.828,13.257-19.925,20.674
	c-1.6,1.672-0.674,1.539-2.61,0.275c-0.203-0.145-0.396-0.304-0.593-0.459c-2.536-1.952-2.734-1.091-0.388-3.893
	c2.78-3.208,5.713-6.283,8.521-9.467c5.368-6.085,11.933-10.869,17.753-16.461c0.504-0.484,2.093-1.628,1.989-1.836
	c-0.172-0.344-2.116-0.199-2.822-0.185c-5.246,0.103-10.492,0.266-15.737,0.39c-4.131,0.008-3.582,0.978-3.501-3.578
	c0.048-1.778,0.043-1.536,1.499-1.51c2.201,0.04,3.834-0.092,5.751-0.104C425.367,53.914,428.284,53.928,431.201,53.928
	C431.201,53.947,431.201,53.891,431.201,53.928"/>
<path d="M211.15,67.527c1.166,0,2.332-0.007,3.497,0.001c4.131-0.004,3.444,0.048,4.345-3.108c0.868-3.04,1.602-6.119,2.33-9.196
	c0.449-1.897,0.401-1.916,2.277-1.478c0.406,0.095,0.816,0.173,1.211,0.304c1.459,0.485,1.801,0.849,1.46,2.373
	c-0.634,2.84-1.415,5.651-2.202,8.454c-0.673,2.679-1.218,2.614,2.011,2.68c1.998-0.006,3.995-0.092,5.992-0.07
	c0.717,0.008,1.601-0.01,1.772,0.993c0.208,1.206,0.807,2.479-0.014,3.61c-0.267,0.368-1.032,0.47-1.584,0.516
	c-2.653,0.219-5.775,0.189-8.433,0.239c-2.261,0.048-1.703-0.445-3.025,2.706c-2.657,6.109-5.54,12.118-8.343,18.162
	c-0.21,0.453-0.488,0.896-0.725,1.295c-0.579,0.978-0.417,1.027-1.462,0.594c-0.125-0.051-0.313-0.088-0.469-0.143
	c-3.696-1.405-3.658-0.621-1.975-4.575c2.205-4.941,4.434-9.872,6.651-14.808c0.171-0.38,0.326-0.767,0.49-1.148
	c0.941-2.18,1.171-2.205-1.079-2.244c-2.658-0.117-5.662,0.019-8.322-0.079c-1.144-0.043-1.699-0.518-1.585-1.691
	c0.024-0.247-0.013-0.499-0.017-0.75c-0.042-2.472,0.044-2.567,2.452-2.58C207.984,67.576,209.567,67.527,211.15,67.527
	C211.15,67.509,211.15,67.546,211.15,67.527"/>
<path d="M318.241,58.307c-2.901-0.197-5.802-0.053-8.903-0.248c-3.038-0.045-2.453-0.486-4.245,1.711
	c-2.697,3.944-6.389,6.745-10.679,8.786c-0.075,0.035-0.144,0.088-0.222,0.113c-1.419,0.448-3.237,1.213-4.595,1.216
	c-0.33,0.001-1.143-2.203-1.556-3.468c-0.364-1.113-0.466-1.034,0.489-1.358c1.654-0.56,3.609-1.14,5.353-2.032
	c2.891-1.48,4.475-3.053,6.1-5.105c2.574-3.245,4.558-6.651,5.844-10.793c0.112-0.359,0.201-0.897,0.31-0.986
	c0.721-0.013,2.8,0.27,4.275,0.449c1.527,0.299,1.527-0.055,0.854,1.966c-0.394,1.09-0.953,2.121-1.417,3.187
	c-0.411,1.005-0.983,1.315,0.14,1.364c0.165,0.025,0.331,0.055,0.496,0.058c3.564,0.08,7.129,0.152,10.695,0.238
	c0.91,0.022,2.289-0.132,3.189-0.006c0.772,0.108,1.624-0.33,1.624,0.598c-0.015,1.323-0.023,2.872-0.132,4.019
	c-0.236,0.284-0.907,0.274-1.38,0.281C322.4,58.323,320.321,58.307,318.241,58.307C318.237,58.376,318.246,58.238,318.241,58.307"/>
</svg>
