<?xml version="1.0" encoding="utf-8"?>
<!-- Generator: Adobe Illustrator 24.0.3, SVG Export Plug-In . SVG Version: 6.00 Build 0)  -->
<svg version="1.1" xmlns="http://www.w3.org/2000/svg" xmlns:xlink="http://www.w3.org/1999/xlink" x="0px" y="0px"
	 viewBox="0 0 900 850" enable-background="new 0 0 900 850" xml:space="preserve">
<g id="レイヤー1">
	<g>
		<path fill="#D87B3C" d="M81.23,67.374c-0.03-0.069-0.06-0.139-0.09-0.209C81.17,67.235,81.2,67.304,81.23,67.374z"/>
		<path fill="#D87B3C" d="M167.504,25.069c0.123,1.342,0.17,2.69,0.137,4.037C167.673,27.76,167.628,26.411,167.504,25.069z"/>
		<path fill="#D87B3C" d="M166.888,21.019c0.125,0.585,0.233,1.173,0.327,1.764C167.121,22.192,167.013,21.604,166.888,21.019z"/>
		<path fill="#D87B3C" d="M167.255,23.028c0.097,0.637,0.177,1.277,0.238,1.919C167.432,24.305,167.352,23.665,167.255,23.028z"/>
		<path fill="#D87B3C" d="M152.629,41.876c-3.334,3.578-5.84,8.001-9.822,10.84c-4.316,3.076-10.158,3.886-15.148,2.099
			c-3.781-1.354-7.438-4.134-11.371-3.32c-3.191,0.66-5.389,3.492-8.074,5.338c-5.578,3.836-13.946,3.86-17.512,9.614
			c-1.593,2.571-1.815,5.793-3.303,8.427c-0.513,0.909-1.167,1.707-1.916,2.405c-1.05-2.284-2.019-4.622-2.997-6.954
			c2.798,6.669,5.504,13.399,10.318,18.717c2.531,2.797,5.743,5.182,9.462,5.808c3.958,0.666,7.959-0.723,11.627-2.352
			c2.824-1.254,5.649-2.718,7.706-5.024c2.255-2.527,3.388-5.834,4.467-9.045c0.247-0.736,0.494-1.472,0.742-2.208
			c0.147-0.026,0.293-0.054,0.437-0.083c2.274-0.459,4.548-0.918,6.822-1.377c4.604-0.929,9.689-2.17,12.28-6.088
			c2.247-3.398,1.931-7.813,2.849-11.781c1.291-5.586,5.294-10.478,10.512-12.851c1.737-0.79,3.672-1.367,4.941-2.793
			c0.866-0.974,1.319-2.241,1.68-3.493c0.807-2.798,1.239-5.698,1.313-8.609c-0.035,1.372-0.151,2.741-0.348,4.099
			C161.725,34.683,156.55,37.668,152.629,41.876z"/>
		<path fill="#D87B3C" d="M166.856,20.86c-0.075-0.343-0.159-0.685-0.244-1.026c-0.004,0-0.007,0-0.011,0
			C166.686,20.176,166.78,20.516,166.856,20.86z"/>
		<path fill="#AE402F" d="M164.951,19.787c-1.847-0.078-3.694-0.176-5.539-0.287c-14.658,1.942-29.522,2.277-44.314,2.921
			c-15.387,0.67-31.396,1.579-45.59-4.384c-1.512,0.463-2.828,1.273-3.168,2.746c-0.297,1.285,0.316,2.583,0.854,3.786
			c2.113,4.722,3.309,9.851,3.504,15.021c0.213,5.645-0.591,11.889,2.811,16.398c1.088,1.441,2.538,2.527,4.158,3.31
			c0.496,1.58,1.264,3.08,1.981,4.581c0.517,1.082,1.011,2.18,1.493,3.286c0.03,0.069,0.06,0.139,0.09,0.209
			c0.425,0.979,0.842,1.964,1.256,2.951c0.979,2.332,1.947,4.67,2.997,6.954c0.749-0.698,1.403-1.495,1.916-2.405
			c1.487-2.634,1.709-5.855,3.303-8.427c3.565-5.755,11.933-5.779,17.512-9.614c2.685-1.846,4.883-4.678,8.074-5.338
			c3.933-0.814,7.59,1.966,11.371,3.32c4.99,1.787,10.832,0.977,15.148-2.099c3.982-2.839,6.488-7.262,9.822-10.84
			c3.922-4.208,9.097-7.193,14.663-8.629c0.197-1.358,0.313-2.727,0.348-4.099c0-0.014,0.001-0.028,0.001-0.042
			c0.033-1.347-0.014-2.696-0.137-4.037c-0.004-0.041-0.007-0.082-0.01-0.123c-0.061-0.642-0.141-1.282-0.238-1.919
			c-0.012-0.082-0.027-0.163-0.04-0.245c-0.094-0.591-0.203-1.179-0.327-1.764c-0.011-0.053-0.021-0.106-0.032-0.159
			c-0.075-0.344-0.17-0.684-0.255-1.025C166.049,19.83,165.498,19.81,164.951,19.787z"/>
		<path fill="#DCE3C7" d="M172.55,13.996c-0.535-0.591-1.222-1.003-1.957-1.322c0.142,1.222-0.213,2.478-1.232,3.266
			c-0.133,0.103-0.269,0.189-0.406,0.268c-0.165,0.261-0.38,0.488-0.648,0.64c-2.72,1.541-6.689,1.725-8.54-1.221
			c-0.824-1.312-0.983-2.918-0.807-4.477c-0.054-0.003-0.109-0.005-0.163-0.008c-0.032,0.729-0.189,1.462-0.567,2.207
			c-1.604,3.163-5.265,5.073-8.607,5.759c-3.826,0.785-7.954,0.577-11.811,0.111c-3.497-0.423-7.61-1.272-9.938-4.175
			c-0.235-0.293-0.428-0.593-0.603-0.896c-0.365,1.823-1.251,4.097-1.818,4.339c-0.956,0.409-1.816,0.546-2.842,0.312
			c-0.749-0.17-1.47-0.556-2.109-0.975c-0.498-0.326-1.005-0.681-1.473-1.078c-1.108,1.263-2.62,2.187-4.258,2.636
			c-0.828,0.227-1.667,0.326-2.507,0.34c-0.252,0.122-0.546,0.196-0.89,0.192c-3.052-0.033-6.325-0.142-9.093-1.54
			c-1.152,0.255-2.379,0.227-3.637,0.231c-2.44,0.008-4.871,0.253-7.31,0.3c-0.882,0.017-1.775-0.005-2.667-0.064
			c-4.526,0.324-9.852-0.448-10.237-3.518c-0.021-0.169-0.022-0.338-0.039-0.507c-0.395-0.389-0.761-0.799-1.088-1.233
			c-1.002,0.197-2.003,0.395-2.999,0.622c-2.168,0.495-4.761,1.563-4.92,3.781c0.041,0.017,0.082,0.031,0.123,0.048
			c14.194,5.963,30.203,5.053,45.59,4.384c14.792-0.644,29.657-0.979,44.314-2.921c1.846,0.111,3.692,0.209,5.539,0.287
			c0.547,0.023,1.098,0.043,1.649,0.047c0.004,0,0.007,0,0.011,0c1.55,0.012,3.098-0.105,4.531-0.666
			c0.832-0.326,1.644-0.836,2.06-1.627C173.797,16.408,173.409,14.945,172.55,13.996z"/>
		<path fill="#3B744F" d="M127.397,12.297c0.087,0.423,0.023,1.1-0.127,1.852c0.175,0.303,0.368,0.603,0.603,0.896
			c2.329,2.904,6.441,3.752,9.938,4.175c3.856,0.467,7.985,0.674,11.811-0.111c3.343-0.686,7.003-2.596,8.607-5.759
			c0.378-0.746,0.535-1.479,0.567-2.207c0.065-1.48-0.429-2.941-0.935-4.446c-0.694-2.065-1.464-4.105-2.304-6.115
			c-0.841-2.012-1.748-3.993-2.719-5.941c-0.671-3.376-0.516-7.182-3.383-9.623c-3.088-2.629-7.467-1.502-10.493,0.647
			c-6.154,4.37-7.955,11.929-10.85,18.474c-0.717,1.621-1.391,3.367-1.645,5.107C126.866,10.241,127.184,11.266,127.397,12.297z
			 M141.79,3.698c2.553,0,2.549,3.962,0,3.962C139.236,7.659,139.24,3.698,141.79,3.698z M132.91,14.268
			c-2.553,0-2.549-3.962,0-3.962C135.463,10.306,135.459,14.268,132.91,14.268z"/>
		<path fill="#3B744F" d="M109.261,4.243c1.247,0.465,1.511,2.118,0.796,3.095c0.269,1.72,0.215,3.46-0.403,5.14
			c-1.092,2.973-3.683,5.634-6.94,5.805c-0.142,0.042-0.289,0.061-0.434,0.093c2.768,1.398,6.041,1.507,9.093,1.54
			c0.345,0.004,0.639-0.07,0.89-0.192c0.84-0.014,1.678-0.113,2.507-0.34c1.637-0.45,3.15-1.373,4.258-2.636
			c-0.624-0.528-1.179-1.133-1.537-1.864c-1.164-2.38-0.467-5.407,0.441-7.768c0.325-0.845,0.686-1.688,1.257-2.342
			c-0.038-0.103-0.076-0.207-0.114-0.31c-1.131-3.059-2.294-6.109-3.631-9.085c-0.425-0.947-0.867-1.997-1.389-3.012
			c0.39,1.159-0.209,2.696-1.797,2.696c-2.553,0-2.549-3.962,0-3.962c0.664,0,1.151,0.271,1.469,0.667
			c-0.79-1.409-1.767-2.691-3.136-3.437c-2.858-1.556-5.834-0.03-7.599,2.354c1.641,3.392,3.304,6.777,4.886,10.196
			C108.373,1.949,108.86,3.08,109.261,4.243z"/>
		<path fill="#74BF5C" d="M159.766,15.627c1.851,2.945,5.82,2.761,8.54,1.221c0.268-0.152,0.483-0.379,0.648-0.64
			c0.137-0.079,0.273-0.165,0.406-0.268c1.02-0.788,1.374-2.044,1.232-3.266c-0.04-0.346-0.114-0.69-0.232-1.02
			c-0.423-1.181-1.059-2.305-1.763-3.341c-0.686-1.009-1.457-2.109-2.416-2.881c-1.273-1.026-2.99-1.336-4.391-0.345
			c-1.209,0.855-1.826,2.172-2.275,3.544c-0.256,0.784-0.458,1.644-0.558,2.519C158.783,12.71,158.942,14.316,159.766,15.627z"/>
		<path fill="#74BF5C" d="M117.492,14.884c0.358,0.731,0.912,1.336,1.537,1.864c0.469,0.397,0.975,0.752,1.473,1.078
			c0.639,0.419,1.36,0.804,2.109,0.975c1.026,0.233,1.886,0.097,2.842-0.312c0.567-0.243,1.453-2.516,1.818-4.339
			c0.15-0.752,0.214-1.429,0.127-1.852c-0.213-1.031-0.532-2.056-0.931-3.052c-0.51-1.273-1.154-2.497-1.911-3.608
			c-0.887-1.303-2.298-2.45-3.976-1.834c-0.58,0.213-1.027,0.554-1.39,0.971c-0.571,0.655-0.932,1.498-1.257,2.342
			C117.025,9.477,116.328,12.503,117.492,14.884z"/>
		<path fill="#74BF5C" d="M78.392,14.819c-0.089-0.921-0.115-1.845-0.071-2.764c-0.017-0.129-0.035-0.259-0.052-0.388
			c-0.009-0.243,0.044-0.47,0.141-0.684c0.09-0.887,0.218-1.768,0.412-2.628c0.485-2.147,1.109-4.504,2.129-6.228
			c1.144-1.935,3.053-2.437,4.653-1.59c1.505,0.797,2.6,2.471,3.686,4.133c1.211,1.855,2.423,3.71,3.634,5.565
			c1.204,1.844,2.702,3.728,2.146,6.592c-0.185,0.95-3.078,1.779-6.403,2.017c0.892,0.059,1.785,0.081,2.667,0.064
			c2.439-0.047,4.87-0.292,7.31-0.3c1.258-0.004,2.485,0.025,3.637-0.231c0.144-0.032,0.292-0.051,0.434-0.093
			c3.256-0.171,5.847-2.832,6.94-5.805c0.617-1.68,0.671-3.42,0.403-5.14c-0.316,0.432-0.816,0.734-1.515,0.734
			c-2.553,0-2.549-3.962,0-3.962c0.271,0,0.506,0.052,0.719,0.132c-0.401-1.163-0.888-2.293-1.383-3.362
			c-1.582-3.419-3.244-6.804-4.886-10.196c-0.241-0.498-0.484-0.995-0.724-1.494c-1.547-3.22-3.152-6.892-6.489-8.638
			c-1.842-0.964-4.007-1.275-5.963-0.465c-1.79,0.741-3.132,2.22-4.311,3.711c-2.567,3.243-4.564,6.944-6.308,10.683
			C77.449-1.77,75.59,2.263,75.242,6.434c-0.224,2.683,0.543,5.143,2.061,7.153C77.631,14.02,77.996,14.43,78.392,14.819z
			 M102.14,17.778c-2.553,0-2.549-3.962,0-3.962C104.693,13.817,104.689,17.778,102.14,17.778z M97.597-12.617
			c2.553,0,2.549,3.962,0,3.962C95.043-8.655,95.047-12.617,97.597-12.617z M91.45-0.867c0.08-0.246,0.216-0.458,0.41-0.637
			c0.138-0.138,0.275-0.275,0.413-0.413c0.247-0.245,0.538-0.415,0.874-0.509c0.176-0.024,0.351-0.047,0.527-0.071
			c0.358,0.001,0.691,0.091,1,0.27c0.134,0.103,0.267,0.206,0.401,0.31c0.193,0.179,0.33,0.392,0.41,0.637
			c0.124,0.236,0.181,0.49,0.171,0.763c0.01,0.273-0.047,0.527-0.171,0.763c-0.08,0.246-0.216,0.458-0.41,0.637
			c-0.138,0.138-0.275,0.275-0.413,0.413c-0.247,0.245-0.539,0.415-0.874,0.509c-0.175,0.024-0.351,0.047-0.527,0.071
			c-0.358-0.001-0.691-0.091-1-0.27c-0.134-0.103-0.267-0.206-0.401-0.31c-0.193-0.179-0.33-0.392-0.41-0.637
			c-0.124-0.236-0.181-0.49-0.171-0.763C91.269-0.376,91.326-0.631,91.45-0.867z"/>
		<path fill="#A2CF7F" d="M95.07,16.827c0.556-2.864-0.942-4.748-2.146-6.592c-1.211-1.855-2.423-3.71-3.634-5.565
			c-1.085-1.662-2.181-3.336-3.686-4.133c-1.6-0.847-3.51-0.345-4.653,1.59c-1.019,1.724-1.643,4.082-2.129,6.228
			c-0.194,0.86-0.322,1.741-0.412,2.628c0.012-0.026,0.016-0.054,0.029-0.079c0.08-0.246,0.216-0.458,0.41-0.637
			c0.179-0.193,0.392-0.33,0.637-0.41c0.236-0.124,0.49-0.181,0.763-0.171c0.069,0,0.138,0,0.206,0c0.358,0.001,0.691,0.091,1,0.27
			c0.134,0.103,0.267,0.206,0.401,0.31c0.245,0.247,0.415,0.538,0.509,0.874c0.024,0.176,0.047,0.351,0.071,0.527
			c0.01,0.273-0.047,0.527-0.171,0.763c-0.08,0.246-0.216,0.458-0.41,0.637c-0.179,0.193-0.392,0.33-0.637,0.41
			c-0.236,0.124-0.49,0.181-0.763,0.171c-0.069,0-0.138,0-0.206,0c-0.358-0.001-0.691-0.091-1-0.27
			c-0.134-0.103-0.267-0.206-0.401-0.31c-0.246-0.247-0.415-0.539-0.509-0.874c-0.006-0.046-0.012-0.092-0.019-0.139
			c-0.045,0.919-0.019,1.842,0.071,2.764c0.016,0.169,0.018,0.338,0.039,0.507c0.385,3.069,5.711,3.842,10.237,3.518
			C91.992,18.605,94.886,17.777,95.07,16.827z M84.535,7.217c0.061-0.258,0.179-0.482,0.355-0.674
			c0.14-0.216,0.325-0.386,0.556-0.51c0.275-0.138,0.551-0.275,0.826-0.413c0.309-0.179,0.642-0.269,1-0.27
			c0.175,0.024,0.351,0.047,0.527,0.071c0.336,0.094,0.627,0.264,0.874,0.509c0.103,0.134,0.206,0.267,0.31,0.401
			c0.145,0.227,0.223,0.473,0.235,0.736c0.059,0.263,0.047,0.527-0.035,0.79c-0.061,0.258-0.18,0.482-0.355,0.674
			c-0.14,0.216-0.325,0.386-0.556,0.51c-0.275,0.138-0.551,0.275-0.826,0.413c-0.309,0.179-0.642,0.269-1,0.27
			c-0.176-0.024-0.351-0.047-0.527-0.071c-0.336-0.094-0.627-0.264-0.874-0.509c-0.103-0.134-0.206-0.267-0.31-0.401
			C84.59,8.516,84.512,8.27,84.5,8.007C84.441,7.744,84.452,7.48,84.535,7.217z"/>
		<path fill="#F0FF9E" d="M132.91,14.268c2.549,0,2.553-3.962,0-3.962C130.361,10.306,130.356,14.268,132.91,14.268z"/>
		<path fill="#F0FF9E" d="M141.79,7.659c2.549,0,2.553-3.962,0-3.962C139.24,3.698,139.236,7.659,141.79,7.659z"/>
		<path fill="#F0FF9E" d="M78.849,13.068c0.134,0.103,0.267,0.206,0.401,0.31c0.309,0.179,0.642,0.269,1,0.27
			c0.069,0,0.138,0,0.206,0c0.273,0.01,0.527-0.047,0.763-0.171c0.246-0.08,0.458-0.216,0.637-0.41
			c0.193-0.179,0.33-0.392,0.41-0.637c0.124-0.236,0.181-0.49,0.171-0.763c-0.024-0.176-0.047-0.351-0.071-0.527
			c-0.094-0.336-0.264-0.627-0.509-0.874c-0.134-0.103-0.267-0.206-0.401-0.31c-0.309-0.179-0.642-0.269-1-0.27
			c-0.069,0-0.138,0-0.206,0c-0.273-0.01-0.527,0.047-0.763,0.171c-0.246,0.08-0.458,0.216-0.637,0.41
			c-0.193,0.179-0.33,0.392-0.41,0.637c-0.013,0.025-0.017,0.053-0.029,0.079c-0.098,0.214-0.151,0.441-0.141,0.684
			c0.017,0.129,0.035,0.259,0.052,0.388c0.006,0.046,0.012,0.092,0.019,0.139C78.434,12.529,78.604,12.821,78.849,13.068z"/>
		<path fill="#F0FF9E" d="M84.735,8.743c0.103,0.134,0.206,0.267,0.31,0.401c0.247,0.245,0.538,0.415,0.874,0.509
			c0.175,0.024,0.351,0.047,0.527,0.071c0.358-0.001,0.691-0.091,1-0.27c0.275-0.138,0.551-0.275,0.826-0.413
			c0.231-0.124,0.416-0.295,0.556-0.51c0.175-0.191,0.293-0.416,0.355-0.674c0.083-0.263,0.094-0.527,0.035-0.79
			c-0.012-0.264-0.09-0.509-0.235-0.736c-0.103-0.134-0.206-0.267-0.31-0.401c-0.247-0.245-0.539-0.415-0.874-0.509
			c-0.175-0.024-0.351-0.047-0.527-0.071c-0.358,0.001-0.691,0.091-1,0.27c-0.275,0.138-0.551,0.275-0.826,0.413
			c-0.231,0.124-0.416,0.295-0.556,0.51c-0.175,0.191-0.293,0.416-0.355,0.674c-0.083,0.263-0.094,0.527-0.035,0.79
			C84.512,8.27,84.59,8.516,84.735,8.743z"/>
		<path fill="#F0FF9E" d="M91.859,1.297c0.134,0.103,0.267,0.206,0.401,0.31c0.309,0.179,0.642,0.269,1,0.27
			c0.176-0.024,0.351-0.047,0.527-0.071c0.336-0.094,0.627-0.264,0.874-0.509c0.138-0.138,0.275-0.275,0.413-0.413
			c0.193-0.179,0.33-0.392,0.41-0.637c0.124-0.236,0.181-0.49,0.171-0.763c0.01-0.273-0.047-0.527-0.171-0.763
			c-0.08-0.246-0.216-0.458-0.41-0.637c-0.134-0.103-0.267-0.206-0.401-0.31c-0.309-0.179-0.642-0.269-1-0.27
			c-0.176,0.024-0.351,0.047-0.527,0.071c-0.336,0.094-0.627,0.264-0.874,0.509c-0.138,0.138-0.275,0.275-0.413,0.413
			c-0.193,0.179-0.33,0.392-0.41,0.637c-0.124,0.236-0.181,0.49-0.171,0.763c-0.01,0.273,0.047,0.527,0.171,0.763
			C91.53,0.905,91.666,1.117,91.859,1.297z"/>
		<path fill="#F0FF9E" d="M102.14,13.817c-2.549,0-2.553,3.962,0,3.962C104.689,17.778,104.693,13.817,102.14,13.817z"/>
		<path fill="#F0FF9E" d="M109.261,4.243c-0.213-0.08-0.449-0.132-0.719-0.132c-2.549,0-2.553,3.962,0,3.962
			c0.699,0,1.199-0.302,1.515-0.734C110.772,6.361,110.508,4.708,109.261,4.243z"/>
	</g>
</g>
<g id="参考">
</g>
</svg>
