<?xml version="1.0" encoding="utf-8"?>
<!-- Generator: Adobe Illustrator 24.0.3, SVG Export Plug-In . SVG Version: 6.00 Build 0)  -->
<svg version="1.1" xmlns="http://www.w3.org/2000/svg" xmlns:xlink="http://www.w3.org/1999/xlink" x="0px" y="0px"
	 viewBox="0 0 900 850" enable-background="new 0 0 900 850" xml:space="preserve">
<g id="レイヤー1">
	<g>
		<path fill="#F8F5E6" d="M537.671,355.833c-1.289-19.396-13.669-36.117-19.516-54.656c-4.088-12.964-2.964-29.398,4.543-39.651
			c-4.494-6.346-7.657-13.946-11.114-21.005c-6.235-12.729-14.163-24.54-22.065-36.306c-5.198-7.74-10.499-15.595-17.68-21.542
			c-7.907-6.548-17.638-10.411-27.191-14.17c-9.488-3.734-18.977-7.468-28.465-11.202c-4.281-1.685-9.078-3.378-13.353-1.677
			c-2.464,0.98-4.37,2.965-6.144,4.935c-6.349,7.049-12.078,14.656-17.098,22.705c-3.612,5.79-6.989,11.963-12.353,16.182
			c-6.605,5.196-15.645,6.939-21.476,12.992c-2.834,2.942-4.719,6.734-7.763,9.459c-7.831,7.009-19.93,4.701-30.219,6.838
			c-5.44,1.13-10.425,3.553-15.332,6.214c-6.18-1.6-12.36-3.199-18.54-4.798c-4.48-1.16-9.005-2.336-13.11-4.472
			c-4.899-2.549-9.023-6.373-13.797-9.149c-7.485-4.352-16.288-5.973-23.876-10.143c-4.396-2.416-8.338-5.663-12.951-7.633
			c-4.613-1.97-10.347-2.432-14.341,0.602c-1.992,1.512-3.322,3.709-4.864,5.678c-1.857,2.372-4.083,4.445-6.56,6.157
			c-1.445-0.698-2.932-1.312-4.472-1.815c-2.658-0.868-5.416-1.392-8.103-2.168c-11.26-3.253-20.715-10.715-30.672-17.015
			c-0.313-0.92-0.589-1.849-0.808-2.791c-1.769-7.619-0.025-15.779-2.158-23.304c-1.807-6.375-6.216-11.658-10.787-16.455
			c-7.589-7.962-15.956-15.181-24.945-21.521c-5.024-3.543-10.377-6.87-16.377-8.215c-5.999-1.345-12.806-0.412-17.337,3.744
			c-6.669,6.118-6.572,16.945-12.347,23.913c-0.507,0.612-1.053,1.186-1.632,1.731c-14.837-3.363-29.869-4.297-43.566,1.664
			c-4.165,1.813-8.091,4.234-12.459,5.482c-6.771,1.935-13.977,0.897-21.019,0.931c-7.042,0.034-14.765,1.547-19.154,7.054
			c-3.937,4.94-4.368,12.127-8.735,16.692c-5.799,6.062-15.5,4.917-23.882,5.267c-21.087,0.88-39.597,13.82-59.911,19.545
			c-17.141,4.831-36.238,4.776-51.648,13.077v334.594c35.428,16.618,75.115,24.033,113.908,31.1
			c30.664,5.587,61.616,11.196,92.766,10.104c51.283-1.796,100.011-21.556,147.485-41.034c15.756-6.465,31.599-12.973,46.041-21.999
			c17.926-11.202,33.847-26.338,53.944-32.89c23.044-7.512,48.068-2.643,72.277-3.829c49.909-2.444,94.5-30.353,136.516-57.4
			c14.753-9.497,29.696-19.154,41.429-32.198C530.497,390.409,538.834,373.339,537.671,355.833z"/>
		<g>
			<g>
				<path fill="#E6E0D6" d="M441.272,217.681c-1.139-3.532-5.059-5.301-8.668-6.169c-3.608-0.868-7.549-1.366-10.307-3.849
					l-65.473-4.691c-4.429,1.017-8.569,3.265-11.834,6.425c-0.598,0.579-1.181,1.208-1.479,1.985
					c-0.366,0.952-0.266,2.01-0.159,3.024c0.871,8.324,1.741,16.647,2.612,24.971c0.217,2.072,0.449,4.199,1.402,6.052
					c2.758,5.361,10.013,6.192,16.028,5.787c3.962-0.266,7.905-0.767,11.845-1.267c1.599-0.203,3.214-0.41,4.726-0.966
					c1.11-0.408,2.139-0.995,3.168-1.582c5.928,2.276,11.92,4.388,17.91,6.497c2.727,0.96,5.493,1.929,8.376,2.139
					c2.686,0.196,5.371-0.273,8.023-0.741c2.771-0.488,5.542-0.977,8.312-1.466c2.632-0.464,5.38-0.978,7.491-2.616
					c3.168-2.459,4.107-6.765,4.835-10.709c1.027-5.572,2.055-11.143,3.082-16.715C441.536,221.765,441.904,219.641,441.272,217.681
					z"/>
			</g>
			<g>
				<path fill="#F8F2EA" d="M402.318,226.724c4.166-0.481,8.227-1.702,12.404-2.077c8.188-0.735,16.537,1.801,24.594,0.167
					c0.59-0.12,1.164-0.285,1.74-0.445c0.035-0.193,0.071-0.386,0.107-0.578c0.373-2.025,0.741-4.149,0.109-6.109
					c-1.139-3.532-5.059-5.301-8.668-6.169c-3.608-0.868-7.549-1.366-10.307-3.849l-65.473-4.691
					c-4.429,1.017-8.569,3.265-11.834,6.425c-0.462,0.447-0.911,0.927-1.231,1.479c9.674,4.946,20.253,8.288,30.7,11.46
					C383.521,225.088,392.909,227.809,402.318,226.724z"/>
			</g>
			<path fill="#E6E0D6" d="M440.477,182.574c-1.742-7.721-5.77-14.638-9.743-21.438c-0.051-3.96,0.037-7.921,0.293-11.875
				c0.182-2.81,0.439-5.615,0.775-8.41c0.319-2.663,0.92-5.337,1.07-8.015c0.089-1.582,0.017-4.24-1.906-4.74
				c-1.786-0.465-3.022,1.063-3.568,2.555c-1.869,5.107-3.151,10.492-4.741,15.694c-0.988,3.232-2.065,6.48-3.529,9.528
				c-2.646,0.977-5.445,1.515-8.26,1.876c-4.299,0.55-8.65,0.965-12.984,1.06c-6.165,0.135-12.569-0.611-18.142-3.249
				c-4.429-7.417-6.883-15.773-10.152-23.836c-0.726-1.791-1.969-3.599-4.076-3.757c-1.968-0.148-3.158,1.423-3.705,3.125
				c-0.882,2.742-1.215,5.775-1.708,8.608c-0.536,3.078-1.011,6.167-1.429,9.263c-0.574,4.247-1.021,8.509-1.372,12.779
				c-2.378,4.693-4.436,9.546-6.126,14.532c-2.247,6.628-4.278,13.785-4.795,20.795c-0.22,2.978,0.346,5.863,2.498,8.052
				c2.222,2.26,5.338,3.83,8.134,5.245c6.404,3.242,13.264,5.077,20.463,4.976c3.245-0.046,6.496-0.219,9.749-0.451
				c12.88,2.45,26.037,3.947,38.981,1.218c3.651-0.77,7.221-1.882,10.644-3.368c1.329-0.577,2.97-1.122,3.894-2.304
				c0.929-1.189,0.844-2.829,0.906-4.258C441.989,198.305,442.222,190.312,440.477,182.574z"/>
			<g>
				<path fill="#FFFFFF" d="M388.185,165.679c0.001,0.043-0.005,0.087-0.001,0.129c0.03,0.331,0.094,0.658,0.293,0.933
					c0.114,0.157,0.251,0.297,0.405,0.411c0.057,0.064,0.094,0.143,0.161,0.199c0.175,0.145,0.381,0.267,0.62,0.257
					c0.233-0.01,0.451-0.09,0.62-0.257c0.788-0.78,0.945-1.987,0.476-2.971c-0.11-0.232-0.294-0.409-0.504-0.547
					c-0.078-0.143-0.168-0.278-0.29-0.394c-0.344-0.326-0.827-0.49-1.28-0.298c-0.765,0.323-0.88,1.279-0.711,2
					C388.015,165.33,388.093,165.508,388.185,165.679z"/>
				<path fill="#FFFFFF" d="M407.458,166.953c0.103,0.174,0.203,0.35,0.329,0.509c0.059,0.046,0.118,0.091,0.177,0.137
					c0.1,0.064,0.209,0.099,0.326,0.104c0.185,0.025,0.398,0.003,0.559-0.104c0.29-0.193,0.477-0.433,0.597-0.757
					c0.093-0.251,0.082-0.505,0.045-0.762c0.153-0.611,0.148-1.269-0.078-1.841c-0.083-0.21-0.193-0.413-0.403-0.524
					c-0.182-0.096-0.43-0.158-0.636-0.091c-0.193-0.104-0.411-0.142-0.639-0.079c-0.306,0.084-0.515,0.317-0.612,0.612
					c-0.038,0.117-0.04,0.24-0.063,0.36c-0.001,0.001-0.002,0.002-0.003,0.003c-0.29,0.41-0.297,0.957-0.108,1.411
					C406.987,166.313,407.195,166.658,407.458,166.953z"/>
				<path fill="#FFFFFF" d="M424.783,168.054c-2.946,3.031-7.69,6.551-12.166,5.903c-2.402-0.348-4.756-1.048-7.158-1.429
					c-2.33-0.37-4.679-0.641-7.034-0.787c-2.273-0.141-4.552-0.149-6.812,0.163c-1.159,0.16-2.343,0.546-3.511,0.575
					c-1.292,0.033-2.688-0.388-3.94-0.687c-4.337-1.037-9.095-2.9-10.958-7.317c-0.431-1.023-2.128-0.573-1.69,0.466
					c1.797,4.261,5.722,6.661,10.007,7.961c2.348,0.712,5.148,1.602,7.616,1.227c2.761-0.419,5.345-0.81,8.151-0.695
					c2.878,0.118,5.752,0.445,8.59,0.93c2.645,0.452,5.449,1.513,8.151,1.448c4.454-0.108,9.018-3.455,11.994-6.518
					C426.808,168.484,425.57,167.243,424.783,168.054z"/>
			</g>
		</g>
		<path fill="#F4E6E5" d="M-171.784,773.899V242.76c64.123-23.848,136.147-17.267,203.245-2.494
			c32.569,7.171,65.036,16.201,98.365,17.355c59.668,2.067,121.329-20.984,177.799-1.602c27.779,9.534,51.96,28.83,80.74,34.685
			c12.39,2.521,25.167,2.428,37.782,1.577c50.56-3.413,100.454-18.825,150.988-15.05c17.607,1.315,34.949,4.95,52.229,8.576
			c14.247,2.99,28.494,5.979,42.742,8.969c18.873,3.96,40.273,9.996,50.795,25.059c-4.002,10.331-8.005,20.661-12.007,30.992
			c-3.974,10.256-7.962,20.559-10.372,31.291c-1.294,5.76-2.125,11.609-2.844,17.472c0.992,5.305,1.364,10.652,0.245,15.901
			c-0.629,2.95-1.713,5.779-2.794,8.595c-3.772,9.828-7.547,19.663-11.915,29.24c-1.217,2.668-2.5,5.391-2.714,8.316
			c-0.095,1.305,0.011,2.686-0.592,3.846c-0.419,0.807-1.139,1.413-1.875,1.948c-5.852,4.249-14.002,5.098-20.604,2.147
			c-1.414-0.632-2.821-1.44-4.37-1.473c-1.277-0.027-2.494,0.479-3.716,0.848c-3.008,0.91-6.257,1.012-9.317,0.292
			c-0.736-6.278-2.141-12.451-3.665-18.59c-2.956,0.337-5.997-0.106-8.67-1.421c-2.423,0.185-4.884-0.154-7.166-0.987
			c-1.766-1.822-3.633-3.544-5.581-5.171c-0.115,0.402-0.238,0.802-0.323,1.214c-0.631,3.069-1.084,7.153-4.16,7.749
			c-2.376,0.46-4.561-1.775-6.977-1.633c-1.339,0.079-2.512,0.875-3.753,1.384c-2.992,1.225-6.373,0.77-9.571,0.294
			c-0.207-0.031-0.414-0.062-0.621-0.092c-3.811,3.189-7.8,6.272-10.373,10.445c-1.019,1.652-1.805,3.463-3.051,4.951
			c-2.773,3.31-7.285,4.47-11.491,5.447c-0.86,0.2-1.74,0.401-2.618,0.307c-1.671-0.18-3.044-1.385-4.644-1.899
			c-1.726-0.554-3.593-0.272-5.396-0.078c-0.041,0.004-0.083,0.005-0.124,0.01c-2.803,2.962-5.446,6.074-7.895,9.335
			c-3.308,4.405-6.284,9.072-9.924,13.207c-1.774,2.015-3.696,3.894-5.616,5.77c-3.496,3.416-6.992,6.832-10.488,10.248
			c-7.161,6.997-14.385,14.038-22.104,20.402c-2.617,10.611-7.865,20.582-15.298,28.599c-5.031,5.425-11.05,10.056-14.909,16.369
			c-2.293,3.751-3.729,7.953-5.637,11.915c-9.668,20.078-30.251,32.162-49.688,43.061c-3.545,1.988-7.713,4.032-11.496,2.545
			c-2.438-0.958-4.105-3.188-5.639-5.312c-3.631-5.027-7.263-10.055-10.894-15.082c-5.301,3.779-10.603,7.557-15.904,11.336
			c-3.092,2.204-6.271,4.45-9.94,5.427c-4.67,1.245-9.61,0.306-14.35-0.636c-3.293-0.655-6.835-1.448-9.047-3.974
			c-2.386-2.723-2.745-6.975-5.608-9.191c-3.52-2.725-8.586-0.887-12.601,1.035c-11.32,5.418-22.639,10.837-33.959,16.255
			c-3.405,1.63-6.852,3.287-9.723,5.736c-2.11,1.8-3.853,3.982-5.716,6.036c-1.648,1.817-3.396,3.542-5.207,5.197
			c-12.616,11.535-30.304,19.873-46.665,14.919c-2.553-0.773-5.215-1.866-7.798-1.198c-2.161,0.559-3.809,2.243-5.6,3.575
			c-1.705,1.268-3.56,2.222-5.514,2.943c-2.989,3.912-5.445,8.142-6.926,12.862c-0.91,2.901-1.425,5.908-1.937,8.905
			c-1.315,7.695-2.63,15.391-3.944,23.086c-0.311,1.818-0.626,3.654-1.327,5.36c-1.079,2.626-3.005,4.796-4.592,7.151
			c-4.223,6.264-6.027,13.792-8.794,20.822c-3.71,9.426-9.156,17.951-15.326,26.016c0,0-36.408,43.48-58.291,54.574
			s-58.802,12.69-64.843,18.425s-70.413,69.644-135.408,57.166c-19.395-3.724-64.048-29.187-65.016-31.816
			S-171.784,773.899-171.784,773.899"/>
		<g>
			<path fill="#E5CEBF" d="M-171.784,773.899V242.76c64.123-23.848,136.147-17.267,203.245-2.494
				c32.569,7.171,65.036,16.201,98.365,17.355c59.668,2.067,121.329-20.984,177.799-1.602c27.779,9.534,51.96,28.83,80.74,34.685
				c12.39,2.521,25.167,2.428,37.782,1.577c50.56-3.413,100.454-18.825,150.988-15.05c17.607,1.315,34.949,4.95,52.229,8.576
				c14.247,2.99,28.494,5.979,42.742,8.969c18.873,3.96,40.273,9.996,50.795,25.059c-4.002,10.331-8.005,20.661-12.007,30.992
				c-1.327,3.425-2.65,6.856-3.921,10.305c-2.407,1.793-5.015,3.296-7.836,4.395c-4.97,1.937-10.39,2.596-15.251,4.792
				c-15.903,7.186-21.132,28.079-35.941,37.312c-2.099,1.309-4.443,2.377-6.917,2.434c-1.95,0.045-3.851-0.538-5.737-1.035
				c-6.312-1.661-12.865-2.367-19.387-2.141c-1.023,1.139-2.072,2.235-3.177,3.234c-4.043,3.653-8.974,6.147-13.84,8.598
				c-14.897,7.503-30.233,15.136-46.837,16.718c-3.763,0.358-7.734,0.452-10.981,2.388c-4.393,2.62-6.379,7.954-10.23,11.321
				c-4.838,4.231-11.753,4.745-18.021,6.166c-10.638,2.412-20.525,8.04-28.029,15.957c-7.421,7.829-12.472,17.718-20.243,25.2
				c-4.528,4.36-10.594,7.766-16.704,8.762c-7.75,11.993-17.681,23.342-21.887,36.914c-1.748,5.639-2.75,12.058-7.304,15.816
				c-4.624,3.817-11.717,3.739-15.974,7.961c-3.552,3.522-4.316,9.304-8.229,12.421c-2.702,2.152-6.335,2.574-9.687,3.409
				c-9.012,2.244-16.763,7.86-25.266,11.592c-8.504,3.732-19.089,5.325-26.582-0.161c-4.635-3.393-7.563-9.146-12.931-11.191
				c-7.459-2.841-15.209,2.76-22.975,4.602c-10.597,2.513-20.867-2.085-30.138-8.474c-6.276,5.618-13.002,10.733-20.097,15.274
				c-2.229,1.426-4.65,2.842-7.296,2.821c-2.757-0.022-5.361-1.617-8.11-1.418c-2.797,0.203-5.095,2.195-7.155,4.098
				c-7.004,6.469-13.868,13.088-20.732,19.706c-5.461,5.265-10.921,10.53-16.382,15.795c-11.963,11.535-24.476,24.006-28.262,40.187
				c-1.087,4.648-1.433,9.546-3.527,13.835c-2.923,5.987-8.782,9.889-14.379,13.504c-7.763,5.013-16.057,10.197-25.296,10.4
				c-4.089,0.09-8.333-1.238-11.747-3.544c-8.603,1.978-17.683,1.797-26.091-0.94c-3.634-1.183-7.431-2.809-11.139-1.883
				c-5.639,1.408-8.185,7.773-12.139,12.034c-6.894,7.429-18.138,8.331-28.265,8.743c-9.089,0.37-18.177,0.74-27.266,1.11
				c-0.288,0.645-0.582,1.285-0.894,1.913c-7.443,14.986-23.078,23.954-38.39,30.702c-9.756,4.3-19.928,8.189-29.146,13.442
				c-8.983,10.035-21.691,27.773-26.52,36.257c-4.829,8.484-31.438,1.928-35.679-19.281c-4.242-21.209-25.325-13.489-32.778-10.412
				S-171.784,773.899-171.784,773.899z"/>
		</g>
		<path fill="#CAA582" d="M672.107,294.775c-14.247-2.99-28.494-5.979-42.742-8.969c-17.28-3.626-34.621-7.261-52.229-8.576
			c-50.534-3.775-100.428,11.637-150.988,15.05c-12.615,0.852-25.393,0.944-37.782-1.577c-28.78-5.855-52.961-25.151-80.74-34.685
			c-56.47-19.382-118.131,3.669-177.799,1.602c-33.329-1.154-65.796-10.185-98.365-17.355
			c-67.099-14.773-139.123-21.353-203.245,2.494v447.189c1.735,0.263,3.498,0.154,5.168-0.443c2.574-0.919,4.675-2.87,7.237-3.819
			c7.363-2.727,16.027,3.455,23.178,0.213c6.164-2.795,7.563-10.835,7.591-17.603c0.027-6.768-0.111-14.49,4.873-19.07
			c3.432-3.154,8.365-3.858,12.911-4.885c13.2-2.982,25.362-10.069,34.748-19.805c2.538,3.25,5.429,6.224,8.648,8.8
			c0.966,0.773,2.022,1.539,3.251,1.681c2.241,0.259,4.109-1.571,5.696-3.173c8.477-8.556,19.569-14.713,31.501-16.35
			c2.669-0.366,5.395-0.516,8.142-0.564c4.158,16.075,10.172,31.669,17.912,46.358c1.408,2.672,2.939,5.393,5.333,7.233
			c1.877,1.443,4.157,2.242,6.393,3.019c9.31,3.233,19.47,6.484,28.807,3.328c2.501-0.845,4.858-2.134,7.438-2.692
			c8.661-1.875,16.662,4.689,25.2,7.065c1.43,0.398,2.975,0.674,4.379,0.193c1.601-0.549,2.717-1.97,3.722-3.331
			c4.155-5.626,9.024-12.021,16.006-12.432c3.003-0.177,5.948,0.836,8.951,1.009c4.344,0.251,8.496-1.313,12.016-3.906
			c3.049,1.317,6.245,2.289,9.518,2.86c3.713,0.648,7.762,0.747,11.005-1.174c4.522-2.678,6.111-8.316,7.642-13.343
			c9.803-32.192,33.113-60.035,63.08-75.345c7.968-4.071,17.094-7.995,20.664-16.199c1.658-3.81,1.94-8.275,4.482-11.561
			c4.748-6.14,14.726-5.163,20.497-10.353c3.485-3.134,4.814-7.954,5.907-12.512c0.932-3.884,1.806-7.782,2.632-11.689
			c10.109-2.891,20.218-5.782,30.327-8.672c2.284-0.653,4.638-1.342,6.472-2.851c3.282-2.7,4.121-7.275,5.768-11.193
			c3.728-8.87,12.286-15.02,21.449-17.955c9.163-2.935,18.967-3.059,28.586-2.807c2.932,0.077,5.975,0.167,8.672-0.987
			c3.919-1.677,6.297-5.583,8.935-8.932c7.073-8.977,16.961-14.644,27.748-18.756c9.58,0.003,19.584-0.993,28.123,2.901
			c5.832,2.66,10.755,7.533,17.074,8.605c10.435,1.77,19.164-7.17,28.279-12.55c14.217-8.392,32.61-8.891,45.186-19.586
			c2.658-2.261,5.037-4.966,8.197-6.449c4.924-2.311,10.811-1.234,15.979-2.933c5.57-1.831,9.563-6.583,13.759-10.678
			c2.314-2.258,4.78-4.354,7.363-6.297c0.983,0.085,1.962,0.104,2.913,0.046c7.303-0.445,14.545-3.349,21.748-2.069
			c3.903,0.694,7.542,2.592,11.483,3.029c12.209,1.354,20.935-10.761,30.155-18.878c14.803-13.032,35.162-17.089,54.146-22.432
			c10.383-2.922,21.095-6.773,30.178-12.513c2.54-6.555,5.08-13.111,7.619-19.666C712.38,304.771,690.98,298.735,672.107,294.775z"
			/>
		<g>
			<path fill="#A98861" d="M-166.96,379.418c-8.04,2.902-15.2,8.926-18.715,16.582c-3.99,2.025-7.596,4.97-10.736,8.192
				c-9.88,10.137-16.515,24.897-12.612,38.503c4.231,14.753,19.322,24.147,24.613,38.554c1.064,2.896,1.806,6.077,2.661,9.166
				c-1.979,10.573-1.376,21.632,1.819,31.907c2.174,6.991,5.677,13.815,11.378,18.408c11.371,9.162,28.317,7.368,40.873,14.823
				c3.877,2.302,7.197,5.411,10.731,8.21c16.087,12.738,36.288,18.843,55.96,24.679c4.005,1.188,8.08,2.387,12.257,2.369
				c4.225-0.018,8.341-1.281,12.543-1.73c5.269-0.563,10.581,0.159,15.83,0.88c6.791,0.933,13.582,1.865,20.374,2.798
				c7.014,0.963,14.396,1.835,21.541,1.642c0.18,0.187,0.367,0.367,0.562,0.538c3.221,2.816,7.711,3.648,11.984,3.865
				c4.635,0.236,9.3-0.124,13.844-1.067c4.735-0.983,9.334-2.594,14.111-3.351c6.198-0.982,12.529-0.501,18.791-0.914
				c20.767-1.37,39.668-12.411,60.125-16.237c7.757-1.451,15.887-1.911,22.933-5.464c10.712-5.402,16.833-16.827,21.654-27.813
				c2.674-6.093,5.226-12.382,9.552-17.437c3.188-3.724,7.208-6.621,10.926-9.816c4.108-3.531,7.857-7.471,11.212-11.724
				c2.572,0.262,5.213,0.039,7.638-0.691c7.881-2.374,13.983-8.468,19.897-14.193c10.412-10.08,22.203-20.1,36.552-22.131
				c3.576-0.506,7.343-0.528,10.539-2.211c2.637-1.389,4.587-3.759,6.711-5.85c8.304-8.172,19.643-12.33,30.611-16.26
				c2.007-0.719,4.079-1.448,6.208-1.335c2.634,0.14,5.004,1.542,7.363,2.723c5.161,2.584,10.78,4.252,16.515,4.901
				c1.3,0.147,2.685,0.228,3.85-0.367c1.249-0.638,2.007-1.926,2.697-3.147c7.302-12.92,116.016-14.576,88.484-43.652
				L-166.96,379.418z"/>
		</g>
		<path fill="#DAB185" d="M672.107,294.775c-2.51-0.527-5.02-1.053-7.53-1.58c-11.737-2.463-23.474-4.926-35.212-7.389
			c-17.28-3.626-34.621-7.261-52.229-8.576c-50.534-3.775-100.428,11.637-150.988,15.05c-12.615,0.852-25.393,0.944-37.782-1.577
			c-28.78-5.855-52.961-25.151-80.74-34.685c-56.47-19.382-118.131,3.669-177.799,1.602c-33.329-1.154-65.796-10.185-98.365-17.355
			c-67.099-14.773-139.123-21.353-203.245,2.494v153.895c3.81,3.509,7.619,7.018,11.429,10.527c1.307,1.203,2.613,2.407,3.92,3.61
			c5.36,4.937,10.852,9.962,17.524,12.895c4.189,1.842,8.705,2.794,13.183,3.734c14.265,2.995,28.596,5.991,43.014,8.107
			c5.778,8.023,14.395,14.373,22.629,20.184c2.117,1.494,4.322,3.026,6.87,3.501c2.75,0.513,5.552-0.266,8.286-0.861
			c21.256-4.627,43.422,1.861,63.113,11.108c7.451,3.499,14.917,7.463,23.097,8.39c8.112,0.92,16.266-1.241,23.912-4.102
			c16.833-6.298,32.076-15.951,47.505-25.259c25.399,4.71,51.098,7.808,76.889,9.259c8.961,0.504,18.238,0.761,26.582-2.546
			c7.291-2.89,13.271-8.269,19.939-12.398c17.796-11.018,40.057-12.888,57.957-23.737c2.03-1.23,4.011-2.579,5.996-3.921
			c11.203,0.717,22.248-2.75,33.348-4.615c11.436-1.921,24.266-1.778,33.272,5.528c2.028,1.645,3.924,3.679,6.462,4.293
			c2.732,0.661,5.538-0.483,8.144-1.536c14.09-5.692,29-9.351,44.125-10.827c4.745-0.463,9.669-0.756,13.89-2.972
			c3.793-1.991,6.657-5.353,10.073-7.938c11.811-8.94,29.775-8.621,42.956-14.011c5.777,2.158,11.652,4.054,17.61,5.644
			c3.075,0.821,6.372,1.559,9.388,0.545c2.684-0.903,4.726-3.056,6.651-5.131c5.522-5.953,11.045-11.907,16.567-17.86
			c2.288-2.467,4.696-5.015,7.848-6.192c4.762-1.778,10.014-0.053,15.064,0.526c18.509,2.125,34.901-11.282,48.04-24.491
			c1.989-2,4.005-4.033,6.053-6.054c1.637-1.616,3.292-3.224,4.98-4.796c0.433,0.07,0.864,0.145,1.289,0.226
			c5.868,1.116,11.862,2.926,17.701,1.67c6.648-1.431,11.858-6.582,18.193-9.054c6.573-2.564,14.465-2.319,19.791-6.947
			c1.752-1.522,3.372-3.624,5.69-3.736c1.712-0.083,3.235,0.979,4.698,1.873c3.597,2.199,8.161-0.183,12.934-4.194
			C694.807,300.062,683.035,297.068,672.107,294.775z"/>
		<g>
			<path fill="#E9E6D1" d="M-34.691,223.334c2.259-0.909,4.353-2.146,6.195-3.888c3.087-2.919,4.965-6.853,7.348-10.37
				c1.031-1.522,2.183-2.975,3.436-4.334c2.282-4.262,4.565-8.523,6.847-12.785c0.832-1.554,1.706-3.158,3.113-4.219
				c2.067-1.56,4.854-1.65,7.443-1.677c0.559-0.006,1.12-0.011,1.68-0.015c-0.512-2.976-0.915-5.97-1.187-8.978
				c-7.406-4.596-14.335-9.961-20.6-16.021c-0.738-0.713-1.467-1.441-2.185-2.181c-6.569,13.494-9.528,27.663-15.959,41.187
				C-37.61,207.833-36.483,215.715-34.691,223.334z"/>
			<path fill="#E9E6D1" d="M708.517,297.665c-5.801,1.675-13.407,2.457-20.41,2.006c-12.561-0.81-22.957-4.509-31.123-8.652
				c0.721,4.422,0.721,8.93-0.205,13.322c-0.089,0.423-0.189,0.848-0.307,1.267c3.592-1.683,7.205-3.316,10.877-4.807
				c4.215-1.711,8.924-3.244,13.226-1.765c3.04,1.046,5.384,3.442,8.046,5.244c4.267,2.888,9.69,4.267,14.7,3.066
				c3.319-0.796,6.365-2.83,8.344-5.578c-0.282-0.66-0.63-1.284-1.043-1.831C709.996,299.104,709.278,298.361,708.517,297.665z"/>
			<path fill="#E9E6D1" d="M53.546,191.404c6.441-2.221,13.692-1.171,20.729,1.018c0.833-0.441,1.686-0.832,2.559-1.171
				c-6.898-9.748-15.793-18.196-23.483-27.438c-10.737-12.903-19.286-27.592-28.135-41.968c-5.684,0.459-11.241,1.453-16.52,3.553
				C29.726,141.419,40.25,167.492,53.546,191.404z"/>
			<path fill="#E9E6D1" d="M397.686,307.631c0.348,0.339,0.686,0.686,1.013,1.042c1.178-0.983,2.462-1.839,3.825-2.543
				C400.909,306.507,399.296,307.021,397.686,307.631z"/>
			<path fill="#E9E6D1" d="M536.417,251.572c2.423-1.316,5.286-2.422,8.479-3.175c3.628-2.35,8.523-4.301,14.075-5.669
				c-7.321-2.308-14.831-4.014-22.432-5.08c-4.82-0.676-9.968-1.05-14.335,1.101c-0.144,0.071-0.278,0.157-0.419,0.233
				C527.748,241.287,532.307,246.503,536.417,251.572z"/>
			<path fill="#E9E6D1" d="M340.022,225.572c2.393,0.072,4.786,0.172,7.17,0.23c-2.477-1.066-5.055-1.801-7.692-2.336
				c0.025,0.11,0.049,0.22,0.075,0.33C339.714,224.389,339.871,224.981,340.022,225.572z"/>
			<path fill="#E9E6D1" d="M621.879,313.846c-11.63,1.847-23.195-2.163-32.975-9.022c-1.048,1.686-2.183,3.359-3.453,5.014
				c-6.424,8.371-17.521,16.61-32.705,21.77c0.385,3.035-0.166,6.02-2.082,8.534c-1.536,2.016-3.732,3.406-5.88,4.752
				c-5.626,3.527-11.376,7.107-17.825,8.686c-6.071,1.486-12.422,1.115-18.66,0.734c-17.837-1.088-35.674-2.177-53.511-3.265
				c-9.705,4.933-20.499,8.607-27.321,16.865c2.088-0.077,4.18-0.272,6.256-0.474c7.107-0.692,14.213-1.384,21.32-2.076
				c0.59-0.057,1.185-0.12,1.779-0.188c10.468,4.716,23.722,4.216,35.186,1.127c15.776-4.252,30.586-12.347,46.827-14.137
				c7.449-0.821,15.182-0.316,22.216-2.902c5.181-1.905,9.619-5.364,13.964-8.771c7.585-5.947,15.17-11.894,22.755-17.841
				c9.256,0.878,18.94-0.722,27.848-3.627c6.748-2.2,13.228-5.079,19.655-8.102c-1.372-0.163-2.745-0.359-4.049-0.45
				C634.669,310.016,628.368,312.816,621.879,313.846z"/>
			<path fill="#E9E6D1" d="M479.497,313.483c-0.079,0.501-0.164,1-0.253,1.499c0.834-0.337,1.671-0.669,2.511-0.992
				C480.997,313.847,480.245,313.671,479.497,313.483z"/>
			<path fill="#E9E6D1" d="M232.178,344.225c-5.216-1.115-10.48-3.495-14.029-7.328c-14.167,0.464-28.935-1.048-41.885,4.66
				c-15.53,6.845-26.874,23.472-43.797,24.752c-9.856,0.746-19.227-4.087-27.585-9.362c-4.801-3.03-9.617-6.397-12.617-11.217
				c-3-4.82-3.757-11.458-0.396-16.034c1.842-2.507,4.642-4.098,7.358-5.616c19.162-10.711,38.323-21.422,57.485-32.133
				c1.631-2.302,3.299-4.569,5.067-6.74c2.964-3.641,6.251-6.996,9.787-10.061c-14.683-0.246-29.398-5.723-42.478-12.846
				c-2.222-1.21-4.422-2.489-6.569-3.846c-2.07-0.134-4.23-0.521-6.229-0.66c-6.554-0.457-12.855,2.342-19.344,3.373
				c-9.461,1.502-18.878-0.873-27.327-5.503c-4.747,2.447-10.382,3.485-15.639,2.682c-8.522-1.301-15.93-6.123-22.203-12.201
				c-6.203,9.576-15.413,16.959-25.128,23.019c-1.243,0.775-2.507,1.527-3.78,2.264c0.632,2.05,1.131,4.147,1.509,6.279
				c0.896-0.135,1.798-0.245,2.715-0.292c9.62-0.501,17.981,4.096,25.281,10.647c7.846-1.441,15.724-1.675,23.145,1.026
				c7.439,2.708,13.586,8.129,18.838,14.053c8.329,9.395,14.85,23.855,7.36,33.931c-5.824,7.835-17.109,8.698-26.853,8.095
				c-9.745-0.603-20.454-1.712-28.391,3.973c-2.613,1.872-4.825,4.435-7.852,5.517c-2.361,0.844-4.994,0.692-7.338,1.583
				c-0.82,0.312-1.569,0.746-2.284,1.239c1.537,0.392,3.077,0.77,4.607,1.185c14.225,3.856,28.308,8.706,42.981,10.09
				c13.031,1.229,26.896-0.626,37.795-7.63c3.363,1.025,6.691,2.138,9.924,3.48c8.794,3.651,16.86,8.968,25.847,12.114
				c8.987,3.146,19.608,3.81,27.478-1.55c6.099-4.154,9.613-11.251,15.456-15.758c6.203-4.785,14.307-6.142,22.048-7.349
				c4.229-0.659,8.457-1.318,12.686-1.978c7.059,3.535,14.844,5.61,22.74,5.85c8.081,0.246,16.607-1.219,23.945,2.176
				c5.357,2.479,9.261,7.207,13.75,11.041c13.159,11.241,32.524,14.637,48.761,8.648c1.91-0.705,3.771-1.526,5.6-2.418
				c-24.405-3.323-44.137-24.552-68.767-28.712C246.675,345.456,239.291,345.746,232.178,344.225z"/>
			<path fill="#E9E6D1" d="M270.045,269.704c0.411-7.197,3.399-13.707,8.012-19.331c-2.714-4.382-5.144-8.816-6.552-13.365
				c-0.314-1.015-0.569-2.03-0.782-3.046c-0.581,2.383-1.122,4.797-2.386,6.862c-2.786,4.551-8.442,6.42-13.729,7.149
				c-8.546,1.178-17.638,0.085-25.255-3.776c-1.143,3.412-2.939,6.58-5.446,9.265c-0.129,0.138-0.268,0.263-0.4,0.397
				c7.952-0.54,15.969,0.015,23.766,1.769c8.978,2.019,18.584,6.429,21.697,15.088c3.57,9.931-2.844,20.196-6.397,30.232
				c7.653-0.299,15.32-0.358,22.89,0.431C275.292,292.781,269.411,280.799,270.045,269.704z"/>
			<path fill="#EDD6CE" d="M51.769,241.16c-6.002-6.83-11.046-14.915-12.242-23.928c-1.196-9.013,2.164-19.022,9.868-23.85
				c1.336-0.837,2.725-1.485,4.152-1.978c-13.296-23.912-23.82-49.985-44.85-66.006c-0.466,0.186-0.936,0.359-1.397,0.563
				c-7.123,3.139-13.365,8.335-19.669,13.165c-1.288,4.891-4.601,9.538-7.32,14.227c-1.056,1.822-2.011,3.663-2.912,5.513
				c0.718,0.741,1.448,1.468,2.185,2.181c6.266,6.059,13.194,11.424,20.6,16.021c0.272,3.008,0.675,6.002,1.187,8.978
				c4.35-0.03,8.724,0.051,12.944,1.07c11.264,2.72,20.293,12.27,23.541,23.393c3.247,11.123,1.06,23.461-4.754,33.484
				c-0.424,0.73-0.868,1.446-1.326,2.152c6.273,6.078,13.681,10.9,22.203,12.201c5.257,0.803,10.892-0.236,15.639-2.682
				C62.901,251.984,56.796,246.88,51.769,241.16z"/>
			<path fill="#D1CDEB" d="M-74.965,263.822c-6.027-10.1-5.798-24.874,3.517-32.055c10.011-7.718,25.491-3.9,36.757-8.432
				c-1.792-7.62-2.919-15.502-3.869-23.281c-0.192-1.574-0.379-3.145-0.562-4.708c-0.965-8.271-2.36-17.361-8.705-22.754
				c-3.555-3.022-8.179-4.41-12.662-5.708c-10.031-2.905-21.697-5.5-30.216,0.541c-4.629,3.283-7.375,8.563-9.673,13.753
				c-4.536,10.245-8.028,21.125-8.721,32.281c1.905,4.332,3.661,8.856,5.213,13.616c2.248,6.893,4.044,14.324,5.252,21.996
				c0.342,0.409,0.681,0.819,1.04,1.214c4.485,4.938,10.141,8.656,14.96,13.267c7.09,6.785,12.293,15.523,14.88,24.989
				c0.74,2.709,1.291,5.516,1.817,8.335c3.898,4.903,5.623,11.56,4.882,17.837c0.982,1.976,2.174,3.84,3.684,5.534
				c1.105,1.239,2.331,2.32,3.641,3.28c-2.293-9.854-1.592-20.033,3.41-28.919c0.778-1.382,1.709-2.772,3.115-3.506
				c1.713-0.894,3.766-0.645,5.692-0.492c6.249,0.496,12.596-0.284,18.539-2.278c9.294-3.119,17.779-9.181,27.349-10.625
				c-0.378-2.132-0.877-4.229-1.509-6.279c-11.953,6.921-25.188,12-38.942,12.132C-51.293,283.706-67.166,276.891-74.965,263.822z"
				/>
			<path fill="#D9D2D9" d="M268.972,270.717c-3.113-8.66-12.719-13.069-21.697-15.088c-7.797-1.754-15.814-2.309-23.766-1.769
				c-3.594,3.688-8.169,6.269-12.685,8.762c-8.118,4.482-16.39,8.956-25.416,11.085c-4.576,1.079-9.208,1.517-13.843,1.44
				c-3.536,3.065-6.823,6.42-9.787,10.061c-1.768,2.171-3.437,4.438-5.067,6.74c-19.162,10.711-38.323,21.422-57.485,32.133
				c-2.715,1.518-5.516,3.109-7.358,5.616c-3.362,4.575-2.605,11.214,0.396,16.034c3,4.82,7.816,8.186,12.617,11.217
				c8.358,5.276,17.729,10.108,27.585,9.362c16.923-1.28,28.267-17.907,43.797-24.752c12.951-5.708,27.718-4.196,41.885-4.66
				c-1.29-1.394-2.36-2.974-3.11-4.763c-3.785-9.033,2.144-19.774,10.594-24.725c8.45-4.95,18.661-5.57,28.442-6.066
				c2.827-0.143,5.662-0.284,8.5-0.395C266.128,290.913,272.542,280.648,268.972,270.717z"/>
			<path fill="#D9D2D9" d="M373.397,288.617c-4.366-0.448-8.46-2.131-12.616-3.599c8.406,4.829,16.812,9.658,25.217,14.487
				c4.1,2.356,8.338,4.861,11.687,8.126c1.611-0.61,3.223-1.124,4.837-1.502c0.364-0.188,0.734-0.363,1.108-0.529
				c2.894-6.696,3.548-14.144,5.445-21.202c1.111-4.136,2.847-8.331,5.409-11.726c-2.249-1.74-4.567-3.395-6.987-4.922
				c-1.778-1.122-3.602-2.173-5.447-3.189c-0.353,1.932-0.857,3.838-1.553,5.696C396.374,281.248,385.076,289.814,373.397,288.617z"
				/>
			<path fill="#EDD6CE" d="M688.107,299.671c7.003,0.452,14.609-0.331,20.41-2.006c-2.951-2.7-6.758-4.476-10.499-6.026
				c-14.408-5.969-29.504-10.273-44.89-12.821c1.832,3.873,3.171,7.998,3.856,12.2C665.149,295.161,675.546,298.861,688.107,299.671
				z"/>
			<path fill="#E3EACA" d="M229.354,244.197c7.616,3.861,16.709,4.955,25.255,3.776c5.287-0.729,10.942-2.598,13.729-7.149
				c1.264-2.064,1.805-4.478,2.386-6.862c-1.654-7.891-0.396-15.763,1.679-23.184c2.022-7.231,5.043-14.512,11.172-19.435
				c-2.177-0.905-4.427-1.593-6.775-1.943c-10.345-1.541-20.376,3.639-29.555,8.653c-8.445,4.613-16.891,9.227-25.336,13.841
				c0.78,0.834,1.537,1.692,2.24,2.604C230.531,222.779,232.609,234.484,229.354,244.197z"/>
			<path fill="#E5F0C7" d="M53.546,191.404c-1.427,0.492-2.816,1.14-4.152,1.978c-7.704,4.828-11.064,14.837-9.868,23.85
				c1.196,9.013,6.24,17.099,12.242,23.928c5.027,5.72,11.133,10.824,17.849,14.504c8.449,4.629,17.866,7.005,27.327,5.503
				c6.489-1.03,12.79-3.83,19.344-3.373c1.999,0.139,4.159,0.526,6.229,0.66c-5.149-3.254-9.963-7.005-13.811-11.697
				c-4.118-5.021-7.028-11.265-7.567-17.669c-2.472,0.363-4.913,0.87-7.277,1.556c-4.263-9.401-6.512-20.131-11.091-29.505
				c-1.699-3.479-3.717-6.75-5.938-9.889c-0.873,0.338-1.726,0.73-2.559,1.171C67.239,190.233,59.987,189.183,53.546,191.404z"/>
			<path fill="#E5F0C7" d="M656.984,291.018c-0.685-4.203-2.024-8.327-3.856-12.2c-3.208-0.531-6.428-0.991-9.658-1.368
				c-9.475-1.106-19.196-1.587-28.064-5.102c-2.232-0.885-4.367-1.96-6.452-3.134c-0.652,0.789-1.304,1.578-1.925,2.367
				c-8.448,10.748-11.301,22.267-18.125,33.243c9.78,6.859,21.345,10.869,32.975,9.022c6.489-1.03,12.79-3.83,19.344-3.373
				c1.304,0.091,2.677,0.287,4.049,0.45c3.737-1.758,7.458-3.563,11.2-5.316c0.118-0.42,0.217-0.845,0.307-1.267
				C657.705,299.948,657.706,295.441,656.984,291.018z"/>
			<path fill="#DBF4CE" d="M384.322,332.16c2.082-3.458,4.654-6.596,7.291-9.684c0.153-2.319,0.697-4.608,1.651-6.732
				c1.232-2.742,3.129-5.148,5.435-7.071c-0.327-0.356-0.665-0.703-1.013-1.042c-3.349-3.265-7.586-5.77-11.687-8.126
				c-8.406-4.829-16.812-9.658-25.217-14.487c-0.452-0.16-0.906-0.313-1.36-0.466c-2.35,6.673-7.932,12.115-14.777,16.382
				c17.203,4.783,29.141,24.477,25.583,42.288c-0.931,4.662-2.803,9.019-5.371,12.94c0.854-0.014,1.705-0.037,2.55-0.069
				c3.844-0.143,7.735-0.394,11.609-0.479C378.145,347.568,380.119,339.141,384.322,332.16z"/>
			<path fill="#DBD7BC" d="M454.789,351.049c-3.964-0.242-7.929-0.484-11.893-0.726c-10.587-0.646-21.291-1.312-31.434-4.415
				c-5.802-1.775-11.563-4.488-15.408-9.18c-3.234-3.947-4.777-9.171-4.441-14.253c-2.637,3.088-5.209,6.226-7.291,9.684
				c-4.203,6.981-6.177,15.408-5.305,23.454c6.619-0.145,13.187,0.199,19.374,2.417c7.407,2.655,13.855,7.882,21.574,9.406
				c2.47,0.488,4.983,0.57,7.503,0.477C434.29,359.656,445.084,355.983,454.789,351.049z"/>
			<path fill="#DBD7BC" d="M403.631,305.6c2.261-1.004,4.694-1.612,7.171-1.711c2.786-0.112,5.503,0.35,8.193,1.055
				c6.936,9.955,15.938,18.892,27.705,19.905c9.104,0.784,17.784-3.443,26.137-7.147c2.117-0.939,4.253-1.85,6.407-2.72
				c0.089-0.499,0.173-0.999,0.253-1.499c-10.379-2.612-19.768-9.459-26.305-18.092c-6.415-8.473-10.45-19.707-7.879-29.806
				c-3.998,1.479-7.932,3.175-11.835,4.874c-4.724,2.056-9.447,4.112-14.171,6.169c-1.565-1.37-3.176-2.683-4.821-3.956
				c-2.562,3.395-4.298,7.591-5.409,11.726C407.179,291.456,406.525,298.904,403.631,305.6z"/>
			<path fill="#E3DFBC" d="M536.417,251.572c0.097,0.12,0.195,0.24,0.292,0.359c2.933,3.629,5.948,7.486,6.743,12.083
				c0.558,3.226-0.04,6.545-0.949,9.69c-2.617,9.055-7.879,17.329-14.971,23.539c-2.669,2.338-5.582,4.382-8.556,6.317
				c-1.98,1.288-4.013,2.531-6.09,3.695c11.746-0.06,23.712,3.305,32.425,11.105c3.778,3.383,6.818,8.378,7.435,13.246
				c15.183-5.16,26.28-13.399,32.705-21.77c1.27-1.655,2.405-3.329,3.453-5.014c6.824-10.976,9.677-22.494,18.125-33.243
				c0.621-0.79,1.273-1.578,1.925-2.367c-5.316-2.997-10.265-6.712-15.382-10.075c-10.702-7.033-22.388-12.56-34.601-16.411
				c-5.552,1.368-10.447,3.319-14.075,5.669C541.703,249.151,538.84,250.256,536.417,251.572z"/>
			<path fill="#F2CFD5" d="M272.403,210.778c-2.075,7.421-3.334,15.294-1.679,23.184c0.213,1.015,0.468,2.031,0.782,3.046
				c1.407,4.549,3.838,8.983,6.552,13.365c-4.614,5.624-7.601,12.134-8.012,19.331c-0.634,11.095,5.248,23.077,15.421,31.675
				c3.036,0.317,6.057,0.763,9.054,1.395c4.796,1.01,9.706,2.455,14.612,3.714c10.161-3.877,20.365-7.66,30.892-6.467
				c1.578,0.179,3.118,0.496,4.623,0.914c6.845-4.268,12.427-9.71,14.777-16.382c-1.267-0.426-2.542-0.825-3.836-1.141
				c-17.537-4.275-38.122,5.208-53.085-4.888c-8.773-5.919-12.624-18.184-8.81-28.056c1.099-2.844,2.743-5.455,4.625-7.853
				c7.001-8.921,17.53-14.992,28.757-16.583c4.265-0.604,8.605-0.588,12.95-0.458c-0.151-0.592-0.308-1.183-0.447-1.776
				c-0.026-0.11-0.049-0.22-0.075-0.33c-4.996-1.014-10.194-1.327-15.283-1.87c-2.101-0.224-4.195-0.508-6.286-0.818
				c-7.24-7.959-14.479-17.154-21.719-22.069c-4.027-2.734-8.176-5.512-12.638-7.367
				C277.446,196.266,274.424,203.547,272.403,210.778z"/>
			<path fill="#EADBD8" d="M18.619,354.657c3.027-1.082,5.239-3.645,7.852-5.517c7.937-5.685,18.646-4.576,28.391-3.973
				c9.744,0.603,21.029-0.259,26.853-8.095c7.49-10.076,0.968-24.536-7.36-33.931c-5.252-5.924-11.399-11.345-18.838-14.053
				c-7.421-2.701-15.299-2.467-23.145-1.026c-7.299-6.551-15.66-11.148-25.281-10.647c-0.917,0.048-1.819,0.157-2.715,0.292
				c-9.57,1.444-18.054,7.505-27.349,10.625c-5.943,1.994-12.29,2.774-18.539,2.278c-1.926-0.153-3.98-0.402-5.692,0.492
				c-1.406,0.734-2.337,2.124-3.115,3.506c-5.002,8.886-5.703,19.065-3.41,28.919c2.132,9.163,6.853,18.044,13.148,25.341
				c16.717,1.583,33.307,4.458,49.577,8.61c0.715-0.493,1.464-0.927,2.284-1.239C13.625,355.348,16.259,355.501,18.619,354.657z"/>
			<path fill="#F0E2CD" d="M327.072,226.031c-11.227,1.591-21.756,7.662-28.757,16.583c-1.882,2.399-3.526,5.009-4.625,7.853
				c-3.814,9.872,0.038,22.137,8.81,28.056c14.963,10.096,35.548,0.613,53.085,4.888c1.295,0.316,2.569,0.715,3.836,1.141
				c0.454,0.153,0.908,0.306,1.36,0.466c4.156,1.468,8.25,3.151,12.616,3.599c11.678,1.198,22.977-7.368,27.1-18.36
				c0.697-1.858,1.2-3.764,1.553-5.696c-9.391-5.168-19.418-9.314-27.731-16.051c-9.083-7.361-16.003-17.719-26.666-22.513
				c-0.153-0.069-0.308-0.128-0.461-0.194c-2.384-0.059-4.777-0.159-7.17-0.23C335.677,225.442,331.337,225.427,327.072,226.031z"/>
			<path fill="#E9DFD6" d="M453.192,295.391c6.537,8.633,15.926,15.481,26.305,18.092c0.748,0.188,1.5,0.364,2.258,0.507
				c8.974-3.454,18.261-6.067,27.826-6.638c1.098-0.066,2.201-0.09,3.305-0.096c2.077-1.164,4.11-2.407,6.09-3.695
				c2.974-1.935,5.887-3.98,8.556-6.317c7.091-6.21,12.354-14.484,14.971-23.539c0.909-3.145,1.507-6.464,0.949-9.69
				c-0.795-4.598-3.811-8.454-6.743-12.083c-0.096-0.119-0.195-0.239-0.292-0.359c-4.11-5.07-8.669-10.285-14.633-12.59
				c-3.157,1.694-5.555,4.526-7.819,7.324c-11.622,2.504-22.507,10.781-34.513,13.348c-6.416,1.372-13.071,1.079-19.565,2.013
				c-4.999,0.719-9.832,2.163-14.574,3.918C442.742,275.684,446.777,286.919,453.192,295.391z"/>
			<path fill="#E7E3C9" d="M122.519,258.454c2.147,1.357,4.347,2.636,6.569,3.846c13.08,7.123,27.795,12.6,42.478,12.846
				c4.635,0.078,9.267-0.361,13.843-1.44c9.025-2.128,17.297-6.603,25.416-11.085c4.517-2.493,9.091-5.074,12.685-8.762
				c0.131-0.135,0.271-0.26,0.4-0.397c2.506-2.685,4.302-5.853,5.446-9.265c3.255-9.713,1.176-21.418-5.205-29.7
				c-0.703-0.912-1.46-1.77-2.24-2.604c-5.485,2.996-10.97,5.993-16.456,8.989c-2.554,1.395-5.183,2.877-7.52,4.638
				c-10.82-1.719-21.694-2.242-32.414-0.141c-4.768,0.934-9.429,2.376-14.218,3.194c-12.523,2.139-25.329-0.06-38.032-0.229
				c-4.002-0.053-8.108,0.152-12.128,0.743c0.539,6.404,3.45,12.648,7.567,17.669C112.556,251.449,117.369,255.201,122.519,258.454z
				"/>
			<path fill="#DFDCC0" d="M37.856,210.509c-3.247-11.123-12.277-20.673-23.541-23.393c-4.22-1.019-8.594-1.1-12.944-1.07
				c-0.56,0.004-1.121,0.009-1.68,0.015c-2.589,0.027-5.376,0.118-7.443,1.677c-1.407,1.061-2.281,2.666-3.113,4.219
				c-2.282,4.262-4.565,8.523-6.847,12.785c-1.253,1.359-2.405,2.813-3.436,4.334c-2.383,3.517-4.261,7.451-7.348,10.37
				c-1.842,1.742-3.936,2.979-6.195,3.888c-11.266,4.532-26.746,0.713-36.757,8.432c-9.314,7.181-9.543,21.955-3.517,32.055
				c7.799,13.07,23.671,19.884,38.89,19.739c13.754-0.132,26.989-5.211,38.942-12.132c1.273-0.737,2.537-1.489,3.78-2.264
				c9.716-6.06,18.925-13.443,25.128-23.019c0.457-0.706,0.902-1.422,1.326-2.152C38.916,233.97,41.103,221.633,37.856,210.509z"/>
			<path fill="#E9DDCB" d="M344.645,300.934c-1.504-0.418-3.044-0.735-4.623-0.914c-10.527-1.192-20.731,2.591-30.892,6.467
				c-4.906-1.259-9.816-2.703-14.612-3.714c-2.997-0.631-6.018-1.078-9.054-1.395c-7.57-0.789-15.237-0.73-22.89-0.431
				c-2.837,0.111-5.672,0.252-8.5,0.395c-9.781,0.496-19.992,1.116-28.442,6.066c-8.45,4.95-14.379,15.692-10.594,24.725
				c0.75,1.789,1.819,3.369,3.11,4.763c3.549,3.833,8.813,6.213,14.029,7.328c7.113,1.52,14.497,1.231,21.669,2.442
				c24.631,4.16,44.362,25.389,68.767,28.712c2.988-1.457,5.891-3.104,8.783-4.747c8.611-4.891,17.223-9.782,25.834-14.674
				c2.535,0.197,5.095,0.244,7.625,0.203c2.568-3.921,4.439-8.277,5.371-12.94C373.786,325.412,361.848,305.717,344.645,300.934z"/>
			<path fill="#D9D4D9" d="M545.311,318.361c-8.713-7.801-20.679-11.165-32.425-11.105c-1.104,0.006-2.208,0.03-3.305,0.096
				c-9.565,0.571-18.852,3.184-27.826,6.638c-0.84,0.323-1.676,0.655-2.511,0.992c-2.154,0.87-4.291,1.782-6.407,2.72
				c-8.353,3.704-17.033,7.931-26.137,7.147c-11.767-1.014-20.769-9.95-27.705-19.905c-2.69-0.705-5.407-1.167-8.193-1.055
				c-2.477,0.099-4.91,0.707-7.171,1.711c-0.374,0.166-0.744,0.341-1.108,0.529c-1.363,0.704-2.646,1.561-3.825,2.543
				c-2.306,1.923-4.203,4.329-5.435,7.071c-0.954,2.124-1.498,4.413-1.651,6.732c-0.336,5.081,1.207,10.306,4.441,14.253
				c3.845,4.693,9.606,7.406,15.408,9.18c10.143,3.103,20.847,3.769,31.434,4.415c3.964,0.242,7.929,0.484,11.893,0.726
				c17.837,1.088,35.674,2.177,53.511,3.265c6.238,0.381,12.589,0.752,18.66-0.734c6.449-1.579,12.199-5.16,17.825-8.686
				c2.147-1.346,4.344-2.736,5.88-4.752c1.916-2.514,2.467-5.5,2.082-8.534C552.129,326.74,549.09,321.744,545.311,318.361z"/>
			<path fill="#D9D2D9" d="M-54.631,100.039c-5.036,2.815-10.071,5.63-15.107,8.445c-2.715,1.518-5.516,3.109-7.358,5.616
				c-3.362,4.575-2.605,11.214,0.396,16.034c3,4.82,7.816,8.186,12.617,11.217c0.749,0.473,1.509,0.939,2.273,1.401
				c7.771,4.693,16.339,8.64,25.312,7.961c9.162-0.693,16.688-5.885,24.128-11.586c6.304-4.83,12.546-10.026,19.669-13.165
				c0.462-0.204,0.931-0.377,1.397-0.563c5.279-2.101,10.836-3.095,16.52-3.553C15.286,105.709,4.979,89.967-9.222,77.586
				c-0.8-0.697-1.616-1.377-2.441-2.048c-0.195,0.273-0.396,0.539-0.59,0.813C-26.379,84.247-40.505,92.143-54.631,100.039z"/>
		</g>
		<g>
			<path fill="#FFFFFF" d="M15.261,235.409c-0.28-1.286-0.458-2.666-0.882-3.913c-0.691-2.035-2.922-2.836-4.844-2.025
				c-0.426,0.18-0.783,0.422-1.111,0.689c-0.075,0.001-0.151-0.004-0.221,0.001c-0.013,0.001-0.011,0.001-0.022,0.002
				c-0.131-0.027-0.261-0.059-0.393-0.086c-0.918-0.194-1.817-0.239-2.662,0.253c-0.626,0.364-1.088,0.944-1.388,1.594
				c-1.023,2.218-1.28,4.611-1.317,7.031c-0.017,1.104-0.014,2.209-0.019,3.314c-0.005,1.042-0.06,2.154,0.266,3.16
				c0.492,1.517,1.666,2.627,3.267,2.842c1.019,0.137,2.079,0.056,3.102-0.02c2.697-0.201,5.118-0.837,7.258-2.546
				c0.721-0.576,0.841-1.671,0.661-2.501C16.391,240.605,15.826,238.007,15.261,235.409z"/>
			<path fill="#FFFFFF" d="M49.14,201.137c-0.982-1.654-1.976-3.3-2.98-4.94c-0.613-1.002-1.729-1.405-2.802-1.17
				c-0.079-0.009-0.155-0.027-0.237-0.029c-2.133-0.057-4.249,0.174-5.929,1.612c-1.764,1.51-1.997,3.702-1.398,5.829
				c0.999,3.551,2.543,6.981,4.522,10.093c0.854,1.343,2.872,1.78,4.037,0.52c0.523-0.565,1.048-1.13,1.607-1.66
				c0.272-0.258,0.554-0.503,0.842-0.743c0.042-0.033,0.093-0.071,0.149-0.11c0.148-0.103,0.297-0.203,0.451-0.297
				c0.153-0.094,0.309-0.183,0.468-0.266c0.113-0.059,0.214-0.107,0.239-0.121c0.347-0.131,0.697-0.247,1.039-0.392
				c1.055-0.445,2.019-1.226,2.308-2.394c0.326-1.315-0.243-2.406-0.885-3.505C50.096,202.754,49.62,201.945,49.14,201.137z
				 M47.192,204.74C47.268,204.708,47.281,204.708,47.192,204.74L47.192,204.74z"/>
		</g>
		<g>
			<path fill="#FFFFFF" d="M161.255,327.651c-0.162-0.3-0.382-0.54-0.662-0.721c-0.248-0.227-0.54-0.381-0.874-0.46
				c-0.658-0.15-1.397-0.117-1.981,0.259c-0.534,0.344-1.064,0.886-1.181,1.536c-0.23,1.276-0.505,2.555-0.661,3.843
				c-0.013,0.354,0.061,0.684,0.221,0.99c0.104,0.319,0.281,0.594,0.532,0.827c0.233,0.251,0.509,0.428,0.827,0.531
				c0.306,0.161,0.636,0.235,0.99,0.221c0.665-0.03,1.354-0.248,1.818-0.753c0.134-0.173,0.268-0.347,0.402-0.52
				c0.123-0.211,0.209-0.433,0.267-0.662c0.187-1.037,0.374-2.075,0.561-3.112c0.107-0.342,0.122-0.683,0.046-1.025
				C161.545,328.264,161.443,327.946,161.255,327.651z"/>
			<path fill="#FFFFFF" d="M181.176,318.584c-0.055-0.103-0.127-0.189-0.196-0.277c-0.079-0.155-0.175-0.3-0.295-0.431
				c-0.181-0.28-0.422-0.501-0.721-0.662c-0.295-0.188-0.614-0.289-0.956-0.305c-0.342-0.077-0.683-0.061-1.025,0.046
				c-0.622,0.201-1.222,0.587-1.536,1.181c-0.325,0.614-0.443,1.297-0.259,1.981c0.26,0.965,0.519,1.929,0.779,2.894
				c0.08,0.335,0.233,0.626,0.46,0.874c0.181,0.28,0.422,0.5,0.721,0.662c0.295,0.188,0.613,0.29,0.956,0.305
				c0.342,0.076,0.683,0.061,1.025-0.046c0.622-0.201,1.222-0.587,1.536-1.181c0.086-0.205,0.173-0.409,0.259-0.614
				c0.04-0.15,0.047-0.299,0.06-0.449c0.088-0.162,0.16-0.332,0.202-0.515c0.031-0.228,0.061-0.456,0.092-0.683
				c-0.001-0.464-0.118-0.896-0.351-1.297C181.676,319.572,181.426,319.078,181.176,318.584z"/>
			<path fill="#FFFFFF" d="M218.762,306.557c-0.017-1.212-0.443-2.428-0.723-3.601c-0.296-1.241-0.592-2.483-0.888-3.724
				c-0.197-0.826-0.561-1.456-1.322-1.871c-0.441-0.241-1.011-0.376-1.545-0.322c-0.303-0.191-0.649-0.319-1.037-0.344
				c-1.271-0.082-2.542-0.164-3.813-0.246c-1.437-0.093-2.611,0.833-2.846,2.262c-0.333,2.026-0.503,4.076-0.492,6.129
				c0.007,1.302-0.018,2.576,0.357,3.832c0.434,1.453,1.777,2.665,3.333,2.705c1.264,0.033,2.261-0.515,3.257-1.217
				c0.021,0.002,0.042,0.003,0.063,0.005c0.173,0.019,0.345,0.048,0.517,0.076c0.991,0.162,1.971,0.224,2.931-0.146
				C218.002,309.54,218.783,308.038,218.762,306.557z"/>
			<path fill="#FFFFFF" d="M248.724,286.068c-0.128-1.392-0.422-2.79-0.705-4.068c-0.245-1.109-0.532-2.187-1.31-3.055
				c-0.734-0.819-1.934-1.294-3.025-1.178c-1.618,0.171-2.898,1.072-3.625,2.36c-0.441,0.174-0.859,0.431-1.229,0.81
				c-0.959,0.981-1.104,2.275-0.951,3.569c0.114,0.958,0.227,1.917,0.341,2.875c0.228,1.924,0.376,4.025,1.88,5.444
				c1.611,1.52,4.124,1.645,5.95,0.417c0.64-0.431,1.135-0.932,1.527-1.479c0.254,0.01,0.511-0.009,0.768-0.092
				c1.285-0.418,2.212-1.786,1.788-3.162C249.852,287.601,249.372,286.754,248.724,286.068z"/>
			<path fill="#FFFFFF" d="M282.008,247.508c-0.034-1.11-0.714-2.12-1.855-2.444c-1.723-0.49-3.457,0.082-4.766,1.242
				c-1.256,1.113-1.797,2.7-1.933,4.327c-0.124,1.478,0.257,2.988,0.552,4.428c0.29,1.416,0.579,2.833,0.869,4.249
				c0.39,1.907,3.014,2.464,4.296,1.134c0.126-0.131,0.553-0.409,0.634-0.583c0.026-0.017,0.05-0.036,0.076-0.053
				c0.125-0.083,0.252-0.161,0.381-0.235c0.13-0.075,0.266-0.138,0.395-0.212c0.012-0.007,0.014-0.009,0.024-0.014
				c0.29-0.102,0.576-0.204,0.876-0.275c0.116-0.028,0.234-0.049,0.351-0.074c0.03-0.007,0.038-0.009,0.06-0.014
				c0.404-0.051,0.817-0.089,1.209-0.204c1.107-0.324,1.984-1.066,2.433-2.13c0.802-1.9-0.366-3.622-1.296-5.209
				C283.545,250.13,282.776,248.819,282.008,247.508z"/>
			<path fill="#FFFFFF" d="M305.849,211.178c-0.111-0.301-0.271-0.588-0.466-0.847c-0.004-0.007-0.006-0.015-0.01-0.022
				c-0.75-1.282-2.259-1.522-3.517-0.922c-3.371,1.607-6.673,3.908-7.041,7.941c-0.192,2.107,0.571,4.263,1.266,6.221
				c0.737,2.073,1.622,4.098,2.634,6.051c0.657,1.267,2.341,1.548,3.517,0.922c1.729-0.921,3.46-1.84,5.188-2.763
				c0.869-0.464,1.744-1.016,2.268-1.88c0.64-1.056,0.681-2.319,0.29-3.47C308.697,218.635,307.225,214.917,305.849,211.178z"/>
		</g>
		<g>
			<path fill="#FFFFFF" d="M338.094,338.552c0.013-0.354-0.06-0.684-0.221-0.99c-0.104-0.319-0.281-0.594-0.531-0.827
				c-0.173-0.134-0.347-0.268-0.52-0.402c-0.401-0.232-0.833-0.349-1.297-0.351c-0.228,0.031-0.455,0.061-0.683,0.092
				c-0.435,0.122-0.814,0.342-1.134,0.661c-0.16,0.189-0.309,0.391-0.457,0.589c-0.023,0.03-0.045,0.061-0.066,0.092
				c-0.041,0.063-0.079,0.129-0.111,0.197c-0.108,0.226-0.2,0.462-0.295,0.694c-0.014,0.035-0.028,0.07-0.04,0.106
				c-0.026,0.075-0.046,0.153-0.062,0.231c-0.007,0.037-0.013,0.074-0.018,0.112c-0.002,0.014-0.004,0.029-0.006,0.044
				c-0.061,0.175-0.102,0.355-0.111,0.544c-0.077,0.342-0.061,0.683,0.046,1.025c0.022,0.052,0.044,0.104,0.066,0.155
				c0.006,0.037,0.009,0.075,0.015,0.112c0.014,0.079,0.034,0.156,0.058,0.232c0.08,0.334,0.233,0.626,0.46,0.874
				c0.181,0.28,0.422,0.5,0.721,0.662c0.205,0.086,0.409,0.173,0.614,0.259c0.456,0.122,0.911,0.122,1.367,0
				c0.009-0.002,0.019-0.004,0.028-0.007c0.089-0.029,0.55-0.22,0.633-0.267c0.007-0.004,0.015-0.008,0.023-0.013
				c0.033-0.02,0.502-0.382,0.53-0.409c0.007-0.007,0.015-0.014,0.022-0.021c0.042-0.04,0.378-0.477,0.41-0.53
				c0.067-0.111,0.096-0.213,0.154-0.35c0.053-0.125,0.114-0.231,0.143-0.356c0.026-0.111,0.086-0.58,0.094-0.696
				c0-0.009,0.002-0.018,0.002-0.027c0-0.131-0.033-0.285-0.048-0.397c-0.001-0.009-0.004-0.034-0.005-0.047l0,0
				C338.033,339.236,338.107,338.906,338.094,338.552z"/>
			<path fill="#FFFFFF" d="M358.561,328.47c-0.024-1.317,0.094-2.794-0.639-3.956c-0.518-0.821-1.263-1.357-2.169-1.674
				c-0.75-0.263-1.523-0.216-2.289-0.089c-0.636,0.105-1.209,0.415-1.73,0.784c-0.354,0.025-0.703,0.106-1.043,0.249
				c-0.991,0.418-1.716,1.228-2.014,2.271c-0.186,0.649-0.171,1.332-0.159,1.999c0.009,0.546,0.019,1.092,0.028,1.638
				c0.012,0.688,0.028,1.349,0.141,2.032c0.163,0.986,0.796,1.787,1.59,2.353c1.063,0.757,2.376,0.659,3.59,0.498
				c0.617-0.082,1.234-0.163,1.851-0.246c1.274-0.171,2.31-0.875,2.734-2.141c0.219-0.655,0.151-1.379,0.138-2.058
				C358.581,329.577,358.571,329.024,358.561,328.47z"/>
			<path fill="#FFFFFF" d="M378.921,304.957c-0.336-1.552-0.469-3.366-1.6-4.577c-0.238-0.255-0.514-0.458-0.812-0.61
				c-0.18-0.205-0.386-0.393-0.629-0.578c-0.91-0.692-2.313-0.785-3.369-0.433c-1.085,0.361-2.019,1.086-2.593,2.082
				c-1.105,1.917-0.618,4.219-0.263,6.266c0.159,0.914,0.344,1.823,0.556,2.726c0.252,1.072,0.441,2.326,1.223,3.154
				c0.599,0.633,1.417,0.972,2.29,0.946c0.629-0.019,1.128-0.248,1.69-0.48c0.878-0.362,1.756-0.725,2.633-1.087
				c0.617-0.255,1.206-0.556,1.536-1.181c0.333-0.631,0.411-1.278,0.259-1.981C379.535,307.789,379.228,306.373,378.921,304.957z"/>
			<path fill="#FFFFFF" d="M391.952,272.652c-0.149-0.975-0.256-2.047-0.773-2.913c-0.793-1.327-2.341-2.192-3.905-1.799
				c-0.075,0.019-0.139,0.048-0.211,0.071c-0.011-0.002-0.02-0.008-0.031-0.01c-1.576-0.313-3.201-0.436-4.683,0.31
				c-1.841,0.927-2.325,2.846-2.35,4.749c-0.043,3.208,0.453,6.461,1.433,9.515c0.508,1.584,2.286,2.383,3.776,1.536
				c0.104-0.061,0.21-0.119,0.318-0.174c0.256-0.12,0.216-0.108-0.119,0.036c0.15-0.126,0.5-0.176,0.687-0.225
				c0.117-0.031,0.234-0.058,0.353-0.082c0.286-0.05,0.237-0.047-0.147,0.007c0.122-0.082,0.485-0.037,0.633-0.039
				c0.198-0.003,0.393,0.012,0.589,0.021c0.085,0.016,0.17,0.032,0.254,0.052c0.224,0.052,0.438,0.126,0.656,0.195
				c0.083,0.041,0.166,0.082,0.246,0.126c1.743,0.929,3.805-0.231,3.868-2.219c0.061-1.939,0.007-3.878-0.173-5.81
				C392.268,274.88,392.122,273.763,391.952,272.652z"/>
			<path fill="#FFFFFF" d="M407.617,241.248c-0.769-4.154-1.538-8.308-2.307-12.462c-0.392-2.116-0.781-4.233-1.175-6.348
				c-0.377-2.024-1.174-4.049-3.323-4.732c-3.426-1.089-6.606,1.722-7.917,4.66c-0.004,0.008-0.006,0.017-0.01,0.025
				c-0.402,0.243-0.685,0.544-0.872,0.876c-1.637-0.3-3.654,1.009-3.143,3.15c1.222,5.118,2.855,10.12,4.892,14.972
				c0.956,2.277,1.903,5.634,4.89,5.771c1.455,0.067,2.829-0.78,4.114-1.358c1.223-0.55,2.446-1.101,3.669-1.651
				C407.525,243.661,407.81,242.288,407.617,241.248z"/>
		</g>
		<g>
			<path fill="#FFFFFF" d="M22.887,104.239c-0.578-1.984-1.156-3.968-1.734-5.952c-0.563-1.934-1.058-3.914-1.701-5.817
				c-0.786-2.326-2.764-3.639-4.892-2.374c-1.53,0.909-2.939,2.254-4.361,3.361c-0.086,0.067-0.176,0.133-0.265,0.199
				c-2.043-0.094-4.076,0.768-5.514,2.452c-0.724,0.848-0.867,2.092-0.361,3.115c2.387,4.831,4.269,9.903,5.648,15.198
				c0.452,1.735,2.038,2.2,3.395,1.536c3.156-1.544,6.503-3.216,9.324-5.445C24.509,108.865,23.524,106.428,22.887,104.239z"/>
		</g>
	</g>
</g>
<g id="参考">
</g>
</svg>
