<?xml version="1.0" encoding="utf-8"?>
<!-- Generator: Adobe Illustrator 24.0.3, SVG Export Plug-In . SVG Version: 6.00 Build 0)  -->
<svg version="1.1" xmlns="http://www.w3.org/2000/svg" xmlns:xlink="http://www.w3.org/1999/xlink" x="0px" y="0px"
	 viewBox="0 0 900 850" enable-background="new 0 0 900 850" xml:space="preserve">
<g id="レイヤー1">
	<g>
		<path fill="none" d="M304.89,472.765c0.63,1.961,1.281,3.919,1.989,5.854c0.363,0.992,0.765,1.972,1.241,2.913
			c2.29-1.297,4.922-1.993,7.564-1.984c-0.045-0.485-0.09-0.97-0.134-1.456c-0.542-3.879-1.085-7.757-1.627-11.636
			c-3.967-0.245-7.871-1.589-11.126-3.791c0.344,2.714,0.832,5.406,1.459,8.065C304.465,471.41,304.673,472.089,304.89,472.765z"/>
		<path fill="none" d="M322.373,481.228c0.12,0.072,0.215,0.153,0.323,0.23c2.465-6.661,4.501-13.471,6.094-20.39
			c-1.571,1.379-3.28,2.664-5.189,3.584c-2.536,1.222-5.287,1.804-8.049,1.846c0.447,4.37,0.894,8.739,1.34,13.109
			C318.784,479.763,320.738,480.257,322.373,481.228z"/>
		<path fill="#7DDDB2" d="M320.774,427.426c0.081-0.625,0.092-1.285-0.235-1.839c-0.46-0.778-1.393-0.923-2.213-1.031
			c-0.452-0.06-0.907-0.092-1.363-0.088c-0.199,0.002-0.399,0.009-0.598,0.024c-0.231,0.016-0.479,0.019-0.69,0.125
			c-0.473,0.237-0.471,0.713-0.405,1.168c0.047,0.325,0.096,0.65,0.145,0.975C317.214,426.763,319.015,426.976,320.774,427.426z"/>
		<path fill="#E0D47F" d="M329.396,460.526c-0.199,0.182-0.402,0.362-0.605,0.541c-1.593,6.919-3.629,13.73-6.094,20.39
			c-0.109-0.076-0.203-0.158-0.323-0.23c-1.635-0.971-3.589-1.465-5.481-1.622c-0.447-4.37-0.894-8.739-1.34-13.109
			c-0.543,0.008-1.086-0.007-1.629-0.04c0.542,3.878,1.085,7.757,1.627,11.636c0.045,0.485,0.09,0.97,0.134,1.456
			c-2.642-0.009-5.274,0.687-7.564,1.984c-0.477-0.941-0.879-1.922-1.241-2.913c-0.708-1.935-1.359-3.892-1.989-5.854
			c-0.217-0.676-0.425-1.355-0.634-2.034c-0.627-2.659-1.115-5.351-1.459-8.065c-0.816-0.552-1.585-1.16-2.308-1.815
			c-0.023,0.08-0.033,0.167-0.011,0.266c1.145,5.165,2.567,10.263,4.247,15.276c0.617,1.974,1.31,3.925,2.085,5.848
			c-0.331,0.1-0.654,0.218-0.948,0.394c-0.696,0.416-1.093,1.039-1.309,1.741c-0.046,0.051-0.095,0.098-0.14,0.15
			c-0.202,0.23-0.171,0.484-0.036,0.662c-0.071,0.589-0.049,1.2,0.02,1.776c0.1,0.836,0.274,1.656,0.482,2.467
			c0.287,2.069,0.693,4.12,1.242,6.138c0.33,1.212,0.707,2.412,1.131,3.595c0.407,1.136,0.768,2.605,1.543,3.556
			c0.6,0.736,1.56,0.85,2.449,0.973c1.395,0.192,2.807,0.223,4.207,0.069c2.169-0.238,4.529-0.829,5.956-2.613
			c1.442-1.803,1.585-4.278,1.891-6.472c0.374-2.685,0.768-5.368,1.122-8.056c0.194-1.471,0.127-2.81-0.526-3.906
			c0.953-2.791,1.844-5.601,2.667-8.432c1.73-4.977,3.177-10.049,4.331-15.192C330.404,459.581,329.905,460.062,329.396,460.526z
			 M322.965,484.517c-0.26,1.566-1.925,1.917-3.234,1.994c-1.25,0.074-2.502,0.093-3.754,0.058
			c-2.626-0.074-5.249-0.389-7.825-0.901c-0.721-0.143-1.223-0.858-1.325-1.538c-0.117-0.775,0.267-1.414,0.883-1.843
			c1.116-0.778,2.408-1.155,3.754-1.257c0.013-0.001,0.025,0.003,0.038,0.002c0.092-0.038,0.186-0.072,0.287-0.089
			c3.56-0.583,7.076-0.093,10.326,1.485C322.894,482.807,323.092,483.752,322.965,484.517z"/>
		<path fill="#95D487" d="M322.115,482.428c-3.249-1.578-6.766-2.068-10.326-1.485c-0.101,0.017-0.195,0.051-0.287,0.089
			c-0.013,0.001-0.025-0.003-0.038-0.002c-1.346,0.103-2.638,0.48-3.754,1.257c-0.616,0.429-1,1.068-0.883,1.843
			c0.102,0.679,0.603,1.394,1.325,1.538c2.576,0.512,5.199,0.827,7.825,0.901c1.251,0.035,2.504,0.016,3.754-0.058
			c1.309-0.077,2.974-0.428,3.234-1.994C323.092,483.752,322.894,482.807,322.115,482.428z"/>
		<path fill="#EB5B1E" d="M335.599,440.921c-1.626-6.105-7.323-11.166-13.813-13.068c-0.199-0.159-0.448-0.286-0.751-0.368
			c-0.086-0.023-0.174-0.037-0.261-0.059c-1.759-0.45-3.56-0.663-5.358-0.667c-6.962-0.016-13.846,3.18-17.786,8.739
			c-5.066,7.147-4.583,16.941,1.123,23.598c0.535,0.624,1.123,1.202,1.736,1.756c0.724,0.655,1.493,1.264,2.308,1.815
			c3.255,2.202,7.159,3.546,11.126,3.791c0.543,0.034,1.086,0.048,1.629,0.04c2.763-0.042,5.513-0.624,8.049-1.846
			c1.91-0.92,3.619-2.205,5.189-3.584c0.204-0.179,0.406-0.359,0.605-0.541c0.509-0.464,1.008-0.945,1.496-1.436
			c1.155-1.161,2.229-2.4,3.085-3.766C336.621,451.104,336.845,445.599,335.599,440.921z M310.174,429.034
			c0.93-0.087,1.86-0.174,2.79-0.261c1.16-0.301,2.338-0.483,3.544-0.416c0.287-0.025,0.573-0.049,0.859-0.073
			c0.038-0.003,0.066,0.009,0.1,0.012c0.124-0.179,0.356-0.292,0.568-0.217c1.955,0.692,3.625,1.909,5.27,3.141
			c0.227,0.17,0.345,0.449,0.188,0.717c-0.139,0.238-0.479,0.34-0.717,0.188c-0.238-0.151-0.48-0.294-0.721-0.439
			c-0.033-0.012-0.066-0.014-0.1-0.034c-1.236-0.715-2.505-1.369-3.804-1.961c-0.1-0.046-0.161-0.134-0.203-0.233
			c-0.328,1.282-0.657,2.563-0.985,3.845c0.007,0.031,0.008,0.063,0.015,0.094c0.063,0.277-0.082,0.567-0.366,0.645
			c-0.18,0.05-0.381-0.016-0.513-0.147c-0.087,0.033-0.179,0.053-0.266,0.043c-0.257-0.031-0.453-0.256-0.455-0.515
			c-0.008-1.314,0.193-2.626,0.582-3.881c-0.723,0.068-1.446,0.135-2.17,0.203c-0.666,0.115-1.325,0.261-1.974,0.455
			c-0.305,0.091-0.609,0.19-0.909,0.305c-0.364,0.124-0.595-0.138-0.624-0.432c-0.037,0.003-0.073,0.007-0.11,0.01
			C309.502,430.146,309.508,429.097,310.174,429.034z M327.731,458.576c-3.026,2.832-6.587,5.338-10.725,6.104
			c-0.073,0.051-0.156,0.092-0.262,0.102c-0.999,0.1-1.99,0.068-2.968-0.068c-4.345-0.42-8.529-2.242-11.742-5.234
			c-3.871-3.605-6.129-8.741-6.312-14.011c-0.023-0.676,1.025-0.673,1.049,0c0.001,0.041,0.006,0.082,0.007,0.122
			c0.317-0.094,0.693,0.06,0.643,0.47c-0.604,4.982,2.324,9.322,6.021,12.358c2.968,2.436,6.634,4.732,10.528,5.257
			c0.225,0.021,0.45,0.036,0.676,0.048c-0.579-3.436-0.844-6.903-0.803-10.37c-0.123-2.932-0.013-5.875,0.359-8.8
			c0.081-0.64,1.057-0.66,1.044-0.057c0.208,0.099,0.372,0.306,0.327,0.591c-0.424,2.647-0.646,5.319-0.69,7.993
			c0.123,3.293,0.558,6.571,1.31,9.795c7.697-2.448,14.161-8.081,17.653-15.366c0.261-0.545,1.124-0.153,0.958,0.404
			C333.562,452.095,330.881,455.627,327.731,458.576z"/>
		<path fill="#BB541F" d="M310.174,430.083c0.037-0.003,0.073-0.007,0.11-0.01c0.029,0.294,0.26,0.556,0.624,0.432
			c0.3-0.114,0.603-0.213,0.909-0.305c0.649-0.194,1.308-0.34,1.974-0.455c0.723-0.068,1.446-0.135,2.17-0.203
			c-0.389,1.255-0.59,2.567-0.582,3.881c0.002,0.259,0.198,0.484,0.455,0.515c0.087,0.01,0.179-0.01,0.266-0.043
			c0.132,0.131,0.332,0.197,0.513,0.147c0.284-0.078,0.429-0.368,0.366-0.645c-0.007-0.031-0.009-0.063-0.015-0.094
			c0.328-1.282,0.657-2.563,0.985-3.845c0.041,0.099,0.103,0.187,0.203,0.233c1.299,0.591,2.569,1.246,3.804,1.961
			c0.034,0.02,0.067,0.022,0.1,0.034c0.241,0.145,0.484,0.288,0.721,0.439c0.239,0.152,0.578,0.05,0.717-0.188
			c0.157-0.268,0.039-0.547-0.188-0.717c-1.644-1.232-3.315-2.449-5.27-3.141c-0.212-0.075-0.443,0.039-0.568,0.217
			c-0.034-0.004-0.062-0.015-0.1-0.012c-0.286,0.024-0.572,0.048-0.859,0.073c-1.206-0.067-2.385,0.116-3.544,0.416
			c-0.93,0.087-1.86,0.174-2.79,0.261C309.508,429.097,309.502,430.146,310.174,430.083z"/>
		<path fill="#BB541F" d="M334.804,447.915c0.165-0.557-0.697-0.949-0.958-0.404c-3.492,7.285-9.956,12.918-17.653,15.366
			c-0.752-3.224-1.187-6.502-1.31-9.795c0.045-2.674,0.267-5.346,0.69-7.993c0.046-0.285-0.119-0.492-0.327-0.591
			c0.013-0.603-0.963-0.583-1.044,0.057c-0.372,2.924-0.482,5.867-0.359,8.8c-0.041,3.466,0.224,6.933,0.803,10.37
			c-0.226-0.013-0.451-0.028-0.676-0.048c-3.894-0.525-7.56-2.821-10.528-5.257c-3.698-3.035-6.625-7.375-6.021-12.358
			c0.05-0.41-0.326-0.564-0.643-0.47c-0.002-0.041-0.006-0.082-0.007-0.122c-0.023-0.673-1.072-0.676-1.049,0
			c0.183,5.27,2.441,10.406,6.312,14.011c3.213,2.992,7.398,4.815,11.742,5.234c0.977,0.135,1.969,0.167,2.968,0.068
			c0.106-0.011,0.189-0.051,0.262-0.102c4.138-0.766,7.699-3.271,10.725-6.104C330.881,455.627,333.562,452.095,334.804,447.915z"/>
	</g>
</g>
<g id="参考">
</g>
</svg>
