<?xml version="1.0" encoding="utf-8"?>
<!-- Generator: Adobe Illustrator 24.0.3, SVG Export Plug-In . SVG Version: 6.00 Build 0)  -->
<svg version="1.1" xmlns="http://www.w3.org/2000/svg" xmlns:xlink="http://www.w3.org/1999/xlink" x="0px" y="0px"
	 viewBox="0 0 375 812" enable-background="new 0 0 375 812" xml:space="preserve">
<g id="レイヤー1">
	<g>
		<path fill="none" d="M137.561,307.705c0.344,1.071,0.699,2.139,1.086,3.195c0.198,0.541,0.417,1.077,0.678,1.59
			c1.25-0.708,2.687-1.088,4.129-1.083c-0.024-0.265-0.049-0.53-0.073-0.795c-0.296-2.117-0.592-4.234-0.888-6.352
			c-2.165-0.134-4.296-0.867-6.074-2.069c0.188,1.482,0.454,2.951,0.797,4.402C137.328,306.966,137.442,307.336,137.561,307.705z"/>
		<path fill="none" d="M147.104,312.325c0.066,0.039,0.117,0.084,0.177,0.125c1.346-3.636,2.457-7.354,3.327-11.131
			c-0.857,0.753-1.79,1.454-2.833,1.957c-1.384,0.667-2.886,0.984-4.394,1.007c0.244,2.385,0.488,4.77,0.732,7.156
			C145.145,311.525,146.211,311.795,147.104,312.325z"/>
		<path fill="#7DDDB2" d="M146.231,282.956c0.044-0.341,0.05-0.701-0.128-1.004c-0.251-0.424-0.76-0.504-1.208-0.563
			c-0.247-0.033-0.495-0.05-0.744-0.048c-0.109,0.001-0.218,0.005-0.326,0.013c-0.126,0.009-0.262,0.01-0.377,0.068
			c-0.258,0.13-0.257,0.389-0.221,0.638c0.026,0.177,0.053,0.355,0.079,0.532C144.288,282.594,145.271,282.71,146.231,282.956z"/>
		<path fill="#E0D47F" d="M150.938,301.025c-0.109,0.099-0.219,0.198-0.331,0.295c-0.87,3.777-1.981,7.495-3.327,11.131
			c-0.059-0.042-0.111-0.086-0.177-0.125c-0.893-0.53-1.959-0.8-2.992-0.885c-0.244-2.385-0.488-4.77-0.732-7.156
			c-0.297,0.005-0.593-0.004-0.889-0.022c0.296,2.117,0.592,4.234,0.888,6.352c0.024,0.265,0.049,0.53,0.073,0.795
			c-1.442-0.005-2.879,0.375-4.129,1.083c-0.26-0.514-0.48-1.049-0.678-1.59c-0.386-1.056-0.742-2.125-1.086-3.195
			c-0.119-0.369-0.232-0.74-0.346-1.11c-0.342-1.452-0.609-2.921-0.797-4.402c-0.445-0.301-0.865-0.633-1.26-0.991
			c-0.013,0.044-0.018,0.091-0.006,0.145c0.625,2.82,1.401,5.602,2.318,8.339c0.337,1.078,0.715,2.143,1.138,3.192
			c-0.181,0.054-0.357,0.119-0.518,0.215c-0.38,0.227-0.596,0.567-0.715,0.95c-0.025,0.028-0.052,0.054-0.076,0.082
			c-0.11,0.125-0.093,0.264-0.02,0.361c-0.039,0.321-0.027,0.655,0.011,0.969c0.055,0.456,0.15,0.904,0.263,1.346
			c0.157,1.13,0.378,2.249,0.678,3.35c0.18,0.662,0.386,1.317,0.617,1.962c0.222,0.62,0.419,1.422,0.842,1.941
			c0.328,0.402,0.851,0.464,1.337,0.531c0.761,0.105,1.532,0.122,2.296,0.038c1.184-0.13,2.472-0.452,3.251-1.426
			c0.787-0.984,0.865-2.335,1.032-3.533c0.204-1.466,0.419-2.93,0.613-4.397c0.106-0.803,0.069-1.534-0.287-2.132
			c0.52-1.523,1.007-3.058,1.456-4.603c0.944-2.717,1.734-5.486,2.364-8.293C151.488,300.509,151.216,300.771,150.938,301.025z
			 M147.427,314.12c-0.142,0.855-1.051,1.046-1.765,1.088c-0.682,0.04-1.366,0.051-2.049,0.031c-1.434-0.04-2.865-0.212-4.271-0.492
			c-0.394-0.078-0.667-0.468-0.723-0.839c-0.064-0.423,0.146-0.772,0.482-1.006c0.609-0.425,1.314-0.63,2.049-0.686
			c0.007-0.001,0.014,0.001,0.021,0.001c0.05-0.021,0.101-0.039,0.157-0.048c1.943-0.318,3.863-0.051,5.636,0.811
			C147.388,313.187,147.496,313.703,147.427,314.12z"/>
		<path fill="#95D487" d="M146.963,312.98c-1.774-0.861-3.693-1.129-5.636-0.811c-0.055,0.009-0.107,0.028-0.157,0.048
			c-0.007,0-0.014-0.002-0.021-0.001c-0.735,0.056-1.44,0.262-2.049,0.686c-0.336,0.234-0.546,0.583-0.482,1.006
			c0.056,0.371,0.329,0.761,0.723,0.839c1.406,0.279,2.838,0.452,4.271,0.492c0.683,0.019,1.367,0.009,2.049-0.031
			c0.715-0.042,1.623-0.233,1.765-1.088C147.496,313.703,147.388,313.187,146.963,312.98z"/>
		<path fill="#EB5B1E" d="M154.324,290.323c-0.888-3.333-3.997-6.095-7.54-7.133c-0.109-0.087-0.245-0.156-0.41-0.201
			c-0.047-0.013-0.095-0.02-0.142-0.032c-0.96-0.245-1.943-0.362-2.925-0.364c-3.8-0.009-7.558,1.736-9.709,4.77
			c-2.765,3.901-2.502,9.248,0.613,12.881c0.292,0.34,0.613,0.656,0.948,0.959c0.395,0.358,0.815,0.69,1.26,0.991
			c1.777,1.202,3.908,1.936,6.074,2.069c0.296,0.018,0.593,0.026,0.889,0.022c1.508-0.023,3.01-0.341,4.394-1.007
			c1.042-0.502,1.975-1.204,2.833-1.957c0.111-0.098,0.222-0.196,0.331-0.295c0.278-0.253,0.55-0.516,0.817-0.784
			c0.63-0.634,1.217-1.31,1.684-2.056C154.882,295.881,155.004,292.876,154.324,290.323z M140.445,283.834
			c0.508-0.047,1.016-0.095,1.523-0.142c0.633-0.164,1.276-0.264,1.935-0.227c0.156-0.014,0.313-0.027,0.469-0.04
			c0.021-0.002,0.036,0.005,0.055,0.007c0.068-0.097,0.194-0.16,0.31-0.119c1.067,0.378,1.979,1.042,2.876,1.715
			c0.124,0.093,0.188,0.245,0.103,0.392c-0.076,0.13-0.261,0.186-0.392,0.103c-0.13-0.083-0.262-0.161-0.394-0.24
			c-0.018-0.006-0.036-0.008-0.055-0.018c-0.675-0.39-1.367-0.747-2.077-1.07c-0.055-0.025-0.088-0.073-0.111-0.127
			c-0.179,0.7-0.358,1.399-0.538,2.099c0.004,0.017,0.005,0.034,0.008,0.051c0.034,0.151-0.045,0.309-0.2,0.352
			c-0.098,0.027-0.208-0.009-0.28-0.08c-0.048,0.018-0.098,0.029-0.145,0.023c-0.14-0.017-0.247-0.14-0.248-0.281
			c-0.005-0.717,0.105-1.434,0.317-2.119c-0.395,0.037-0.79,0.074-1.184,0.111c-0.363,0.063-0.723,0.142-1.077,0.248
			c-0.167,0.05-0.332,0.104-0.496,0.166c-0.199,0.068-0.325-0.075-0.341-0.236c-0.02,0.002-0.04,0.004-0.06,0.006
			C140.078,284.441,140.081,283.868,140.445,283.834z M150.029,299.96c-1.652,1.546-3.596,2.914-5.855,3.332
			c-0.04,0.028-0.085,0.05-0.143,0.056c-0.545,0.054-1.086,0.037-1.62-0.037c-2.372-0.229-4.656-1.224-6.41-2.857
			c-2.113-1.968-3.345-4.772-3.445-7.648c-0.013-0.369,0.56-0.367,0.572,0c0.001,0.022,0.003,0.045,0.004,0.067
			c0.173-0.051,0.378,0.033,0.351,0.257c-0.33,2.72,1.268,5.089,3.287,6.746c1.62,1.33,3.621,2.583,5.747,2.87
			c0.123,0.011,0.246,0.019,0.369,0.026c-0.316-1.876-0.461-3.768-0.438-5.66c-0.067-1.601-0.007-3.207,0.196-4.803
			c0.044-0.349,0.577-0.361,0.57-0.031c0.113,0.054,0.203,0.167,0.178,0.323c-0.231,1.445-0.352,2.904-0.377,4.363
			c0.067,1.798,0.305,3.587,0.715,5.347c4.201-1.336,7.73-4.411,9.636-8.388c0.143-0.297,0.613-0.084,0.523,0.221
			C153.212,296.422,151.748,298.35,150.029,299.96z"/>
		<path fill="#BB541F" d="M140.445,284.406c0.02-0.002,0.04-0.004,0.06-0.006c0.016,0.16,0.142,0.303,0.341,0.236
			c0.164-0.062,0.329-0.116,0.496-0.166c0.354-0.106,0.714-0.186,1.077-0.248c0.395-0.037,0.79-0.074,1.184-0.111
			c-0.212,0.685-0.322,1.401-0.317,2.119c0.001,0.141,0.108,0.264,0.248,0.281c0.047,0.006,0.097-0.005,0.145-0.023
			c0.072,0.072,0.181,0.107,0.28,0.08c0.155-0.043,0.234-0.201,0.2-0.352c-0.004-0.017-0.005-0.034-0.008-0.051
			c0.179-0.7,0.358-1.399,0.538-2.099c0.023,0.054,0.056,0.102,0.111,0.127c0.709,0.323,1.402,0.68,2.077,1.07
			c0.019,0.011,0.036,0.012,0.055,0.018c0.132,0.079,0.264,0.157,0.394,0.24c0.13,0.083,0.316,0.027,0.392-0.103
			c0.086-0.146,0.021-0.299-0.103-0.392c-0.898-0.673-1.809-1.337-2.876-1.715c-0.116-0.041-0.242,0.021-0.31,0.119
			c-0.018-0.002-0.034-0.008-0.055-0.007c-0.156,0.013-0.312,0.026-0.469,0.04c-0.658-0.036-1.302,0.063-1.935,0.227
			c-0.508,0.047-1.016,0.095-1.523,0.142C140.081,283.868,140.078,284.441,140.445,284.406z"/>
		<path fill="#BB541F" d="M153.889,294.14c0.09-0.304-0.381-0.518-0.523-0.221c-1.906,3.977-5.435,7.052-9.636,8.388
			c-0.411-1.76-0.648-3.549-0.715-5.347c0.024-1.46,0.146-2.918,0.377-4.363c0.025-0.155-0.065-0.269-0.178-0.323
			c0.007-0.329-0.525-0.318-0.57,0.031c-0.203,1.596-0.263,3.203-0.196,4.803c-0.022,1.892,0.122,3.785,0.438,5.66
			c-0.123-0.007-0.246-0.015-0.369-0.026c-2.126-0.287-4.127-1.54-5.747-2.87c-2.019-1.657-3.617-4.026-3.287-6.746
			c0.027-0.224-0.178-0.308-0.351-0.257c-0.001-0.022-0.003-0.045-0.004-0.067c-0.013-0.367-0.585-0.369-0.572,0
			c0.1,2.877,1.332,5.68,3.445,7.648c1.754,1.634,4.038,2.628,6.41,2.857c0.534,0.074,1.075,0.091,1.62,0.037
			c0.058-0.006,0.103-0.028,0.143-0.056c2.259-0.418,4.203-1.786,5.855-3.332C151.748,298.35,153.212,296.422,153.889,294.14z"/>
	</g>
</g>
<g id="参考">
</g>
</svg>
