<?xml version="1.0" encoding="utf-8"?>
<!-- Generator: Adobe Illustrator 24.0.3, SVG Export Plug-In . SVG Version: 6.00 Build 0)  -->
<svg version="1.1" xmlns="http://www.w3.org/2000/svg" xmlns:xlink="http://www.w3.org/1999/xlink" x="0px" y="0px"
	 viewBox="0 0 375 812" enable-background="new 0 0 375 812" xml:space="preserve">
<g id="レイヤー1">
	<g>
		<path fill="#D87B3C" d="M36.106,96.355c-0.012-0.028-0.024-0.056-0.036-0.084C36.082,96.299,36.094,96.327,36.106,96.355z"/>
		<path fill="#D87B3C" d="M70.661,79.411c0.049,0.537,0.068,1.078,0.055,1.617C70.729,80.488,70.711,79.948,70.661,79.411z"/>
		<path fill="#D87B3C" d="M70.414,77.789c0.05,0.234,0.093,0.47,0.131,0.706C70.508,78.258,70.465,78.023,70.414,77.789z"/>
		<path fill="#D87B3C" d="M70.562,78.593c0.039,0.255,0.071,0.512,0.095,0.769C70.632,79.105,70.6,78.848,70.562,78.593z"/>
		<path fill="#D87B3C" d="M64.703,86.142c-1.336,1.433-2.339,3.205-3.934,4.342c-1.729,1.232-4.069,1.556-6.067,0.841
			c-1.515-0.542-2.979-1.656-4.555-1.33c-1.278,0.264-2.158,1.399-3.234,2.138c-2.234,1.536-5.586,1.546-7.014,3.851
			c-0.638,1.03-0.727,2.32-1.323,3.375c-0.206,0.364-0.467,0.684-0.767,0.963c-0.421-0.915-0.809-1.851-1.201-2.785
			c1.121,2.671,2.205,5.367,4.132,7.497c1.014,1.12,2.3,2.076,3.79,2.326c1.585,0.267,3.188-0.289,4.657-0.942
			c1.131-0.502,2.262-1.089,3.086-2.012c0.903-1.012,1.357-2.337,1.789-3.623c0.099-0.295,0.198-0.589,0.297-0.884
			c0.059-0.01,0.117-0.022,0.175-0.033c0.911-0.184,1.821-0.368,2.732-0.552c1.844-0.372,3.881-0.869,4.918-2.438
			c0.9-1.361,0.774-3.129,1.141-4.719c0.517-2.237,2.12-4.197,4.21-5.147c0.696-0.316,1.471-0.548,1.979-1.119
			c0.347-0.39,0.528-0.897,0.673-1.399c0.323-1.12,0.496-2.282,0.526-3.448c-0.014,0.549-0.06,1.098-0.139,1.642
			C68.347,83.261,66.274,84.457,64.703,86.142z"/>
		<path fill="#D87B3C" d="M70.402,77.725c-0.03-0.138-0.064-0.274-0.098-0.411c-0.001,0-0.003,0-0.004,0
			C70.334,77.451,70.371,77.587,70.402,77.725z"/>
		<path fill="#AE402F" d="M69.639,77.295c-0.74-0.031-1.479-0.07-2.219-0.115c-5.871,0.778-11.824,0.912-17.749,1.17
			c-6.163,0.268-12.575,0.633-18.26-1.756c-0.606,0.185-1.133,0.51-1.269,1.1c-0.119,0.515,0.126,1.034,0.342,1.517
			c0.846,1.891,1.325,3.946,1.404,6.016c0.085,2.261-0.237,4.762,1.126,6.568c0.436,0.577,1.016,1.012,1.665,1.326
			c0.199,0.633,0.506,1.233,0.793,1.835c0.207,0.434,0.405,0.873,0.598,1.316c0.012,0.028,0.024,0.056,0.036,0.084
			c0.17,0.392,0.337,0.787,0.503,1.182c0.392,0.934,0.78,1.87,1.201,2.785c0.3-0.28,0.562-0.599,0.767-0.963
			c0.596-1.055,0.685-2.345,1.323-3.375c1.428-2.305,4.78-2.315,7.014-3.851c1.075-0.739,1.956-1.874,3.234-2.138
			c1.575-0.326,3.04,0.787,4.555,1.33c1.999,0.716,4.339,0.391,6.067-0.841c1.595-1.137,2.599-2.909,3.934-4.342
			c1.571-1.685,3.643-2.881,5.873-3.456c0.079-0.544,0.125-1.092,0.139-1.642c0-0.006,0-0.011,0-0.017
			c0.013-0.539-0.006-1.08-0.055-1.617c-0.002-0.016-0.003-0.033-0.004-0.049c-0.024-0.257-0.057-0.513-0.095-0.769
			c-0.005-0.033-0.011-0.065-0.016-0.098c-0.038-0.237-0.081-0.472-0.131-0.706c-0.005-0.021-0.008-0.043-0.013-0.064
			c-0.03-0.138-0.068-0.274-0.102-0.411C70.078,77.312,69.858,77.304,69.639,77.295z"/>
		<path fill="#DCE3C7" d="M72.682,74.976c-0.214-0.237-0.489-0.402-0.784-0.529c0.057,0.489-0.085,0.992-0.494,1.308
			c-0.053,0.041-0.108,0.076-0.163,0.107c-0.066,0.105-0.152,0.196-0.26,0.256c-1.089,0.617-2.679,0.691-3.421-0.489
			c-0.33-0.525-0.394-1.169-0.323-1.793c-0.022-0.001-0.044-0.002-0.065-0.003c-0.013,0.292-0.076,0.586-0.227,0.884
			c-0.642,1.267-2.109,2.032-3.447,2.307c-1.532,0.314-3.186,0.231-4.73,0.044c-1.401-0.17-3.048-0.509-3.981-1.672
			c-0.094-0.117-0.171-0.237-0.242-0.359c-0.146,0.73-0.501,1.641-0.728,1.738c-0.383,0.164-0.727,0.219-1.138,0.125
			c-0.3-0.068-0.589-0.223-0.845-0.39c-0.2-0.131-0.402-0.273-0.59-0.432c-0.444,0.506-1.05,0.876-1.705,1.056
			c-0.332,0.091-0.668,0.131-1.004,0.136c-0.101,0.049-0.219,0.079-0.357,0.077c-1.223-0.013-2.533-0.057-3.642-0.617
			c-0.461,0.102-0.953,0.091-1.457,0.092c-0.977,0.003-1.951,0.101-2.928,0.12c-0.353,0.007-0.711-0.002-1.068-0.026
			c-1.813,0.13-3.946-0.18-4.1-1.409c-0.008-0.068-0.009-0.135-0.015-0.203c-0.158-0.156-0.305-0.32-0.436-0.494
			c-0.401,0.079-0.802,0.158-1.201,0.249c-0.868,0.198-1.907,0.626-1.971,1.515c0.016,0.007,0.033,0.012,0.049,0.019
			c5.685,2.388,12.097,2.024,18.26,1.756c5.925-0.258,11.878-0.392,17.749-1.17c0.739,0.044,1.479,0.084,2.219,0.115
			c0.219,0.009,0.44,0.017,0.661,0.019c0.001,0,0.003,0,0.004,0c0.621,0.005,1.241-0.042,1.815-0.267
			c0.333-0.131,0.658-0.335,0.825-0.652C73.182,75.942,73.026,75.356,72.682,74.976z"/>
		<path fill="#3B744F" d="M54.598,74.295c0.035,0.169,0.009,0.441-0.051,0.742c0.07,0.121,0.148,0.242,0.242,0.359
			c0.933,1.163,2.58,1.503,3.981,1.672c1.545,0.187,3.198,0.27,4.73-0.044c1.339-0.275,2.805-1.04,3.447-2.307
			c0.151-0.299,0.214-0.592,0.227-0.884c0.026-0.593-0.172-1.178-0.374-1.781c-0.278-0.827-0.586-1.644-0.923-2.449
			c-0.337-0.806-0.7-1.599-1.089-2.38c-0.269-1.352-0.207-2.877-1.355-3.854c-1.237-1.053-2.991-0.602-4.203,0.259
			c-2.465,1.75-3.186,4.778-4.346,7.399c-0.287,0.649-0.557,1.349-0.659,2.045C54.385,73.472,54.512,73.882,54.598,74.295z
			 M60.362,70.851c1.023,0,1.021,1.587,0,1.587C59.339,72.438,59.341,70.851,60.362,70.851z M56.805,75.084
			c-1.023,0-1.021-1.587,0-1.587C57.828,73.498,57.826,75.084,56.805,75.084z"/>
		<path fill="#3B744F" d="M47.333,71.069c0.499,0.186,0.605,0.848,0.319,1.24c0.108,0.689,0.086,1.386-0.161,2.059
			c-0.438,1.191-1.475,2.256-2.78,2.325c-0.057,0.017-0.116,0.025-0.174,0.037c1.109,0.56,2.42,0.603,3.642,0.617
			c0.138,0.002,0.256-0.028,0.357-0.077c0.336-0.005,0.672-0.045,1.004-0.136c0.656-0.18,1.262-0.55,1.705-1.056
			c-0.25-0.212-0.472-0.454-0.615-0.747c-0.466-0.953-0.187-2.165,0.177-3.111c0.13-0.338,0.275-0.676,0.503-0.938
			c-0.015-0.041-0.03-0.083-0.046-0.124c-0.453-1.225-0.919-2.447-1.454-3.639c-0.17-0.379-0.347-0.8-0.556-1.206
			c0.156,0.464-0.084,1.08-0.72,1.08c-1.023,0-1.021-1.587,0-1.587c0.266,0,0.461,0.108,0.588,0.267
			c-0.317-0.564-0.708-1.078-1.256-1.377c-1.145-0.623-2.337-0.012-3.044,0.943c0.657,1.359,1.323,2.714,1.957,4.084
			C46.978,70.151,47.173,70.603,47.333,71.069z"/>
		<path fill="#74BF5C" d="M67.562,75.629c0.741,1.18,2.331,1.106,3.421,0.489c0.107-0.061,0.194-0.152,0.26-0.256
			c0.055-0.032,0.109-0.066,0.163-0.107c0.408-0.316,0.551-0.819,0.494-1.308c-0.016-0.139-0.046-0.277-0.093-0.408
			c-0.169-0.473-0.424-0.923-0.706-1.338c-0.275-0.404-0.584-0.845-0.967-1.154c-0.51-0.411-1.198-0.535-1.759-0.138
			c-0.484,0.343-0.732,0.87-0.911,1.419c-0.103,0.314-0.184,0.659-0.223,1.009C67.168,74.46,67.232,75.104,67.562,75.629z"/>
		<path fill="#74BF5C" d="M50.63,75.331c0.143,0.293,0.365,0.535,0.615,0.747c0.188,0.159,0.391,0.301,0.59,0.432
			c0.256,0.168,0.545,0.322,0.845,0.39c0.411,0.093,0.755,0.039,1.138-0.125c0.227-0.097,0.582-1.008,0.728-1.738
			c0.06-0.301,0.086-0.572,0.051-0.742c-0.085-0.413-0.213-0.824-0.373-1.222c-0.204-0.51-0.462-1-0.766-1.445
			c-0.355-0.522-0.92-0.981-1.593-0.735c-0.232,0.085-0.411,0.222-0.557,0.389c-0.229,0.262-0.373,0.6-0.503,0.938
			C50.443,73.166,50.164,74.378,50.63,75.331z"/>
		<path fill="#74BF5C" d="M34.969,75.305c-0.036-0.369-0.046-0.739-0.028-1.107c-0.007-0.052-0.014-0.104-0.021-0.155
			c-0.004-0.097,0.017-0.188,0.057-0.274c0.036-0.355,0.087-0.708,0.165-1.053c0.194-0.86,0.444-1.804,0.853-2.495
			c0.458-0.775,1.223-0.976,1.864-0.637c0.603,0.319,1.042,0.99,1.476,1.655c0.485,0.743,0.97,1.486,1.455,2.229
			c0.482,0.739,1.082,1.493,0.86,2.64c-0.074,0.381-1.233,0.712-2.564,0.808c0.357,0.024,0.715,0.032,1.068,0.026
			c0.977-0.019,1.95-0.117,2.928-0.12c0.504-0.002,0.995,0.01,1.457-0.092c0.058-0.013,0.117-0.021,0.174-0.037
			c1.304-0.069,2.342-1.134,2.78-2.325c0.247-0.673,0.269-1.37,0.161-2.059c-0.127,0.173-0.327,0.294-0.607,0.294
			c-1.023,0-1.021-1.587,0-1.587c0.108,0,0.203,0.021,0.288,0.053c-0.161-0.466-0.356-0.918-0.554-1.347
			c-0.634-1.37-1.299-2.725-1.957-4.084c-0.097-0.2-0.194-0.399-0.29-0.598c-0.62-1.29-1.262-2.76-2.599-3.46
			c-0.738-0.386-1.605-0.511-2.388-0.186c-0.717,0.297-1.254,0.889-1.727,1.486c-1.028,1.299-1.828,2.781-2.527,4.279
			c-0.7,1.502-1.445,3.117-1.584,4.787c-0.09,1.075,0.217,2.06,0.826,2.865C34.665,74.985,34.811,75.149,34.969,75.305z
			 M44.481,76.491c-1.023,0-1.021-1.587,0-1.587C45.504,74.904,45.502,76.491,44.481,76.491z M42.661,64.317
			c1.023,0,1.021,1.587,0,1.587C41.639,65.903,41.64,64.317,42.661,64.317z M40.199,69.023c0.032-0.098,0.087-0.183,0.164-0.255
			c0.055-0.055,0.11-0.11,0.165-0.165c0.099-0.098,0.216-0.166,0.35-0.204c0.07-0.009,0.141-0.019,0.211-0.028
			c0.143,0,0.277,0.037,0.4,0.108c0.054,0.041,0.107,0.083,0.161,0.124c0.077,0.072,0.132,0.157,0.164,0.255
			c0.05,0.095,0.072,0.196,0.068,0.306c0.004,0.109-0.019,0.211-0.068,0.306c-0.032,0.098-0.087,0.183-0.164,0.255
			c-0.055,0.055-0.11,0.11-0.165,0.165c-0.099,0.098-0.216,0.166-0.35,0.204c-0.07,0.009-0.141,0.019-0.211,0.028
			c-0.143,0-0.277-0.037-0.4-0.108c-0.054-0.041-0.107-0.083-0.161-0.124c-0.077-0.072-0.132-0.157-0.164-0.255
			c-0.05-0.095-0.072-0.196-0.068-0.306C40.127,69.219,40.15,69.117,40.199,69.023z"/>
		<path fill="#A2CF7F" d="M41.65,76.109c0.223-1.147-0.377-1.902-0.86-2.64c-0.485-0.743-0.97-1.486-1.455-2.229
			c-0.435-0.666-0.874-1.336-1.476-1.655c-0.641-0.339-1.406-0.138-1.864,0.637c-0.408,0.691-0.658,1.635-0.853,2.495
			c-0.078,0.344-0.129,0.697-0.165,1.053c0.005-0.01,0.006-0.022,0.012-0.032c0.032-0.098,0.087-0.183,0.164-0.255
			c0.072-0.077,0.157-0.132,0.255-0.164c0.095-0.05,0.196-0.072,0.306-0.068c0.028,0,0.055,0,0.083,0c0.143,0,0.277,0.037,0.4,0.108
			c0.054,0.041,0.107,0.083,0.161,0.124c0.098,0.099,0.166,0.216,0.204,0.35c0.009,0.07,0.019,0.141,0.028,0.211
			c0.004,0.109-0.019,0.211-0.068,0.306c-0.032,0.098-0.087,0.183-0.164,0.255c-0.072,0.077-0.157,0.132-0.255,0.164
			c-0.095,0.05-0.196,0.072-0.306,0.068c-0.028,0-0.055,0-0.083,0c-0.143,0-0.277-0.037-0.4-0.108
			c-0.054-0.041-0.107-0.083-0.161-0.124c-0.098-0.099-0.166-0.216-0.204-0.35c-0.002-0.019-0.005-0.037-0.007-0.055
			c-0.018,0.368-0.007,0.738,0.028,1.107c0.007,0.068,0.007,0.135,0.015,0.203c0.154,1.229,2.287,1.539,4.1,1.409
			C40.417,76.822,41.576,76.49,41.65,76.109z M37.43,72.26c0.025-0.103,0.072-0.193,0.142-0.27c0.056-0.086,0.13-0.154,0.223-0.204
			c0.11-0.055,0.221-0.11,0.331-0.165c0.124-0.072,0.257-0.108,0.4-0.108c0.07,0.009,0.141,0.019,0.211,0.028
			c0.134,0.038,0.251,0.106,0.35,0.204c0.041,0.054,0.083,0.107,0.124,0.161c0.058,0.091,0.089,0.189,0.094,0.295
			c0.024,0.105,0.019,0.211-0.014,0.316c-0.025,0.103-0.072,0.193-0.142,0.27c-0.056,0.086-0.13,0.154-0.223,0.204
			c-0.11,0.055-0.221,0.11-0.331,0.165c-0.124,0.072-0.257,0.108-0.4,0.108c-0.07-0.009-0.141-0.019-0.211-0.028
			c-0.134-0.038-0.251-0.106-0.35-0.204c-0.041-0.054-0.083-0.107-0.124-0.161c-0.058-0.091-0.089-0.189-0.094-0.295
			C37.392,72.471,37.397,72.366,37.43,72.26z"/>
		<path fill="#F0FF9E" d="M56.805,75.084c1.021,0,1.023-1.587,0-1.587C55.784,73.498,55.783,75.084,56.805,75.084z"/>
		<path fill="#F0FF9E" d="M60.362,72.438c1.021,0,1.023-1.587,0-1.587C59.341,70.851,59.339,72.438,60.362,72.438z"/>
		<path fill="#F0FF9E" d="M35.153,74.604c0.054,0.041,0.107,0.083,0.161,0.124c0.124,0.072,0.257,0.108,0.4,0.108
			c0.028,0,0.055,0,0.083,0c0.109,0.004,0.211-0.019,0.306-0.068c0.098-0.032,0.183-0.087,0.255-0.164
			c0.077-0.072,0.132-0.157,0.164-0.255c0.05-0.095,0.072-0.196,0.068-0.306c-0.009-0.07-0.019-0.141-0.028-0.211
			c-0.038-0.134-0.106-0.251-0.204-0.35c-0.054-0.041-0.107-0.083-0.161-0.124c-0.124-0.072-0.257-0.108-0.4-0.108
			c-0.028,0-0.055,0-0.083,0c-0.109-0.004-0.211,0.019-0.306,0.068c-0.098,0.032-0.183,0.087-0.255,0.164
			c-0.077,0.072-0.132,0.157-0.164,0.255c-0.005,0.01-0.007,0.021-0.012,0.032c-0.039,0.086-0.06,0.176-0.057,0.274
			c0.007,0.052,0.014,0.104,0.021,0.155c0.002,0.019,0.005,0.037,0.007,0.055C34.986,74.388,35.054,74.505,35.153,74.604z"/>
		<path fill="#F0FF9E" d="M37.51,72.872c0.041,0.054,0.083,0.107,0.124,0.161c0.099,0.098,0.216,0.166,0.35,0.204
			c0.07,0.009,0.141,0.019,0.211,0.028c0.143,0,0.277-0.037,0.4-0.108c0.11-0.055,0.221-0.11,0.331-0.165
			c0.092-0.05,0.167-0.118,0.223-0.204c0.07-0.077,0.117-0.167,0.142-0.27c0.033-0.105,0.038-0.211,0.014-0.316
			c-0.005-0.106-0.036-0.204-0.094-0.295c-0.041-0.054-0.083-0.107-0.124-0.161c-0.099-0.098-0.216-0.166-0.35-0.204
			c-0.07-0.009-0.141-0.019-0.211-0.028c-0.143,0-0.277,0.037-0.4,0.108c-0.11,0.055-0.221,0.11-0.331,0.165
			c-0.092,0.05-0.167,0.118-0.223,0.204c-0.07,0.077-0.117,0.167-0.142,0.27c-0.033,0.105-0.038,0.211-0.014,0.316
			C37.421,72.682,37.452,72.781,37.51,72.872z"/>
		<path fill="#F0FF9E" d="M40.364,69.889c0.054,0.041,0.107,0.083,0.161,0.124c0.124,0.072,0.257,0.108,0.4,0.108
			c0.07-0.009,0.141-0.019,0.211-0.028c0.134-0.038,0.251-0.106,0.35-0.204c0.055-0.055,0.11-0.11,0.165-0.165
			c0.077-0.072,0.132-0.157,0.164-0.255c0.05-0.095,0.072-0.196,0.068-0.306c0.004-0.109-0.019-0.211-0.068-0.306
			c-0.032-0.098-0.087-0.183-0.164-0.255c-0.054-0.041-0.107-0.083-0.161-0.124c-0.124-0.072-0.257-0.108-0.4-0.108
			c-0.07,0.009-0.141,0.019-0.211,0.028c-0.134,0.038-0.251,0.106-0.35,0.204c-0.055,0.055-0.11,0.11-0.165,0.165
			c-0.077,0.072-0.132,0.157-0.164,0.255c-0.05,0.095-0.072,0.196-0.068,0.306c-0.004,0.109,0.019,0.211,0.068,0.306
			C40.231,69.732,40.286,69.817,40.364,69.889z"/>
		<path fill="#F0FF9E" d="M42.661,65.903c1.021,0,1.023-1.587,0-1.587C41.64,64.317,41.639,65.903,42.661,65.903z"/>
		<path fill="#F0FF9E" d="M44.481,74.904c-1.021,0-1.023,1.587,0,1.587C45.502,76.491,45.504,74.904,44.481,74.904z"/>
		<path fill="#F0FF9E" d="M47.333,71.069c-0.085-0.032-0.18-0.053-0.288-0.053c-1.021,0-1.023,1.587,0,1.587
			c0.28,0,0.48-0.121,0.607-0.294C47.938,71.918,47.833,71.256,47.333,71.069z"/>
		<path fill="#F0FF9E" d="M48.534,65.805c-1.021,0-1.023,1.587,0,1.587c0.636,0,0.876-0.616,0.72-1.08
			c-0.029-0.087-0.074-0.168-0.131-0.24C48.995,65.914,48.8,65.805,48.534,65.805z"/>
	</g>
</g>
<g id="参考">
</g>
</svg>
