<?xml version="1.0" encoding="utf-8"?>
<!-- Generator: Adobe Illustrator 24.0.3, SVG Export Plug-In . SVG Version: 6.00 Build 0)  -->
<svg version="1.1" xmlns="http://www.w3.org/2000/svg" xmlns:xlink="http://www.w3.org/1999/xlink" x="0px" y="0px"
	 viewBox="0 0 375 812" enable-background="new 0 0 375 812" xml:space="preserve">
<g id="レイヤー1">
	<g>
		<path fill="#F8F5E6" d="M226.191,288.02c-0.585-8.798-6.2-16.382-8.852-24.791c-1.854-5.88-1.345-13.334,2.061-17.985
			c-2.039-2.878-3.473-6.326-5.041-9.527c-2.828-5.773-6.424-11.131-10.008-16.468c-2.358-3.511-4.762-7.074-8.019-9.771
			c-3.586-2.97-8-4.722-12.333-6.427c-4.304-1.694-8.607-3.387-12.911-5.081c-1.942-0.764-4.117-1.532-6.057-0.761
			c-1.117,0.445-1.982,1.345-2.787,2.239c-2.88,3.197-5.478,6.648-7.755,10.299c-1.638,2.626-3.17,5.426-5.603,7.34
			c-2.996,2.357-7.096,3.148-9.741,5.893c-1.286,1.335-2.141,3.054-3.521,4.29c-3.552,3.179-9.04,2.132-13.707,3.101
			c-2.467,0.512-4.729,1.612-6.954,2.818c-2.803-0.725-5.606-1.451-8.409-2.176c-2.032-0.526-4.084-1.06-5.947-2.028
			c-2.222-1.156-4.092-2.891-6.258-4.15c-3.395-1.974-7.388-2.709-10.83-4.601c-1.994-1.096-3.782-2.569-5.874-3.462
			c-2.092-0.894-4.693-1.103-6.505,0.273c-0.903,0.686-1.507,1.682-2.206,2.576c-0.842,1.076-1.852,2.016-2.976,2.793
			c-0.656-0.317-1.33-0.595-2.028-0.823c-1.206-0.394-2.457-0.631-3.675-0.983c-5.107-1.476-9.396-4.86-13.912-7.718
			c-0.142-0.417-0.267-0.839-0.366-1.266c-0.802-3.456-0.011-7.157-0.979-10.57c-0.82-2.891-2.82-5.288-4.893-7.463
			c-3.442-3.612-7.237-6.886-11.315-9.761c-2.279-1.607-4.707-3.116-7.428-3.726c-2.721-0.61-5.809-0.187-7.863,1.698
			c-3.025,2.775-2.981,7.686-5.6,10.846c-0.23,0.277-0.478,0.538-0.74,0.785c-6.73-1.525-13.548-1.949-19.761,0.755
			c-1.889,0.822-3.67,1.92-5.651,2.486c-3.071,0.878-6.34,0.407-9.534,0.422c-3.194,0.016-6.697,0.702-8.688,3.2
			c-1.786,2.241-1.981,5.501-3.962,7.571c-2.63,2.75-7.03,2.23-10.832,2.389c-9.565,0.399-17.96,6.268-27.174,8.865
			c-7.775,2.191-16.437,2.166-23.427,5.932v151.765c16.069,7.537,34.071,10.901,51.666,14.106
			c13.909,2.534,27.948,5.078,42.077,4.583c23.261-0.815,45.363-9.777,66.896-18.612c7.147-2.932,14.333-5.884,20.883-9.978
			c8.131-5.081,15.352-11.946,24.468-14.918c10.452-3.407,21.803-1.199,32.783-1.737c22.638-1.109,42.863-13.767,61.921-26.036
			c6.692-4.308,13.469-8.688,18.791-14.604C222.937,303.703,226.719,295.96,226.191,288.02z"/>
		<g>
			<g>
				<path fill="#E6E0D6" d="M182.466,225.357c-0.517-1.602-2.295-2.404-3.931-2.798c-1.637-0.394-3.424-0.62-4.675-1.746
					l-29.697-2.128c-2.009,0.461-3.887,1.481-5.368,2.914c-0.271,0.262-0.535,0.548-0.671,0.9c-0.166,0.432-0.12,0.912-0.072,1.372
					c0.395,3.775,0.79,7.551,1.185,11.326c0.098,0.94,0.204,1.905,0.636,2.745c1.251,2.432,4.542,2.808,7.27,2.625
					c1.797-0.121,3.586-0.348,5.373-0.575c0.725-0.092,1.458-0.186,2.144-0.438c0.503-0.185,0.97-0.452,1.437-0.718
					c2.689,1.032,5.407,1.99,8.124,2.947c1.237,0.435,2.492,0.875,3.799,0.97c1.218,0.089,2.436-0.124,3.639-0.336
					c1.257-0.222,2.514-0.443,3.77-0.665c1.194-0.21,2.44-0.443,3.398-1.187c1.437-1.115,1.863-3.069,2.193-4.858
					c0.466-2.527,0.932-5.054,1.398-7.582C182.586,227.209,182.753,226.246,182.466,225.357z"/>
			</g>
			<g>
				<path fill="#F8F2EA" d="M164.797,229.458c1.89-0.218,3.732-0.772,5.626-0.942c3.714-0.333,7.501,0.817,11.155,0.076
					c0.268-0.054,0.528-0.129,0.789-0.202c0.016-0.087,0.032-0.175,0.048-0.262c0.169-0.918,0.336-1.882,0.05-2.771
					c-0.517-1.602-2.295-2.404-3.931-2.798c-1.637-0.394-3.424-0.62-4.675-1.746l-29.697-2.128
					c-2.009,0.461-3.887,1.481-5.368,2.914c-0.209,0.203-0.413,0.42-0.558,0.671c4.388,2.244,9.186,3.759,13.925,5.198
					C156.271,228.717,160.53,229.951,164.797,229.458z"/>
			</g>
			<path fill="#E6E0D6" d="M182.106,209.433c-0.79-3.502-2.617-6.639-4.419-9.724c-0.023-1.796,0.017-3.593,0.133-5.386
				c0.082-1.274,0.199-2.547,0.351-3.815c0.145-1.208,0.417-2.421,0.485-3.635c0.04-0.718,0.008-1.923-0.865-2.15
				c-0.81-0.211-1.371,0.482-1.618,1.159c-0.848,2.317-1.429,4.759-2.15,7.119c-0.448,1.466-0.937,2.939-1.601,4.322
				c-1.2,0.443-2.47,0.687-3.746,0.851c-1.95,0.25-3.923,0.438-5.889,0.481c-2.796,0.061-5.701-0.277-8.229-1.474
				c-2.009-3.364-3.122-7.154-4.605-10.812c-0.329-0.812-0.893-1.632-1.849-1.704c-0.893-0.067-1.432,0.645-1.681,1.417
				c-0.4,1.244-0.551,2.619-0.775,3.904c-0.243,1.396-0.458,2.797-0.648,4.202c-0.26,1.926-0.463,3.859-0.622,5.796
				c-1.079,2.129-2.012,4.33-2.779,6.591c-1.019,3.006-1.94,6.253-2.175,9.432c-0.1,1.351,0.157,2.66,1.133,3.652
				c1.008,1.025,2.421,1.737,3.689,2.379c2.905,1.471,6.016,2.303,9.282,2.257c1.472-0.021,2.947-0.099,4.422-0.204
				c5.842,1.111,11.81,1.79,17.681,0.552c1.656-0.349,3.275-0.854,4.828-1.528c0.603-0.262,1.347-0.509,1.766-1.045
				c0.421-0.539,0.383-1.283,0.411-1.931C182.792,216.568,182.897,212.943,182.106,209.433z"/>
			<g>
				<path fill="#FFFFFF" d="M158.387,201.77c0.001,0.019-0.002,0.039-0.001,0.058c0.014,0.15,0.043,0.298,0.133,0.423
					c0.052,0.071,0.114,0.135,0.184,0.186c0.026,0.029,0.042,0.065,0.073,0.09c0.079,0.066,0.173,0.121,0.281,0.116
					c0.106-0.005,0.204-0.041,0.281-0.116c0.358-0.354,0.429-0.901,0.216-1.348c-0.05-0.105-0.133-0.185-0.229-0.248
					c-0.035-0.065-0.076-0.126-0.132-0.179c-0.156-0.148-0.375-0.222-0.581-0.135c-0.347,0.146-0.399,0.58-0.323,0.907
					C158.31,201.612,158.345,201.692,158.387,201.77z"/>
				<path fill="#FFFFFF" d="M167.129,202.348c0.047,0.079,0.092,0.159,0.149,0.231c0.027,0.021,0.054,0.041,0.08,0.062
					c0.046,0.029,0.095,0.045,0.148,0.047c0.084,0.011,0.181,0.001,0.253-0.047c0.132-0.087,0.216-0.196,0.271-0.344
					c0.042-0.114,0.037-0.229,0.021-0.346c0.069-0.277,0.067-0.575-0.035-0.835c-0.038-0.095-0.087-0.187-0.183-0.238
					c-0.082-0.044-0.195-0.072-0.288-0.041c-0.088-0.047-0.186-0.064-0.29-0.036c-0.139,0.038-0.234,0.144-0.278,0.278
					c-0.017,0.053-0.018,0.109-0.029,0.163c0,0.001-0.001,0.001-0.001,0.001c-0.131,0.186-0.135,0.434-0.049,0.64
					C166.915,202.057,167.01,202.214,167.129,202.348z"/>
				<path fill="#FFFFFF" d="M174.987,202.847c-1.336,1.375-3.488,2.972-5.518,2.678c-1.089-0.158-2.157-0.475-3.247-0.648
					c-1.057-0.168-2.122-0.291-3.19-0.357c-1.031-0.064-2.065-0.067-3.09,0.074c-0.526,0.072-1.063,0.247-1.593,0.261
					c-0.586,0.015-1.219-0.176-1.787-0.312c-1.967-0.47-4.125-1.315-4.97-3.319c-0.196-0.464-0.965-0.26-0.766,0.211
					c0.815,1.933,2.595,3.021,4.539,3.611c1.065,0.323,2.335,0.727,3.454,0.557c1.252-0.19,2.424-0.368,3.697-0.315
					c1.305,0.054,2.609,0.202,3.896,0.422c1.2,0.205,2.472,0.686,3.697,0.657c2.02-0.049,4.09-1.567,5.44-2.956
					C175.906,203.042,175.344,202.479,174.987,202.847z"/>
			</g>
		</g>
		<path fill="#F4E6E5" d="M-95.603,477.646V236.732c29.085-10.817,61.753-7.832,92.188-1.131
			c14.773,3.252,29.499,7.348,44.616,7.872c27.064,0.937,55.032-9.518,80.646-0.727c12.6,4.325,23.568,13.077,36.622,15.732
			c5.62,1.143,11.415,1.101,17.137,0.715c22.933-1.548,45.564-8.539,68.485-6.826c7.986,0.597,15.852,2.245,23.69,3.89
			c6.462,1.356,12.924,2.712,19.387,4.068c8.56,1.796,18.267,4.534,23.04,11.366c-1.815,4.686-3.631,9.371-5.446,14.057
			c-1.802,4.652-3.611,9.325-4.705,14.193c-0.587,2.613-0.964,5.266-1.29,7.925c0.45,2.406,0.618,4.831,0.111,7.213
			c-0.285,1.338-0.777,2.621-1.267,3.898c-1.711,4.458-3.423,8.919-5.405,13.263c-0.552,1.21-1.134,2.445-1.231,3.772
			c-0.043,0.592,0.005,1.218-0.268,1.745c-0.19,0.366-0.517,0.641-0.851,0.884c-2.654,1.927-6.351,2.312-9.346,0.974
			c-0.642-0.287-1.28-0.653-1.982-0.668c-0.579-0.012-1.131,0.217-1.686,0.385c-1.365,0.413-2.838,0.459-4.226,0.132
			c-0.334-2.848-0.971-5.647-1.662-8.432c-1.341,0.153-2.72-0.048-3.932-0.645c-1.099,0.084-2.215-0.07-3.25-0.448
			c-0.801-0.827-1.648-1.608-2.531-2.345c-0.052,0.182-0.108,0.364-0.146,0.55c-0.286,1.392-0.492,3.245-1.887,3.515
			c-1.078,0.209-2.069-0.805-3.165-0.741c-0.608,0.036-1.139,0.397-1.702,0.628c-1.357,0.556-2.891,0.349-4.341,0.134
			c-0.094-0.014-0.188-0.028-0.282-0.042c-1.729,1.447-3.538,2.845-4.705,4.738c-0.462,0.749-0.819,1.571-1.384,2.245
			c-1.258,1.502-3.304,2.027-5.212,2.471c-0.39,0.091-0.789,0.182-1.187,0.139c-0.758-0.082-1.381-0.628-2.106-0.861
			c-0.783-0.251-1.63-0.124-2.447-0.035c-0.019,0.002-0.038,0.002-0.056,0.004c-1.271,1.343-2.47,2.755-3.581,4.234
			c-1.501,1.998-2.85,4.115-4.501,5.991c-0.805,0.914-1.677,1.766-2.547,2.617c-1.586,1.549-3.171,3.099-4.757,4.648
			c-3.248,3.174-6.525,6.367-10.026,9.254c-1.187,4.813-3.567,9.336-6.939,12.972c-2.282,2.461-5.012,4.561-6.762,7.424
			c-1.04,1.702-1.691,3.607-2.557,5.404c-4.385,9.107-13.721,14.588-22.537,19.532c-1.608,0.902-3.499,1.829-5.215,1.154
			c-1.106-0.435-1.862-1.446-2.558-2.409c-1.647-2.28-3.294-4.561-4.941-6.841c-2.405,1.714-4.809,3.428-7.214,5.142
			c-1.402,1-2.845,2.018-4.509,2.462c-2.118,0.564-4.359,0.139-6.509-0.288c-1.494-0.297-3.1-0.657-4.104-1.802
			c-1.082-1.235-1.245-3.164-2.544-4.169c-1.597-1.236-3.894-0.402-5.715,0.469c-5.134,2.458-10.269,4.915-15.403,7.373
			c-1.544,0.739-3.108,1.491-4.41,2.602c-0.957,0.816-1.748,1.806-2.593,2.738c-0.747,0.824-1.541,1.607-2.362,2.357
			c-5.722,5.232-13.745,9.014-21.166,6.767c-1.158-0.351-2.365-0.846-3.537-0.543c-0.98,0.253-1.728,1.017-2.54,1.622
			c-0.773,0.575-1.615,1.008-2.501,1.335c-1.356,1.774-2.47,3.693-3.141,5.834c-0.413,1.316-0.646,2.68-0.878,4.039
			c-0.596,3.49-1.193,6.981-1.789,10.471c-0.141,0.825-0.284,1.657-0.602,2.431c-0.489,1.191-1.363,2.176-2.083,3.243
			c-1.916,2.841-2.734,6.256-3.989,9.444c-1.683,4.275-4.153,8.142-6.951,11.8c0,0-16.514,19.722-26.44,24.753
			c-9.926,5.032-26.671,5.756-29.411,8.357c-2.74,2.601-31.938,31.589-61.418,25.929c-8.797-1.689-29.051-13.239-29.49-14.431
			C-96.042,521.063-95.603,477.646-95.603,477.646"/>
		<g>
			<path fill="#E5CEBF" d="M-95.603,477.646V236.732c29.085-10.817,61.753-7.832,92.188-1.131
				c14.773,3.252,29.499,7.348,44.616,7.872c27.064,0.937,55.032-9.518,80.646-0.727c12.6,4.325,23.568,13.077,36.622,15.732
				c5.62,1.143,11.415,1.101,17.137,0.715c22.933-1.548,45.564-8.539,68.485-6.826c7.986,0.597,15.852,2.245,23.69,3.89
				c6.462,1.356,12.924,2.712,19.387,4.068c8.56,1.796,18.267,4.534,23.04,11.366c-1.815,4.686-3.631,9.371-5.446,14.057
				c-0.602,1.553-1.202,3.11-1.778,4.674c-1.092,0.813-2.275,1.495-3.554,1.994c-2.254,0.879-4.713,1.177-6.918,2.174
				c-7.213,3.26-9.585,12.736-16.302,16.924c-0.952,0.594-2.015,1.078-3.137,1.104c-0.884,0.02-1.747-0.244-2.602-0.469
				c-2.863-0.753-5.835-1.074-8.793-0.971c-0.464,0.517-0.94,1.014-1.441,1.467c-1.834,1.657-4.07,2.788-6.277,3.9
				c-6.757,3.403-13.713,6.866-21.244,7.583c-1.707,0.163-3.508,0.205-4.981,1.083c-1.993,1.189-2.893,3.608-4.64,5.135
				c-2.194,1.919-5.331,2.152-8.174,2.797c-4.825,1.094-9.31,3.647-12.713,7.238c-3.366,3.551-5.657,8.036-9.182,11.43
				c-2.054,1.978-4.805,3.522-7.576,3.974c-3.515,5.44-8.02,10.588-9.927,16.743c-0.793,2.558-1.247,5.469-3.313,7.174
				c-2.098,1.731-5.314,1.696-7.246,3.611c-1.611,1.598-1.958,4.22-3.732,5.634c-1.226,0.976-2.873,1.168-4.394,1.546
				c-4.087,1.018-7.603,3.565-11.46,5.258c-3.857,1.693-8.658,2.415-12.057-0.073c-2.102-1.539-3.431-4.149-5.865-5.076
				c-3.383-1.289-6.899,1.252-10.421,2.087c-4.806,1.14-9.465-0.946-13.67-3.843c-2.847,2.548-5.898,4.868-9.116,6.928
				c-1.011,0.647-2.109,1.289-3.309,1.28c-1.25-0.01-2.432-0.733-3.679-0.643c-1.269,0.092-2.311,0.995-3.245,1.859
				c-3.177,2.934-6.29,5.936-9.404,8.938c-2.477,2.388-4.954,4.776-7.43,7.164c-5.426,5.232-11.102,10.888-12.819,18.228
				c-0.493,2.108-0.65,4.33-1.6,6.275c-1.326,2.715-3.984,4.486-6.522,6.125c-3.521,2.274-7.283,4.625-11.474,4.717
				c-1.855,0.041-3.78-0.562-5.328-1.607c-3.902,0.897-8.02,0.815-11.834-0.426c-1.648-0.537-3.371-1.274-5.052-0.854
				c-2.558,0.639-3.712,3.526-5.506,5.458c-3.127,3.37-8.227,3.779-12.82,3.966c-4.122,0.168-8.245,0.336-12.367,0.504
				c-0.13,0.292-0.264,0.583-0.405,0.868c-3.376,6.797-10.468,10.865-17.413,13.926c-4.425,1.95-9.039,3.714-13.22,6.097
				c-4.075,4.551-9.839,12.597-12.029,16.445s-14.259,0.875-16.183-8.746c-1.924-9.62-11.487-6.118-14.867-4.723
				C-95.644,482.019-95.603,477.646-95.603,477.646z"/>
		</g>
		<path fill="#CAA582" d="M287.168,260.325c-6.462-1.356-12.924-2.712-19.387-4.068c-7.838-1.645-15.704-3.293-23.69-3.89
			c-22.921-1.712-45.552,5.279-68.485,6.826c-5.722,0.386-11.518,0.428-17.137-0.715c-13.054-2.656-24.022-11.408-36.622-15.732
			c-25.614-8.791-53.582,1.664-80.646,0.727c-15.117-0.524-29.844-4.62-44.616-7.872c-30.435-6.701-63.103-9.685-92.188,1.131
			v202.835c0.787,0.119,1.587,0.07,2.344-0.201c1.167-0.417,2.12-1.302,3.283-1.732c3.34-1.237,7.269,1.567,10.513,0.096
			c2.796-1.268,3.431-4.915,3.443-7.984c0.012-3.07-0.05-6.573,2.21-8.65c1.557-1.43,3.794-1.75,5.856-2.216
			c5.987-1.353,11.504-4.567,15.761-8.983c1.151,1.474,2.462,2.823,3.923,3.992c0.438,0.351,0.917,0.698,1.475,0.762
			c1.016,0.117,1.864-0.712,2.584-1.439c3.845-3.881,8.876-6.674,14.288-7.416c1.211-0.166,2.447-0.234,3.693-0.256
			c1.886,7.291,4.614,14.364,8.125,21.027c0.639,1.212,1.333,2.446,2.419,3.281c0.851,0.654,1.885,1.017,2.9,1.369
			c4.223,1.467,8.831,2.941,13.066,1.51c1.134-0.383,2.204-0.968,3.374-1.221c3.928-0.851,7.558,2.127,11.43,3.204
			c0.649,0.18,1.349,0.306,1.986,0.088c0.726-0.249,1.232-0.894,1.688-1.511c1.885-2.552,4.093-5.453,7.26-5.639
			c1.362-0.08,2.698,0.379,4.06,0.458c1.97,0.114,3.854-0.596,5.45-1.772c1.383,0.597,2.833,1.038,4.317,1.297
			c1.684,0.294,3.521,0.339,4.992-0.532c2.051-1.215,2.772-3.772,3.466-6.052c4.446-14.602,15.019-27.231,28.612-34.175
			c3.614-1.846,7.753-3.626,9.373-7.348c0.752-1.728,0.88-3.753,2.033-5.244c2.154-2.785,6.679-2.342,9.297-4.696
			c1.581-1.421,2.183-3.608,2.679-5.675c0.423-1.762,0.819-3.53,1.194-5.302c4.585-1.311,9.17-2.622,13.755-3.934
			c1.036-0.296,2.104-0.609,2.936-1.293c1.489-1.225,1.869-3.3,2.616-5.077c1.691-4.023,5.573-6.813,9.729-8.144
			c4.156-1.331,8.603-1.388,12.966-1.273c1.33,0.035,2.71,0.076,3.933-0.448c1.777-0.761,2.856-2.533,4.053-4.051
			c3.208-4.072,7.693-6.642,12.586-8.507c4.345,0.001,8.883-0.45,12.756,1.316c2.645,1.206,4.878,3.417,7.745,3.903
			c4.733,0.803,8.692-3.252,12.827-5.693c6.448-3.806,14.791-4.033,20.495-8.884c1.206-1.026,2.285-2.253,3.718-2.925
			c2.234-1.048,4.904-0.56,7.248-1.33c2.527-0.831,4.337-2.986,6.241-4.843c1.049-1.024,2.168-1.975,3.34-2.856
			c0.446,0.039,0.89,0.047,1.321,0.021c3.312-0.202,6.597-1.519,9.865-0.939c1.77,0.315,3.421,1.176,5.208,1.374
			c5.538,0.614,9.496-4.881,13.678-8.563c6.714-5.911,15.949-7.751,24.56-10.174c4.709-1.325,9.568-3.072,13.688-5.676
			c1.152-2.973,2.304-5.947,3.456-8.92C305.435,264.859,295.729,262.121,287.168,260.325z"/>
		<g>
			<path fill="#A98861" d="M-93.415,298.717c-3.647,1.316-6.894,4.048-8.489,7.521c-1.81,0.919-3.446,2.254-4.87,3.716
				c-4.481,4.598-7.491,11.293-5.721,17.464c1.919,6.692,8.764,10.953,11.164,17.487c0.482,1.314,0.819,2.757,1.207,4.157
				c-0.898,4.796-0.624,9.812,0.825,14.472c0.986,3.171,2.575,6.266,5.161,8.35c5.158,4.156,12.844,3.342,18.539,6.724
				c1.758,1.044,3.264,2.454,4.868,3.724c7.297,5.778,16.46,8.547,25.382,11.194c1.816,0.539,3.665,1.083,5.559,1.074
				c1.916-0.008,3.783-0.581,5.689-0.785c2.39-0.256,4.799,0.072,7.18,0.399c3.08,0.423,6.161,0.846,9.241,1.269
				c3.181,0.437,6.53,0.832,9.771,0.745c0.082,0.085,0.167,0.167,0.255,0.244c1.461,1.277,3.498,1.655,5.436,1.753
				c2.102,0.107,4.218-0.056,6.28-0.484c2.148-0.446,4.234-1.177,6.4-1.52c2.811-0.445,5.683-0.227,8.523-0.414
				c9.419-0.621,17.993-5.63,27.272-7.365c3.518-0.658,7.206-0.867,10.402-2.478c4.859-2.45,7.635-7.632,9.822-12.615
				c1.213-2.764,2.37-5.616,4.333-7.909c1.446-1.689,3.269-3.003,4.956-4.452c1.864-1.601,3.564-3.389,5.085-5.318
				c1.167,0.119,2.365,0.018,3.464-0.314c3.575-1.077,6.343-3.841,9.025-6.438c4.723-4.572,10.071-9.117,16.579-10.038
				c1.622-0.23,3.331-0.24,4.78-1.003c1.196-0.63,2.081-1.705,3.044-2.653c3.766-3.707,8.91-5.593,13.884-7.375
				c0.91-0.326,1.85-0.657,2.816-0.606c1.195,0.063,2.27,0.699,3.34,1.235c2.341,1.172,4.889,1.928,7.491,2.223
				c0.59,0.067,1.218,0.104,1.746-0.166c0.567-0.289,0.91-0.873,1.223-1.427c3.312-5.86,52.622-6.611,40.134-19.799L-93.415,298.717
				z"/>
		</g>
		<path fill="#DAB185" d="M287.168,260.325c-1.138-0.239-2.277-0.478-3.415-0.717c-5.324-1.117-10.648-2.234-15.971-3.351
			c-7.838-1.645-15.704-3.293-23.69-3.89c-22.921-1.712-45.552,5.279-68.485,6.826c-5.722,0.386-11.518,0.428-17.137-0.715
			c-13.054-2.656-24.022-11.408-36.622-15.732c-25.614-8.791-53.582,1.664-80.646,0.727c-15.117-0.524-29.844-4.62-44.616-7.872
			c-30.435-6.701-63.103-9.685-92.188,1.131v69.803c1.728,1.592,3.456,3.183,5.184,4.775c0.593,0.546,1.185,1.092,1.778,1.638
			c2.431,2.239,4.922,4.519,7.948,5.849c1.9,0.835,3.948,1.267,5.979,1.694c6.47,1.358,12.971,2.717,19.51,3.677
			c2.621,3.639,6.529,6.519,10.264,9.155c0.96,0.678,1.96,1.373,3.116,1.588c1.247,0.233,2.518-0.121,3.758-0.391
			c9.641-2.099,19.695,0.844,28.627,5.039c3.38,1.587,6.766,3.385,10.476,3.806c3.679,0.417,7.378-0.563,10.846-1.86
			c7.635-2.857,14.549-7.235,21.547-11.457c11.521,2.136,23.177,3.542,34.875,4.2c4.064,0.229,8.272,0.345,12.057-1.155
			c3.307-1.311,6.019-3.751,9.044-5.623c8.072-4.997,18.169-5.846,26.288-10.767c0.921-0.558,1.82-1.17,2.72-1.778
			c5.081,0.325,10.091-1.247,15.126-2.093c5.187-0.871,11.007-0.806,15.091,2.507c0.92,0.746,1.78,1.669,2.931,1.947
			c1.239,0.3,2.512-0.219,3.694-0.697c6.391-2.582,13.154-4.241,20.014-4.911c2.152-0.21,4.386-0.343,6.3-1.348
			c1.721-0.903,3.019-2.428,4.569-3.601c5.357-4.055,13.505-3.91,19.484-6.355c2.62,0.979,5.285,1.839,7.988,2.56
			c1.395,0.372,2.89,0.707,4.258,0.247c1.217-0.409,2.143-1.386,3.017-2.327c2.505-2.7,5.01-5.401,7.515-8.101
			c1.038-1.119,2.13-2.275,3.56-2.809c2.16-0.807,4.542-0.024,6.833,0.239c8.395,0.964,15.83-5.117,21.79-11.109
			c0.902-0.907,1.817-1.829,2.746-2.746c0.742-0.733,1.493-1.462,2.259-2.175c0.196,0.032,0.392,0.066,0.585,0.102
			c2.662,0.506,5.38,1.327,8.029,0.757c3.016-0.649,5.378-2.985,8.252-4.107c2.981-1.163,6.561-1.052,8.977-3.151
			c0.795-0.69,1.53-1.644,2.581-1.695c0.776-0.038,1.468,0.444,2.131,0.85c1.632,0.997,3.702-0.083,5.867-1.902
			C297.464,262.723,292.125,261.365,287.168,260.325z"/>
		<g>
			<path fill="#E9E6D1" d="M303.683,261.636c-2.631,0.76-6.081,1.115-9.258,0.91c-5.697-0.367-10.413-2.045-14.117-3.925
				c0.327,2.006,0.327,4.051-0.093,6.042c-0.04,0.192-0.086,0.384-0.139,0.575c1.629-0.763,3.268-1.504,4.934-2.18
				c1.912-0.776,4.048-1.471,5.999-0.8c1.379,0.474,2.442,1.561,3.65,2.379c1.936,1.31,4.395,1.935,6.668,1.391
				c1.505-0.361,2.887-1.284,3.785-2.53c-0.128-0.299-0.286-0.582-0.473-0.831C304.354,262.288,304.028,261.952,303.683,261.636z"/>
			<path fill="#E9E6D1" d="M6.602,213.438c2.921-1.008,6.21-0.531,9.402,0.462c0.378-0.2,0.765-0.378,1.161-0.531
				c-3.129-4.421-7.163-8.254-10.651-12.445c-4.87-5.853-8.748-12.515-12.761-19.036c-2.578,0.208-5.099,0.659-7.493,1.612
				C-4.202,190.766,0.571,202.592,6.602,213.438z"/>
			<path fill="#E9E6D1" d="M162.696,266.156c0.158,0.154,0.311,0.311,0.459,0.472c0.534-0.446,1.116-0.834,1.735-1.154
				C164.158,265.647,163.427,265.88,162.696,266.156z"/>
			<path fill="#E9E6D1" d="M225.622,240.729c1.099-0.597,2.398-1.098,3.846-1.44c1.645-1.066,3.866-1.951,6.384-2.571
				c-3.32-1.047-6.727-1.821-10.175-2.304c-2.186-0.307-4.521-0.476-6.502,0.499c-0.065,0.032-0.126,0.071-0.19,0.106
				C221.69,236.064,223.758,238.43,225.622,240.729z"/>
			<path fill="#E9E6D1" d="M136.541,228.936c1.085,0.033,2.171,0.078,3.252,0.104c-1.123-0.483-2.293-0.817-3.489-1.06
				c0.012,0.05,0.022,0.1,0.034,0.15C136.402,228.399,136.473,228.668,136.541,228.936z"/>
			<path fill="#E9E6D1" d="M264.386,268.975c-5.275,0.838-10.521-0.981-14.957-4.092c-0.475,0.765-0.99,1.524-1.566,2.274
				c-2.914,3.797-7.947,7.534-14.834,9.874c0.175,1.376-0.075,2.731-0.944,3.871c-0.697,0.914-1.693,1.545-2.667,2.155
				c-2.552,1.6-5.16,3.224-8.085,3.94c-2.754,0.674-5.634,0.506-8.464,0.333c-8.09-0.494-16.181-0.987-24.271-1.481
				c-4.402,2.238-9.298,3.904-12.392,7.65c0.947-0.035,1.896-0.123,2.838-0.215c3.223-0.314,6.447-0.628,9.67-0.942
				c0.268-0.026,0.537-0.054,0.807-0.085c4.748,2.139,10.76,1.912,15.96,0.511c7.156-1.929,13.873-5.6,21.24-6.412
				c3.379-0.372,6.886-0.143,10.077-1.316c2.35-0.864,4.363-2.433,6.334-3.978c3.44-2.697,6.881-5.395,10.321-8.092
				c4.198,0.398,8.591-0.327,12.631-1.645c3.061-0.998,6-2.304,8.915-3.675c-0.622-0.074-1.245-0.163-1.837-0.204
				C270.187,267.238,267.329,268.508,264.386,268.975z"/>
			<path fill="#E9E6D1" d="M199.804,268.811c-0.036,0.227-0.074,0.454-0.115,0.68c0.378-0.153,0.758-0.303,1.139-0.45
				C200.485,268.976,200.144,268.896,199.804,268.811z"/>
			<path fill="#E9E6D1" d="M87.626,282.755c-2.366-0.506-4.754-1.585-6.363-3.324c-6.426,0.211-13.124-0.475-18.998,2.114
				c-7.044,3.105-12.189,10.646-19.865,11.227c-4.47,0.338-8.721-1.854-12.512-4.246c-2.178-1.375-4.362-2.901-5.723-5.088
				c-1.361-2.186-1.704-5.197-0.179-7.273c0.835-1.137,2.106-1.859,3.337-2.547c8.691-4.858,17.383-9.717,26.074-14.575
				c0.74-1.044,1.496-2.072,2.298-3.057c1.345-1.651,2.835-3.173,4.439-4.563c-6.66-0.112-13.334-2.596-19.267-5.827
				c-1.008-0.549-2.006-1.129-2.979-1.745c-0.939-0.061-1.919-0.236-2.826-0.299c-2.973-0.207-5.831,1.062-8.774,1.53
				c-4.291,0.681-8.563-0.396-12.395-2.496c-2.153,1.11-4.709,1.581-7.093,1.217c-3.865-0.59-7.225-2.777-10.071-5.534
				c-2.814,4.344-6.991,7.692-11.398,10.441c-0.564,0.352-1.137,0.693-1.715,1.027c0.287,0.93,0.513,1.881,0.684,2.848
				c0.406-0.061,0.816-0.111,1.232-0.133c4.364-0.227,8.156,1.858,11.467,4.829c3.559-0.654,7.132-0.76,10.498,0.465
				c3.374,1.228,6.162,3.687,8.544,6.374c3.778,4.261,6.736,10.82,3.338,15.39c-2.642,3.554-7.76,3.945-12.18,3.672
				c-4.42-0.273-9.277-0.777-12.877,1.802c-1.185,0.849-2.189,2.012-3.562,2.503c-1.071,0.383-2.265,0.314-3.328,0.718
				c-0.372,0.141-0.712,0.338-1.036,0.562c0.697,0.178,1.396,0.349,2.09,0.538c6.452,1.749,12.84,3.949,19.495,4.577
				c5.91,0.558,12.2-0.284,17.143-3.461c1.525,0.465,3.035,0.97,4.501,1.578c3.989,1.656,7.648,4.068,11.724,5.495
				s8.894,1.728,12.463-0.703c2.766-1.884,4.36-5.103,7.01-7.148c2.814-2.17,6.489-2.786,10.001-3.333
				c1.918-0.299,3.836-0.598,5.754-0.897c3.202,1.604,6.733,2.545,10.314,2.653c3.665,0.111,7.533-0.553,10.861,0.987
				c2.43,1.124,4.201,3.269,6.237,5.008c5.969,5.098,14.752,6.639,22.117,3.922c0.866-0.32,1.71-0.692,2.54-1.097
				c-11.07-1.507-20.019-11.136-31.191-13.023C94.201,283.313,90.852,283.444,87.626,282.755z"/>
			<path fill="#E9E6D1" d="M104.801,248.953c0.187-3.264,1.542-6.217,3.634-8.768c-1.231-1.988-2.333-3.999-2.972-6.062
				c-0.142-0.46-0.258-0.921-0.355-1.381c-0.264,1.081-0.509,2.176-1.082,3.112c-1.264,2.064-3.829,2.912-6.227,3.243
				c-3.876,0.534-8,0.038-11.455-1.713c-0.519,1.548-1.333,2.985-2.47,4.203c-0.058,0.062-0.122,0.119-0.181,0.18
				c3.607-0.245,7.243,0.007,10.78,0.802c4.072,0.916,8.429,2.916,9.841,6.844c1.619,4.505-1.29,9.161-2.902,13.712
				c3.471-0.136,6.949-0.162,10.382,0.196C107.181,259.421,104.514,253.986,104.801,248.953z"/>
			<path fill="#EDD6CE" d="M5.796,236.006c-2.722-3.098-5.01-6.765-5.553-10.853c-0.543-4.088,0.981-8.628,4.476-10.818
				c0.606-0.38,1.236-0.674,1.883-0.897c-6.031-10.846-10.804-22.672-20.343-29.939c-0.211,0.084-0.424,0.163-0.634,0.255
				c-3.231,1.424-6.062,3.781-8.921,5.972c-0.584,2.219-2.087,4.326-3.32,6.453c-0.479,0.826-0.912,1.661-1.321,2.501
				c0.326,0.336,0.657,0.666,0.991,0.989c2.842,2.748,5.985,5.182,9.344,7.267c0.124,1.364,0.306,2.722,0.539,4.072
				c1.973-0.014,3.957,0.023,5.871,0.485c5.109,1.234,9.205,5.565,10.678,10.611c1.473,5.045,0.481,10.641-2.156,15.188
				c-0.192,0.331-0.394,0.656-0.601,0.976c2.845,2.757,6.205,4.944,10.071,5.534c2.385,0.364,4.94-0.107,7.093-1.217
				C10.845,240.916,8.076,238.601,5.796,236.006z"/>
			<path fill="#D9D2D9" d="M104.315,249.413c-1.412-3.928-5.769-5.928-9.841-6.844c-3.537-0.796-7.173-1.047-10.78-0.802
				c-1.63,1.673-3.705,2.843-5.754,3.974c-3.682,2.033-7.434,4.062-11.528,5.028c-2.076,0.489-4.176,0.688-6.279,0.653
				c-1.604,1.39-3.095,2.912-4.439,4.563c-0.802,0.985-1.559,2.013-2.298,3.057c-8.691,4.858-17.383,9.717-26.074,14.575
				c-1.232,0.688-2.502,1.41-3.337,2.547c-1.525,2.075-1.181,5.086,0.179,7.273c1.361,2.186,3.545,3.713,5.723,5.088
				c3.791,2.393,8.042,4.585,12.512,4.246c7.676-0.581,12.821-8.122,19.865-11.227c5.874-2.589,12.572-1.903,18.998-2.114
				c-0.585-0.632-1.071-1.349-1.41-2.16c-1.717-4.097,0.972-8.969,4.805-11.215c3.833-2.245,8.464-2.526,12.901-2.752
				c1.282-0.065,2.568-0.129,3.855-0.179C103.025,258.573,105.934,253.917,104.315,249.413z"/>
			<path fill="#D9D2D9" d="M151.68,257.532c-1.98-0.203-3.837-0.967-5.722-1.632c3.813,2.19,7.625,4.381,11.438,6.571
				c1.86,1.069,3.782,2.205,5.301,3.686c0.731-0.277,1.462-0.51,2.194-0.681c0.165-0.085,0.333-0.165,0.502-0.24
				c1.312-3.037,1.609-6.416,2.47-9.617c0.504-1.876,1.291-3.779,2.453-5.319c-1.02-0.789-2.072-1.54-3.169-2.232
				c-0.807-0.509-1.634-0.986-2.471-1.446c-0.16,0.876-0.388,1.741-0.705,2.583C162.102,254.19,156.977,258.075,151.68,257.532z"/>
			<path fill="#EDD6CE" d="M294.425,262.546c3.176,0.205,6.626-0.15,9.258-0.91c-1.338-1.225-3.065-2.03-4.762-2.733
				c-6.535-2.708-13.382-4.66-20.361-5.815c0.831,1.757,1.438,3.628,1.749,5.534C284.012,260.5,288.728,262.178,294.425,262.546z"/>
			<path fill="#E3EACA" d="M86.345,237.384c3.455,1.751,7.579,2.247,11.455,1.713c2.398-0.331,4.963-1.178,6.227-3.243
				c0.573-0.936,0.818-2.031,1.082-3.112c-0.75-3.579-0.18-7.15,0.762-10.516c0.917-3.28,2.288-6.582,5.068-8.815
				c-0.987-0.41-2.008-0.723-3.073-0.881c-4.692-0.699-9.242,1.65-13.406,3.925c-3.831,2.093-7.661,4.185-11.492,6.278
				c0.354,0.378,0.697,0.767,1.016,1.181C86.878,227.669,87.821,232.978,86.345,237.384z"/>
			<path fill="#E5F0C7" d="M6.602,213.438c-0.647,0.223-1.277,0.517-1.883,0.897c-3.495,2.19-5.019,6.73-4.476,10.818
				c0.543,4.088,2.83,7.756,5.553,10.853c2.28,2.595,5.05,4.909,8.096,6.579c3.832,2.1,8.104,3.177,12.395,2.496
				c2.943-0.467,5.801-1.737,8.774-1.53c0.907,0.063,1.887,0.239,2.826,0.299c-2.336-1.476-4.519-3.177-6.264-5.305
				c-1.868-2.277-3.188-5.11-3.432-8.014c-1.121,0.165-2.228,0.395-3.301,0.706c-1.933-4.264-2.954-9.131-5.031-13.383
				c-0.771-1.578-1.686-3.062-2.693-4.485c-0.396,0.153-0.783,0.331-1.161,0.531C12.813,212.907,9.523,212.431,6.602,213.438z"/>
			<path fill="#E5F0C7" d="M280.309,258.621c-0.311-1.906-0.918-3.777-1.749-5.534c-1.455-0.241-2.916-0.45-4.381-0.621
				c-4.298-0.502-8.707-0.72-12.729-2.314c-1.012-0.401-1.981-0.889-2.926-1.422c-0.296,0.358-0.592,0.716-0.873,1.074
				c-3.832,4.875-5.126,10.1-8.221,15.078c4.436,3.111,9.682,4.93,14.957,4.092c2.943-0.467,5.801-1.737,8.774-1.53
				c0.592,0.041,1.214,0.13,1.837,0.204c1.695-0.797,3.383-1.616,5.08-2.411c0.053-0.19,0.099-0.383,0.139-0.575
				C280.636,262.672,280.636,260.627,280.309,258.621z"/>
			<path fill="#DBF4CE" d="M156.635,277.282c0.944-1.569,2.111-2.992,3.307-4.393c0.07-1.052,0.316-2.09,0.749-3.053
				c0.559-1.244,1.419-2.335,2.465-3.207c-0.148-0.161-0.302-0.319-0.459-0.472c-1.519-1.481-3.441-2.617-5.301-3.686
				c-3.813-2.19-7.625-4.381-11.438-6.571c-0.205-0.072-0.411-0.142-0.617-0.211c-1.066,3.027-3.598,5.495-6.702,7.431
				c7.803,2.169,13.218,11.102,11.604,19.181c-0.422,2.115-1.271,4.091-2.436,5.869c0.387-0.006,0.773-0.017,1.157-0.031
				c1.743-0.065,3.509-0.179,5.266-0.217C153.833,284.271,154.729,280.448,156.635,277.282z"/>
			<path fill="#DBD7BC" d="M188.597,285.85c-1.798-0.11-3.596-0.219-5.394-0.329c-4.802-0.293-9.657-0.595-14.258-2.003
				c-2.632-0.805-5.245-2.035-6.989-4.164c-1.467-1.79-2.167-4.16-2.014-6.465c-1.196,1.401-2.363,2.824-3.307,4.393
				c-1.906,3.166-2.802,6.989-2.406,10.638c3.002-0.066,5.981,0.09,8.788,1.096c3.359,1.204,6.284,3.575,9.786,4.267
				c1.12,0.221,2.26,0.258,3.403,0.216C179.299,289.754,184.195,288.087,188.597,285.85z"/>
			<path fill="#DBD7BC" d="M165.393,265.235c1.026-0.456,2.129-0.731,3.253-0.776c1.264-0.051,2.496,0.159,3.716,0.478
				c3.146,4.516,7.229,8.569,12.566,9.029c4.129,0.356,8.066-1.561,11.855-3.242c0.96-0.426,1.929-0.839,2.906-1.234
				c0.04-0.226,0.079-0.453,0.115-0.68c-4.708-1.185-8.966-4.29-11.931-8.206c-2.91-3.843-4.74-8.939-3.574-13.52
				c-1.813,0.671-3.598,1.44-5.368,2.211c-2.143,0.933-4.285,1.865-6.428,2.798c-0.71-0.621-1.441-1.217-2.187-1.794
				c-1.162,1.54-1.949,3.443-2.453,5.319C167.003,258.819,166.706,262.198,165.393,265.235z"/>
			<path fill="#E3DFBC" d="M225.622,240.729c0.044,0.054,0.089,0.109,0.132,0.163c1.33,1.646,2.698,3.395,3.059,5.481
				c0.253,1.463-0.018,2.968-0.43,4.395c-1.187,4.107-3.574,7.86-6.79,10.677c-1.211,1.06-2.532,1.988-3.881,2.865
				c-0.898,0.584-1.82,1.148-2.762,1.676c5.328-0.027,10.755,1.499,14.707,5.037c1.714,1.534,3.092,3.8,3.372,6.008
				c6.887-2.341,11.92-6.077,14.834-9.874c0.576-0.751,1.091-1.51,1.566-2.274c3.095-4.978,4.389-10.203,8.221-15.078
				c0.282-0.358,0.577-0.716,0.873-1.074c-2.411-1.359-4.656-3.044-6.977-4.57c-4.854-3.19-10.155-5.697-15.694-7.444
				c-2.518,0.62-4.739,1.505-6.384,2.571C228.02,239.631,226.721,240.132,225.622,240.729z"/>
			<path fill="#F2CFD5" d="M105.871,222.226c-0.941,3.366-1.512,6.937-0.762,10.516c0.097,0.46,0.212,0.921,0.355,1.381
				c0.638,2.063,1.741,4.075,2.972,6.062c-2.093,2.551-3.448,5.504-3.634,8.768c-0.288,5.032,2.38,10.467,6.994,14.367
				c1.377,0.144,2.747,0.346,4.107,0.633c2.175,0.458,4.402,1.113,6.628,1.685c4.609-1.758,9.237-3.474,14.012-2.933
				c0.716,0.081,1.414,0.225,2.097,0.414c3.105-1.936,5.636-4.404,6.702-7.431c-0.575-0.193-1.153-0.374-1.74-0.517
				c-7.955-1.939-17.291,2.362-24.078-2.217c-3.979-2.685-5.726-8.248-3.996-12.726c0.498-1.29,1.244-2.474,2.098-3.562
				c3.175-4.046,7.951-6.8,13.044-7.522c1.934-0.274,3.903-0.267,5.874-0.208c-0.069-0.268-0.14-0.537-0.203-0.805
				c-0.012-0.05-0.022-0.1-0.034-0.15c-2.266-0.46-4.624-0.602-6.932-0.848c-0.953-0.102-1.903-0.23-2.851-0.371
				c-3.284-3.61-6.567-7.781-9.851-10.01c-1.826-1.24-3.709-2.5-5.732-3.341C108.158,215.643,106.788,218.946,105.871,222.226z"/>
			<path fill="#EADBD8" d="M-9.24,287.486c1.373-0.491,2.376-1.653,3.562-2.503c3.6-2.579,8.458-2.076,12.877-1.802
				c4.42,0.273,9.538-0.118,12.18-3.672c3.397-4.57,0.439-11.129-3.338-15.39c-2.382-2.687-5.17-5.146-8.544-6.374
				c-3.366-1.225-6.939-1.119-10.498-0.465c-3.311-2.971-7.103-5.056-11.467-4.829c-0.416,0.022-0.825,0.071-1.232,0.133
				c-4.341,0.655-8.189,3.404-12.405,4.819c-2.695,0.905-5.574,1.258-8.409,1.033c-0.874-0.069-1.805-0.182-2.582,0.223
				c-0.638,0.333-1.06,0.963-1.413,1.59c-2.269,4.03-2.587,8.647-1.547,13.117c0.967,4.156,3.108,8.184,5.964,11.494
				c7.582,0.718,15.107,2.022,22.487,3.905c0.324-0.224,0.664-0.42,1.036-0.562C-11.505,287.8-10.311,287.869-9.24,287.486z"/>
			<path fill="#F0E2CD" d="M130.668,229.144c-5.093,0.721-9.868,3.475-13.044,7.522c-0.854,1.088-1.599,2.272-2.098,3.562
				c-1.73,4.478,0.017,10.041,3.996,12.726c6.787,4.579,16.124,0.278,24.078,2.217c0.587,0.143,1.165,0.324,1.74,0.517
				c0.206,0.069,0.412,0.139,0.617,0.211c1.885,0.666,3.742,1.429,5.722,1.632c5.297,0.543,10.422-3.342,12.292-8.328
				c0.316-0.843,0.544-1.707,0.705-2.583c-4.26-2.344-8.807-4.224-12.578-7.28c-4.12-3.339-7.258-8.037-12.095-10.211
				c-0.069-0.031-0.14-0.058-0.209-0.088c-1.081-0.027-2.167-0.072-3.252-0.104C134.571,228.877,132.602,228.87,130.668,229.144z"/>
			<path fill="#E9DFD6" d="M187.873,260.604c2.965,3.916,7.224,7.022,11.931,8.206c0.339,0.085,0.68,0.165,1.024,0.23
				c4.07-1.567,8.283-2.752,12.621-3.011c0.498-0.03,0.998-0.041,1.499-0.043c0.942-0.528,1.864-1.092,2.762-1.676
				c1.349-0.878,2.67-1.805,3.881-2.865c3.217-2.817,5.603-6.57,6.79-10.677c0.412-1.427,0.683-2.932,0.43-4.395
				c-0.361-2.085-1.728-3.835-3.059-5.481c-0.044-0.054-0.088-0.109-0.132-0.163c-1.864-2.299-3.932-4.665-6.637-5.711
				c-1.432,0.769-2.52,2.053-3.547,3.322c-5.271,1.136-10.209,4.89-15.654,6.054c-2.91,0.622-5.929,0.489-8.874,0.913
				c-2.267,0.326-4.46,0.981-6.611,1.777C183.133,251.666,184.963,256.761,187.873,260.604z"/>
			<path fill="#E7E3C9" d="M37.886,243.851c0.974,0.615,1.972,1.196,2.979,1.745c5.933,3.231,12.607,5.715,19.267,5.827
				c2.102,0.035,4.203-0.164,6.279-0.653c4.094-0.965,7.846-2.995,11.528-5.028c2.049-1.131,4.123-2.301,5.754-3.974
				c0.06-0.061,0.123-0.118,0.181-0.18c1.137-1.218,1.952-2.655,2.47-4.203c1.476-4.406,0.534-9.715-2.361-13.471
				c-0.319-0.414-0.662-0.803-1.016-1.181c-2.488,1.359-4.976,2.718-7.464,4.077c-1.158,0.633-2.351,1.305-3.411,2.104
				c-4.908-0.78-9.84-1.017-14.702-0.064c-2.162,0.424-4.277,1.078-6.449,1.449c-5.68,0.97-11.489-0.027-17.251-0.104
				c-1.815-0.024-3.677,0.069-5.501,0.337c0.245,2.905,1.565,5.737,3.432,8.014C33.367,240.673,35.551,242.375,37.886,243.851z"/>
			<path fill="#DFDCC0" d="M-0.515,222.104c-1.473-5.045-5.569-9.377-10.678-10.611c-1.914-0.462-3.898-0.499-5.871-0.485
				c-0.254,0.002-0.508,0.004-0.762,0.007c-1.175,0.012-2.438,0.053-3.376,0.761c-0.638,0.481-1.035,1.209-1.412,1.914
				c-1.035,1.933-2.07,3.866-3.106,5.799c-0.568,0.617-1.091,1.276-1.559,1.966c-1.081,1.595-1.933,3.38-3.333,4.703
				c-0.835,0.79-1.785,1.351-2.81,1.763c-5.11,2.056-12.131,0.324-16.672,3.824c-4.225,3.257-4.329,9.959-1.595,14.54
				c3.537,5.928,10.737,9.019,17.64,8.953c6.238-0.06,12.242-2.364,17.663-5.503c0.578-0.334,1.151-0.675,1.715-1.027
				c4.407-2.749,8.584-6.097,11.398-10.441c0.207-0.32,0.409-0.645,0.601-0.976C-0.034,232.745,0.958,227.149-0.515,222.104z"/>
			<path fill="#E9DDCB" d="M138.638,263.119c-0.682-0.19-1.381-0.333-2.097-0.414c-4.775-0.541-9.403,1.175-14.012,2.933
				c-2.225-0.571-4.452-1.226-6.628-1.685c-1.359-0.286-2.73-0.489-4.107-0.633c-3.433-0.358-6.911-0.331-10.382-0.196
				c-1.287,0.05-2.573,0.114-3.855,0.179c-4.436,0.225-9.068,0.506-12.901,2.752c-3.833,2.245-6.522,7.118-4.805,11.215
				c0.34,0.811,0.825,1.528,1.41,2.16c1.61,1.738,3.997,2.818,6.363,3.324c3.226,0.689,6.576,0.558,9.829,1.108
				c11.172,1.887,20.122,11.516,31.191,13.023c1.355-0.661,2.672-1.408,3.984-2.153c3.906-2.219,7.812-4.437,11.718-6.656
				c1.15,0.089,2.311,0.111,3.459,0.092c1.165-1.778,2.014-3.754,2.436-5.869C151.856,274.221,146.441,265.288,138.638,263.119z"/>
			<path fill="#D9D4D9" d="M229.656,271.023c-3.952-3.538-9.38-5.064-14.707-5.037c-0.501,0.003-1.001,0.014-1.499,0.043
				c-4.339,0.259-8.551,1.444-12.621,3.011c-0.381,0.147-0.76,0.297-1.139,0.45c-0.977,0.395-1.946,0.808-2.906,1.234
				c-3.789,1.68-7.726,3.597-11.855,3.242c-5.337-0.46-9.42-4.513-12.566-9.029c-1.22-0.32-2.452-0.529-3.716-0.478
				c-1.123,0.045-2.227,0.321-3.253,0.776c-0.17,0.075-0.337,0.155-0.502,0.24c-0.618,0.319-1.2,0.708-1.735,1.154
				c-1.046,0.872-1.906,1.964-2.465,3.207c-0.433,0.963-0.679,2.002-0.749,3.053c-0.152,2.305,0.548,4.674,2.014,6.465
				c1.744,2.129,4.357,3.359,6.989,4.164c4.601,1.407,9.456,1.71,14.258,2.003c1.798,0.11,3.596,0.219,5.394,0.329
				c8.09,0.494,16.181,0.987,24.271,1.481c2.83,0.173,5.71,0.341,8.464-0.333c2.925-0.716,5.533-2.34,8.085-3.94
				c0.974-0.611,1.97-1.241,2.667-2.155c0.869-1.14,1.119-2.495,0.944-3.871C232.749,274.823,231.37,272.558,229.656,271.023z"/>
		</g>
		<g>
			<path fill="#FFFFFF" d="M4.603,217.853c-0.445-0.75-0.896-1.497-1.352-2.241c-0.278-0.454-0.784-0.637-1.271-0.531
				c-0.036-0.004-0.07-0.012-0.108-0.013c-0.967-0.026-1.927,0.079-2.689,0.731c-0.8,0.685-0.906,1.679-0.634,2.644
				c0.453,1.611,1.153,3.166,2.051,4.578c0.387,0.609,1.303,0.807,1.831,0.236c0.237-0.256,0.475-0.512,0.729-0.753
				c0.123-0.117,0.251-0.228,0.382-0.337c0.019-0.015,0.042-0.032,0.068-0.05c0.067-0.047,0.135-0.092,0.205-0.135
				c0.069-0.043,0.14-0.083,0.212-0.121c0.051-0.027,0.097-0.049,0.108-0.055c0.157-0.059,0.316-0.112,0.471-0.178
				c0.479-0.202,0.916-0.556,1.047-1.086c0.148-0.597-0.11-1.091-0.402-1.59C5.037,218.586,4.821,218.219,4.603,217.853z
				 M3.72,219.487C3.754,219.473,3.76,219.473,3.72,219.487L3.72,219.487z"/>
		</g>
		<g>
			<path fill="#FFFFFF" d="M55.457,275.237c-0.073-0.136-0.173-0.245-0.3-0.327c-0.113-0.103-0.245-0.173-0.396-0.209
				c-0.298-0.068-0.633-0.053-0.898,0.118c-0.242,0.156-0.483,0.402-0.536,0.697c-0.104,0.579-0.229,1.159-0.3,1.743
				c-0.006,0.16,0.027,0.31,0.1,0.449c0.047,0.145,0.127,0.27,0.241,0.375c0.106,0.114,0.231,0.194,0.375,0.241
				c0.139,0.073,0.289,0.106,0.449,0.1c0.302-0.014,0.614-0.113,0.824-0.341c0.061-0.079,0.121-0.157,0.182-0.236
				c0.056-0.096,0.095-0.196,0.121-0.3c0.085-0.47,0.17-0.941,0.254-1.412c0.049-0.155,0.056-0.31,0.021-0.465
				C55.588,275.515,55.542,275.371,55.457,275.237z"/>
			<path fill="#FFFFFF" d="M64.492,271.124c-0.025-0.047-0.058-0.086-0.089-0.126c-0.036-0.07-0.08-0.136-0.134-0.196
				c-0.082-0.127-0.191-0.227-0.327-0.3c-0.134-0.085-0.278-0.131-0.433-0.138c-0.155-0.035-0.31-0.028-0.465,0.021
				c-0.282,0.091-0.554,0.266-0.697,0.536c-0.147,0.279-0.201,0.588-0.118,0.898c0.118,0.438,0.236,0.875,0.353,1.313
				c0.036,0.152,0.106,0.284,0.209,0.396c0.082,0.127,0.191,0.227,0.327,0.3c0.134,0.085,0.278,0.131,0.433,0.138
				c0.155,0.035,0.31,0.028,0.465-0.021c0.282-0.091,0.554-0.266,0.697-0.536c0.039-0.093,0.078-0.186,0.118-0.279
				c0.018-0.068,0.021-0.136,0.027-0.204c0.04-0.073,0.073-0.151,0.092-0.234c0.014-0.103,0.028-0.207,0.042-0.31
				c-0.001-0.21-0.054-0.407-0.159-0.588C64.719,271.572,64.606,271.348,64.492,271.124z"/>
			<path fill="#FFFFFF" d="M81.541,265.669c-0.008-0.55-0.201-1.101-0.328-1.633c-0.134-0.563-0.268-1.126-0.403-1.689
				c-0.089-0.375-0.254-0.66-0.6-0.849c-0.2-0.109-0.459-0.171-0.701-0.146c-0.137-0.087-0.294-0.145-0.47-0.156
				c-0.576-0.037-1.153-0.074-1.729-0.111c-0.652-0.042-1.184,0.378-1.291,1.026c-0.151,0.919-0.228,1.849-0.223,2.78
				c0.003,0.59-0.008,1.169,0.162,1.738c0.197,0.659,0.806,1.209,1.512,1.227c0.573,0.015,1.026-0.234,1.477-0.552
				c0.009,0.001,0.019,0.001,0.028,0.002c0.079,0.009,0.157,0.022,0.235,0.034c0.45,0.074,0.894,0.102,1.33-0.066
				C81.196,267.022,81.55,266.341,81.541,265.669z"/>
			<path fill="#FFFFFF" d="M95.131,256.376c-0.058-0.631-0.192-1.266-0.32-1.845c-0.111-0.503-0.241-0.992-0.594-1.386
				c-0.333-0.372-0.877-0.587-1.372-0.535c-0.734,0.078-1.315,0.486-1.644,1.07c-0.2,0.079-0.39,0.195-0.558,0.367
				c-0.435,0.445-0.501,1.032-0.431,1.619c0.052,0.435,0.103,0.869,0.155,1.304c0.103,0.873,0.17,1.826,0.853,2.469
				c0.731,0.69,1.871,0.746,2.699,0.189c0.291-0.195,0.515-0.423,0.693-0.671c0.115,0.005,0.232-0.004,0.348-0.042
				c0.583-0.189,1.003-0.81,0.811-1.434C95.642,257.071,95.424,256.687,95.131,256.376z"/>
			<path fill="#FFFFFF" d="M110.227,238.886c-0.015-0.504-0.324-0.962-0.841-1.109c-0.781-0.222-1.568,0.037-2.162,0.563
				c-0.57,0.505-0.815,1.225-0.877,1.963c-0.056,0.67,0.117,1.355,0.25,2.008c0.131,0.642,0.263,1.285,0.394,1.927
				c0.177,0.865,1.367,1.118,1.949,0.514c0.057-0.059,0.251-0.186,0.288-0.264c0.012-0.008,0.023-0.016,0.035-0.024
				c0.056-0.038,0.114-0.073,0.173-0.107c0.059-0.034,0.12-0.062,0.179-0.096c0.005-0.003,0.006-0.004,0.011-0.007
				c0.131-0.046,0.261-0.092,0.397-0.125c0.053-0.013,0.106-0.022,0.159-0.034c0.014-0.003,0.017-0.004,0.027-0.006
				c0.183-0.023,0.371-0.041,0.549-0.093c0.502-0.147,0.9-0.483,1.104-0.966c0.364-0.862-0.166-1.643-0.588-2.363
				C110.924,240.075,110.576,239.48,110.227,238.886z"/>
			<path fill="#FFFFFF" d="M121.041,222.407c-0.05-0.137-0.123-0.267-0.212-0.384c-0.002-0.003-0.003-0.007-0.004-0.01
				c-0.34-0.581-1.025-0.69-1.595-0.418c-1.529,0.729-3.027,1.773-3.193,3.602c-0.087,0.955,0.259,1.934,0.574,2.822
				c0.334,0.94,0.736,1.859,1.195,2.744c0.298,0.575,1.062,0.702,1.595,0.418c0.784-0.418,1.569-0.835,2.353-1.253
				c0.394-0.211,0.791-0.461,1.029-0.853c0.29-0.479,0.309-1.052,0.132-1.574C122.333,225.79,121.665,224.103,121.041,222.407z"/>
		</g>
		<g>
			<path fill="#FFFFFF" d="M135.667,280.181c0.006-0.161-0.027-0.31-0.1-0.449c-0.047-0.145-0.127-0.27-0.241-0.375
				c-0.079-0.061-0.157-0.122-0.236-0.182c-0.182-0.105-0.378-0.159-0.588-0.159c-0.103,0.014-0.207,0.028-0.31,0.042
				c-0.198,0.055-0.369,0.155-0.514,0.3c-0.072,0.086-0.14,0.177-0.207,0.267c-0.01,0.014-0.02,0.028-0.03,0.042
				c-0.019,0.029-0.036,0.058-0.05,0.089c-0.049,0.103-0.091,0.21-0.134,0.315c-0.006,0.016-0.013,0.032-0.018,0.048
				c-0.012,0.034-0.021,0.069-0.028,0.105c-0.003,0.017-0.006,0.034-0.008,0.051c-0.001,0.007-0.002,0.013-0.003,0.02
				c-0.028,0.079-0.046,0.161-0.05,0.247c-0.035,0.155-0.028,0.31,0.021,0.465c0.01,0.023,0.02,0.047,0.03,0.07
				c0.003,0.017,0.004,0.034,0.007,0.051c0.006,0.036,0.015,0.071,0.026,0.105c0.036,0.152,0.106,0.284,0.209,0.396
				c0.082,0.127,0.191,0.227,0.327,0.3c0.093,0.039,0.186,0.078,0.278,0.118c0.207,0.055,0.413,0.055,0.62,0
				c0.004-0.001,0.008-0.002,0.013-0.003c0.04-0.013,0.25-0.1,0.287-0.121c0.003-0.002,0.007-0.004,0.01-0.006
				c0.015-0.009,0.228-0.173,0.241-0.186c0.003-0.003,0.007-0.006,0.01-0.01c0.019-0.018,0.171-0.216,0.186-0.24
				c0.03-0.051,0.043-0.096,0.07-0.159c0.024-0.057,0.052-0.105,0.065-0.162c0.012-0.05,0.039-0.263,0.043-0.316
				c0-0.004,0.001-0.008,0.001-0.012c0-0.059-0.015-0.129-0.022-0.18c-0.001-0.004-0.002-0.015-0.002-0.021l0,0
				C135.639,280.491,135.673,280.342,135.667,280.181z"/>
			<path fill="#FFFFFF" d="M144.95,275.608c-0.011-0.597,0.043-1.267-0.29-1.794c-0.235-0.372-0.573-0.615-0.984-0.759
				c-0.34-0.119-0.691-0.098-1.038-0.04c-0.289,0.048-0.548,0.188-0.785,0.356c-0.161,0.011-0.319,0.048-0.473,0.113
				c-0.449,0.19-0.778,0.557-0.914,1.03c-0.084,0.294-0.077,0.604-0.072,0.907c0.004,0.248,0.008,0.495,0.013,0.743
				c0.005,0.312,0.013,0.612,0.064,0.922c0.074,0.447,0.361,0.811,0.721,1.067c0.482,0.343,1.078,0.299,1.628,0.226
				c0.28-0.037,0.56-0.074,0.839-0.112c0.578-0.078,1.048-0.397,1.24-0.971c0.099-0.297,0.068-0.625,0.063-0.934
				C144.959,276.11,144.955,275.859,144.95,275.608z"/>
			<path fill="#FFFFFF" d="M154.185,264.943c-0.152-0.704-0.213-1.527-0.726-2.076c-0.108-0.116-0.233-0.208-0.368-0.277
				c-0.082-0.093-0.175-0.178-0.285-0.262c-0.413-0.314-1.049-0.356-1.528-0.197c-0.492,0.164-0.916,0.492-1.176,0.944
				c-0.501,0.869-0.281,1.914-0.119,2.842c0.072,0.414,0.156,0.827,0.252,1.236c0.114,0.486,0.2,1.055,0.555,1.431
				c0.271,0.287,0.643,0.441,1.039,0.429c0.285-0.009,0.512-0.112,0.767-0.218c0.398-0.164,0.796-0.329,1.194-0.493
				c0.28-0.116,0.547-0.252,0.697-0.536c0.151-0.286,0.186-0.58,0.117-0.898C154.464,266.228,154.324,265.586,154.185,264.943z"/>
			<path fill="#FFFFFF" d="M160.096,250.291c-0.068-0.442-0.116-0.928-0.351-1.321c-0.359-0.602-1.062-0.994-1.771-0.816
				c-0.034,0.009-0.063,0.022-0.096,0.032c-0.005-0.001-0.009-0.004-0.014-0.005c-0.715-0.142-1.452-0.198-2.124,0.141
				c-0.835,0.42-1.055,1.291-1.066,2.154c-0.019,1.455,0.205,2.931,0.65,4.316c0.231,0.719,1.037,1.081,1.713,0.697
				c0.047-0.028,0.095-0.054,0.144-0.079c0.116-0.055,0.098-0.049-0.054,0.017c0.068-0.057,0.227-0.08,0.312-0.102
				c0.053-0.014,0.106-0.026,0.16-0.037c0.13-0.023,0.107-0.021-0.067,0.003c0.055-0.037,0.22-0.017,0.287-0.018
				c0.09-0.001,0.178,0.005,0.267,0.009c0.039,0.007,0.077,0.015,0.115,0.024c0.101,0.024,0.199,0.057,0.298,0.089
				c0.038,0.018,0.075,0.037,0.112,0.057c0.791,0.421,1.726-0.105,1.754-1.007c0.028-0.879,0.003-1.759-0.079-2.635
				C160.239,251.301,160.173,250.795,160.096,250.291z"/>
			<path fill="#FFFFFF" d="M167.201,236.046c-0.349-1.884-0.698-3.768-1.046-5.652c-0.178-0.96-0.354-1.92-0.533-2.88
				c-0.171-0.918-0.533-1.837-1.507-2.146c-1.554-0.494-2.997,0.781-3.591,2.114c-0.002,0.004-0.003,0.008-0.004,0.011
				c-0.182,0.11-0.311,0.247-0.396,0.397c-0.743-0.136-1.657,0.458-1.425,1.429c0.554,2.321,1.295,4.59,2.219,6.791
				c0.434,1.033,0.863,2.555,2.218,2.618c0.66,0.03,1.283-0.354,1.866-0.616c0.555-0.25,1.109-0.499,1.664-0.749
				C167.159,237.141,167.288,236.518,167.201,236.046z"/>
		</g>
	</g>
</g>
<g id="参考">
</g>
</svg>
