<?xml version="1.0" encoding="utf-8"?>
<!-- Generator: Adobe Illustrator 24.0.3, SVG Export Plug-In . SVG Version: 6.00 Build 0)  -->
<svg version="1.1" xmlns="http://www.w3.org/2000/svg" xmlns:xlink="http://www.w3.org/1999/xlink" x="0px" y="0px"
	 viewBox="0 0 1200 850" enable-background="new 0 0 1200 850" xml:space="preserve">
<g id="レイヤー1">
	<g>
		<path fill="#F8F5E6" d="M681.613,374.445c-1.357-20.417-14.389-38.018-20.543-57.533c-4.303-13.646-3.12-30.945,4.782-41.738
			c-4.731-6.68-8.06-14.68-11.699-22.11c-6.563-13.399-14.908-25.832-23.226-38.217c-5.472-8.148-11.052-16.416-18.61-22.676
			c-8.323-6.893-18.566-10.959-28.622-14.916c-9.988-3.931-19.976-7.861-29.963-11.792c-4.507-1.774-9.555-3.556-14.055-1.765
			c-2.593,1.032-4.6,3.121-6.468,5.195c-6.683,7.42-12.714,15.428-17.998,23.9c-3.802,6.095-7.357,12.593-13.003,17.034
			c-6.953,5.469-16.469,7.304-22.606,13.676c-2.983,3.097-4.968,7.089-8.172,9.957c-8.243,7.378-20.979,4.948-31.81,7.198
			c-5.726,1.189-10.974,3.74-16.139,6.541c-6.505-1.684-13.011-3.367-19.516-5.051c-4.716-1.221-9.479-2.459-13.8-4.708
			c-5.157-2.683-9.497-6.709-14.523-9.63c-7.879-4.581-17.145-6.288-25.133-10.677c-4.628-2.543-8.776-5.961-13.632-8.035
			c-4.856-2.074-10.891-2.56-15.096,0.633c-2.096,1.592-3.497,3.904-5.12,5.977c-1.954,2.497-4.298,4.679-6.906,6.481
			c-1.521-0.735-3.086-1.381-4.707-1.91c-2.798-0.913-5.701-1.465-8.529-2.282c-11.853-3.424-21.805-11.279-32.286-17.911
			c-0.33-0.969-0.62-1.946-0.85-2.938c-1.862-8.02-0.026-16.609-2.272-24.531c-1.902-6.71-6.543-12.272-11.355-17.321
			c-7.988-8.381-16.796-15.98-26.258-22.654c-5.289-3.73-10.923-7.232-17.238-8.647c-6.315-1.416-13.48-0.434-18.249,3.942
			c-7.02,6.44-6.918,17.837-12.997,25.171c-0.534,0.644-1.109,1.249-1.718,1.822c-15.618-3.54-31.441-4.523-45.859,1.751
			c-4.385,1.908-8.517,4.456-13.114,5.77c-7.127,2.037-14.713,0.944-22.125,0.98c-7.412,0.036-15.542,1.629-20.162,7.425
			c-4.144,5.2-4.598,12.766-9.195,17.571c-6.104,6.381-16.315,5.176-25.139,5.544c-22.197,0.926-41.681,14.547-63.064,20.574
			c-18.043,5.085-38.145,5.027-54.367,13.765v352.204c37.292,17.492,79.068,25.298,119.904,32.737
			c32.278,5.881,64.859,11.785,97.648,10.636c53.983-1.891,105.275-22.69,155.248-43.194c16.585-6.805,33.262-13.656,48.464-23.156
			c18.869-11.791,35.629-27.724,56.783-34.621c24.257-7.908,50.598-2.782,76.081-4.03c52.536-2.573,99.473-31.95,143.701-60.421
			c15.529-9.997,31.259-20.162,43.61-33.893C674.062,410.841,682.838,392.873,681.613,374.445z"/>
		<g>
			<g>
				<path fill="#E6E0D6" d="M580.14,229.022c-1.199-3.718-5.325-5.58-9.124-6.494c-3.798-0.914-7.946-1.438-10.85-4.051
					l-68.919-4.938c-4.662,1.07-9.02,3.436-12.457,6.764c-0.629,0.609-1.243,1.272-1.557,2.089
					c-0.385,1.002-0.279,2.116-0.168,3.184c0.916,8.762,1.833,17.523,2.749,26.285c0.228,2.181,0.473,4.42,1.476,6.371
					c2.903,5.643,10.54,6.518,16.872,6.092c4.171-0.28,8.321-0.807,12.468-1.333c1.683-0.214,3.383-0.431,4.975-1.017
					c1.168-0.43,2.252-1.048,3.335-1.665c6.24,2.396,12.547,4.619,18.853,6.839c2.87,1.011,5.782,2.03,8.817,2.252
					c2.827,0.207,5.654-0.288,8.446-0.78c2.917-0.514,5.833-1.028,8.75-1.543c2.771-0.488,5.663-1.029,7.885-2.754
					c3.335-2.588,4.324-7.121,5.089-11.273c1.081-5.865,2.163-11.73,3.244-17.595C580.418,233.321,580.805,231.084,580.14,229.022z"
					/>
			</g>
			<g>
				<path fill="#F8F2EA" d="M539.136,238.54c4.386-0.506,8.66-1.792,13.057-2.186c8.619-0.774,17.407,1.896,25.889,0.176
					c0.621-0.126,1.225-0.3,1.831-0.469c0.037-0.203,0.075-0.406,0.112-0.609c0.393-2.131,0.78-4.368,0.115-6.431
					c-1.199-3.718-5.325-5.58-9.124-6.494c-3.798-0.914-7.946-1.438-10.85-4.051l-68.919-4.938c-4.662,1.07-9.02,3.436-12.457,6.764
					c-0.486,0.471-0.959,0.976-1.296,1.557c10.184,5.207,21.319,8.724,32.315,12.064C519.35,236.819,529.232,239.683,539.136,238.54
					z"/>
			</g>
			<path fill="#E6E0D6" d="M579.303,192.067c-1.833-8.128-6.074-15.408-10.256-22.566c-0.053-4.169,0.039-8.338,0.308-12.5
				c0.191-2.958,0.463-5.91,0.815-8.853c0.336-2.803,0.969-5.618,1.126-8.437c0.093-1.665,0.018-4.463-2.006-4.989
				c-1.88-0.489-3.181,1.119-3.756,2.689c-1.968,5.376-3.317,11.045-4.991,16.52c-1.04,3.402-2.174,6.821-3.714,10.03
				c-2.786,1.029-5.732,1.595-8.694,1.974c-4.526,0.579-9.105,1.016-13.668,1.115c-6.49,0.142-13.23-0.643-19.097-3.42
				c-4.662-7.808-7.245-16.603-10.686-25.091c-0.764-1.886-2.073-3.788-4.29-3.954c-2.072-0.155-3.324,1.498-3.9,3.289
				c-0.929,2.886-1.279,6.078-1.798,9.061c-0.564,3.24-1.064,6.491-1.504,9.751c-0.604,4.471-1.075,8.956-1.444,13.451
				c-2.503,4.94-4.669,10.048-6.449,15.297c-2.366,6.977-4.503,14.511-5.047,21.889c-0.231,3.135,0.365,6.172,2.629,8.476
				c2.339,2.379,5.619,4.032,8.562,5.521c6.741,3.413,13.962,5.345,21.54,5.238c3.415-0.048,6.838-0.231,10.262-0.475
				c13.558,2.579,27.407,4.155,41.032,1.282c3.843-0.81,7.601-1.981,11.204-3.546c1.399-0.608,3.126-1.181,4.099-2.425
				c0.978-1.251,0.888-2.978,0.954-4.482C580.895,208.626,581.141,200.212,579.303,192.067z"/>
			<g>
				<path fill="#FFFFFF" d="M524.259,174.282c0.001,0.045-0.006,0.091-0.002,0.136c0.032,0.348,0.099,0.692,0.309,0.982
					c0.12,0.165,0.264,0.312,0.426,0.433c0.06,0.068,0.099,0.15,0.17,0.21c0.184,0.153,0.401,0.281,0.652,0.27
					c0.245-0.011,0.474-0.094,0.652-0.27c0.83-0.821,0.995-2.091,0.501-3.128c-0.116-0.244-0.309-0.43-0.531-0.576
					c-0.082-0.15-0.177-0.292-0.306-0.414c-0.362-0.344-0.871-0.515-1.348-0.314c-0.805,0.34-0.926,1.347-0.749,2.105
					C524.081,173.915,524.163,174.103,524.259,174.282z"/>
				<path fill="#FFFFFF" d="M544.547,175.624c0.108,0.183,0.213,0.368,0.347,0.536c0.062,0.048,0.124,0.096,0.187,0.144
					c0.106,0.067,0.22,0.104,0.343,0.109c0.195,0.026,0.419,0.003,0.588-0.109c0.306-0.203,0.502-0.456,0.628-0.797
					c0.098-0.264,0.087-0.531,0.048-0.802c0.161-0.643,0.156-1.336-0.082-1.937c-0.087-0.221-0.203-0.434-0.424-0.551
					c-0.191-0.101-0.453-0.166-0.669-0.096c-0.204-0.109-0.433-0.15-0.673-0.083c-0.322,0.089-0.542,0.334-0.644,0.644
					c-0.04,0.124-0.042,0.252-0.067,0.378c-0.001,0.001-0.002,0.002-0.003,0.003c-0.305,0.432-0.313,1.007-0.113,1.485
					C544.051,174.95,544.27,175.314,544.547,175.624z"/>
				<path fill="#FFFFFF" d="M562.783,176.782c-3.101,3.191-8.095,6.896-12.807,6.214c-2.528-0.366-5.006-1.103-7.535-1.504
					c-2.453-0.389-4.925-0.675-7.404-0.828c-2.393-0.148-4.792-0.157-7.171,0.171c-1.22,0.168-2.466,0.574-3.696,0.605
					c-1.36,0.034-2.83-0.408-4.148-0.723c-4.566-1.092-9.574-3.052-11.535-7.702c-0.454-1.077-2.24-0.604-1.779,0.49
					c1.891,4.485,6.023,7.011,10.534,8.38c2.471,0.75,5.419,1.686,8.017,1.292c2.907-0.441,5.627-0.853,8.58-0.732
					c3.029,0.124,6.055,0.468,9.042,0.979c2.784,0.475,5.736,1.593,8.58,1.524c4.689-0.114,9.492-3.637,12.625-6.861
					C564.915,177.235,563.612,175.929,562.783,176.782z"/>
			</g>
		</g>
		<path fill="#F4E6E5" d="M-65.181,814.514V255.421c67.498-25.103,143.312-18.176,213.943-2.626
			c34.283,7.548,68.459,17.054,103.542,18.269c62.808,2.176,127.715-22.088,187.157-1.687c29.241,10.036,54.694,30.347,84.989,36.51
			c13.042,2.653,26.492,2.556,39.771,1.66c53.221-3.592,105.741-19.816,158.935-15.842c18.534,1.384,36.788,5.21,54.978,9.027
			c14.997,3.147,29.994,6.294,44.991,9.441c19.866,4.169,42.392,10.522,53.468,26.378c-4.213,10.874-8.426,21.749-12.639,32.623
			c-4.183,10.796-8.381,21.641-10.918,32.938c-1.362,6.063-2.236,12.22-2.994,18.391c1.044,5.584,1.435,11.212,0.258,16.738
			c-0.662,3.105-1.804,6.084-2.941,9.047c-3.97,10.345-7.944,20.698-12.542,30.779c-1.281,2.809-2.632,5.675-2.857,8.754
			c-0.1,1.373,0.012,2.827-0.623,4.049c-0.441,0.85-1.199,1.488-1.974,2.05c-6.16,4.472-14.739,5.366-21.689,2.26
			c-1.489-0.665-2.97-1.516-4.6-1.55c-1.344-0.029-2.625,0.504-3.912,0.893c-3.167,0.958-6.586,1.065-9.807,0.307
			c-0.775-6.608-2.254-13.106-3.858-19.568c-3.111,0.355-6.313-0.112-9.126-1.496c-2.55,0.195-5.141-0.162-7.544-1.039
			c-1.859-1.918-3.824-3.731-5.874-5.443c-0.121,0.423-0.25,0.844-0.34,1.278c-0.664,3.231-1.141,7.53-4.379,8.157
			c-2.501,0.484-4.801-1.868-7.344-1.719c-1.41,0.083-2.644,0.921-3.951,1.457c-3.149,1.29-6.708,0.81-10.074,0.31
			c-0.218-0.032-0.436-0.065-0.654-0.097c-4.012,3.357-8.21,6.602-10.919,10.995c-1.072,1.739-1.9,3.645-3.212,5.211
			c-2.919,3.485-7.668,4.705-12.096,5.734c-0.905,0.21-1.831,0.422-2.755,0.323c-1.759-0.189-3.204-1.458-4.888-1.999
			c-1.817-0.583-3.782-0.287-5.68-0.082c-0.043,0.005-0.087,0.006-0.131,0.01c-2.95,3.118-5.733,6.394-8.31,9.826
			c-3.482,4.637-6.615,9.549-10.446,13.903c-1.867,2.121-3.891,4.099-5.912,6.074c-3.68,3.596-7.36,7.192-11.04,10.788
			c-7.538,7.366-15.142,14.777-23.267,21.476c-2.755,11.169-8.279,21.666-16.104,30.105c-5.295,5.711-11.632,10.586-15.694,17.23
			c-2.414,3.949-3.925,8.372-5.933,12.542c-10.177,21.135-31.843,33.854-52.303,45.327c-3.732,2.093-8.119,4.244-12.101,2.679
			c-2.567-1.009-4.321-3.356-5.935-5.591c-3.823-5.292-7.645-10.584-11.468-15.876c-5.58,3.978-11.161,7.955-16.741,11.933
			c-3.254,2.32-6.601,4.684-10.463,5.713c-4.915,1.31-10.116,0.322-15.105-0.67c-3.466-0.689-7.195-1.524-9.524-4.183
			c-2.511-2.866-2.889-7.342-5.903-9.675c-3.705-2.869-9.038-0.934-13.264,1.089c-11.915,5.703-23.831,11.407-35.746,17.11
			c-3.584,1.715-7.212,3.46-10.235,6.038c-2.221,1.895-4.056,4.191-6.017,6.354c-1.735,1.913-3.575,3.728-5.481,5.471
			c-13.28,12.142-31.899,20.919-49.121,15.704c-2.687-0.814-5.49-1.964-8.208-1.261c-2.274,0.588-4.01,2.361-5.895,3.763
			c-1.795,1.335-3.747,2.339-5.804,3.098c-3.147,4.118-5.732,8.571-7.29,13.539c-0.958,3.053-1.5,6.219-2.039,9.374
			c-1.384,8.1-2.768,16.201-4.152,24.301c-0.327,1.914-0.659,3.846-1.397,5.643c-1.136,2.765-3.163,5.049-4.834,7.527
			c-4.445,6.594-6.344,14.518-9.257,21.918c-3.905,9.922-9.638,18.896-16.132,27.385c0,0-38.324,45.768-61.359,57.446
			s-61.897,13.358-68.256,19.395S71.673,964.665,3.257,951.53c-20.415-3.919-67.419-30.724-68.438-33.49
			S-65.181,814.514-65.181,814.514"/>
		<g>
			<path fill="#E5CEBF" d="M-65.181,814.514V255.421c67.498-25.103,143.312-18.176,213.943-2.626
				c34.283,7.548,68.459,17.054,103.542,18.269c62.808,2.176,127.715-22.088,187.157-1.687
				c29.241,10.036,54.694,30.347,84.989,36.51c13.042,2.653,26.492,2.556,39.771,1.66c53.221-3.592,105.741-19.816,158.935-15.842
				c18.534,1.384,36.788,5.21,54.978,9.027c14.997,3.147,29.994,6.294,44.991,9.441c19.866,4.169,42.392,10.522,53.468,26.378
				c-4.213,10.874-8.426,21.749-12.639,32.623c-1.397,3.605-2.79,7.217-4.127,10.848c-2.533,1.887-5.279,3.469-8.249,4.627
				c-5.231,2.039-10.937,2.732-16.054,5.044c-16.74,7.565-22.244,29.557-37.832,39.275c-2.21,1.378-4.677,2.502-7.281,2.562
				c-2.052,0.047-4.054-0.567-6.039-1.089c-6.644-1.748-13.542-2.492-20.407-2.254c-1.077,1.199-2.181,2.353-3.345,3.404
				c-4.255,3.845-9.446,6.471-14.568,9.051c-15.681,7.897-31.824,15.933-49.303,17.597c-3.962,0.377-8.141,0.475-11.559,2.514
				c-4.624,2.758-6.715,8.373-10.768,11.917c-5.093,4.453-12.372,4.995-18.969,6.49c-11.198,2.539-21.605,8.463-29.504,16.797
				c-7.812,8.241-13.129,18.65-21.308,26.526c-4.766,4.59-11.152,8.174-17.583,9.224c-8.158,12.624-18.612,24.571-23.039,38.857
				c-1.839,5.936-2.895,12.693-7.688,16.648c-4.868,4.017-12.333,3.936-16.815,8.38c-3.739,3.708-4.543,9.794-8.662,13.074
				c-2.844,2.266-6.668,2.71-10.197,3.589c-9.486,2.362-17.645,8.273-26.596,12.202c-8.951,3.929-20.093,5.606-27.981-0.169
				c-4.879-3.572-7.962-9.628-13.612-11.78c-7.852-2.991-16.01,2.905-24.185,4.844c-11.154,2.645-21.966-2.195-31.725-8.92
				c-6.606,5.914-13.687,11.298-21.155,16.078c-2.346,1.501-4.894,2.992-7.68,2.969c-2.902-0.023-5.643-1.702-8.537-1.492
				c-2.944,0.214-5.363,2.31-7.532,4.313c-7.373,6.81-14.598,13.777-21.823,20.743c-5.748,5.542-11.496,11.084-17.244,16.626
				c-12.593,12.142-25.764,25.269-29.749,42.302c-1.145,4.892-1.508,10.048-3.713,14.564c-3.077,6.302-9.245,10.41-15.136,14.214
				c-8.172,5.277-16.902,10.734-26.628,10.947c-4.304,0.094-8.771-1.303-12.365-3.73c-9.056,2.082-18.613,1.892-27.464-0.99
				c-3.825-1.245-7.822-2.957-11.725-1.982c-5.936,1.482-8.616,8.182-12.778,12.667c-7.257,7.82-19.093,8.769-29.753,9.203
				c-9.567,0.39-19.134,0.779-28.701,1.169c-0.303,0.679-0.613,1.353-0.941,2.014c-7.835,15.775-24.293,25.215-40.41,32.318
				c-10.27,4.526-20.977,8.62-30.68,14.149C33.09,825.077,19.714,843.75,14.63,852.68c-5.084,8.93-33.092,2.03-37.557-20.296
				c-4.465-22.326-26.658-14.199-34.503-10.96S-65.181,814.514-65.181,814.514z"/>
		</g>
		<path fill="#CAA582" d="M823.125,310.173c-14.997-3.147-29.994-6.294-44.991-9.441c-18.19-3.817-36.444-7.643-54.978-9.027
			c-53.194-3.973-105.714,12.25-158.935,15.842c-13.279,0.896-26.729,0.994-39.771-1.66c-30.295-6.163-55.748-26.474-84.989-36.51
			c-59.442-20.402-124.349,3.862-187.157,1.687c-35.083-1.215-69.259-10.721-103.542-18.269
			c-70.63-15.551-146.445-22.477-213.943,2.626v470.725c1.826,0.277,3.682,0.162,5.44-0.466c2.709-0.968,4.921-3.021,7.618-4.02
			c7.751-2.871,16.87,3.637,24.398,0.224c6.488-2.942,7.961-11.406,7.99-18.53c0.029-7.124-0.116-15.253,5.129-20.074
			c3.612-3.32,8.805-4.061,13.591-5.142c13.895-3.139,26.697-10.599,36.576-20.847c2.671,3.421,5.715,6.551,9.103,9.264
			c1.016,0.814,2.129,1.62,3.422,1.769c2.359,0.273,4.325-1.653,5.996-3.34c8.923-9.006,20.599-15.488,33.159-17.211
			c2.81-0.386,5.678-0.543,8.571-0.594c4.376,16.921,10.707,33.336,18.855,48.798c1.482,2.812,3.093,5.677,5.614,7.614
			c1.976,1.519,4.375,2.36,6.73,3.178c9.8,3.404,20.495,6.825,30.323,3.503c2.632-0.89,5.114-2.246,7.83-2.834
			c9.117-1.974,17.539,4.936,26.526,7.437c1.505,0.419,3.132,0.71,4.609,0.203c1.685-0.578,2.86-2.074,3.918-3.507
			c4.374-5.923,9.499-12.654,16.849-13.087c3.161-0.186,6.261,0.88,9.422,1.062c4.572,0.264,8.944-1.382,12.648-4.111
			c3.209,1.386,6.574,2.409,10.019,3.011c3.908,0.682,8.17,0.786,11.584-1.235c4.76-2.819,6.433-8.753,8.044-14.046
			c10.318-33.887,34.856-63.195,66.4-79.311c8.387-4.285,17.994-8.416,21.752-17.052c1.745-4.01,2.042-8.71,4.718-12.17
			c4.998-6.463,15.501-5.434,21.576-10.897c3.668-3.299,5.067-8.373,6.217-13.17c0.981-4.088,1.901-8.191,2.771-12.305
			c10.641-3.043,21.282-6.086,31.923-9.129c2.404-0.687,4.882-1.413,6.813-3.001c3.455-2.842,4.338-7.658,6.072-11.783
			c3.925-9.336,12.932-15.811,22.578-18.9s19.966-3.221,30.09-2.955c3.087,0.081,6.289,0.175,9.128-1.039
			c4.125-1.765,6.629-5.877,9.405-9.402c7.445-9.45,17.854-15.415,29.208-19.743c10.084,0.003,20.615-1.045,29.603,3.054
			c6.139,2.8,11.321,7.93,17.973,9.058c10.984,1.863,20.173-7.548,29.767-13.211c14.965-8.833,34.326-9.359,47.564-20.617
			c2.798-2.38,5.302-5.228,8.628-6.789c5.183-2.433,11.38-1.299,16.82-3.087c5.864-1.928,10.066-6.93,14.483-11.24
			c2.435-2.376,5.032-4.583,7.75-6.629c1.035,0.09,2.065,0.109,3.066,0.048c7.687-0.469,15.311-3.525,22.893-2.178
			c4.109,0.73,7.939,2.728,12.087,3.189c12.852,1.426,22.037-11.327,31.742-19.871c15.582-13.717,37.012-17.988,56.996-23.612
			c10.929-3.076,22.206-7.129,31.766-13.172c2.674-6.9,5.347-13.801,8.02-20.701C865.517,320.696,842.991,314.342,823.125,310.173z"
			/>
		<g>
			<path fill="#A98861" d="M-60.103,399.271c-8.463,3.055-16,9.395-19.7,17.455c-4.2,2.132-7.996,5.232-11.301,8.623
				c-10.4,10.67-17.384,26.207-13.276,40.53c4.454,15.53,20.339,25.418,25.908,40.584c1.12,3.049,1.901,6.397,2.801,9.648
				c-2.084,11.13-1.448,22.77,1.914,33.586c2.288,7.359,5.976,14.542,11.976,19.377c11.969,9.644,29.807,7.756,43.024,15.603
				c4.081,2.423,7.576,5.696,11.296,8.642c16.933,13.408,38.198,19.835,58.905,25.978c4.215,1.251,8.505,2.512,12.902,2.493
				c4.447-0.019,8.78-1.348,13.203-1.821c5.546-0.593,11.138,0.167,16.663,0.926c7.149,0.982,14.297,1.963,21.446,2.945
				c7.383,1.014,15.153,1.932,22.675,1.729c0.19,0.197,0.387,0.387,0.592,0.566c3.391,2.964,8.117,3.84,12.615,4.069
				c4.879,0.248,9.79-0.13,14.573-1.123c4.984-1.034,9.825-2.73,14.853-3.527c6.525-1.034,13.188-0.527,19.78-0.962
				c21.86-1.442,41.756-13.065,63.29-17.092c8.165-1.527,16.723-2.011,24.14-5.752c11.275-5.687,17.719-17.713,22.793-29.277
				c2.814-6.414,5.501-13.034,10.055-18.355c3.355-3.92,7.587-6.97,11.501-10.333c4.325-3.716,8.271-7.865,11.802-12.341
				c2.708,0.276,5.488,0.041,8.04-0.727c8.296-2.499,14.719-8.914,20.944-14.94c10.96-10.61,23.372-21.158,38.475-23.296
				c3.764-0.533,7.73-0.556,11.093-2.327c2.776-1.462,4.828-3.957,7.064-6.158c8.741-8.603,20.677-12.979,32.222-17.116
				c2.112-0.757,4.294-1.525,6.535-1.406c2.773,0.147,5.268,1.623,7.751,2.866c5.433,2.72,11.347,4.475,17.384,5.159
				c1.369,0.155,2.826,0.24,4.053-0.386c1.315-0.671,2.112-2.027,2.839-3.312c7.686-13.6,122.122-15.343,93.141-45.949
				L-60.103,399.271z"/>
		</g>
		<path fill="#DAB185" d="M823.125,310.173c-2.642-0.554-5.284-1.109-7.926-1.663c-12.355-2.592-24.71-5.185-37.065-7.777
			c-18.19-3.817-36.444-7.643-54.978-9.027c-53.194-3.973-105.714,12.25-158.935,15.842c-13.279,0.896-26.729,0.994-39.771-1.66
			c-30.295-6.163-55.748-26.474-84.989-36.51c-59.442-20.402-124.349,3.862-187.157,1.687
			c-35.083-1.215-69.259-10.721-103.542-18.269c-70.63-15.551-146.445-22.477-213.943,2.626v161.994
			c4.01,3.694,8.02,7.388,12.031,11.081c1.375,1.267,2.751,2.534,4.126,3.8c5.642,5.197,11.423,10.487,18.446,13.574
			c4.409,1.939,9.163,2.941,13.877,3.93c15.016,3.152,30.101,6.306,45.277,8.534c6.082,8.445,15.153,15.129,23.82,21.246
			c2.229,1.573,4.55,3.185,7.231,3.685c2.895,0.54,5.844-0.28,8.722-0.907c22.375-4.871,45.708,1.959,66.435,11.693
			c7.843,3.683,15.703,7.855,24.312,8.832c8.539,0.968,17.122-1.306,25.17-4.318c17.719-6.629,33.764-16.791,50.005-26.589
			c26.736,4.958,53.787,8.219,80.936,9.747c9.432,0.531,19.198,0.801,27.981-2.68c7.675-3.042,13.969-8.704,20.989-13.05
			c18.733-11.598,42.166-13.567,61.007-24.987c2.137-1.295,4.223-2.714,6.311-4.127c11.792,0.755,23.419-2.895,35.103-4.858
			c12.038-2.022,25.543-1.871,35.023,5.819c2.135,1.732,4.13,3.873,6.802,4.519c2.876,0.695,5.829-0.509,8.572-1.617
			c14.832-5.992,30.526-9.843,46.447-11.396c4.995-0.487,10.178-0.796,14.621-3.128c3.993-2.096,7.007-5.634,10.603-8.356
			c12.433-9.41,31.342-9.075,45.216-14.748c6.081,2.271,12.265,4.267,18.537,5.941c3.237,0.864,6.707,1.641,9.882,0.573
			c2.825-0.95,4.974-3.216,7.001-5.401c5.813-6.267,11.626-12.533,17.439-18.8c2.409-2.596,4.943-5.279,8.261-6.518
			c5.013-1.872,10.541-0.056,15.857,0.554c19.484,2.237,36.738-11.876,50.568-25.78c2.094-2.105,4.216-4.245,6.372-6.373
			c1.723-1.701,3.466-3.394,5.242-5.049c0.456,0.074,0.909,0.153,1.357,0.238c6.177,1.174,12.486,3.08,18.633,1.758
			c6.998-1.506,12.482-6.928,19.151-9.53c6.919-2.699,15.226-2.441,20.832-7.312c1.844-1.602,3.55-3.815,5.989-3.933
			c1.802-0.087,3.406,1.031,4.945,1.972c3.787,2.315,8.591-0.192,13.615-4.415C847.019,315.738,834.628,312.587,823.125,310.173z"/>
		<g>
			<path fill="#E9E6D1" d="M7.575,179.829c-1.779,1.47-3.424,3.095-4.882,4.936c-2.926,3.695-5.015,8.163-8.76,11.026
				c-2.081,1.591-4.565,2.575-7.135,3.124c1.707,2.626,3.38,5.323,5.006,8.1c0.521-0.585,1.036-1.172,1.537-1.762
				C0.107,197.291,4.897,188.684,7.575,179.829z"/>
			<path fill="#E9E6D1" d="M79.127,234.973c2.378-0.957,4.582-2.259,6.521-4.092c3.249-3.072,5.226-7.213,7.734-10.915
				c1.085-1.602,2.298-3.132,3.617-4.563c2.402-4.486,4.805-8.972,7.207-13.458c0.876-1.636,1.796-3.324,3.277-4.441
				c2.176-1.642,5.109-1.737,7.835-1.766c0.589-0.006,1.178-0.012,1.768-0.016c-0.539-3.132-0.963-6.284-1.25-9.45
				c-7.796-4.838-15.089-10.486-21.685-16.864c-0.776-0.751-1.544-1.517-2.3-2.296c-6.915,14.204-10.029,29.119-16.799,43.355
				C76.054,218.655,77.24,226.952,79.127,234.973z"/>
			<path fill="#E9E6D1" d="M28.662,277.308c-5.073-4.854-11.027-8.768-15.748-13.965c-0.378-0.416-0.735-0.848-1.094-1.278
				c1.904,12.094,2.407,24.764,0.931,37.002c-0.192,1.589-0.429,3.189-0.755,4.715c1.925-0.209,3.858-0.35,5.78-0.441
				c7.948-0.375,16.337,0.096,23.115,4.263c2.077,1.277,3.859,2.911,5.347,4.782c-0.554-2.967-1.134-5.922-1.913-8.774
				C41.602,293.647,36.125,284.45,28.662,277.308z"/>
			<path fill="#E9E6D1" d="M861.451,313.215c-6.106,1.763-14.113,2.587-21.484,2.111c-13.222-0.853-24.166-4.747-32.761-9.108
				c0.759,4.655,0.759,9.4-0.216,14.023c-0.094,0.445-0.199,0.892-0.323,1.334c3.781-1.771,7.584-3.491,11.449-5.06
				c4.437-1.801,9.394-3.415,13.922-1.858c3.2,1.101,5.667,3.623,8.47,5.52c4.492,3.04,10.2,4.492,15.474,3.227
				c3.494-0.837,6.7-2.979,8.784-5.872c-0.297-0.695-0.663-1.352-1.097-1.927C863.007,314.73,862.252,313.948,861.451,313.215z"/>
			<path fill="#E9E6D1" d="M172.008,201.362c6.779-2.338,14.413-1.232,21.82,1.071c0.877-0.464,1.775-0.876,2.694-1.232
				c-7.261-10.261-16.624-19.154-24.719-28.882c-11.302-13.582-20.302-29.044-29.615-44.177c-5.983,0.483-11.833,1.529-17.39,3.74
				C146.935,148.746,158.012,176.191,172.008,201.362z"/>
			<path fill="#E9E6D1" d="M534.26,323.706c0.366,0.357,0.722,0.722,1.066,1.096c1.24-1.035,2.591-1.936,4.026-2.677
				C537.653,322.523,535.956,323.064,534.26,323.706z"/>
			<path fill="#E9E6D1" d="M680.293,264.697c2.55-1.385,5.564-2.549,8.925-3.342c3.819-2.474,8.971-4.527,14.816-5.967
				c-7.706-2.43-15.611-4.225-23.613-5.347c-5.074-0.712-10.493-1.105-15.09,1.159c-0.152,0.075-0.292,0.166-0.441,0.245
				C671.168,253.87,675.967,259.36,680.293,264.697z"/>
			<path fill="#E9E6D1" d="M55.255,336.987c-1.59-1.783-2.844-3.745-3.878-5.825c-0.557,4.715-2.432,9.223-5.733,12.704
				c-5.012,5.285-12.103,7.927-18.62,11.179c-6.568,3.277-12.753,7.318-18.393,12.014c21.371-2.007,42.928-1.968,64.298,0.056
				c-6.627-7.681-11.596-17.03-13.84-26.675C57.709,339.428,56.418,338.291,55.255,336.987z"/>
			<path fill="#E9E6D1" d="M473.562,237.328c2.519,0.075,5.038,0.181,7.547,0.242c-2.607-1.122-5.321-1.896-8.096-2.459
				c0.027,0.116,0.052,0.232,0.079,0.347C473.237,236.083,473.403,236.706,473.562,237.328z"/>
			<path fill="#E9E6D1" d="M770.253,330.248c-12.242,1.944-24.416-2.277-34.711-9.497c-1.103,1.774-2.298,3.536-3.635,5.278
				c-6.763,8.812-18.444,17.484-34.426,22.916c0.405,3.194-0.174,6.337-2.191,8.984c-1.617,2.122-3.929,3.585-6.189,5.002
				c-5.922,3.712-11.975,7.481-18.763,9.143c-6.39,1.565-13.075,1.174-19.642,0.773c-18.776-1.146-37.552-2.291-56.327-3.437
				c-10.215,5.193-21.578,9.06-28.759,17.753c2.198-0.081,4.4-0.286,6.585-0.499c7.481-0.728,14.961-1.457,22.442-2.185
				c0.621-0.06,1.247-0.126,1.873-0.198c11.019,4.965,24.971,4.438,37.038,1.186c16.607-4.476,32.196-12.997,49.292-14.881
				c7.841-0.864,15.981-0.333,23.385-3.055c5.454-2.005,10.126-5.647,14.699-9.232c7.984-6.26,15.968-12.52,23.952-18.78
				c9.743,0.924,19.936-0.76,29.314-3.818c7.103-2.316,13.925-5.346,20.689-8.528c-1.444-0.172-2.889-0.378-4.262-0.474
				C783.717,326.217,777.084,329.163,770.253,330.248z"/>
			<path fill="#E9E6D1" d="M620.377,329.866c-0.084,0.527-0.173,1.053-0.266,1.578c0.878-0.355,1.759-0.704,2.643-1.044
				C621.956,330.249,621.165,330.064,620.377,329.866z"/>
			<path fill="#E9E6D1" d="M360.042,362.226c-5.491-1.173-11.032-3.679-14.768-7.714c-14.913,0.489-30.458-1.103-44.09,4.905
				c-16.348,7.205-28.288,24.707-46.102,26.054c-10.374,0.785-20.239-4.302-29.037-9.855c-5.054-3.19-10.123-6.733-13.281-11.807
				c-3.158-5.074-3.955-12.062-0.416-16.877c1.939-2.639,4.887-4.314,7.745-5.912c20.17-11.275,40.34-22.55,60.51-33.824
				c1.717-2.423,3.473-4.809,5.334-7.095c3.12-3.832,6.58-7.364,10.302-10.591c-15.455-0.259-30.945-6.024-44.713-13.522
				c-2.339-1.274-4.654-2.62-6.915-4.049c-2.179-0.141-4.453-0.548-6.557-0.695c-6.899-0.481-13.532,2.466-20.363,3.55
				c-9.959,1.581-19.871-0.919-28.765-5.792c-4.997,2.576-10.928,3.669-16.462,2.824c-8.971-1.37-16.768-6.445-23.372-12.843
				c-6.53,10.08-16.224,17.851-26.451,24.23c-1.309,0.816-2.639,1.608-3.979,2.384c0.665,2.158,1.191,4.365,1.588,6.609
				c0.943-0.142,1.893-0.258,2.858-0.308c10.127-0.527,18.928,4.311,26.611,11.207c8.259-1.517,16.552-1.763,24.363,1.08
				c7.83,2.85,14.301,8.557,19.829,14.793c8.767,9.889,15.632,25.11,7.748,35.717c-6.131,8.248-18.009,9.155-28.266,8.521
				c-10.257-0.635-21.53-1.802-29.885,4.182c-2.751,1.97-5.079,4.669-8.265,5.808c-2.485,0.888-5.257,0.728-7.724,1.666
				c-0.863,0.328-1.652,0.785-2.404,1.304c1.617,0.413,3.239,0.811,4.85,1.248c14.974,4.059,29.798,9.164,45.244,10.621
				c13.717,1.294,28.312-0.659,39.784-8.032c3.54,1.078,7.043,2.25,10.446,3.663c9.256,3.843,17.748,9.44,27.207,12.752
				c9.46,3.311,20.64,4.01,28.924-1.632c6.42-4.373,10.118-11.844,16.269-16.588c6.53-5.037,15.06-6.466,23.209-7.736
				c4.451-0.694,8.903-1.388,13.354-2.082c7.431,3.721,15.626,5.905,23.937,6.158c8.507,0.258,17.481-1.284,25.205,2.29
				c5.639,2.609,9.749,7.586,14.473,11.622c13.852,11.832,34.235,15.408,51.327,9.103c2.011-0.742,3.969-1.606,5.895-2.545
				c-25.69-3.497-46.46-25.844-72.387-30.223C375.302,363.522,367.529,363.826,360.042,362.226z"/>
			<path fill="#E9E6D1" d="M38.973,67.438c-1.832,0.317-3.611,0.821-5.194,1.779c-1.109,0.672-2.064,1.538-2.936,2.497
				c1.847,0.136,3.677,0.484,5.481,1.082C36.923,70.868,37.807,69.048,38.973,67.438z"/>
			<path fill="#E9E6D1" d="M399.901,283.783c0.433-7.576,3.577-14.428,8.434-20.348c-2.857-4.613-5.415-9.28-6.897-14.069
				c-0.33-1.068-0.599-2.137-0.823-3.206c-0.612,2.509-1.181,5.05-2.511,7.223c-2.933,4.791-8.886,6.758-14.451,7.526
				c-8.996,1.24-18.566,0.089-26.584-3.975c-1.204,3.592-3.094,6.927-5.732,9.753c-0.135,0.145-0.283,0.277-0.421,0.418
				c8.371-0.569,16.81,0.015,25.017,1.862c9.451,2.126,19.562,6.767,22.839,15.883c3.758,10.454-2.994,21.259-6.734,31.823
				c8.056-0.315,16.127-0.377,24.095,0.454C405.425,308.074,399.234,295.462,399.901,283.783z"/>
			<path fill="#EDD6CE" d="M170.137,253.736c-6.318-7.189-11.627-15.7-12.887-25.188s2.278-20.023,10.388-25.105
				c1.407-0.881,2.868-1.564,4.37-2.082c-13.996-25.17-25.074-52.616-47.21-69.48c-0.491,0.195-0.985,0.378-1.471,0.592
				c-7.498,3.304-14.069,8.774-20.704,13.858c-1.355,5.149-4.843,10.04-7.705,14.976c-1.112,1.918-2.117,3.855-3.066,5.804
				c0.756,0.78,1.524,1.546,2.3,2.296c6.595,6.378,13.889,12.026,21.685,16.864c0.287,3.166,0.711,6.318,1.25,9.45
				c4.579-0.032,9.183,0.054,13.625,1.126c11.857,2.864,21.362,12.915,24.78,24.624s1.116,24.696-5.004,35.246
				c-0.446,0.769-0.914,1.522-1.395,2.265c6.604,6.398,14.401,11.473,23.372,12.843c5.534,0.845,11.465-0.248,16.462-2.824
				C181.856,265.13,175.429,259.758,170.137,253.736z"/>
			<path fill="#E3DFBC" d="M20.166,176.12c8.967-6.359,21.247-3.627,31.806-0.569c4.718,1.366,9.586,2.827,13.328,6.009
				c6.678,5.677,8.147,15.246,9.163,23.952c0.192,1.645,0.389,3.298,0.591,4.955c6.769-14.236,9.884-29.151,16.799-43.355
				c0.948-1.948,1.954-3.886,3.066-5.804c2.862-4.936,6.35-9.827,7.705-14.976c-7.832,6.002-15.754,11.467-25.398,12.196
				c-9.445,0.714-18.464-3.44-26.644-8.38c-0.899,1.64-1.905,3.217-3.071,4.685c-9.819,12.367-27.97,15.111-39.934,24.996
				c-2.678,8.855-7.468,17.462-14.233,25.424c-0.502,0.59-1.017,1.177-1.537,1.762c3.227,5.512,6.264,11.341,8.999,17.562
				c0.73-11.744,4.405-23.196,9.18-33.98C12.403,185.134,15.293,179.576,20.166,176.12z"/>
			<path fill="#D1CDEB" d="M36.734,277.591c-6.344-10.632-6.103-26.183,3.702-33.743c10.538-8.124,26.832-4.105,38.691-8.876
				c-1.886-8.021-3.073-16.318-4.073-24.506c-0.202-1.657-0.399-3.311-0.591-4.955c-1.016-8.706-2.484-18.275-9.163-23.952
				c-3.742-3.182-8.61-4.642-13.328-6.009c-10.559-3.058-22.839-5.79-31.806,0.569c-4.873,3.456-7.763,9.014-10.182,14.477
				c-4.775,10.785-8.451,22.237-9.18,33.98c2.005,4.56,3.853,9.322,5.488,14.333c2.366,7.255,4.257,15.078,5.529,23.154
				c0.36,0.43,0.716,0.862,1.094,1.278c4.721,5.197,10.675,9.111,15.748,13.965c7.463,7.142,12.94,16.34,15.663,26.305
				c0.779,2.851,1.359,5.807,1.913,8.774c4.103,5.161,5.919,12.168,5.139,18.776c1.034,2.08,2.288,4.042,3.878,5.825
				c1.163,1.305,2.454,2.442,3.833,3.452c-2.414-10.373-1.676-21.088,3.589-30.441c0.819-1.455,1.799-2.918,3.279-3.69
				c1.803-0.941,3.964-0.679,5.992-0.518c6.578,0.522,13.259-0.299,19.514-2.398c9.784-3.283,18.715-9.664,28.788-11.184
				c-0.398-2.244-0.923-4.451-1.588-6.609c-12.582,7.285-26.514,12.632-40.992,12.77C61.651,298.522,44.943,291.348,36.734,277.591z
				"/>
			<path fill="#D9D2D9" d="M398.772,284.849c-3.277-9.116-13.388-13.757-22.839-15.883c-8.207-1.846-16.646-2.43-25.017-1.862
				c-3.783,3.882-8.599,6.599-13.353,9.223c-8.546,4.717-17.253,9.428-26.753,11.668c-4.817,1.136-9.692,1.597-14.571,1.516
				c-3.723,3.227-7.182,6.758-10.302,10.591c-1.861,2.286-3.617,4.672-5.334,7.095c-20.17,11.275-40.34,22.55-60.51,33.824
				c-2.858,1.598-5.806,3.273-7.745,5.912c-3.539,4.816-2.742,11.804,0.416,16.877c3.158,5.074,8.227,8.617,13.281,11.807
				c8.798,5.553,18.663,10.64,29.037,9.855c17.814-1.347,29.755-18.85,46.102-26.054c13.632-6.008,29.177-4.416,44.09-4.905
				c-1.358-1.467-2.484-3.13-3.273-5.013c-3.984-9.508,2.257-20.815,11.152-26.026c8.895-5.211,19.643-5.863,29.939-6.386
				c2.976-0.151,5.96-0.299,8.947-0.416C395.778,306.108,402.53,295.303,398.772,284.849z"/>
			<path fill="#D9D2D9" d="M508.693,303.691c-4.595-0.471-8.906-2.243-13.28-3.788c8.848,5.083,17.696,10.167,26.545,15.25
				c4.316,2.48,8.777,5.117,12.302,8.553c1.695-0.642,3.393-1.183,5.092-1.581c0.383-0.198,0.772-0.382,1.166-0.557
				c3.046-7.048,3.735-14.889,5.732-22.318c1.17-4.353,2.997-8.77,5.694-12.343c-2.367-1.832-4.808-3.573-7.355-5.181
				c-1.872-1.181-3.791-2.288-5.734-3.357c-0.372,2.033-0.902,4.04-1.635,5.995C532.88,295.935,520.986,304.951,508.693,303.691z"/>
			<path fill="#EDD6CE" d="M839.967,315.327c7.372,0.475,15.378-0.348,21.484-2.111c-3.106-2.842-7.113-4.712-11.051-6.343
				c-15.167-6.284-31.057-10.814-47.252-13.495c1.929,4.077,3.337,8.419,4.059,12.842
				C815.801,310.58,826.745,314.474,839.967,315.327z"/>
			<path fill="#E3EACA" d="M357.069,256.933c8.017,4.064,17.588,5.215,26.584,3.975c5.565-0.767,11.518-2.735,14.451-7.526
				c1.33-2.173,1.899-4.714,2.511-7.223c-1.741-8.306-0.417-16.593,1.768-24.404c2.128-7.612,5.309-15.276,11.76-20.458
				c-2.291-0.953-4.66-1.677-7.132-2.045c-10.889-1.622-21.449,3.83-31.111,9.108c-8.89,4.856-17.78,9.713-26.669,14.569
				c0.822,0.878,1.618,1.781,2.358,2.741C358.307,234.388,360.495,246.709,357.069,256.933z"/>
			<path fill="#E5F0C7" d="M172.008,201.362c-1.502,0.518-2.964,1.2-4.37,2.082c-8.11,5.082-11.647,15.617-10.388,25.105
				s6.569,17.999,12.887,25.188c5.292,6.021,11.719,11.393,18.789,15.267c8.894,4.873,18.806,7.374,28.765,5.792
				c6.831-1.085,13.463-4.031,20.363-3.55c2.104,0.147,4.378,0.554,6.557,0.695c-5.42-3.425-10.487-7.374-14.538-12.313
				c-4.334-5.285-7.398-11.858-7.966-18.599c-2.602,0.382-5.172,0.916-7.66,1.638c-4.487-9.896-6.855-21.19-11.675-31.058
				c-1.789-3.662-3.912-7.105-6.25-10.409c-0.919,0.356-1.817,0.768-2.694,1.232C186.421,200.129,178.788,199.024,172.008,201.362z"
				/>
			<path fill="#E5F0C7" d="M-36.654,316.302c4.98-1.113,10.061-1.097,15.047-0.221c3.686-1.652,7.359-3.396,11.076-4.074
				c1.323-1.015,2.692-1.955,4.127-2.787c5.581-3.237,11.947-4.738,18.401-5.439c0.326-1.526,0.563-3.127,0.755-4.715
				c1.476-12.238,0.973-24.908-0.931-37.002c-1.272-8.077-3.162-15.899-5.529-23.154c-1.634-5.011-3.483-9.773-5.488-14.333
				c-2.735-6.22-5.772-12.05-8.999-17.562c-1.626-2.777-3.299-5.474-5.006-8.1c-0.544,0.116-1.091,0.22-1.64,0.298
				c-12.221,1.733-24.772-5.96-30.073-17.108c-0.477-1.003-0.879-2.033-1.247-3.074c-2.966,4.954-5.74,9.863-8.257,14.696v119.281
				c3.602,2.539,7.311,4.433,11.083,5.557C-41.191,317.59-38.957,316.817-36.654,316.302z"/>
			<path fill="#E5F0C7" d="M807.206,306.219c-0.721-4.424-2.13-8.766-4.059-12.842c-3.377-0.559-6.767-1.043-10.167-1.44
				c-9.974-1.164-20.206-1.67-29.541-5.37c-2.349-0.931-4.597-2.063-6.791-3.299c-0.686,0.831-1.373,1.661-2.026,2.492
				c-8.893,11.314-11.896,23.439-19.079,34.992c10.295,7.22,22.468,11.441,34.711,9.497c6.831-1.085,13.463-4.031,20.363-3.55
				c1.373,0.096,2.818,0.302,4.262,0.474c3.934-1.851,7.85-3.75,11.789-5.596c0.124-0.442,0.229-0.889,0.323-1.334
				C807.965,315.619,807.965,310.874,807.206,306.219z"/>
			<path fill="#DBF4CE" d="M37.663,73.272c5.259,2.132,9.455,6.337,12.623,11.044c4.238,6.297,6.732,13.425,7.85,20.872
				c14.87-8.312,29.739-16.624,44.608-24.935c0.204-0.288,0.416-0.569,0.621-0.856c-4.653-3.783-9.688-7.114-15.219-9.403
				c-14.154-5.86-30.123-4.493-45.373-3.027c-1.263,0.121-2.545,0.254-3.802,0.472c-1.166,1.61-2.05,3.429-2.648,5.358
				C36.772,72.945,37.22,73.092,37.663,73.272z"/>
			<path fill="#DBF4CE" d="M520.193,349.526c2.191-3.64,4.899-6.943,7.675-10.194c0.161-2.441,0.734-4.85,1.738-7.086
				c1.296-2.886,3.294-5.419,5.721-7.443c-0.344-0.375-0.7-0.74-1.066-1.096c-3.525-3.437-7.986-6.074-12.302-8.553
				c-8.848-5.083-17.696-10.167-26.545-15.25c-0.476-0.168-0.953-0.329-1.431-0.49c-2.474,7.024-8.35,12.752-15.554,17.244
				c18.109,5.035,30.675,25.766,26.929,44.513c-0.98,4.908-2.95,9.494-5.654,13.621c0.899-0.014,1.795-0.039,2.684-0.072
				c4.046-0.151,8.142-0.415,12.22-0.504C513.691,365.744,515.769,356.874,520.193,349.526z"/>
			<path fill="#DBD7BC" d="M-14.841,199.213c0.549-0.078,1.096-0.181,1.64-0.298c2.57-0.548,5.054-1.533,7.135-3.124
				c3.744-2.863,5.834-7.331,8.76-11.026c1.458-1.841,3.103-3.466,4.882-4.936c11.964-9.885,30.115-12.629,39.934-24.996
				c1.166-1.469,2.172-3.046,3.071-4.685c-0.805-0.486-1.605-0.977-2.393-1.475c-5.054-3.19-10.123-6.733-13.281-11.807
				c-3.158-5.074-3.955-12.062-0.416-16.877c1.939-2.638,4.887-4.314,7.745-5.912c5.301-2.963,10.601-5.926,15.902-8.889
				c-1.118-7.447-3.613-14.575-7.85-20.872c-3.168-4.708-7.365-8.912-12.623-11.044c-0.444-0.18-0.892-0.327-1.339-0.475
				c-1.804-0.598-3.634-0.946-5.481-1.082c-1.048,1.153-1.974,2.441-2.874,3.714c-20.631,29.193-52.567,67.589-74.131,103.603
				c0.368,1.041,0.77,2.071,1.247,3.074C-39.613,193.253-27.062,200.946-14.841,199.213z"/>
			<path fill="#DBD7BC" d="M594.369,369.409c-4.173-0.255-8.346-0.509-12.519-0.764c-11.145-0.68-22.412-1.382-33.089-4.647
				c-6.107-1.868-12.171-4.724-16.219-9.664c-3.404-4.155-5.028-9.654-4.675-15.003c-2.776,3.251-5.483,6.554-7.675,10.194
				c-4.424,7.348-6.502,16.219-5.585,24.689c6.968-0.152,13.881,0.209,20.394,2.545c7.796,2.795,14.584,8.297,22.71,9.901
				c2.6,0.513,5.246,0.6,7.898,0.502C572.79,378.469,584.153,374.602,594.369,369.409z"/>
			<path fill="#DBD7BC" d="M540.518,321.568c2.38-1.057,4.941-1.697,7.549-1.801c2.933-0.118,5.793,0.368,8.624,1.11
				c7.301,10.479,16.777,19.886,29.163,20.953c9.583,0.826,18.72-3.624,27.512-7.523c2.228-0.988,4.477-1.948,6.745-2.864
				c0.093-0.525,0.183-1.051,0.266-1.578c-10.926-2.749-20.809-9.956-27.69-19.044c-6.753-8.918-11-20.744-8.294-31.375
				c-4.208,1.557-8.349,3.342-12.458,5.131c-4.972,2.164-9.944,4.329-14.917,6.493c-1.647-1.442-3.344-2.825-5.075-4.164
				c-2.697,3.574-4.524,7.99-5.694,12.343C544.253,306.679,543.564,314.52,540.518,321.568z"/>
			<path fill="#E3DFBC" d="M680.293,264.697c0.102,0.126,0.206,0.252,0.307,0.378c3.087,3.82,6.261,7.88,7.098,12.719
				c0.587,3.396-0.042,6.889-0.999,10.2c-2.755,9.532-8.294,18.241-15.759,24.778c-2.81,2.461-5.876,4.613-9.006,6.65
				c-2.084,1.356-4.224,2.664-6.41,3.889c12.364-0.063,24.96,3.479,34.132,11.69c3.977,3.561,7.176,8.819,7.826,13.944
				c15.982-5.432,27.663-14.104,34.426-22.916c1.337-1.742,2.532-3.504,3.635-5.278c7.183-11.553,10.186-23.678,19.079-34.992
				c0.654-0.832,1.34-1.661,2.026-2.492c-5.596-3.155-10.805-7.065-16.192-10.605c-11.266-7.403-23.566-13.221-36.423-17.275
				c-5.844,1.44-10.997,3.493-14.816,5.967C685.857,262.148,682.843,263.311,680.293,264.697z"/>
			<path fill="#F2CFD5" d="M45.644,343.865c3.301-3.481,5.176-7.989,5.733-12.704c0.78-6.607-1.036-13.614-5.139-18.776
				c-1.488-1.872-3.27-3.505-5.347-4.782c-6.778-4.167-15.167-4.638-23.115-4.263c-1.922,0.091-3.855,0.232-5.78,0.441
				c-6.454,0.701-12.819,2.202-18.401,5.439c-1.434,0.832-2.803,1.772-4.127,2.787c-2.092,1.605-4.068,3.398-5.992,5.266
				c-1.678-0.492-3.375-0.891-5.084-1.191c-4.986-0.876-10.067-0.892-15.047,0.221c-2.302,0.514-4.537,1.288-6.681,2.263
				c-4.14,1.883-7.925,4.557-11.083,7.836v30.344c8.035,6.248,16.64,12.16,26.632,13.514c6.474,0.878,13.029-0.248,19.495-1.186
				c5.622-0.816,11.265-1.484,16.921-2.015c5.641-4.696,11.826-8.737,18.393-12.014C33.541,351.792,40.633,349.15,45.644,343.865z"
				/>
			<path fill="#F2CFD5" d="M402.383,221.756c-2.184,7.812-3.509,16.099-1.768,24.404c0.224,1.069,0.492,2.137,0.823,3.206
				c1.481,4.789,4.04,9.456,6.897,14.069c-4.857,5.92-8.001,12.773-8.434,20.348c-0.667,11.679,5.524,24.292,16.232,33.343
				c3.196,0.333,6.376,0.803,9.53,1.468c5.048,1.064,10.217,2.584,15.381,3.909c10.696-4.081,21.437-8.063,32.518-6.808
				c1.661,0.188,3.282,0.522,4.866,0.962c7.205-4.492,13.081-10.221,15.554-17.244c-1.334-0.448-2.675-0.869-4.038-1.201
				c-18.46-4.5-40.128,5.482-55.879-5.145c-9.235-6.231-13.289-19.141-9.274-29.533c1.157-2.994,2.887-5.742,4.868-8.267
				c7.369-9.39,18.452-15.781,30.271-17.456c4.489-0.636,9.058-0.619,13.632-0.482c-0.159-0.623-0.324-1.246-0.47-1.869
				c-0.027-0.115-0.052-0.232-0.079-0.347c-5.258-1.067-10.731-1.397-16.088-1.968c-2.212-0.236-4.416-0.534-6.616-0.861
				c-7.621-8.378-15.241-18.057-22.862-23.231c-4.239-2.877-8.607-5.802-13.303-7.754
				C407.692,206.48,404.511,214.144,402.383,221.756z"/>
			<path fill="#EADBD8" d="M135.243,373.207c3.187-1.139,5.515-3.837,8.265-5.808c8.355-5.984,19.628-4.817,29.885-4.182
				c10.257,0.635,22.135-0.273,28.266-8.521c7.884-10.606,1.019-25.827-7.748-35.717c-5.528-6.236-11.999-11.942-19.829-14.793
				c-7.811-2.843-16.104-2.597-24.363-1.08c-7.683-6.896-16.485-11.734-26.611-11.207c-0.965,0.05-1.915,0.166-2.858,0.308
				c-10.074,1.52-19.005,7.901-28.788,11.184c-6.255,2.099-12.937,2.92-19.514,2.398c-2.027-0.161-4.189-0.423-5.992,0.518
				c-1.48,0.773-2.46,2.236-3.279,3.69c-5.265,9.354-6.003,20.068-3.589,30.441c2.245,9.645,7.214,18.994,13.84,26.675
				c17.597,1.666,35.06,4.692,52.186,9.063c0.753-0.519,1.542-0.976,2.404-1.304C129.986,373.935,132.758,374.095,135.243,373.207z"
				/>
			<path fill="#F0E2CD" d="M459.93,237.811c-11.818,1.674-22.902,8.065-30.271,17.456c-1.982,2.525-3.712,5.273-4.868,8.267
				c-4.015,10.392,0.039,23.302,9.274,29.533c15.751,10.628,37.419,0.645,55.879,5.145c1.363,0.332,2.704,0.752,4.038,1.201
				c0.478,0.161,0.955,0.322,1.431,0.49c4.374,1.545,8.685,3.317,13.28,3.788c12.293,1.261,24.186-7.756,28.526-19.326
				c0.733-1.955,1.263-3.962,1.635-5.995c-9.885-5.44-20.44-9.804-29.191-16.896c-9.561-7.748-16.845-18.651-28.069-23.697
				c-0.161-0.072-0.324-0.135-0.486-0.205c-2.509-0.062-5.029-0.167-7.547-0.242C468.988,237.191,464.419,237.175,459.93,237.811z"
				/>
			<path fill="#E9DFD6" d="M592.688,310.822c6.881,9.088,16.764,16.295,27.69,19.044c0.788,0.198,1.579,0.383,2.377,0.534
				c9.446-3.636,19.222-6.387,29.29-6.988c1.156-0.069,2.317-0.095,3.479-0.101c2.187-1.226,4.326-2.533,6.41-3.889
				c3.131-2.037,6.196-4.189,9.006-6.65c7.465-6.537,13.004-15.246,15.759-24.778c0.957-3.311,1.586-6.804,0.999-10.2
				c-0.837-4.84-4.011-8.899-7.098-12.719c-0.102-0.126-0.205-0.252-0.307-0.378c-4.326-5.336-9.125-10.827-15.403-13.253
				c-3.323,1.784-5.847,4.764-8.231,7.709c-12.233,2.636-23.692,11.348-36.33,14.051c-6.753,1.444-13.759,1.136-20.594,2.119
				c-5.262,0.757-10.35,2.277-15.341,4.124C581.688,290.078,585.935,301.903,592.688,310.822z"/>
			<path fill="#E7E3C9" d="M244.611,271.941c2.26,1.428,4.576,2.775,6.915,4.049c13.768,7.498,29.258,13.263,44.713,13.522
				c4.879,0.082,9.754-0.38,14.571-1.516c9.5-2.24,18.208-6.951,26.753-11.668c4.754-2.625,9.569-5.341,13.353-9.223
				c0.138-0.142,0.285-0.273,0.421-0.418c2.638-2.826,4.529-6.161,5.732-9.753c3.426-10.224,1.238-22.545-5.479-31.264
				c-0.74-0.96-1.537-1.863-2.358-2.741c-5.774,3.154-11.548,6.308-17.322,9.462c-2.688,1.469-5.456,3.029-7.916,4.882
				c-11.39-1.81-22.836-2.36-34.12-0.148c-5.018,0.983-9.925,2.502-14.966,3.363c-13.182,2.252-26.662-0.063-40.034-0.241
				c-4.213-0.056-8.534,0.161-12.767,0.782c0.567,6.741,3.631,13.314,7.966,18.599C234.123,264.567,239.19,268.516,244.611,271.941z
				"/>
			<path fill="#DFDCC0" d="M155.492,221.473c-3.418-11.709-12.923-21.761-24.78-24.624c-4.442-1.073-9.046-1.158-13.625-1.126
				c-0.59,0.004-1.18,0.01-1.768,0.016c-2.726,0.028-5.659,0.124-7.835,1.766c-1.481,1.117-2.401,2.806-3.277,4.441
				c-2.402,4.486-4.805,8.972-7.207,13.458c-1.319,1.431-2.532,2.961-3.617,4.563c-2.508,3.702-4.485,7.843-7.734,10.915
				c-1.939,1.833-4.143,3.136-6.521,4.092c-11.859,4.77-28.154,0.751-38.691,8.876c-9.805,7.559-10.046,23.111-3.702,33.743
				c8.209,13.758,24.917,20.931,40.937,20.778c14.478-0.138,28.409-5.485,40.992-12.77c1.34-0.776,2.67-1.567,3.979-2.384
				c10.227-6.379,19.921-14.15,26.451-24.23c0.481-0.743,0.949-1.496,1.395-2.265C156.608,246.168,158.91,233.181,155.492,221.473z"
				/>
			<path fill="#E9DDCB" d="M478.428,316.657c-1.583-0.44-3.205-0.774-4.866-0.962c-11.081-1.255-21.822,2.727-32.518,6.808
				c-5.164-1.325-10.332-2.846-15.381-3.909c-3.155-0.665-6.335-1.135-9.53-1.468c-7.968-0.831-16.039-0.768-24.095-0.454
				c-2.986,0.117-5.971,0.265-8.947,0.416c-10.296,0.523-21.044,1.175-29.939,6.386c-8.895,5.211-15.136,16.518-11.152,26.026
				c0.789,1.883,1.915,3.546,3.273,5.013c3.736,4.035,9.277,6.54,14.768,7.714c7.487,1.6,15.26,1.296,22.81,2.571
				c25.927,4.379,46.697,26.725,72.387,30.223c3.145-1.534,6.201-3.267,9.245-4.997c9.065-5.149,18.129-10.297,27.194-15.446
				c2.669,0.207,5.363,0.257,8.026,0.214c2.703-4.127,4.673-8.713,5.654-13.621C509.103,342.422,496.537,321.691,478.428,316.657z"
				/>
			<path fill="#D9D4D9" d="M689.656,335.001c-9.172-8.211-21.768-11.753-34.132-11.69c-1.163,0.006-2.324,0.032-3.479,0.101
				c-10.069,0.601-19.844,3.352-29.29,6.988c-0.884,0.34-1.765,0.689-2.643,1.044c-2.268,0.916-4.516,1.876-6.745,2.864
				c-8.792,3.899-17.929,8.348-27.512,7.523c-12.386-1.067-21.862-10.474-29.163-20.953c-2.832-0.742-5.691-1.228-8.624-1.11
				c-2.607,0.105-5.168,0.744-7.549,1.801c-0.394,0.175-0.783,0.359-1.166,0.557c-1.435,0.741-2.786,1.643-4.026,2.677
				c-2.427,2.024-4.424,4.557-5.721,7.443c-1.004,2.236-1.577,4.645-1.738,7.086c-0.354,5.349,1.271,10.848,4.675,15.003
				c4.048,4.94,10.112,7.795,16.219,9.664c10.677,3.266,21.944,3.967,33.089,4.647c4.173,0.255,8.346,0.509,12.519,0.764
				c18.776,1.146,37.552,2.291,56.327,3.437c6.567,0.401,13.252,0.792,19.642-0.773c6.789-1.662,12.841-5.431,18.763-9.143
				c2.26-1.417,4.572-2.88,6.189-5.002c2.017-2.647,2.596-5.789,2.191-8.984C696.832,343.82,693.633,338.562,689.656,335.001z"/>
			<path fill="#D9D2D9" d="M58.137,105.188c-5.301,2.963-10.601,5.926-15.902,8.889c-2.858,1.598-5.806,3.273-7.745,5.912
				c-3.539,4.816-2.742,11.804,0.416,16.877c3.158,5.074,8.227,8.617,13.281,11.807c0.788,0.498,1.588,0.989,2.393,1.475
				c8.18,4.94,17.199,9.095,26.644,8.38c9.644-0.729,17.566-6.194,25.398-12.196c6.635-5.085,13.206-10.554,20.704-13.858
				c0.486-0.214,0.98-0.397,1.471-0.592c5.557-2.211,11.406-3.257,17.39-3.74c-10.453-16.985-21.303-33.555-36.251-46.589
				c-0.842-0.734-1.702-1.45-2.57-2.156c-0.205,0.287-0.417,0.568-0.621,0.856C87.876,88.565,73.007,96.876,58.137,105.188z"/>
		</g>
		<g>
			<path fill="#FFFFFF" d="M47.011,289.284c-0.261-1.397-0.522-2.794-0.783-4.191c-0.151-0.809-0.848-1.45-1.566-1.753
				c-0.117-0.049-0.232-0.071-0.347-0.103c-0.483-0.524-1.166-0.857-1.965-0.892c-2.902-0.125-5.212,2.249-5.941,4.891
				c-0.342,1.24-0.391,2.561-0.421,3.84c-0.029,1.286-0.011,2.651,0.412,3.879c0.486,1.408,1.345,2.597,2.61,3.405
				c0.496,0.317,1.079,0.551,1.66,0.646c0.564,0.091,1.191,0.195,1.753,0.013c0.429-0.139,0.887-0.361,1.194-0.696
				c0.06-0.078,0.12-0.155,0.18-0.233c0.006-0.007,0.006-0.006,0.014-0.015c0.01-0.01,0.01-0.012,0.018-0.02
				c0.127-0.074,0.253-0.149,0.385-0.216c0.336-0.171,0.685-0.314,1.016-0.494c1.145-0.62,2.063-1.643,2.354-2.934
				c0.231-1.022,0.007-2.025-0.181-3.032C47.272,290.681,47.142,289.983,47.011,289.284z"/>
			<path fill="#FFFFFF" d="M89.99,268.773c0.191-0.488,0.232-1.033,0.05-1.593c-0.421-1.3-1.906-2.412-3.328-1.89
				c-1.368,0.502-2.736,1.004-4.104,1.506c-1.607,0.59-3.182,1.117-4.122,2.662c-0.778,1.278-0.747,2.817-0.597,4.246
				c0.165,1.579,0.377,3.156,0.634,4.723c0.222,1.35,0.314,3.073,1.131,4.217c0.719,1.008,1.806,1.609,3.064,1.603
				c0.652-0.003,1.321-0.146,1.966-0.226c0.689-0.085,1.378-0.171,2.067-0.256c0.825-0.102,1.717-0.124,2.519-0.333
				c1.049-0.273,1.902-0.96,2.323-1.959c0.448-1.061,0.148-2.134-0.031-3.219C91.038,275.094,90.514,271.934,89.99,268.773z"/>
			<path fill="#FFFFFF" d="M131.708,247.682c-0.294-1.354-0.482-2.806-0.929-4.119c-0.728-2.142-3.076-2.986-5.099-2.132
				c-0.449,0.189-0.824,0.444-1.169,0.726c-0.078,0.001-0.159-0.004-0.233,0.001c-0.014,0.001-0.012,0.001-0.023,0.002
				c-0.138-0.028-0.275-0.062-0.413-0.091c-0.967-0.204-1.913-0.252-2.803,0.266c-0.659,0.383-1.146,0.994-1.461,1.678
				c-1.077,2.335-1.347,4.854-1.386,7.401c-0.018,1.162-0.015,2.325-0.02,3.488c-0.005,1.097-0.064,2.267,0.28,3.326
				c0.518,1.596,1.754,2.766,3.439,2.992c1.073,0.144,2.188,0.059,3.265-0.021c2.839-0.212,5.387-0.881,7.64-2.68
				c0.759-0.606,0.886-1.759,0.696-2.632C132.897,253.152,132.302,250.417,131.708,247.682z"/>
			<path fill="#FFFFFF" d="M167.37,211.607c-1.034-1.741-2.08-3.474-3.137-5.2c-0.646-1.055-1.82-1.478-2.949-1.231
				c-0.083-0.009-0.164-0.028-0.25-0.03c-2.245-0.06-4.472,0.183-6.241,1.697c-1.857,1.589-2.102,3.897-1.472,6.136
				c1.052,3.738,2.677,7.348,4.76,10.624c0.899,1.414,3.023,1.874,4.249,0.548c0.55-0.595,1.103-1.189,1.691-1.748
				c0.286-0.272,0.584-0.529,0.886-0.782c0.045-0.034,0.098-0.074,0.157-0.116c0.155-0.108,0.313-0.213,0.475-0.312
				c0.161-0.099,0.325-0.192,0.493-0.28c0.118-0.062,0.225-0.113,0.252-0.127c0.365-0.137,0.733-0.26,1.094-0.413
				c1.111-0.469,2.125-1.29,2.43-2.52c0.343-1.385-0.256-2.532-0.932-3.689C168.377,213.309,167.875,212.457,167.37,211.607z
				 M165.32,215.4C165.4,215.366,165.413,215.366,165.32,215.4L165.32,215.4z"/>
		</g>
		<g>
			<path fill="#FFFFFF" d="M285.386,344.779c-0.17-0.315-0.402-0.568-0.697-0.759c-0.261-0.239-0.568-0.401-0.92-0.484
				c-0.693-0.158-1.47-0.124-2.085,0.273c-0.562,0.362-1.12,0.933-1.243,1.617c-0.242,1.344-0.531,2.69-0.695,4.045
				c-0.014,0.372,0.064,0.72,0.233,1.042c0.109,0.335,0.296,0.626,0.559,0.871c0.245,0.264,0.535,0.45,0.871,0.559
				c0.322,0.169,0.67,0.247,1.042,0.233c0.7-0.031,1.425-0.261,1.913-0.792c0.141-0.183,0.282-0.365,0.423-0.548
				c0.129-0.223,0.22-0.456,0.281-0.697c0.197-1.092,0.393-2.184,0.59-3.276c0.113-0.36,0.129-0.719,0.048-1.079
				C285.691,345.425,285.584,345.09,285.386,344.779z"/>
			<path fill="#FFFFFF" d="M306.355,335.235c-0.058-0.108-0.134-0.198-0.207-0.292c-0.083-0.163-0.185-0.316-0.311-0.454
				c-0.191-0.295-0.444-0.527-0.759-0.697c-0.311-0.198-0.646-0.305-1.006-0.321c-0.36-0.081-0.719-0.064-1.079,0.048
				c-0.655,0.212-1.286,0.618-1.617,1.243c-0.342,0.646-0.466,1.366-0.273,2.085c0.273,1.015,0.547,2.031,0.82,3.046
				c0.084,0.352,0.245,0.659,0.484,0.92c0.191,0.295,0.444,0.527,0.759,0.697c0.31,0.198,0.646,0.305,1.006,0.321
				c0.36,0.081,0.719,0.064,1.079-0.048c0.655-0.212,1.286-0.618,1.617-1.243c0.091-0.215,0.182-0.431,0.273-0.646
				c0.042-0.158,0.049-0.315,0.064-0.473c0.092-0.171,0.169-0.35,0.212-0.542c0.032-0.24,0.064-0.479,0.097-0.719
				c-0.001-0.488-0.125-0.944-0.369-1.366C306.882,336.275,306.618,335.755,306.355,335.235z"/>
			<path fill="#FFFFFF" d="M345.92,322.576c-0.018-1.275-0.467-2.556-0.761-3.79c-0.311-1.307-0.623-2.613-0.934-3.92
				c-0.207-0.87-0.59-1.532-1.391-1.97c-0.465-0.254-1.064-0.396-1.627-0.339c-0.319-0.201-0.683-0.336-1.091-0.362
				c-1.338-0.086-2.676-0.172-4.014-0.259c-1.512-0.097-2.748,0.877-2.995,2.381c-0.35,2.133-0.529,4.29-0.518,6.452
				c0.007,1.37-0.019,2.712,0.376,4.034c0.457,1.53,1.87,2.805,3.509,2.848c1.331,0.035,2.38-0.542,3.428-1.281
				c0.022,0.002,0.044,0.003,0.066,0.006c0.182,0.02,0.363,0.05,0.544,0.08c1.044,0.171,2.075,0.236,3.086-0.154
				C345.119,325.715,345.941,324.135,345.92,322.576z"/>
			<path fill="#FFFFFF" d="M377.458,301.008c-0.135-1.465-0.445-2.937-0.742-4.282c-0.258-1.168-0.56-2.302-1.379-3.216
				c-0.772-0.863-2.036-1.362-3.184-1.24c-1.703,0.18-3.051,1.129-3.816,2.484c-0.465,0.183-0.904,0.454-1.294,0.852
				c-1.01,1.032-1.162,2.395-1.001,3.757c0.12,1.009,0.239,2.018,0.359,3.026c0.24,2.026,0.395,4.237,1.979,5.731
				c1.696,1.6,4.341,1.732,6.263,0.439c0.674-0.453,1.195-0.981,1.607-1.557c0.267,0.011,0.538-0.009,0.809-0.097
				c1.353-0.44,2.329-1.881,1.882-3.328C378.645,302.621,378.14,301.73,377.458,301.008z"/>
			<path fill="#FFFFFF" d="M412.494,260.419c-0.035-1.169-0.752-2.231-1.952-2.573c-1.813-0.516-3.639,0.086-5.017,1.307
				c-1.322,1.172-1.891,2.842-2.035,4.555c-0.13,1.556,0.271,3.145,0.581,4.661c0.305,1.491,0.61,2.982,0.915,4.473
				c0.41,2.007,3.173,2.594,4.522,1.194c0.133-0.138,0.582-0.431,0.668-0.614c0.027-0.018,0.053-0.038,0.08-0.056
				c0.131-0.087,0.265-0.169,0.401-0.248c0.136-0.079,0.28-0.145,0.416-0.223c0.012-0.007,0.015-0.009,0.025-0.015
				c0.305-0.107,0.606-0.214,0.922-0.289c0.123-0.029,0.246-0.051,0.369-0.078c0.032-0.007,0.04-0.009,0.063-0.015
				c0.426-0.054,0.86-0.094,1.273-0.215c1.166-0.341,2.089-1.122,2.561-2.242c0.844-2-0.385-3.813-1.364-5.483
				C414.112,263.178,413.303,261.799,412.494,260.419z"/>
			<path fill="#FFFFFF" d="M437.59,222.176c-0.117-0.317-0.286-0.619-0.491-0.891c-0.004-0.007-0.006-0.016-0.01-0.023
				c-0.789-1.349-2.378-1.602-3.702-0.971c-3.548,1.692-7.024,4.114-7.411,8.359c-0.202,2.217,0.601,4.487,1.333,6.548
				c0.775,2.182,1.707,4.314,2.773,6.369c0.691,1.333,2.464,1.63,3.702,0.971c1.82-0.97,3.642-1.937,5.461-2.909
				c0.915-0.489,1.836-1.069,2.387-1.979c0.674-1.112,0.717-2.442,0.305-3.653C440.588,230.026,439.038,226.112,437.59,222.176z"/>
		</g>
		<g>
			<path fill="#FFFFFF" d="M471.532,356.254c0.014-0.372-0.064-0.72-0.233-1.042c-0.109-0.335-0.296-0.626-0.559-0.871
				c-0.183-0.141-0.365-0.282-0.548-0.423c-0.422-0.245-0.877-0.368-1.366-0.369c-0.24,0.032-0.479,0.064-0.719,0.097
				c-0.458,0.129-0.856,0.36-1.194,0.696c-0.168,0.199-0.325,0.411-0.481,0.62c-0.024,0.032-0.047,0.064-0.069,0.097
				c-0.044,0.066-0.083,0.136-0.117,0.207c-0.114,0.238-0.211,0.487-0.31,0.731c-0.015,0.037-0.029,0.074-0.042,0.111
				c-0.027,0.079-0.049,0.161-0.065,0.243c-0.008,0.039-0.014,0.078-0.019,0.118c-0.002,0.015-0.004,0.031-0.006,0.046
				c-0.064,0.184-0.108,0.374-0.117,0.573c-0.081,0.36-0.064,0.719,0.048,1.079c0.023,0.055,0.046,0.109,0.069,0.163
				c0.006,0.039,0.009,0.079,0.016,0.118c0.015,0.083,0.035,0.164,0.061,0.244c0.084,0.352,0.245,0.659,0.484,0.92
				c0.191,0.295,0.444,0.527,0.759,0.697c0.215,0.091,0.431,0.182,0.646,0.273c0.48,0.129,0.959,0.129,1.439,0
				c0.01-0.002,0.02-0.004,0.029-0.007c0.093-0.03,0.579-0.231,0.666-0.281c0.008-0.004,0.016-0.009,0.024-0.013
				c0.035-0.021,0.529-0.402,0.558-0.431c0.008-0.007,0.016-0.015,0.024-0.022c0.044-0.042,0.398-0.502,0.431-0.558
				c0.071-0.117,0.101-0.224,0.162-0.368c0.055-0.131,0.12-0.243,0.151-0.375c0.027-0.116,0.091-0.611,0.099-0.733
				c0.001-0.009,0.002-0.019,0.002-0.028c0-0.138-0.035-0.299-0.051-0.418c-0.001-0.01-0.004-0.035-0.005-0.05l0,0
				C471.468,356.974,471.546,356.626,471.532,356.254z"/>
			<path fill="#FFFFFF" d="M493.076,345.642c-0.025-1.386,0.099-2.941-0.673-4.165c-0.545-0.864-1.33-1.428-2.283-1.763
				c-0.789-0.277-1.603-0.227-2.409-0.094c-0.67,0.111-1.273,0.437-1.821,0.826c-0.373,0.026-0.74,0.112-1.098,0.262
				c-1.043,0.44-1.806,1.293-2.12,2.39c-0.196,0.683-0.18,1.402-0.168,2.104c0.01,0.575,0.02,1.149,0.029,1.724
				c0.012,0.725,0.03,1.42,0.149,2.139c0.172,1.038,0.838,1.881,1.674,2.477c1.118,0.797,2.501,0.694,3.779,0.524
				c0.649-0.086,1.299-0.172,1.948-0.259c1.341-0.18,2.431-0.921,2.878-2.253c0.231-0.689,0.159-1.451,0.146-2.166
				C493.098,346.807,493.087,346.224,493.076,345.642z"/>
			<path fill="#FFFFFF" d="M514.508,320.891c-0.354-1.633-0.494-3.543-1.684-4.818c-0.25-0.268-0.541-0.482-0.855-0.642
				c-0.19-0.216-0.406-0.414-0.662-0.608c-0.958-0.728-2.435-0.826-3.547-0.456c-1.143,0.38-2.125,1.143-2.73,2.191
				c-1.163,2.018-0.651,4.441-0.277,6.596c0.167,0.962,0.362,1.919,0.585,2.869c0.265,1.128,0.464,2.448,1.288,3.32
				c0.63,0.667,1.491,1.024,2.41,0.996c0.662-0.02,1.187-0.261,1.779-0.505c0.924-0.381,1.848-0.763,2.772-1.145
				c0.65-0.268,1.269-0.585,1.617-1.243c0.351-0.664,0.433-1.345,0.273-2.085C515.154,323.872,514.831,322.382,514.508,320.891z"/>
			<path fill="#FFFFFF" d="M528.224,286.886c-0.157-1.026-0.269-2.155-0.814-3.066c-0.834-1.396-2.464-2.308-4.11-1.894
				c-0.079,0.02-0.147,0.051-0.222,0.075c-0.011-0.002-0.021-0.008-0.032-0.011c-1.659-0.33-3.37-0.459-4.929,0.326
				c-1.938,0.976-2.447,2.996-2.474,4.999c-0.045,3.377,0.476,6.802,1.508,10.016c0.535,1.668,2.406,2.508,3.975,1.617
				c0.109-0.065,0.221-0.126,0.335-0.183c0.269-0.127,0.227-0.114-0.126,0.038c0.157-0.132,0.527-0.185,0.723-0.237
				c0.123-0.032,0.247-0.061,0.371-0.086c0.301-0.052,0.249-0.05-0.154,0.008c0.129-0.086,0.511-0.039,0.666-0.042
				c0.208-0.003,0.414,0.012,0.621,0.022c0.089,0.017,0.179,0.034,0.268,0.055c0.235,0.055,0.461,0.133,0.69,0.206
				c0.087,0.043,0.174,0.086,0.26,0.133c1.835,0.978,4.006-0.243,4.071-2.336c0.064-2.041,0.007-4.083-0.183-6.116
				C528.557,289.231,528.404,288.056,528.224,286.886z"/>
			<path fill="#FFFFFF" d="M544.715,253.829c-0.809-4.373-1.619-8.745-2.428-13.118c-0.412-2.228-0.822-4.456-1.237-6.683
				c-0.397-2.131-1.236-4.262-3.498-4.981c-3.606-1.146-6.954,1.813-8.334,4.905c-0.004,0.009-0.006,0.018-0.01,0.026
				c-0.423,0.256-0.721,0.572-0.918,0.922c-1.723-0.316-3.846,1.063-3.308,3.316c1.286,5.388,3.006,10.653,5.15,15.76
				c1.006,2.396,2.003,5.931,5.148,6.075c1.531,0.07,2.978-0.821,4.331-1.43c1.287-0.579,2.575-1.159,3.862-1.738
				C544.617,256.369,544.917,254.923,544.715,253.829z"/>
		</g>
		<g>
			<path fill="#FFFFFF" d="M20.091,181.45c0.032-0.24,0.064-0.48,0.097-0.719c-0.002-0.488-0.125-0.944-0.369-1.366
				c-0.526-1.101-1.051-2.202-1.577-3.303c-0.101-1.753-0.326-3.46-1.101-5.094c-0.456-0.963-1.717-1.423-2.696-1.292
				c-0.7,0.094-1.245,0.445-1.658,0.937c-0.675-0.087-1.369-0.04-2.034,0.209c-1.192,0.447-2.098,1.167-2.844,2.192
				c-0.536,0.736-0.799,1.604-0.945,2.49c-0.427,0.327-0.747,0.779-0.848,1.349c-0.29,1.636-0.428,3.263-0.056,4.901
				c0.429,1.883,1.778,3.458,3.643,4.024c0.825,0.251,1.706,0.241,2.551,0.045c1.075,0.115,2.112-0.026,3.177-0.284
				c0.33-0.08,0.669-0.139,1-0.215c0.064-0.003,0.129-0.006,0.193-0.006c0.066,0.014,0.135,0.028,0.163,0.037
				c1.297,0.382,2.682-0.357,3.192-1.567c0.301-0.713,0.267-1.415,0.001-2.036C20.02,181.652,20.067,181.556,20.091,181.45z"/>
			<path fill="#FFFFFF" d="M63.503,156.298c-0.288-0.832-0.856-1.463-1.642-1.764c-0.202-0.274-0.433-0.531-0.732-0.762
				c-0.516-0.398-1.077-0.702-1.726-0.839c-1.345-0.283-2.763-0.072-3.955,0.624c-1.28,0.748-2.153,2.045-2.519,3.47
				c-0.379,1.476-0.238,2.932-0.032,4.415c0.177,1.278,0.391,2.551,0.589,3.826c0.13,0.835,0.325,1.595,0.856,2.282
				c0.744,0.963,1.724,1.402,2.914,1.52c1.326,0.131,2.79-0.399,4.073-0.696c1.559-0.361,3.248-0.697,4.131-2.208
				c1.069-1.827,0.174-3.713-0.447-5.508C64.51,159.205,64.007,157.751,63.503,156.298z M58.864,164.742
				c0.007,0.017,0.015,0.035,0.022,0.052C58.88,164.794,58.873,164.772,58.864,164.742z"/>
			<path fill="#FFFFFF" d="M105.137,139.621c-0.701-2.593-1.402-5.185-2.103-7.778c-0.298-1.104-1.434-2.039-2.609-1.986
				c-0.167,0.007-0.328,0.03-0.485,0.062c-0.278-0.101-0.575-0.167-0.895-0.168c-2.506-0.011-5.071,0.755-7.077,2.276
				c-1.076,0.816-1.443,1.732-1.243,3.055c0.351,2.325,0.772,4.64,1.271,6.938c0.514,2.363,0.831,5.708,3.662,6.379
				c1.36,0.323,2.787-0.188,4.106-0.502c1.153-0.274,2.316-0.522,3.462-0.824c1.822-0.48,3.052-1.995,2.792-3.929
				C105.856,141.953,105.45,140.781,105.137,139.621z"/>
			<path fill="#FFFFFF" d="M139.735,109.609c-0.608-2.088-1.217-4.177-1.825-6.265c-0.593-2.035-1.114-4.12-1.79-6.123
				c-0.827-2.448-2.91-3.831-5.15-2.499c-1.61,0.957-3.094,2.373-4.591,3.538c-0.09,0.07-0.186,0.14-0.279,0.21
				c-2.151-0.099-4.291,0.808-5.804,2.582c-0.762,0.893-0.912,2.203-0.38,3.279c2.513,5.085,4.494,10.424,5.945,15.998
				c0.476,1.827,2.145,2.316,3.574,1.617c3.322-1.625,6.845-3.386,9.814-5.731C141.443,114.479,140.406,111.914,139.735,109.609z"/>
		</g>
	</g>
</g>
<g id="参考">
</g>
</svg>
