<?xml version="1.0" encoding="utf-8"?>
<!-- Generator: Adobe Illustrator 24.0.3, SVG Export Plug-In . SVG Version: 6.00 Build 0)  -->
<svg version="1.1" xmlns="http://www.w3.org/2000/svg" xmlns:xlink="http://www.w3.org/1999/xlink" x="0px" y="0px"
	 viewBox="0 0 1200 850" enable-background="new 0 0 1200 850" xml:space="preserve">
<g id="レイヤー1">
	<g>
		<path fill="#D87B3C" d="M118.294,75.054c-0.032-0.073-0.063-0.147-0.094-0.22C118.231,74.907,118.262,74.981,118.294,75.054z"/>
		<path fill="#D87B3C" d="M209.109,30.523c0.129,1.412,0.179,2.832,0.144,4.25C209.287,33.355,209.239,31.935,209.109,30.523z"/>
		<path fill="#D87B3C" d="M208.46,26.259c0.131,0.616,0.246,1.235,0.345,1.857C208.705,27.494,208.592,26.875,208.46,26.259z"/>
		<path fill="#D87B3C" d="M208.847,28.373c0.102,0.671,0.187,1.345,0.251,2.02C209.033,29.718,208.949,29.044,208.847,28.373z"/>
		<path fill="#D87B3C" d="M193.45,48.214c-3.51,3.766-6.147,8.422-10.339,11.41c-4.543,3.238-10.693,4.091-15.945,2.21
			c-3.98-1.425-7.83-4.351-11.97-3.495c-3.359,0.695-5.672,3.676-8.499,5.619c-5.872,4.037-14.68,4.063-18.434,10.12
			c-1.677,2.707-1.911,6.098-3.476,8.87c-0.54,0.957-1.228,1.796-2.017,2.531c-1.105-2.404-2.125-4.866-3.155-7.32
			c2.945,7.02,5.794,14.104,10.861,19.703c2.664,2.944,6.045,5.455,9.96,6.114c4.166,0.701,8.378-0.761,12.239-2.475
			c2.973-1.32,5.946-2.861,8.111-5.288c2.374-2.66,3.566-6.141,4.702-9.521c0.26-0.775,0.52-1.549,0.781-2.324
			c0.155-0.027,0.309-0.057,0.46-0.087c2.393-0.483,4.787-0.966,7.181-1.45c4.846-0.978,10.199-2.284,12.926-6.408
			c2.365-3.576,2.033-8.224,2.999-12.401c1.359-5.88,5.572-11.029,11.066-13.527c1.829-0.831,3.866-1.439,5.201-2.94
			c0.911-1.025,1.388-2.359,1.768-3.677c0.849-2.945,1.305-5.998,1.382-9.062c-0.037,1.444-0.159,2.885-0.366,4.315
			C203.026,40.642,197.579,43.784,193.45,48.214z"/>
		<path fill="#D87B3C" d="M208.426,26.092c-0.079-0.361-0.167-0.721-0.257-1.08c-0.004,0-0.008,0-0.012,0
			C208.247,25.372,208.347,25.729,208.426,26.092z"/>
		<path fill="#AE402F" d="M206.421,24.963c-1.944-0.082-3.888-0.185-5.831-0.302c-15.429,2.044-31.076,2.397-46.647,3.075
			c-16.197,0.705-33.048,1.662-47.99-4.614c-1.592,0.487-2.976,1.34-3.335,2.89c-0.313,1.352,0.332,2.718,0.899,3.986
			c2.224,4.97,3.483,10.37,3.689,15.811c0.224,5.942-0.622,12.515,2.959,17.261c1.145,1.517,2.671,2.66,4.377,3.484
			c0.522,1.663,1.331,3.242,2.085,4.822c0.544,1.139,1.064,2.295,1.571,3.459c0.032,0.073,0.063,0.147,0.094,0.22
			c0.448,1.031,0.886,2.068,1.322,3.106c1.03,2.454,2.05,4.916,3.155,7.32c0.788-0.735,1.476-1.574,2.017-2.531
			c1.565-2.773,1.799-6.164,3.476-8.87c3.753-6.058,12.561-6.083,18.434-10.12c2.826-1.943,5.14-4.924,8.499-5.619
			c4.14-0.857,7.989,2.069,11.97,3.495c5.252,1.881,11.402,1.029,15.945-2.21c4.192-2.988,6.829-7.644,10.339-11.41
			c4.128-4.429,9.575-7.572,15.435-9.083c0.208-1.429,0.329-2.871,0.366-4.315c0-0.015,0.001-0.029,0.001-0.044
			c0.035-1.418-0.015-2.838-0.144-4.25c-0.004-0.043-0.007-0.086-0.011-0.129c-0.064-0.676-0.149-1.349-0.251-2.02
			c-0.013-0.086-0.028-0.172-0.042-0.258c-0.099-0.622-0.213-1.241-0.345-1.857c-0.012-0.056-0.022-0.112-0.034-0.167
			c-0.079-0.362-0.179-0.72-0.269-1.079C207.577,25.007,206.997,24.987,206.421,24.963z"/>
		<path fill="#DCE3C7" d="M214.421,18.866c-0.563-0.622-1.286-1.055-2.06-1.391c0.15,1.286-0.224,2.608-1.297,3.437
			c-0.14,0.108-0.283,0.198-0.427,0.282c-0.174,0.275-0.4,0.514-0.682,0.674c-2.863,1.622-7.041,1.816-8.99-1.285
			c-0.868-1.381-1.035-3.071-0.849-4.713c-0.057-0.003-0.114-0.005-0.172-0.008c-0.033,0.767-0.198,1.539-0.596,2.324
			c-1.689,3.329-5.542,5.34-9.06,6.062c-4.027,0.826-8.373,0.608-12.432,0.117c-3.681-0.446-8.01-1.339-10.462-4.395
			c-0.247-0.308-0.451-0.624-0.635-0.943c-0.384,1.919-1.317,4.312-1.913,4.568c-1.006,0.431-1.912,0.574-2.991,0.329
			c-0.788-0.179-1.547-0.585-2.22-1.026c-0.524-0.343-1.058-0.717-1.551-1.134c-1.166,1.33-2.758,2.302-4.482,2.775
			c-0.872,0.239-1.755,0.344-2.638,0.358c-0.265,0.129-0.574,0.206-0.937,0.202c-3.213-0.035-6.658-0.149-9.572-1.621
			c-1.212,0.269-2.504,0.238-3.828,0.243c-2.568,0.008-5.127,0.267-7.694,0.316c-0.929,0.018-1.869-0.005-2.807-0.067
			c-4.764,0.341-10.37-0.472-10.776-3.703c-0.022-0.177-0.024-0.356-0.041-0.533c-0.416-0.41-0.801-0.841-1.146-1.297
			c-1.054,0.207-2.108,0.416-3.157,0.655c-2.282,0.521-5.012,1.645-5.179,3.98c0.043,0.018,0.086,0.032,0.129,0.05
			c14.941,6.277,31.793,5.319,47.99,4.614c15.571-0.678,31.218-1.031,46.647-3.075c1.943,0.117,3.886,0.22,5.831,0.302
			c0.576,0.024,1.156,0.045,1.736,0.05c0.004,0,0.008,0,0.012,0c1.632,0.013,3.261-0.11,4.77-0.702
			c0.876-0.343,1.73-0.879,2.168-1.713C215.733,21.405,215.324,19.865,214.421,18.866z"/>
		<path fill="#3B744F" d="M166.891,17.078c0.092,0.445,0.025,1.158-0.134,1.949c0.184,0.319,0.388,0.635,0.635,0.943
			c2.451,3.056,6.78,3.95,10.462,4.395c4.059,0.491,8.405,0.71,12.432-0.117c3.518-0.722,7.372-2.733,9.06-6.062
			c0.398-0.785,0.563-1.556,0.596-2.324c0.068-1.558-0.452-3.096-0.984-4.68c-0.73-2.174-1.541-4.321-2.425-6.437
			c-0.885-2.118-1.84-4.203-2.863-6.254c-0.706-3.553-0.544-7.56-3.561-10.13c-3.25-2.767-7.86-1.581-11.045,0.681
			c-6.478,4.6-8.374,12.557-11.421,19.446c-0.755,1.707-1.464,3.545-1.732,5.376C166.331,14.914,166.667,15.993,166.891,17.078z
			 M182.041,8.026c2.688,0,2.683,4.17,0,4.17C179.353,12.196,179.357,8.026,182.041,8.026z M172.693,19.152
			c-2.688,0-2.683-4.17,0-4.17C175.381,14.982,175.377,19.152,172.693,19.152z"/>
		<path fill="#3B744F" d="M147.8,8.6c1.313,0.49,1.59,2.23,0.838,3.258c0.283,1.811,0.226,3.642-0.424,5.411
			c-1.15,3.13-3.877,5.93-7.305,6.111c-0.149,0.044-0.305,0.065-0.456,0.098c2.914,1.472,6.359,1.586,9.572,1.621
			c0.363,0.004,0.672-0.074,0.937-0.202c0.884-0.014,1.767-0.119,2.638-0.358c1.723-0.473,3.316-1.445,4.482-2.775
			c-0.657-0.556-1.241-1.193-1.618-1.963c-1.225-2.505-0.491-5.691,0.464-8.177c0.342-0.889,0.722-1.776,1.323-2.465
			c-0.04-0.109-0.08-0.218-0.12-0.326c-1.19-3.221-2.415-6.43-3.822-9.563c-0.448-0.997-0.912-2.103-1.462-3.171
			c0.411,1.22-0.22,2.838-1.892,2.838c-2.688,0-2.683-4.17,0-4.17c0.699,0,1.211,0.285,1.546,0.702
			c-0.832-1.483-1.86-2.833-3.301-3.618c-3.009-1.638-6.141-0.032-7.999,2.478c1.728,3.571,3.477,7.133,5.143,10.732
			C146.865,6.186,147.378,7.376,147.8,8.6z"/>
		<path fill="#74BF5C" d="M200.964,20.584c1.948,3.1,6.127,2.907,8.99,1.285c0.282-0.16,0.509-0.399,0.682-0.674
			c0.145-0.084,0.288-0.174,0.427-0.282c1.073-0.829,1.447-2.152,1.297-3.437c-0.042-0.364-0.12-0.727-0.244-1.073
			c-0.445-1.243-1.115-2.427-1.856-3.516c-0.722-1.062-1.534-2.22-2.543-3.033c-1.34-1.08-3.147-1.406-4.622-0.363
			c-1.273,0.9-1.923,2.287-2.395,3.73c-0.27,0.825-0.483,1.731-0.587,2.651C199.928,17.512,200.096,19.203,200.964,20.584z"/>
		<path fill="#74BF5C" d="M156.464,19.801c0.376,0.77,0.96,1.406,1.618,1.963c0.493,0.418,1.027,0.791,1.551,1.134
			c0.673,0.441,1.432,0.846,2.22,1.026c1.079,0.246,1.985,0.102,2.991-0.329c0.596-0.255,1.53-2.649,1.913-4.568
			c0.158-0.791,0.226-1.504,0.134-1.949c-0.224-1.085-0.56-2.164-0.98-3.213c-0.537-1.34-1.215-2.628-2.012-3.798
			c-0.934-1.371-2.419-2.579-4.185-1.931c-0.611,0.224-1.081,0.583-1.463,1.022c-0.601,0.689-0.981,1.576-1.323,2.465
			C155.973,14.109,155.239,17.295,156.464,19.801z"/>
		<path fill="#74BF5C" d="M115.306,19.733c-0.094-0.97-0.121-1.942-0.074-2.909c-0.018-0.136-0.037-0.272-0.055-0.408
			c-0.01-0.256,0.046-0.495,0.149-0.72c0.095-0.934,0.229-1.861,0.434-2.766c0.511-2.26,1.168-4.741,2.241-6.556
			c1.204-2.037,3.214-2.565,4.898-1.673c1.584,0.839,2.737,2.601,3.88,4.351c1.275,1.953,2.55,3.905,3.825,5.858
			c1.268,1.941,2.845,3.924,2.259,6.939c-0.194,1-3.24,1.872-6.74,2.123c0.939,0.062,1.879,0.085,2.807,0.067
			c2.567-0.049,5.126-0.308,7.694-0.316c1.324-0.004,2.616,0.026,3.828-0.243c0.152-0.034,0.307-0.054,0.456-0.098
			c3.428-0.181,6.155-2.981,7.305-6.111c0.65-1.769,0.707-3.6,0.424-5.411c-0.333,0.455-0.859,0.773-1.595,0.773
			c-2.688,0-2.683-4.17,0-4.17c0.285,0,0.533,0.055,0.757,0.139c-0.422-1.224-0.935-2.414-1.456-3.539
			c-1.665-3.599-3.415-7.162-5.143-10.732c-0.254-0.524-0.51-1.048-0.762-1.573c-1.629-3.39-3.317-7.254-6.83-9.093
			c-1.939-1.015-4.218-1.342-6.277-0.49c-1.885,0.78-3.297,2.337-4.538,3.906c-2.702,3.414-4.804,7.31-6.64,11.246
			c-1.84,3.946-3.798,8.192-4.163,12.582c-0.235,2.824,0.571,5.414,2.17,7.529C114.505,18.891,114.89,19.323,115.306,19.733z
			 M140.304,22.848c-2.688,0-2.683-4.17,0-4.17C142.992,18.678,142.987,22.848,140.304,22.848z M135.522-9.147
			c2.688,0,2.683,4.17,0,4.17C132.834-4.977,132.838-9.147,135.522-9.147z M129.051,3.221c0.084-0.258,0.228-0.482,0.431-0.671
			c0.145-0.145,0.29-0.29,0.435-0.435c0.26-0.258,0.567-0.437,0.92-0.536c0.185-0.025,0.37-0.05,0.554-0.074
			c0.376,0.001,0.727,0.096,1.052,0.285c0.141,0.109,0.281,0.217,0.422,0.326c0.203,0.189,0.347,0.413,0.431,0.671
			c0.131,0.248,0.19,0.516,0.18,0.803c0.011,0.287-0.049,0.555-0.18,0.803c-0.084,0.258-0.228,0.482-0.431,0.671
			c-0.145,0.145-0.29,0.29-0.435,0.435c-0.26,0.258-0.567,0.437-0.92,0.536c-0.185,0.025-0.37,0.05-0.554,0.074
			c-0.376-0.001-0.727-0.096-1.052-0.285c-0.141-0.109-0.281-0.217-0.422-0.326c-0.203-0.189-0.347-0.413-0.431-0.671
			c-0.131-0.249-0.19-0.516-0.18-0.803C128.861,3.737,128.921,3.47,129.051,3.221z"/>
		<path fill="#A2CF7F" d="M132.862,21.846c0.586-3.014-0.991-4.997-2.259-6.939c-1.275-1.953-2.55-3.905-3.825-5.858
			c-1.142-1.749-2.296-3.512-3.88-4.351c-1.684-0.892-3.694-0.363-4.898,1.673c-1.073,1.815-1.73,4.296-2.241,6.556
			c-0.205,0.905-0.339,1.832-0.434,2.766c0.012-0.027,0.017-0.057,0.031-0.083c0.084-0.258,0.228-0.482,0.431-0.671
			c0.189-0.203,0.413-0.347,0.671-0.431c0.248-0.131,0.516-0.19,0.803-0.18c0.072,0,0.145,0,0.217,0
			c0.376,0.001,0.727,0.096,1.052,0.285c0.141,0.109,0.281,0.217,0.422,0.326c0.258,0.26,0.437,0.567,0.536,0.92
			c0.025,0.185,0.05,0.37,0.074,0.554c0.011,0.287-0.049,0.555-0.18,0.803c-0.084,0.258-0.228,0.482-0.431,0.671
			c-0.189,0.203-0.413,0.347-0.671,0.431c-0.248,0.131-0.516,0.19-0.803,0.18c-0.072,0-0.145,0-0.217,0
			c-0.376-0.001-0.727-0.096-1.052-0.285c-0.141-0.109-0.281-0.217-0.422-0.326c-0.258-0.26-0.437-0.567-0.536-0.92
			c-0.007-0.049-0.013-0.097-0.02-0.146c-0.047,0.967-0.02,1.939,0.074,2.909c0.017,0.178,0.018,0.356,0.041,0.533
			c0.406,3.231,6.011,4.044,10.776,3.703C129.622,23.718,132.668,22.846,132.862,21.846z M121.773,11.731
			c0.064-0.271,0.189-0.508,0.373-0.709c0.147-0.227,0.342-0.406,0.585-0.537c0.29-0.145,0.58-0.29,0.87-0.435
			c0.325-0.189,0.676-0.284,1.052-0.285c0.185,0.025,0.37,0.05,0.554,0.074c0.353,0.099,0.66,0.278,0.92,0.536
			c0.109,0.141,0.217,0.281,0.326,0.422c0.152,0.239,0.235,0.498,0.247,0.775c0.062,0.277,0.05,0.554-0.037,0.831
			c-0.065,0.271-0.189,0.508-0.373,0.709c-0.147,0.227-0.342,0.406-0.585,0.537c-0.29,0.145-0.58,0.29-0.87,0.435
			c-0.325,0.189-0.676,0.283-1.052,0.285c-0.185-0.025-0.37-0.05-0.554-0.074c-0.353-0.099-0.66-0.278-0.92-0.536
			c-0.109-0.141-0.217-0.281-0.326-0.422c-0.152-0.239-0.235-0.498-0.247-0.775C121.673,12.285,121.686,12.008,121.773,11.731z"/>
		<path fill="#F0FF9E" d="M172.693,19.152c2.683,0,2.688-4.17,0-4.17C170.01,14.982,170.006,19.152,172.693,19.152z"/>
		<path fill="#F0FF9E" d="M182.041,12.196c2.683,0,2.688-4.17,0-4.17C179.357,8.026,179.353,12.196,182.041,12.196z"/>
		<path fill="#F0FF9E" d="M115.788,17.889c0.141,0.109,0.281,0.217,0.422,0.326c0.325,0.189,0.676,0.283,1.052,0.285
			c0.072,0,0.145,0,0.217,0c0.287,0.011,0.555-0.049,0.803-0.18c0.258-0.084,0.482-0.228,0.671-0.431
			c0.203-0.189,0.347-0.413,0.431-0.671c0.131-0.248,0.19-0.516,0.18-0.803c-0.025-0.185-0.05-0.37-0.074-0.554
			c-0.099-0.353-0.278-0.66-0.536-0.92c-0.141-0.109-0.281-0.217-0.422-0.326c-0.325-0.189-0.676-0.283-1.052-0.285
			c-0.072,0-0.145,0-0.217,0c-0.287-0.011-0.555,0.049-0.803,0.18c-0.258,0.084-0.482,0.228-0.671,0.431
			c-0.203,0.189-0.347,0.413-0.431,0.671c-0.014,0.027-0.018,0.056-0.031,0.083c-0.103,0.225-0.159,0.464-0.149,0.72
			c0.018,0.136,0.037,0.272,0.055,0.408c0.007,0.049,0.013,0.097,0.02,0.146C115.35,17.323,115.529,17.629,115.788,17.889z"/>
		<path fill="#F0FF9E" d="M121.983,13.337c0.109,0.141,0.217,0.281,0.326,0.422c0.26,0.258,0.567,0.437,0.92,0.536
			c0.185,0.025,0.37,0.05,0.554,0.074c0.376-0.001,0.727-0.096,1.052-0.285c0.29-0.145,0.58-0.29,0.87-0.435
			c0.243-0.131,0.438-0.31,0.585-0.537c0.184-0.201,0.309-0.438,0.373-0.709c0.087-0.277,0.099-0.554,0.037-0.831
			c-0.013-0.277-0.095-0.536-0.247-0.775c-0.109-0.141-0.217-0.281-0.326-0.422c-0.26-0.258-0.567-0.437-0.92-0.536
			c-0.185-0.025-0.37-0.05-0.554-0.074c-0.376,0.001-0.727,0.096-1.052,0.285c-0.29,0.145-0.58,0.29-0.87,0.435
			c-0.243,0.131-0.438,0.31-0.585,0.537c-0.184,0.201-0.309,0.438-0.373,0.709c-0.087,0.277-0.099,0.554-0.037,0.831
			C121.748,12.84,121.831,13.098,121.983,13.337z"/>
		<path fill="#F0FF9E" d="M129.482,5.499c0.141,0.109,0.281,0.217,0.422,0.326c0.325,0.189,0.676,0.284,1.052,0.285
			c0.185-0.025,0.37-0.05,0.554-0.074c0.353-0.099,0.66-0.278,0.92-0.536c0.145-0.145,0.29-0.29,0.435-0.435
			c0.203-0.189,0.347-0.413,0.431-0.671c0.131-0.248,0.19-0.516,0.18-0.803c0.011-0.287-0.049-0.555-0.18-0.803
			c-0.084-0.258-0.228-0.482-0.431-0.671c-0.141-0.109-0.281-0.217-0.422-0.326c-0.325-0.189-0.676-0.283-1.052-0.285
			c-0.185,0.025-0.37,0.05-0.554,0.074c-0.353,0.099-0.66,0.278-0.92,0.536c-0.145,0.145-0.29,0.29-0.435,0.435
			c-0.203,0.189-0.347,0.413-0.431,0.671c-0.131,0.248-0.19,0.516-0.18,0.803c-0.011,0.287,0.049,0.555,0.18,0.803
			C129.135,5.086,129.279,5.31,129.482,5.499z"/>
		<path fill="#F0FF9E" d="M140.304,18.678c-2.683,0-2.688,4.17,0,4.17C142.987,22.848,142.992,18.678,140.304,18.678z"/>
		<path fill="#F0FF9E" d="M147.8,8.6c-0.224-0.084-0.472-0.139-0.757-0.139c-2.683,0-2.688,4.17,0,4.17
			c0.735,0,1.262-0.318,1.595-0.773C149.39,10.829,149.113,9.09,147.8,8.6z"/>
	</g>
</g>
<g id="参考">
</g>
</svg>
