<?xml version="1.0" encoding="utf-8"?>
<!-- Generator: Adobe Illustrator 24.0.3, SVG Export Plug-In . SVG Version: 6.00 Build 0)  -->
<svg version="1.1" xmlns="http://www.w3.org/2000/svg" xmlns:xlink="http://www.w3.org/1999/xlink" x="0px" y="0px"
	 viewBox="0 0 1200 850" enable-background="new 0 0 1200 850" xml:space="preserve">
<g id="レイヤー1">
	<g>
		<path fill="none" d="M358.643,518.032c0.663,2.065,1.348,4.125,2.093,6.162c0.382,1.044,0.805,2.076,1.307,3.067
			c2.411-1.365,5.181-2.098,7.962-2.089c-0.047-0.511-0.094-1.021-0.141-1.532c-0.571-4.083-1.142-8.165-1.713-12.248
			c-4.176-0.258-8.285-1.673-11.712-3.991c0.362,2.857,0.876,5.69,1.536,8.49C358.196,516.606,358.415,517.321,358.643,518.032z"/>
		<path fill="none" d="M377.046,526.94c0.127,0.075,0.226,0.162,0.34,0.242c2.595-7.011,4.738-14.18,6.415-21.464
			c-1.653,1.452-3.452,2.805-5.462,3.773c-2.67,1.286-5.565,1.898-8.473,1.943c0.47,4.599,0.941,9.199,1.411,13.799
			C373.268,525.398,375.325,525.919,377.046,526.94z"/>
		<path fill="#7DDDB2" d="M375.363,470.307c0.085-0.658,0.097-1.352-0.248-1.936c-0.484-0.819-1.466-0.971-2.33-1.085
			c-0.476-0.063-0.954-0.096-1.435-0.093c-0.21,0.002-0.42,0.01-0.629,0.025c-0.243,0.017-0.505,0.02-0.726,0.131
			c-0.498,0.25-0.495,0.751-0.426,1.229c0.05,0.342,0.101,0.684,0.152,1.026C371.615,469.609,373.511,469.833,375.363,470.307z"/>
		<path fill="#E0D47F" d="M384.439,505.149c-0.21,0.191-0.423,0.381-0.637,0.569c-1.677,7.283-3.82,14.452-6.415,21.464
			c-0.114-0.08-0.214-0.167-0.34-0.242c-1.721-1.022-3.778-1.542-5.769-1.708c-0.47-4.599-0.941-9.199-1.411-13.799
			c-0.572,0.009-1.143-0.007-1.715-0.042c0.571,4.083,1.142,8.165,1.713,12.248c0.047,0.511,0.094,1.021,0.141,1.532
			c-2.781-0.01-5.551,0.724-7.962,2.089c-0.502-0.99-0.925-2.023-1.307-3.067c-0.745-2.037-1.43-4.097-2.093-6.162
			c-0.229-0.712-0.448-1.427-0.668-2.141c-0.66-2.799-1.174-5.633-1.536-8.49c-0.858-0.581-1.668-1.221-2.43-1.911
			c-0.024,0.084-0.035,0.176-0.012,0.28c1.205,5.437,2.702,10.803,4.47,16.08c0.65,2.078,1.379,4.132,2.195,6.156
			c-0.349,0.105-0.689,0.229-0.998,0.414c-0.732,0.438-1.15,1.094-1.378,1.832c-0.048,0.053-0.1,0.103-0.147,0.157
			c-0.212,0.242-0.18,0.51-0.038,0.697c-0.074,0.62-0.052,1.263,0.021,1.869c0.105,0.88,0.288,1.743,0.508,2.596
			c0.302,2.178,0.729,4.337,1.307,6.461c0.347,1.276,0.745,2.539,1.191,3.784c0.428,1.196,0.808,2.742,1.624,3.743
			c0.632,0.775,1.642,0.895,2.578,1.024c1.468,0.203,2.954,0.234,4.428,0.073c2.284-0.25,4.768-0.872,6.27-2.75
			c1.518-1.898,1.669-4.503,1.991-6.812c0.394-2.826,0.808-5.651,1.181-8.48c0.204-1.549,0.134-2.957-0.553-4.111
			c1.003-2.938,1.941-5.896,2.808-8.875c1.821-5.239,3.344-10.578,4.559-15.992C385.499,504.154,384.975,504.661,384.439,505.149z
			 M377.669,530.403c-0.273,1.649-2.026,2.018-3.404,2.099c-1.315,0.078-2.634,0.098-3.951,0.061
			c-2.764-0.078-5.525-0.41-8.237-0.948c-0.759-0.151-1.287-0.903-1.395-1.619c-0.123-0.816,0.282-1.489,0.93-1.94
			c1.175-0.819,2.535-1.216,3.952-1.324c0.013-0.001,0.026,0.003,0.04,0.002c0.097-0.04,0.195-0.076,0.302-0.093
			c3.747-0.614,7.449-0.098,10.869,1.563C377.594,528.602,377.803,529.597,377.669,530.403z"/>
		<path fill="#95D487" d="M376.774,528.204c-3.42-1.661-7.122-2.177-10.869-1.563c-0.107,0.018-0.205,0.054-0.302,0.093
			c-0.013,0.001-0.026-0.003-0.04-0.002c-1.417,0.108-2.776,0.505-3.952,1.324c-0.648,0.451-1.052,1.124-0.93,1.94
			c0.108,0.715,0.635,1.468,1.395,1.619c2.712,0.539,5.472,0.871,8.237,0.948c1.317,0.037,2.636,0.017,3.951-0.061
			c1.378-0.081,3.131-0.45,3.404-2.099C377.803,529.597,377.594,528.602,376.774,528.204z"/>
		<path fill="#EB5B1E" d="M390.968,484.512c-1.712-6.426-7.709-11.754-14.54-13.756c-0.209-0.167-0.472-0.301-0.791-0.387
			c-0.091-0.024-0.183-0.039-0.275-0.062c-1.852-0.473-3.748-0.698-5.64-0.702c-7.328-0.017-14.574,3.347-18.722,9.198
			c-5.333,7.523-4.824,17.833,1.182,24.84c0.563,0.657,1.182,1.265,1.827,1.849c0.762,0.69,1.571,1.33,2.43,1.911
			c3.427,2.318,7.536,3.732,11.712,3.991c0.571,0.035,1.143,0.051,1.715,0.042c2.908-0.044,5.804-0.657,8.473-1.943
			c2.01-0.968,3.809-2.321,5.462-3.773c0.215-0.188,0.427-0.378,0.637-0.569c0.536-0.489,1.061-0.995,1.575-1.512
			c1.215-1.222,2.346-2.526,3.247-3.964C392.044,495.231,392.28,489.436,390.968,484.512z M364.205,472
			c0.979-0.092,1.958-0.183,2.937-0.275c1.221-0.316,2.461-0.508,3.731-0.438c0.302-0.027,0.603-0.052,0.904-0.077
			c0.04-0.003,0.07,0.009,0.105,0.013c0.131-0.188,0.375-0.308,0.598-0.229c2.058,0.728,3.816,2.01,5.547,3.307
			c0.239,0.179,0.363,0.473,0.198,0.755c-0.146,0.25-0.504,0.358-0.755,0.198c-0.25-0.159-0.505-0.31-0.759-0.462
			c-0.035-0.012-0.069-0.015-0.105-0.035c-1.301-0.753-2.637-1.441-4.005-2.064c-0.105-0.048-0.17-0.141-0.213-0.245
			c-0.346,1.349-0.691,2.698-1.037,4.047c0.007,0.033,0.009,0.066,0.016,0.099c0.066,0.292-0.087,0.597-0.385,0.679
			c-0.19,0.052-0.401-0.017-0.54-0.155c-0.092,0.035-0.189,0.056-0.28,0.045c-0.27-0.032-0.477-0.27-0.479-0.542
			c-0.009-1.383,0.203-2.764,0.612-4.086c-0.761,0.071-1.523,0.142-2.284,0.214c-0.701,0.121-1.395,0.274-2.077,0.479
			c-0.321,0.096-0.641,0.2-0.956,0.321c-0.383,0.13-0.627-0.145-0.657-0.455c-0.039,0.004-0.077,0.007-0.116,0.011
			C363.497,473.17,363.504,472.065,364.205,472z M382.686,503.096c-3.186,2.981-6.934,5.619-11.29,6.425
			c-0.077,0.054-0.164,0.097-0.275,0.108c-1.052,0.105-2.095,0.071-3.124-0.071c-4.573-0.442-8.978-2.36-12.36-5.51
			c-4.075-3.795-6.451-9.201-6.644-14.749c-0.025-0.712,1.079-0.708,1.104,0c0.001,0.043,0.006,0.086,0.008,0.129
			c0.333-0.099,0.729,0.063,0.677,0.495c-0.636,5.244,2.446,9.813,6.338,13.008c3.124,2.564,6.983,4.981,11.082,5.534
			c0.237,0.022,0.474,0.037,0.711,0.051c-0.61-3.617-0.888-7.266-0.845-10.915c-0.129-3.087-0.014-6.185,0.378-9.263
			c0.086-0.673,1.112-0.695,1.099-0.06c0.218,0.104,0.392,0.322,0.344,0.622c-0.446,2.787-0.68,5.599-0.727,8.414
			c0.13,3.466,0.587,6.917,1.379,10.311c8.102-2.577,14.906-8.507,18.582-16.175c0.275-0.573,1.183-0.161,1.009,0.425
			C388.824,496.275,386.002,499.993,382.686,503.096z"/>
		<path fill="#BB541F" d="M364.205,473.104c0.039-0.004,0.077-0.007,0.116-0.011c0.03,0.309,0.273,0.585,0.657,0.455
			c0.316-0.12,0.635-0.225,0.956-0.321c0.683-0.205,1.377-0.358,2.077-0.479c0.761-0.071,1.523-0.142,2.284-0.214
			c-0.409,1.321-0.621,2.703-0.612,4.086c0.002,0.272,0.208,0.51,0.479,0.542c0.091,0.011,0.188-0.01,0.28-0.045
			c0.139,0.138,0.35,0.207,0.54,0.155c0.299-0.082,0.452-0.387,0.385-0.679c-0.007-0.033-0.009-0.066-0.016-0.099
			c0.346-1.349,0.691-2.698,1.037-4.047c0.043,0.104,0.108,0.197,0.213,0.245c1.368,0.623,2.704,1.311,4.005,2.064
			c0.036,0.021,0.07,0.023,0.105,0.035c0.254,0.152,0.509,0.303,0.759,0.462c0.251,0.16,0.609,0.052,0.755-0.198
			c0.165-0.282,0.041-0.576-0.198-0.755c-1.731-1.297-3.489-2.578-5.547-3.307c-0.223-0.079-0.467,0.041-0.598,0.229
			c-0.036-0.004-0.065-0.016-0.105-0.013c-0.301,0.025-0.602,0.05-0.904,0.077c-1.27-0.07-2.51,0.122-3.731,0.438
			c-0.979,0.092-1.958,0.183-2.937,0.275C363.504,472.065,363.497,473.17,364.205,473.104z"/>
		<path fill="#BB541F" d="M390.131,491.874c0.174-0.587-0.734-0.999-1.009-0.425c-3.676,7.668-10.48,13.598-18.582,16.175
			c-0.792-3.394-1.249-6.845-1.379-10.311c0.047-2.815,0.281-5.627,0.727-8.414c0.048-0.3-0.125-0.518-0.344-0.622
			c0.013-0.635-1.013-0.613-1.099,0.06c-0.392,3.078-0.507,6.176-0.378,9.263c-0.043,3.649,0.236,7.298,0.845,10.915
			c-0.237-0.013-0.475-0.029-0.711-0.051c-4.099-0.553-7.958-2.969-11.082-5.534c-3.892-3.195-6.974-7.764-6.338-13.008
			c0.052-0.432-0.344-0.594-0.677-0.495c-0.002-0.043-0.006-0.086-0.008-0.129c-0.025-0.708-1.128-0.712-1.104,0
			c0.193,5.548,2.569,10.954,6.644,14.749c3.382,3.15,7.787,5.068,12.36,5.51c1.029,0.142,2.072,0.176,3.124,0.071
			c0.111-0.011,0.199-0.054,0.275-0.108c4.356-0.806,8.104-3.443,11.29-6.425C386.002,499.993,388.824,496.275,390.131,491.874z"/>
	</g>
</g>
<g id="参考">
</g>
</svg>
