<?xml version="1.0" encoding="utf-8"?>
<!-- Generator: Adobe Illustrator 24.0.1, SVG Export Plug-In . SVG Version: 6.00 Build 0)  -->
<svg version="1.1" xmlns="http://www.w3.org/2000/svg" xmlns:xlink="http://www.w3.org/1999/xlink" x="0px" y="0px"
	 viewBox="0 0 1540 850" enable-background="new 0 0 1540 850" xml:space="preserve">
<g id="参考画像" display="none">
</g>
<g id="レイヤー_9">
</g>
<g id="大きな島">
	<path fill="#F8F5E6" d="M680.238,309.424c-1.254-18.866-13.295-35.129-18.982-53.161c-3.976-12.609-2.883-28.594,4.418-38.566
		c-4.371-6.172-7.447-13.564-10.81-20.43c-6.064-12.38-13.775-23.869-21.461-35.313c-5.056-7.528-10.212-15.168-17.196-20.953
		c-7.69-6.369-17.155-10.126-26.447-13.783c-9.229-3.632-18.458-7.264-27.686-10.896c-4.164-1.639-8.829-3.286-12.987-1.631
		c-2.396,0.953-4.25,2.884-5.976,4.8c-6.175,6.856-11.747,14.255-16.63,22.084c-3.513,5.632-6.798,11.636-12.015,15.739
		c-6.424,5.053-15.217,6.749-20.888,12.636c-2.757,2.862-4.59,6.55-7.551,9.2c-7.616,6.817-19.384,4.572-29.392,6.651
		c-5.291,1.099-10.14,3.456-14.912,6.044c-6.011-1.556-12.022-3.111-18.033-4.667c-4.358-1.128-8.759-2.272-12.752-4.35
		c-4.765-2.479-8.776-6.199-13.419-8.898c-7.28-4.233-15.842-5.81-23.223-9.866c-4.276-2.35-8.109-5.508-12.596-7.424
		c-4.487-1.916-10.063-2.366-13.949,0.585c-1.937,1.471-3.232,3.607-4.731,5.523c-1.806,2.308-3.972,4.323-6.381,5.989
		c-1.406-0.679-2.852-1.276-4.349-1.765c-2.586-0.844-5.268-1.354-7.881-2.109c-10.952-3.164-20.148-10.422-29.832-16.55
		c-0.305-0.895-0.573-1.798-0.786-2.715c-1.721-7.411-0.024-15.347-2.099-22.667c-1.757-6.2-6.046-11.339-10.492-16.004
		c-7.381-7.744-15.52-14.766-24.263-20.932c-4.887-3.447-10.093-6.682-15.928-7.99c-5.835-1.308-12.456-0.401-16.862,3.642
		c-6.486,5.951-6.392,16.481-12.009,23.258c-0.493,0.595-1.024,1.154-1.587,1.683c-14.431-3.271-29.052-4.179-42.374,1.618
		c-4.051,1.763-7.869,4.118-12.118,5.332c-6.585,1.882-13.595,0.872-20.444,0.906c-6.849,0.034-14.361,1.505-18.63,6.861
		c-3.829,4.805-4.249,11.796-8.496,16.236c-5.64,5.896-15.076,4.782-23.228,5.122c-20.51,0.856-38.513,13.442-58.271,19.011
		c-16.672,4.699-35.247,4.645-50.235,12.719v325.438c34.458,16.163,73.059,23.375,110.791,30.249
		c29.825,5.434,59.93,10.889,90.227,9.828c49.88-1.747,97.274-20.966,143.45-39.911c15.325-6.288,30.734-12.618,44.781-21.397
		c17.435-10.895,32.921-25.617,52.468-31.99c22.414-7.307,46.753-2.571,70.299-3.724c48.544-2.377,91.914-29.522,132.78-55.829
		c14.349-9.237,28.883-18.63,40.296-31.317C673.26,343.055,681.369,326.452,680.238,309.424z"/>
	<g>
		<g>
			<path fill="#E6E0D6" d="M586.476,175.053c-1.108-3.436-4.921-5.156-8.43-6.001c-3.51-0.845-7.342-1.328-10.025-3.743
				l-63.682-4.563c-4.308,0.989-8.334,3.175-11.51,6.25c-0.581,0.563-1.148,1.175-1.439,1.931c-0.356,0.926-0.258,1.955-0.155,2.942
				c0.847,8.096,1.694,16.192,2.54,24.287c0.211,2.016,0.437,4.085,1.364,5.887c2.682,5.215,9.739,6.022,15.589,5.629
				c3.854-0.259,7.689-0.746,11.521-1.232c1.555-0.197,3.126-0.398,4.597-0.94c1.079-0.397,2.081-0.968,3.082-1.539
				c5.766,2.214,11.594,4.268,17.42,6.319c2.652,0.934,5.343,1.876,8.147,2.081c2.613,0.191,5.224-0.266,7.804-0.721
				c2.695-0.475,5.39-0.95,8.085-1.425c2.56-0.451,5.232-0.951,7.286-2.545c3.082-2.392,3.995-6.58,4.702-10.416
				c0.999-5.419,1.998-10.838,2.998-16.258C586.733,179.025,587.091,176.959,586.476,175.053z"/>
		</g>
		<g>
			<path fill="#F8F2EA" d="M548.588,183.848c4.052-0.468,8.002-1.655,12.065-2.02c7.964-0.715,16.084,1.752,23.921,0.163
				c0.574-0.116,1.132-0.277,1.692-0.433c0.034-0.188,0.069-0.375,0.104-0.563c0.363-1.969,0.721-4.036,0.106-5.942
				c-1.108-3.436-4.921-5.156-8.43-6.001c-3.51-0.845-7.342-1.328-10.025-3.743l-63.682-4.563c-4.308,0.989-8.334,3.175-11.51,6.25
				c-0.449,0.435-0.886,0.901-1.197,1.438c9.41,4.811,19.699,8.061,29.86,11.147C530.306,182.257,539.437,184.904,548.588,183.848z"
				/>
		</g>
		<path fill="#E6E0D6" d="M585.703,140.906c-1.694-7.51-5.612-14.237-9.476-20.851c-0.049-3.852,0.036-7.705,0.285-11.55
			c0.177-2.733,0.427-5.461,0.753-8.18c0.311-2.59,0.895-5.191,1.041-7.796c0.086-1.539,0.016-4.124-1.854-4.61
			c-1.737-0.452-2.939,1.034-3.471,2.485c-1.818,4.968-3.065,10.205-4.611,15.265c-0.961,3.144-2.008,6.303-3.432,9.268
			c-2.574,0.95-5.296,1.474-8.034,1.824c-4.182,0.535-8.413,0.939-12.629,1.031c-5.996,0.131-12.225-0.594-17.646-3.16
			c-4.308-7.215-6.694-15.341-9.874-23.184c-0.706-1.742-1.915-3.5-3.964-3.654c-1.914-0.143-3.071,1.384-3.604,3.039
			c-0.858,2.667-1.182,5.617-1.661,8.372c-0.521,2.994-0.983,5.998-1.39,9.01c-0.558,4.131-0.993,8.276-1.335,12.429
			c-2.313,4.565-4.315,9.285-5.959,14.134c-2.186,6.447-4.161,13.408-4.664,20.226c-0.214,2.896,0.337,5.703,2.429,7.832
			c2.161,2.199,5.192,3.725,7.911,5.102c6.229,3.153,12.901,4.938,19.903,4.84c3.156-0.044,6.319-0.213,9.482-0.438
			c12.528,2.383,25.324,3.839,37.914,1.185c3.551-0.749,7.023-1.83,10.353-3.276c1.293-0.562,2.889-1.091,3.787-2.241
			c0.904-1.156,0.821-2.752,0.881-4.141C587.174,156.208,587.401,148.433,585.703,140.906z"/>
		<g>
			<path fill="#FFFFFF" d="M534.842,124.474c0.001,0.042-0.005,0.084-0.001,0.125c0.03,0.321,0.091,0.64,0.285,0.907
				c0.111,0.153,0.244,0.288,0.394,0.4c0.056,0.063,0.091,0.139,0.157,0.194c0.17,0.142,0.37,0.26,0.603,0.25
				c0.227-0.01,0.438-0.087,0.603-0.25c0.767-0.759,0.919-1.932,0.463-2.89c-0.107-0.225-0.286-0.397-0.491-0.532
				c-0.076-0.139-0.164-0.27-0.282-0.383c-0.334-0.318-0.804-0.476-1.245-0.29c-0.744,0.314-0.856,1.244-0.692,1.945
				C534.677,124.135,534.753,124.308,534.842,124.474z"/>
			<path fill="#FFFFFF" d="M553.588,125.713c0.1,0.169,0.197,0.34,0.32,0.495c0.057,0.044,0.115,0.089,0.172,0.133
				c0.098,0.062,0.203,0.096,0.317,0.101c0.18,0.024,0.387,0.002,0.543-0.101c0.282-0.187,0.464-0.421,0.581-0.737
				c0.091-0.244,0.08-0.491,0.044-0.741c0.149-0.594,0.144-1.234-0.075-1.79c-0.081-0.204-0.187-0.401-0.392-0.509
				c-0.177-0.093-0.419-0.154-0.618-0.089c-0.188-0.101-0.4-0.138-0.622-0.077c-0.297,0.082-0.501,0.309-0.595,0.595
				c-0.037,0.114-0.039,0.233-0.062,0.35c-0.001,0.001-0.002,0.002-0.003,0.003c-0.282,0.399-0.289,0.931-0.105,1.372
				C553.13,125.09,553.332,125.426,553.588,125.713z"/>
			<path fill="#FFFFFF" d="M570.438,126.784c-2.865,2.948-7.48,6.372-11.833,5.742c-2.336-0.338-4.626-1.019-6.962-1.39
				c-2.266-0.359-4.551-0.623-6.841-0.765c-2.211-0.137-4.427-0.145-6.626,0.158c-1.127,0.155-2.278,0.531-3.415,0.559
				c-1.257,0.032-2.615-0.377-3.832-0.669c-4.219-1.009-8.846-2.82-10.658-7.117c-0.42-0.995-2.07-0.558-1.643,0.453
				c1.748,4.144,5.566,6.478,9.733,7.743c2.283,0.693,5.008,1.558,7.407,1.194c2.686-0.408,5.199-0.788,7.928-0.676
				c2.799,0.115,5.595,0.433,8.355,0.904c2.572,0.439,5.3,1.472,7.928,1.408c4.333-0.105,8.771-3.36,11.666-6.339
				C572.408,127.202,571.204,125.995,570.438,126.784z"/>
		</g>
	</g>
	<path fill="#F4E6E5" d="M-9.803,716.051V199.446c62.368-23.195,132.421-16.795,197.684-2.426
		c31.678,6.974,63.257,15.758,95.673,16.88c58.035,2.01,118.009-20.41,172.934-1.558c27.019,9.273,50.538,28.041,78.531,33.736
		c12.051,2.452,24.479,2.362,36.749,1.534c49.176-3.319,97.705-18.31,146.856-14.638c17.126,1.279,33.992,4.815,50.8,8.341
		c13.857,2.908,27.715,5.815,41.572,8.723c18.357,3.852,39.171,9.723,49.405,24.373c-3.893,10.048-7.786,20.096-11.679,30.144
		c-3.865,9.976-7.744,19.997-10.089,30.435c-1.258,5.602-2.066,11.291-2.767,16.994c0.965,5.16,1.326,10.36,0.238,15.466
		c-0.611,2.869-1.667,5.621-2.718,8.36c-3.669,9.559-7.34,19.125-11.589,28.44c-1.184,2.595-2.432,5.244-2.64,8.089
		c-0.093,1.269,0.011,2.612-0.576,3.741c-0.408,0.785-1.108,1.375-1.824,1.895c-5.692,4.132-13.619,4.958-20.041,2.088
		c-1.376-0.615-2.744-1.4-4.251-1.432c-1.242-0.026-2.426,0.466-3.614,0.825c-2.926,0.885-6.086,0.984-9.062,0.284
		c-0.716-6.106-2.082-12.11-3.565-18.081c-2.875,0.328-5.833-0.103-8.432-1.383c-2.356,0.18-4.75-0.15-6.97-0.96
		c-1.717-1.773-3.534-3.447-5.428-5.029c-0.112,0.391-0.231,0.78-0.314,1.18c-0.614,2.985-1.054,6.957-4.047,7.537
		c-2.311,0.448-4.436-1.726-6.786-1.588c-1.303,0.077-2.443,0.851-3.651,1.346c-2.91,1.192-6.198,0.749-9.309,0.286
		c-0.201-0.03-0.403-0.06-0.604-0.09c-3.707,3.102-7.586,6.1-10.089,10.159c-0.991,1.607-1.755,3.368-2.968,4.815
		c-2.697,3.22-7.086,4.347-11.177,5.298c-0.836,0.194-1.692,0.39-2.546,0.298c-1.625-0.175-2.96-1.347-4.517-1.847
		c-1.679-0.539-3.495-0.265-5.248-0.076c-0.04,0.004-0.081,0.005-0.121,0.009c-2.726,2.881-5.297,5.908-7.679,9.08
		c-3.218,4.285-6.112,8.824-9.652,12.846c-1.725,1.96-3.595,3.787-5.463,5.612c-3.4,3.323-6.801,6.645-10.201,9.968
		c-6.965,6.806-13.992,13.654-21.499,19.844c-2.545,10.32-7.649,20.019-14.88,27.817c-4.893,5.277-10.748,9.781-14.501,15.921
		c-2.231,3.649-3.627,7.736-5.482,11.589c-9.404,19.528-29.423,31.282-48.328,41.883c-3.448,1.934-7.502,3.922-11.182,2.476
		c-2.372-0.932-3.992-3.101-5.484-5.166c-3.532-4.89-7.064-9.78-10.596-14.67c-5.156,3.675-10.313,7.351-15.469,11.026
		c-3.007,2.143-6.1,4.328-9.668,5.279c-4.542,1.21-9.347,0.298-13.957-0.619c-3.203-0.637-6.648-1.409-8.8-3.865
		c-2.32-2.649-2.67-6.784-5.454-8.94c-3.424-2.651-8.351-0.863-12.256,1.007c-11.01,5.27-22.02,10.54-33.03,15.81
		c-3.311,1.585-6.664,3.197-9.457,5.579c-2.052,1.751-3.748,3.873-5.56,5.871c-1.603,1.768-3.303,3.445-5.064,5.055
		c-12.271,11.219-29.475,19.329-45.388,14.511c-2.483-0.752-5.072-1.815-7.584-1.165c-2.102,0.543-3.705,2.182-5.447,3.477
		c-1.658,1.233-3.462,2.161-5.363,2.862c-2.908,3.805-5.296,7.92-6.736,12.51c-0.885,2.821-1.386,5.747-1.884,8.661
		c-1.279,7.485-2.558,14.969-3.836,22.454c-0.302,1.769-0.609,3.554-1.291,5.214c-1.05,2.555-2.923,4.665-4.467,6.955
		c-4.108,6.093-5.862,13.415-8.553,20.252c-3.609,9.168-8.905,17.46-14.906,25.304c0,0-35.412,42.29-56.696,53.08
		c-21.284,10.79-57.193,12.343-63.069,17.921c-5.876,5.578-68.486,67.739-131.703,55.602c-18.864-3.622-62.295-28.389-63.237-30.945
		C-10.745,809.153-9.803,716.051-9.803,716.051"/>
	<g>
		<path fill="#E5CEBF" d="M-9.803,716.051V199.446c62.368-23.195,132.421-16.795,197.684-2.426
			c31.678,6.974,63.257,15.758,95.673,16.88c58.035,2.01,118.009-20.41,172.934-1.558c27.019,9.273,50.538,28.041,78.531,33.736
			c12.051,2.452,24.479,2.362,36.749,1.534c49.176-3.319,97.705-18.31,146.856-14.638c17.126,1.279,33.992,4.815,50.8,8.341
			c13.857,2.908,27.715,5.815,41.572,8.723c18.357,3.852,39.171,9.723,49.405,24.373c-3.893,10.048-7.786,20.096-11.679,30.144
			c-1.291,3.331-2.578,6.669-3.814,10.023c-2.341,1.744-4.878,3.206-7.622,4.275c-4.834,1.884-10.106,2.525-14.834,4.661
			c-15.468,6.99-20.553,27.31-34.957,36.291c-2.042,1.273-4.322,2.312-6.728,2.368c-1.896,0.044-3.746-0.524-5.58-1.006
			c-6.139-1.615-12.513-2.302-18.856-2.083c-0.995,1.108-2.015,2.174-3.09,3.145c-3.932,3.553-8.728,5.979-13.461,8.363
			c-14.489,7.297-29.406,14.722-45.556,16.26c-3.661,0.349-7.522,0.439-10.68,2.323c-4.273,2.549-6.205,7.737-9.95,11.012
			c-4.706,4.115-11.432,4.615-17.528,5.997c-10.347,2.346-19.963,7.82-27.262,15.52c-7.218,7.615-12.131,17.233-19.689,24.511
			c-4.404,4.241-10.304,7.553-16.247,8.523c-7.538,11.665-17.198,22.704-21.288,35.904c-1.7,5.485-2.675,11.728-7.104,15.383
			c-4.498,3.712-11.396,3.637-15.537,7.743c-3.455,3.426-4.198,9.049-8.004,12.081c-2.628,2.093-6.162,2.504-9.422,3.316
			c-8.765,2.183-16.304,7.645-24.575,11.275c-8.271,3.63-18.566,5.18-25.854-0.156c-4.508-3.3-7.357-8.896-12.578-10.885
			c-7.255-2.763-14.793,2.685-22.347,4.476c-10.307,2.444-20.296-2.028-29.314-8.242c-6.104,5.464-12.647,10.439-19.547,14.856
			c-2.168,1.387-4.523,2.764-7.096,2.744c-2.681-0.022-5.214-1.573-7.888-1.379c-2.721,0.197-4.956,2.135-6.959,3.985
			c-6.812,6.292-13.489,12.73-20.165,19.167c-5.311,5.121-10.622,10.242-15.933,15.362c-11.636,11.219-23.806,23.349-27.488,39.087
			c-1.058,4.521-1.393,9.285-3.43,13.457c-2.843,5.823-8.542,9.619-13.986,13.134c-7.551,4.876-15.618,9.918-24.604,10.115
			c-3.977,0.087-8.105-1.204-11.425-3.447c-8.368,1.924-17.199,1.748-25.377-0.914c-3.535-1.151-7.228-2.732-10.834-1.831
			c-5.485,1.37-7.961,7.561-11.807,11.704c-6.706,7.225-17.642,8.103-27.491,8.504c-8.84,0.36-17.68,0.72-26.52,1.08
			c-0.28,0.627-0.566,1.25-0.869,1.861c-7.239,14.576-22.447,23.298-37.339,29.862c-9.489,4.182-19.383,7.964-28.349,13.074
			c-8.738,9.76-21.097,27.013-25.795,35.265c-4.697,8.252-30.577,1.875-34.703-18.754c-4.126-20.629-24.632-13.12-31.881-10.127
			S-9.803,716.051-9.803,716.051z"/>
	</g>
	<path fill="#CAA582" d="M810.995,250.037c-13.857-2.908-27.715-5.815-41.572-8.723c-16.807-3.527-33.674-7.062-50.8-8.341
		c-49.151-3.671-97.68,11.319-146.856,14.638c-12.27,0.828-24.698,0.918-36.749-1.534c-27.993-5.695-51.512-24.462-78.531-33.736
		c-54.925-18.851-114.899,3.569-172.934,1.558c-32.417-1.123-63.996-9.906-95.673-16.88
		c-65.263-14.369-135.316-20.769-197.684,2.426v434.952c1.687,0.256,3.402,0.149,5.027-0.431c2.503-0.894,4.547-2.791,7.039-3.714
		c7.162-2.653,15.588,3.361,22.543,0.207c5.995-2.719,7.356-10.539,7.383-17.122c0.026-6.583-0.108-14.094,4.739-18.548
		c3.338-3.067,8.136-3.752,12.558-4.751c12.839-2.901,24.668-9.793,33.797-19.263c2.468,3.161,5.28,6.053,8.411,8.56
		c0.939,0.752,1.967,1.497,3.162,1.635c2.179,0.252,3.996-1.528,5.54-3.086c8.245-8.322,19.033-14.311,30.639-15.903
		c2.596-0.356,5.247-0.502,7.92-0.549c4.044,15.635,9.893,30.803,17.422,45.09c1.369,2.599,2.858,5.245,5.187,7.035
		c1.826,1.403,4.043,2.181,6.218,2.936c9.056,3.145,18.937,6.306,28.019,3.237c2.432-0.822,4.725-2.075,7.235-2.619
		c8.424-1.824,16.207,4.561,24.51,6.871c1.391,0.387,2.894,0.656,4.259,0.188c1.557-0.534,2.642-1.916,3.62-3.24
		c4.042-5.472,8.777-11.692,15.568-12.092c2.921-0.172,5.785,0.813,8.706,0.982c4.225,0.244,8.264-1.277,11.687-3.799
		c2.965,1.281,6.074,2.226,9.258,2.782c3.611,0.63,7.549,0.727,10.704-1.142c4.398-2.605,5.944-8.088,7.433-12.978
		c9.534-31.311,32.207-58.392,61.354-73.284c7.75-3.959,16.626-7.776,20.099-15.756c1.613-3.706,1.887-8.048,4.359-11.245
		c4.618-5.972,14.323-5.021,19.936-10.069c3.39-3.048,4.682-7.736,5.745-12.169c0.906-3.778,1.756-7.569,2.56-11.369
		c9.832-2.812,19.664-5.623,29.497-8.435c2.221-0.635,4.511-1.306,6.295-2.773c3.193-2.626,4.009-7.076,5.61-10.887
		c3.626-8.627,11.95-14.609,20.862-17.464s18.448-2.976,27.803-2.731c2.852,0.075,5.811,0.162,8.434-0.96
		c3.812-1.631,6.125-5.431,8.691-8.687c6.879-8.732,16.497-14.243,26.988-18.243c9.318,0.003,19.048-0.966,27.353,2.822
		c5.672,2.587,10.461,7.327,16.607,8.37c10.149,1.722,18.64-6.974,27.505-12.207c13.828-8.162,31.718-8.647,43.949-19.05
		c2.586-2.199,4.899-4.831,7.972-6.273c4.79-2.248,10.516-1.2,15.542-2.853c5.418-1.781,9.301-6.403,13.383-10.386
		c2.25-2.196,4.65-4.235,7.161-6.125c0.956,0.083,1.908,0.101,2.833,0.044c7.103-0.433,14.147-3.258,21.153-2.013
		c3.796,0.675,7.336,2.521,11.168,2.946c11.875,1.317,20.362-10.466,29.33-18.361c14.398-12.675,34.2-16.621,52.664-21.818
		c10.098-2.842,20.518-6.587,29.352-12.171c2.47-6.376,4.941-12.752,7.411-19.128C850.166,259.76,829.352,253.889,810.995,250.037z"
		/>
	<g>
		<path fill="#A98861" d="M-5.112,332.364c-7.82,2.823-14.784,8.681-18.202,16.128c-3.881,1.97-7.388,4.834-10.442,7.968
			c-9.609,9.86-16.063,24.215-12.267,37.45c4.115,14.349,18.794,23.486,23.939,37.499c1.034,2.817,1.756,5.911,2.588,8.915
			c-1.925,10.284-1.338,21.04,1.769,31.033c2.114,6.799,5.521,13.437,11.066,17.904c11.06,8.911,27.542,7.167,39.755,14.418
			c3.771,2.239,7,5.263,10.438,7.985c15.646,12.389,35.295,18.328,54.429,24.004c3.895,1.156,7.859,2.321,11.921,2.304
			c4.109-0.018,8.113-1.246,12.199-1.683c5.125-0.548,10.291,0.154,15.397,0.856c6.605,0.907,13.211,1.814,19.816,2.721
			c6.822,0.937,14.002,1.785,20.952,1.597c0.175,0.182,0.357,0.357,0.547,0.523c3.133,2.739,7.5,3.548,11.656,3.76
			c4.508,0.229,9.046-0.12,13.466-1.037c4.606-0.956,9.079-2.523,13.724-3.259c6.029-0.955,12.186-0.487,18.277-0.889
			c20.198-1.333,38.583-12.072,58.48-15.793c7.544-1.411,15.453-1.859,22.306-5.315c10.419-5.255,16.372-16.367,21.061-27.052
			c2.601-5.926,5.083-12.043,9.291-16.96c3.1-3.622,7.011-6.44,10.627-9.548c3.996-3.434,7.642-7.267,10.905-11.403
			c2.502,0.255,5.071,0.038,7.429-0.672c7.666-2.309,13.601-8.237,19.353-13.805c10.127-9.804,21.595-19.55,35.552-21.525
			c3.478-0.492,7.142-0.514,10.25-2.151c2.565-1.351,4.461-3.656,6.527-5.69c8.077-7.949,19.105-11.993,29.773-15.815
			c1.952-0.699,3.968-1.409,6.038-1.299c2.562,0.136,4.868,1.5,7.162,2.648c5.02,2.513,10.485,4.135,16.063,4.767
			c1.265,0.143,2.611,0.222,3.745-0.357c1.215-0.62,1.952-1.873,2.623-3.06c7.102-12.566,112.841-14.177,86.063-42.457
			L-5.112,332.364z"/>
	</g>
	<path fill="#DAB185" d="M810.995,250.037c-2.441-0.512-4.883-1.025-7.324-1.537c-11.416-2.395-22.832-4.791-34.248-7.186
		c-16.807-3.527-33.674-7.062-50.8-8.341c-49.151-3.671-97.68,11.319-146.856,14.638c-12.27,0.828-24.698,0.918-36.749-1.534
		c-27.993-5.695-51.512-24.462-78.531-33.736c-54.925-18.851-114.899,3.569-172.934,1.558c-32.417-1.123-63.996-9.906-95.673-16.88
		c-65.263-14.369-135.316-20.769-197.684,2.426v149.684c3.705,3.413,7.411,6.826,11.116,10.239c1.271,1.171,2.542,2.341,3.812,3.512
		c5.214,4.802,10.555,9.69,17.044,12.542c4.074,1.791,8.466,2.717,12.822,3.632c13.875,2.913,27.813,5.827,41.837,7.885
		c5.62,7.803,14.001,13.98,22.01,19.631c2.059,1.453,4.204,2.943,6.682,3.405c2.675,0.499,5.4-0.259,8.059-0.838
		c20.675-4.5,42.234,1.81,61.386,10.805c7.247,3.403,14.509,7.258,22.465,8.16c7.89,0.895,15.82-1.207,23.258-3.99
		c16.372-6.125,31.199-15.515,46.205-24.568c24.704,4.581,49.699,7.595,74.785,9.006c8.716,0.49,17.739,0.74,25.854-2.476
		c7.092-2.811,12.908-8.043,19.394-12.058c17.309-10.716,38.961-12.536,56.371-23.088c1.974-1.197,3.902-2.508,5.832-3.814
		c10.896,0.697,21.64-2.675,32.435-4.488c11.123-1.869,23.602-1.729,32.362,5.376c1.973,1.6,3.816,3.578,6.285,4.175
		c2.657,0.643,5.386-0.47,7.921-1.494c13.705-5.537,28.207-9.095,42.917-10.53c4.615-0.45,9.404-0.735,13.51-2.891
		c3.69-1.937,6.475-5.206,9.797-7.721c11.488-8.695,28.96-8.385,41.78-13.627c5.619,2.099,11.333,3.943,17.128,5.49
		c2.991,0.798,6.197,1.516,9.131,0.53c2.61-0.878,4.596-2.972,6.469-4.991c5.371-5.79,10.743-11.581,16.114-17.371
		c2.226-2.399,4.567-4.878,7.633-6.023c4.632-1.73,9.74-0.052,14.652,0.512c18.003,2.067,33.946-10.974,46.725-23.821
		c1.934-1.945,3.896-3.923,5.888-5.889c1.592-1.571,3.202-3.136,4.844-4.665c0.421,0.068,0.84,0.141,1.254,0.22
		c5.707,1.085,11.537,2.846,17.217,1.624c6.467-1.392,11.533-6.402,17.696-8.806c6.393-2.494,14.069-2.256,19.249-6.757
		c1.704-1.48,3.28-3.525,5.534-3.634c1.665-0.081,3.147,0.952,4.569,1.822c3.499,2.139,7.938-0.178,12.58-4.08
		C833.074,255.18,821.624,252.268,810.995,250.037z"/>
	<g>
		<path fill="#E9E6D1" d="M57.424,129.599c-1.644,1.358-3.164,2.86-4.511,4.561c-2.703,3.415-4.634,7.543-8.094,10.188
			c-1.923,1.47-4.218,2.38-6.593,2.886c1.577,2.426,3.123,4.919,4.625,7.484c0.481-0.541,0.957-1.083,1.421-1.628
			C50.523,145.734,54.949,137.781,57.424,129.599z"/>
		<path fill="#E9E6D1" d="M123.538,180.552c2.198-0.884,4.234-2.087,6.025-3.781c3.002-2.839,4.829-6.665,7.147-10.086
			c1.003-1.48,2.123-2.894,3.342-4.216c2.22-4.145,4.44-8.29,6.659-12.435c0.809-1.511,1.66-3.071,3.028-4.104
			c2.011-1.517,4.721-1.605,7.24-1.631c0.544-0.006,1.089-0.011,1.634-0.015c-0.498-2.894-0.89-5.807-1.155-8.732
			c-7.203-4.47-13.942-9.689-20.037-15.582c-0.717-0.694-1.427-1.401-2.125-2.122c-6.389,13.125-9.267,26.906-15.522,40.06
			C120.698,165.474,121.795,173.14,123.538,180.552z"/>
		<path fill="#E9E6D1" d="M76.908,219.669c-4.687-4.485-10.189-8.102-14.551-12.904c-0.349-0.385-0.679-0.784-1.011-1.181
			c1.759,11.175,2.224,22.882,0.86,34.19c-0.177,1.468-0.397,2.947-0.698,4.357c1.779-0.193,3.565-0.323,5.341-0.407
			c7.344-0.346,15.095,0.089,21.358,3.939c1.919,1.18,3.566,2.689,4.941,4.419c-0.512-2.742-1.048-5.472-1.768-8.107
			C88.865,234.767,83.804,226.269,76.908,219.669z"/>
		<path fill="#E9E6D1" d="M35.157,256.597c1.777-1.726,3.603-3.383,5.536-4.866c-3.435,0.627-6.828,2.238-10.234,3.765
			C32.038,255.774,33.606,256.142,35.157,256.597z"/>
		<path fill="#E9E6D1" d="M846.409,252.848c-5.642,1.629-13.04,2.39-19.851,1.951c-12.217-0.788-22.329-4.386-30.271-8.416
			c0.702,4.301,0.701,8.686-0.199,12.957c-0.087,0.411-0.184,0.825-0.298,1.233c3.494-1.637,7.008-3.226,10.579-4.675
			c4.1-1.664,8.68-3.155,12.864-1.716c2.957,1.017,5.236,3.348,7.826,5.1c4.151,2.809,9.424,4.15,14.298,2.982
			c3.228-0.774,6.191-2.753,8.116-5.425c-0.274-0.642-0.613-1.249-1.014-1.781C847.847,254.247,847.148,253.525,846.409,252.848z"/>
		<path fill="#E9E6D1" d="M209.361,149.495c6.264-2.16,13.318-1.139,20.161,0.99c0.81-0.429,1.64-0.81,2.489-1.139
			c-6.709-9.481-15.361-17.698-22.841-26.687c-10.443-12.55-18.759-26.837-27.365-40.82c-5.529,0.446-10.934,1.413-16.068,3.456
			C186.192,100.878,196.428,126.238,209.361,149.495z"/>
		<path fill="#E9E6D1" d="M544.083,262.542c0.338,0.33,0.667,0.667,0.985,1.013c1.146-0.956,2.394-1.789,3.72-2.474
			C547.218,261.449,545.65,261.948,544.083,262.542z"/>
		<path fill="#E9E6D1" d="M679.018,208.017c2.357-1.28,5.142-2.355,8.247-3.088c3.528-2.286,8.29-4.183,13.69-5.514
			c-7.12-2.245-14.425-3.904-21.819-4.941c-4.689-0.658-9.696-1.021-13.943,1.071c-0.14,0.069-0.27,0.153-0.407,0.227
			C670.586,198.013,675.02,203.086,679.018,208.017z"/>
		<path fill="#E9E6D1" d="M101.48,274.813c-1.469-1.647-2.628-3.46-3.583-5.382c-0.514,4.356-2.247,8.522-5.297,11.738
			c-4.631,4.883-11.184,7.325-17.205,10.329c-6.068,3.028-11.784,6.762-16.996,11.101c19.747-1.855,39.666-1.818,59.411,0.051
			c-6.123-7.098-10.715-15.736-12.789-24.648C103.747,277.069,102.555,276.018,101.48,274.813z"/>
		<path fill="#E9E6D1" d="M487.997,182.728c2.327,0.07,4.655,0.167,6.974,0.224c-2.409-1.036-4.917-1.752-7.481-2.272
			c0.025,0.107,0.048,0.214,0.073,0.321C487.698,181.577,487.85,182.153,487.997,182.728z"/>
		<path fill="#E9E6D1" d="M762.142,268.586c-11.312,1.796-22.56-2.104-32.073-8.775c-1.019,1.639-2.123,3.267-3.359,4.877
			c-6.249,8.142-17.042,16.155-31.81,21.174c0.374,2.952-0.161,5.855-2.025,8.301c-1.494,1.961-3.63,3.312-5.719,4.622
			c-5.472,3.43-11.065,6.913-17.337,8.448c-5.905,1.446-12.082,1.084-18.149,0.714c-17.349-1.059-34.698-2.117-52.047-3.176
			c-9.439,4.798-19.938,8.371-26.574,16.404c2.031-0.075,4.065-0.264,6.085-0.461c6.912-0.673,13.824-1.346,20.736-2.019
			c0.574-0.056,1.152-0.116,1.73-0.183c10.182,4.587,23.073,4.101,34.223,1.096c15.345-4.136,29.749-12.009,45.546-13.75
			c7.245-0.799,14.767-0.307,21.608-2.823c5.04-1.853,9.356-5.218,13.582-8.531c7.377-5.784,14.755-11.569,22.132-17.353
			c9.003,0.854,18.421-0.702,27.086-3.528c6.563-2.14,12.866-4.94,19.117-7.88c-1.334-0.159-2.67-0.349-3.938-0.438
			C774.582,264.861,768.453,267.584,762.142,268.586z"/>
		<path fill="#E9E6D1" d="M623.656,268.233c-0.077,0.487-0.16,0.973-0.246,1.458c0.811-0.328,1.625-0.65,2.442-0.965
			C625.114,268.587,624.383,268.417,623.656,268.233z"/>
		<path fill="#E9E6D1" d="M383.104,298.135c-5.074-1.084-10.194-3.4-13.645-7.128c-13.78,0.452-28.143-1.019-40.739,4.533
			c-15.105,6.657-26.138,22.829-42.599,24.074c-9.586,0.725-18.701-3.975-26.83-9.106c-4.67-2.948-9.354-6.222-12.272-10.91
			c-2.918-4.688-3.655-11.145-0.385-15.595c1.791-2.438,4.515-3.986,7.156-5.462c18.637-10.418,37.275-20.836,55.912-31.254
			c1.586-2.239,3.209-4.444,4.929-6.556c2.883-3.541,6.08-6.804,9.519-9.786c-14.281-0.239-28.593-5.567-41.315-12.495
			c-2.161-1.177-4.301-2.421-6.389-3.741c-2.013-0.131-4.115-0.507-6.059-0.642c-6.375-0.445-12.504,2.278-18.815,3.28
			c-9.202,1.461-18.361-0.849-26.579-5.352c-4.617,2.38-10.098,3.39-15.211,2.609c-8.289-1.266-15.494-5.956-21.596-11.867
			c-6.034,9.314-14.991,16.495-24.441,22.389c-1.209,0.754-2.438,1.485-3.677,2.202c0.615,1.994,1.1,4.034,1.468,6.107
			c0.872-0.132,1.749-0.238,2.641-0.284c9.357-0.487,17.489,3.984,24.589,10.356c7.631-1.402,15.294-1.629,22.512,0.998
			c7.235,2.634,13.214,7.907,18.322,13.668c8.101,9.138,14.444,23.202,7.159,33.002c-5.665,7.621-16.64,8.46-26.118,7.873
			c-9.478-0.586-19.894-1.665-27.614,3.864c-2.542,1.821-4.693,4.314-7.637,5.366c-2.296,0.821-4.858,0.673-7.137,1.54
			c-0.797,0.303-1.526,0.725-2.222,1.205c1.495,0.381,2.992,0.749,4.481,1.153c13.836,3.75,27.534,8.468,41.805,9.814
			c12.674,1.196,26.16-0.609,36.761-7.422c3.271,0.997,6.508,2.079,9.652,3.385c8.553,3.551,16.399,8.723,25.14,11.783
			s19.072,3.706,26.726-1.508c5.932-4.04,9.349-10.944,15.033-15.327c6.034-4.654,13.916-5.974,21.445-7.148
			c4.113-0.641,8.226-1.282,12.339-1.923c6.866,3.438,14.438,5.457,22.118,5.69c7.86,0.239,16.153-1.186,23.29,2.116
			c5.211,2.411,9.008,7.01,13.374,10.739c12.799,10.933,31.634,14.237,47.426,8.411c1.858-0.685,3.668-1.484,5.447-2.352
			c-23.738-3.232-42.929-23.88-66.886-27.926C397.205,299.332,390.023,299.613,383.104,298.135z"/>
		<path fill="#E9E6D1" d="M86.435,25.749c-1.693,0.293-3.337,0.758-4.799,1.644c-1.025,0.621-1.907,1.422-2.713,2.307
			c1.706,0.125,3.398,0.447,5.064,1C84.541,28.918,85.358,27.237,86.435,25.749z"/>
		<path fill="#E9E6D1" d="M0.142,252.657v12.375c2.918-3.029,6.415-5.5,10.241-7.241C6.897,256.753,3.47,255.003,0.142,252.657z"/>
		<path fill="#E9E6D1" d="M419.935,225.652c0.4-7,3.306-13.332,7.793-18.802c-2.64-4.262-5.004-8.575-6.372-12.999
			c-0.305-0.987-0.553-1.975-0.76-2.962c-0.565,2.318-1.091,4.666-2.321,6.674c-2.71,4.427-8.211,6.245-13.353,6.954
			c-8.312,1.146-17.155,0.082-24.563-3.673c-1.112,3.319-2.859,6.4-5.297,9.012c-0.125,0.134-0.261,0.255-0.389,0.387
			c7.735-0.526,15.532,0.014,23.116,1.72c8.732,1.964,18.076,6.253,21.103,14.676c3.472,9.659-2.766,19.643-6.222,29.404
			c7.444-0.291,14.901-0.348,22.263,0.419C425.039,248.098,419.318,236.444,419.935,225.652z"/>
		<path fill="#EDD6CE" d="M207.632,197.889c-5.838-6.643-10.744-14.507-11.907-23.274s2.105-18.501,9.598-23.197
			c1.3-0.814,2.65-1.445,4.038-1.923c-12.932-23.257-23.168-48.617-43.622-64.2c-0.453,0.18-0.91,0.349-1.359,0.547
			c-6.928,3.053-12.999,8.107-19.131,12.805c-1.252,4.757-4.475,9.277-7.12,13.838c-1.027,1.772-1.956,3.562-2.833,5.363
			c0.698,0.72,1.408,1.428,2.125,2.122c6.094,5.893,12.833,11.112,20.037,15.582c0.265,2.925,0.657,5.838,1.155,8.732
			c4.231-0.029,8.485,0.049,12.59,1.041c10.956,2.646,19.738,11.934,22.897,22.753s1.031,22.819-4.624,32.568
			c-0.412,0.71-0.845,1.406-1.289,2.093c6.102,5.911,13.307,10.601,21.596,11.867c5.113,0.781,10.594-0.229,15.211-2.609
			C218.46,208.417,212.521,203.453,207.632,197.889z"/>
		<path fill="#E3DFBC" d="M69.058,126.171c8.285-5.876,19.633-3.351,29.389-0.526c4.36,1.262,8.857,2.612,12.315,5.552
			c6.171,5.246,7.528,14.087,8.466,22.132c0.177,1.52,0.359,3.048,0.546,4.579c6.255-13.155,9.133-26.935,15.522-40.06
			c0.876-1.8,1.805-3.591,2.833-5.363c2.644-4.561,5.867-9.08,7.12-13.838c-7.237,5.546-14.557,10.595-23.468,11.269
			c-8.727,0.66-17.061-3.179-24.619-7.743c-0.831,1.515-1.76,2.972-2.838,4.329c-9.073,11.427-25.845,13.963-36.9,23.096
			c-2.474,8.182-6.901,16.135-13.151,23.492c-0.463,0.545-0.94,1.087-1.421,1.628c2.982,5.093,5.788,10.479,8.315,16.227
			c0.674-10.851,4.071-21.433,8.483-31.398C61.885,134.5,64.555,129.365,69.058,126.171z"/>
		<path fill="#D1CDEB" d="M84.366,219.931c-5.862-9.824-5.639-24.193,3.42-31.178c9.737-7.507,24.793-3.793,35.751-8.201
			c-1.743-7.411-2.839-15.078-3.763-22.644c-0.187-1.531-0.369-3.059-0.546-4.579c-0.939-8.045-2.296-16.886-8.466-22.132
			c-3.458-2.94-7.955-4.29-12.315-5.552c-9.756-2.825-21.104-5.35-29.389,0.526c-4.503,3.193-7.173,8.329-9.408,13.377
			c-4.412,9.965-7.808,20.547-8.483,31.398c1.853,4.213,3.56,8.614,5.07,13.244c2.187,6.704,3.933,13.932,5.108,21.394
			c0.332,0.397,0.662,0.797,1.011,1.181c4.362,4.802,9.864,8.419,14.551,12.904c6.896,6.599,11.957,15.098,14.473,24.305
			c0.72,2.635,1.256,5.365,1.768,8.107c3.791,4.769,5.469,11.244,4.749,17.349c0.955,1.922,2.114,3.735,3.583,5.382
			c1.075,1.206,2.267,2.256,3.542,3.19c-2.231-9.585-1.549-19.485,3.317-28.128c0.757-1.344,1.662-2.696,3.03-3.41
			c1.666-0.87,3.663-0.628,5.536-0.479c6.078,0.483,12.251-0.276,18.031-2.216c9.04-3.034,17.292-8.93,26.601-10.334
			c-0.367-2.073-0.853-4.113-1.468-6.107c-11.626,6.731-24.499,11.672-37.876,11.8C107.39,239.271,91.952,232.643,84.366,219.931z"
			/>
		<path fill="#D9D2D9" d="M418.892,226.637c-3.028-8.423-12.371-12.711-21.103-14.676c-7.584-1.706-15.381-2.246-23.116-1.72
			c-3.496,3.587-7.945,6.097-12.338,8.522c-7.896,4.359-15.942,8.711-24.72,10.781c-4.451,1.05-8.956,1.476-13.464,1.4
			c-3.44,2.981-6.636,6.245-9.519,9.786c-1.72,2.112-3.342,4.317-4.929,6.556c-18.637,10.418-37.275,20.836-55.912,31.254
			c-2.641,1.476-5.365,3.024-7.156,5.462c-3.27,4.45-2.533,10.907,0.385,15.595c2.918,4.688,7.602,7.962,12.272,10.91
			c8.129,5.131,17.244,9.831,26.83,9.106c16.46-1.245,27.493-17.417,42.599-24.074c12.596-5.551,26.959-4.081,40.739-4.533
			c-1.255-1.355-2.296-2.892-3.025-4.632c-3.681-8.786,2.085-19.233,10.304-24.048c8.219-4.815,18.151-5.418,27.664-5.9
			c2.75-0.14,5.507-0.277,8.267-0.384C416.125,246.281,422.364,236.297,418.892,226.637z"/>
		<path fill="#D9D2D9" d="M520.459,244.048c-4.246-0.435-8.229-2.073-12.271-3.5c8.176,4.697,16.352,9.394,24.527,14.091
			c3.988,2.291,8.11,4.728,11.367,7.903c1.567-0.593,3.135-1.093,4.705-1.461c0.354-0.183,0.714-0.353,1.077-0.514
			c2.814-6.513,3.451-13.757,5.296-20.622c1.081-4.022,2.769-8.103,5.261-11.405c-2.187-1.693-4.443-3.302-6.796-4.787
			c-1.73-1.092-3.503-2.114-5.298-3.102c-0.343,1.879-0.833,3.733-1.511,5.54C542.808,236.881,531.818,245.212,520.459,244.048z"/>
		<path fill="#EDD6CE" d="M826.557,254.799c6.811,0.439,14.209-0.322,19.851-1.951c-2.87-2.626-6.573-4.354-10.211-5.861
			c-14.014-5.806-28.696-9.992-43.661-12.47c1.782,3.767,3.084,7.779,3.75,11.866C804.228,250.413,814.34,254.011,826.557,254.799z"
			/>
		<path fill="#E3EACA" d="M380.358,200.843c7.408,3.755,16.251,4.819,24.563,3.673c5.142-0.709,10.643-2.527,13.353-6.954
			c1.229-2.008,1.755-4.356,2.321-6.674c-1.609-7.675-0.385-15.332,1.633-22.55c1.966-7.033,4.905-14.115,10.867-18.904
			c-2.117-0.88-4.305-1.55-6.59-1.89c-10.062-1.499-19.819,3.539-28.746,8.416c-8.214,4.487-16.428,8.975-24.643,13.462
			c0.759,0.811,1.495,1.646,2.179,2.533C381.502,180.011,383.523,191.396,380.358,200.843z"/>
		<path fill="#E5F0C7" d="M209.361,149.495c-1.388,0.479-2.739,1.109-4.038,1.923c-7.494,4.696-10.762,14.431-9.598,23.197
			s6.07,16.631,11.907,23.274c4.89,5.564,10.828,10.528,17.361,14.107c8.218,4.503,17.377,6.813,26.579,5.352
			c6.312-1.002,12.44-3.725,18.815-3.28c1.944,0.136,4.046,0.512,6.059,0.642c-5.009-3.165-9.69-6.814-13.433-11.377
			c-4.005-4.883-6.836-10.957-7.36-17.185c-2.405,0.353-4.779,0.846-7.078,1.513c-4.146-9.144-6.334-19.58-10.787-28.697
			c-1.653-3.383-3.615-6.565-5.775-9.618c-0.85,0.329-1.679,0.71-2.489,1.139C222.678,148.356,215.625,147.335,209.361,149.495z"/>
		<path fill="#E5F0C7" d="M16.555,255.701c4.601-1.028,9.297-1.014,13.903-0.204c3.406-1.526,6.8-3.138,10.234-3.765
			c1.223-0.938,2.488-1.807,3.813-2.575c5.157-2.991,11.039-4.378,17.002-5.026c0.301-1.41,0.521-2.889,0.698-4.357
			c1.364-11.308,0.899-23.015-0.86-34.19c-1.175-7.463-2.922-14.69-5.108-21.394c-1.51-4.63-3.218-9.031-5.07-13.244
			c-2.528-5.748-5.333-11.134-8.315-16.227c-1.502-2.566-3.048-5.058-4.625-7.484c-0.503,0.107-1.008,0.203-1.515,0.275
			c-11.293,1.601-22.89-5.507-27.787-15.808c-0.441-0.927-0.813-1.878-1.153-2.84c-2.741,4.577-5.304,9.114-7.63,13.579v110.216
			c3.328,2.346,6.756,4.096,10.241,5.134C12.363,256.89,14.428,256.176,16.555,255.701z"/>
		<path fill="#E5F0C7" d="M796.286,246.383c-0.667-4.088-1.968-8.1-3.75-11.866c-3.12-0.517-6.252-0.964-9.394-1.331
			c-9.216-1.076-18.671-1.543-27.296-4.962c-2.171-0.86-4.248-1.906-6.275-3.049c-0.634,0.768-1.268,1.534-1.872,2.303
			c-8.217,10.454-10.992,21.658-17.629,32.333c9.513,6.671,20.761,10.571,32.073,8.775c6.312-1.002,12.44-3.725,18.815-3.28
			c1.268,0.088,2.604,0.279,3.938,0.438c3.635-1.71,7.254-3.465,10.893-5.17c0.114-0.408,0.211-0.822,0.298-1.233
			C796.987,255.069,796.988,250.685,796.286,246.383z"/>
		<path fill="#DBF4CE" d="M85.225,31.139c4.859,1.97,8.737,5.855,11.664,10.205c3.916,5.819,6.221,12.405,7.254,19.286
			c13.74-7.68,27.479-15.36,41.218-23.04c0.189-0.266,0.384-0.526,0.574-0.791c-4.299-3.495-8.952-6.573-14.062-8.689
			c-13.079-5.415-27.834-4.152-41.925-2.797c-1.167,0.112-2.352,0.235-3.513,0.436c-1.078,1.487-1.894,3.169-2.447,4.951
			C84.402,30.837,84.815,30.973,85.225,31.139z"/>
		<path fill="#DBF4CE" d="M531.085,286.399c2.025-3.364,4.526-6.416,7.091-9.419c0.149-2.255,0.678-4.482,1.606-6.548
			c1.198-2.667,3.043-5.007,5.286-6.878c-0.318-0.346-0.647-0.683-0.985-1.013c-3.257-3.175-7.379-5.612-11.367-7.903
			c-8.176-4.697-16.352-9.394-24.527-14.091c-0.44-0.155-0.881-0.304-1.323-0.453c-2.286,6.49-7.715,11.783-14.372,15.934
			c16.733,4.652,28.343,23.808,24.883,41.131c-0.906,4.535-2.726,8.772-5.224,12.586c0.831-0.013,1.658-0.036,2.48-0.067
			c3.739-0.139,7.524-0.384,11.291-0.466C525.077,301.385,526.997,293.189,531.085,286.399z"/>
		<path fill="#DBD7BC" d="M36.711,147.509c0.507-0.072,1.013-0.168,1.515-0.275c2.375-0.507,4.67-1.416,6.593-2.886
			c3.46-2.645,5.391-6.774,8.094-10.188c1.347-1.701,2.867-3.203,4.511-4.561c11.055-9.134,27.827-11.669,36.9-23.096
			c1.078-1.357,2.007-2.814,2.838-4.329c-0.744-0.449-1.483-0.903-2.211-1.363c-4.67-2.948-9.354-6.222-12.272-10.91
			c-2.918-4.688-3.655-11.145-0.385-15.595c1.791-2.438,4.515-3.986,7.156-5.462c4.898-2.738,9.796-5.476,14.693-8.213
			c-1.033-6.881-3.338-13.467-7.254-19.286c-2.927-4.35-6.805-8.235-11.664-10.205c-0.41-0.166-0.824-0.302-1.237-0.439
			c-1.667-0.553-3.358-0.874-5.064-1c-0.968,1.065-1.824,2.255-2.655,3.432c-19.063,26.975-48.572,62.453-68.497,95.73
			c0.34,0.962,0.712,1.913,1.153,2.84C13.821,142.002,25.419,149.11,36.711,147.509z"/>
		<path fill="#DBD7BC" d="M599.624,304.772c-3.856-0.235-7.712-0.471-11.567-0.706c-10.298-0.628-20.708-1.276-30.574-4.294
			c-5.643-1.726-11.246-4.365-14.986-8.929c-3.146-3.839-4.646-8.92-4.32-13.863c-2.565,3.004-5.067,6.056-7.091,9.419
			c-4.088,6.79-6.008,14.986-5.16,22.812c6.438-0.141,12.826,0.194,18.844,2.351c7.204,2.583,13.476,7.666,20.984,9.149
			c2.402,0.474,4.847,0.554,7.298,0.464C579.685,313.143,590.185,309.57,599.624,304.772z"/>
		<path fill="#DBD7BC" d="M549.866,260.566c2.2-0.977,4.566-1.568,6.975-1.664c2.71-0.109,5.352,0.34,7.969,1.026
			c6.747,9.683,15.502,18.375,26.947,19.361c8.854,0.763,17.297-3.348,25.421-6.951c2.059-0.913,4.137-1.8,6.232-2.646
			c0.086-0.485,0.169-0.971,0.246-1.458c-10.095-2.54-19.227-9.2-25.585-17.597c-6.24-8.241-10.164-19.168-7.664-28.991
			c-3.888,1.439-7.715,3.088-11.512,4.741c-4.594,2-9.189,4-13.783,6c-1.522-1.333-3.089-2.61-4.689-3.848
			c-2.492,3.302-4.18,7.383-5.261,11.405C553.317,246.809,552.68,254.054,549.866,260.566z"/>
		<path fill="#E3DFBC" d="M679.018,208.017c0.094,0.116,0.19,0.233,0.284,0.349c2.852,3.53,5.785,7.281,6.559,11.753
			c0.542,3.138-0.039,6.365-0.923,9.424c-2.546,8.808-7.664,16.855-14.561,22.895c-2.596,2.274-5.429,4.262-8.322,6.144
			c-1.926,1.253-3.903,2.461-5.923,3.594c11.425-0.058,23.063,3.214,31.538,10.802c3.675,3.29,6.631,8.149,7.232,12.884
			c14.768-5.019,25.561-13.032,31.81-21.174c1.235-1.61,2.339-3.238,3.359-4.877c6.637-10.675,9.412-21.879,17.629-32.333
			c0.604-0.768,1.238-1.535,1.872-2.303c-5.17-2.915-9.984-6.528-14.961-9.799c-10.41-6.84-21.776-12.216-33.655-15.962
			c-5.4,1.331-10.161,3.228-13.69,5.514C684.159,205.661,681.375,206.737,679.018,208.017z"/>
		<path fill="#F2CFD5" d="M92.6,281.169c3.05-3.216,4.783-7.382,5.297-11.738c0.721-6.105-0.957-12.58-4.749-17.349
			c-1.375-1.729-3.022-3.239-4.941-4.419c-6.263-3.851-14.014-4.286-21.358-3.939c-1.776,0.084-3.562,0.214-5.341,0.407
			c-5.963,0.648-11.845,2.034-17.002,5.026c-1.325,0.769-2.59,1.638-3.813,2.575c-1.933,1.483-3.759,3.14-5.536,4.866
			c-1.55-0.455-3.119-0.823-4.698-1.101c-4.607-0.809-9.302-0.824-13.903,0.204c-2.127,0.475-4.192,1.19-6.173,2.091
			c-3.826,1.74-7.322,4.211-10.241,7.241v28.038c7.425,5.773,15.375,11.236,24.609,12.487c5.982,0.811,12.039-0.229,18.014-1.096
			c5.195-0.754,10.409-1.371,15.635-1.862c5.212-4.339,10.927-8.073,16.996-11.101C81.416,288.494,87.969,286.052,92.6,281.169z"/>
		<path fill="#F2CFD5" d="M422.228,168.339c-2.018,7.218-3.242,14.875-1.633,22.55c0.207,0.987,0.455,1.975,0.76,2.962
			c1.369,4.425,3.733,8.737,6.372,12.999c-4.487,5.47-7.393,11.802-7.793,18.802c-0.617,10.791,5.104,22.445,14.999,30.809
			c2.953,0.308,5.891,0.742,8.806,1.356c4.665,0.983,9.44,2.388,14.212,3.612c9.883-3.77,19.808-7.45,30.047-6.29
			c1.535,0.174,3.033,0.482,4.496,0.889c6.657-4.151,12.087-9.444,14.372-15.934c-1.233-0.414-2.472-0.803-3.731-1.11
			c-17.057-4.158-37.079,5.066-51.632-4.754c-8.533-5.758-12.279-17.687-8.569-27.289c1.069-2.767,2.667-5.305,4.498-7.639
			c6.809-8.676,17.05-14.582,27.97-16.129c4.148-0.588,8.37-0.572,12.596-0.446c-0.147-0.576-0.3-1.151-0.435-1.727
			c-0.025-0.107-0.048-0.214-0.073-0.321c-4.859-0.986-9.915-1.291-14.865-1.819c-2.044-0.218-4.081-0.494-6.114-0.796
			c-7.041-7.741-14.083-16.685-21.124-21.465c-3.916-2.659-7.953-5.361-12.292-7.165
			C427.133,154.224,424.195,161.306,422.228,168.339z"/>
		<path fill="#EADBD8" d="M175.389,308.28c2.944-1.052,5.095-3.546,7.637-5.366c7.72-5.53,18.136-4.451,27.614-3.864
			c9.478,0.586,20.453-0.252,26.118-7.873c7.285-9.8,0.942-23.865-7.159-33.002c-5.108-5.762-11.087-11.035-18.322-13.668
			c-7.218-2.627-14.881-2.4-22.512-0.998c-7.099-6.372-15.232-10.843-24.589-10.356c-0.892,0.046-1.769,0.153-2.641,0.284
			c-9.308,1.404-17.56,7.3-26.601,10.334c-5.78,1.94-11.954,2.698-18.031,2.216c-1.873-0.149-3.871-0.391-5.536,0.479
			c-1.367,0.714-2.273,2.066-3.03,3.41c-4.865,8.643-5.547,18.543-3.317,28.128c2.074,8.912,6.665,17.55,12.789,24.648
			c16.259,1.539,32.396,4.336,48.221,8.374c0.696-0.48,1.424-0.901,2.222-1.205C170.532,308.953,173.093,309.101,175.389,308.28z"/>
		<path fill="#F0E2CD" d="M475.402,183.174c-10.92,1.547-21.161,7.453-27.97,16.129c-1.831,2.333-3.43,4.872-4.498,7.639
			c-3.71,9.602,0.036,21.531,8.569,27.289c14.554,9.82,34.575,0.596,51.632,4.754c1.259,0.307,2.499,0.695,3.731,1.11
			c0.442,0.148,0.883,0.298,1.323,0.453c4.042,1.428,8.025,3.065,12.271,3.5c11.359,1.165,22.348-7.167,26.358-17.858
			c0.678-1.807,1.167-3.661,1.511-5.54c-9.134-5.026-18.886-9.059-26.972-15.612c-8.834-7.16-15.565-17.234-25.936-21.897
			c-0.148-0.067-0.3-0.125-0.449-0.189c-2.319-0.057-4.646-0.154-6.974-0.224C483.771,182.602,479.55,182.586,475.402,183.174z"/>
		<path fill="#E9DFD6" d="M598.07,250.636c6.358,8.397,15.49,15.057,25.585,17.597c0.728,0.183,1.459,0.354,2.196,0.493
			c8.728-3.36,17.761-5.901,27.065-6.457c1.068-0.064,2.141-0.088,3.215-0.093c2.02-1.132,3.998-2.341,5.923-3.594
			c2.893-1.882,5.726-3.871,8.322-6.144c6.897-6.04,12.015-14.088,14.561-22.895c0.884-3.059,1.466-6.287,0.923-9.424
			c-0.773-4.472-3.706-8.223-6.559-11.753c-0.094-0.116-0.189-0.233-0.284-0.349c-3.997-4.931-8.432-10.004-14.233-12.246
			c-3.07,1.648-5.403,4.402-7.605,7.123c-11.304,2.436-21.891,10.486-33.569,12.983c-6.24,1.335-12.713,1.049-19.029,1.958
			c-4.862,0.699-9.563,2.104-14.175,3.811C587.907,231.469,591.831,242.396,598.07,250.636z"/>
		<path fill="#E7E3C9" d="M276.446,214.71c2.089,1.32,4.228,2.564,6.389,3.741c12.722,6.928,27.034,12.255,41.315,12.495
			c4.508,0.076,9.013-0.351,13.464-1.4c8.779-2.07,16.824-6.423,24.72-10.781c4.393-2.425,8.842-4.935,12.338-8.522
			c0.128-0.131,0.264-0.253,0.389-0.387c2.438-2.611,4.185-5.693,5.297-9.012c3.166-9.447,1.144-20.832-5.063-28.888
			c-0.683-0.887-1.42-1.722-2.179-2.533c-5.335,2.914-10.67,5.829-16.005,8.743c-2.484,1.357-5.041,2.799-7.314,4.511
			c-10.524-1.672-21.1-2.18-31.527-0.137c-4.637,0.909-9.171,2.311-13.828,3.107c-12.18,2.081-24.636-0.058-36.992-0.222
			c-3.893-0.052-7.886,0.148-11.796,0.723c0.524,6.228,3.355,12.302,7.36,17.185C266.755,207.897,271.437,211.546,276.446,214.71z"
			/>
		<path fill="#DFDCC0" d="M194.099,168.077c-3.158-10.819-11.941-20.107-22.897-22.753c-4.105-0.991-8.359-1.07-12.59-1.041
			c-0.545,0.004-1.09,0.009-1.634,0.015c-2.519,0.026-5.229,0.115-7.24,1.631c-1.369,1.032-2.219,2.593-3.028,4.104
			c-2.22,4.145-4.44,8.29-6.659,12.435c-1.219,1.322-2.339,2.736-3.342,4.216c-2.318,3.42-4.144,7.247-7.147,10.086
			c-1.792,1.694-3.828,2.897-6.025,3.781c-10.958,4.408-26.014,0.694-35.751,8.201c-9.06,6.985-9.282,21.355-3.42,31.178
			c7.585,12.712,23.024,19.34,37.826,19.199c13.378-0.128,26.25-5.068,37.876-11.8c1.239-0.717,2.467-1.448,3.677-2.202
			c9.45-5.894,18.407-13.075,24.441-22.389c0.445-0.687,0.877-1.383,1.289-2.093C195.131,190.896,197.258,178.896,194.099,168.077z"
			/>
		<path fill="#E9DDCB" d="M492.494,256.028c-1.463-0.407-2.961-0.715-4.496-0.889c-10.239-1.16-20.164,2.52-30.047,6.29
			c-4.771-1.224-9.547-2.63-14.212-3.612c-2.915-0.614-5.853-1.048-8.806-1.356c-7.362-0.768-14.82-0.71-22.263-0.419
			c-2.76,0.108-5.517,0.245-8.267,0.384c-9.513,0.483-19.445,1.086-27.664,5.9c-8.219,4.815-13.985,15.263-10.304,24.048
			c0.729,1.74,1.77,3.277,3.025,4.632c3.452,3.728,8.572,6.043,13.645,7.128c6.918,1.479,14.1,1.197,21.076,2.375
			c23.957,4.046,43.148,24.694,66.886,27.926c2.906-1.417,5.729-3.019,8.543-4.617c8.376-4.757,16.752-9.515,25.127-14.272
			c2.466,0.191,4.955,0.237,7.416,0.198c2.498-3.814,4.318-8.051,5.224-12.586C520.837,279.836,509.226,260.68,492.494,256.028z"/>
		<path fill="#D9D4D9" d="M687.669,272.978c-8.475-7.587-20.113-10.86-31.538-10.802c-1.074,0.005-2.147,0.029-3.215,0.093
			c-9.303,0.555-18.336,3.097-27.065,6.457c-0.817,0.314-1.63,0.637-2.442,0.965c-2.095,0.846-4.173,1.733-6.232,2.646
			c-8.124,3.603-16.567,7.714-25.421,6.951c-11.445-0.986-20.2-9.678-26.947-19.361c-2.616-0.686-5.259-1.135-7.969-1.026
			c-2.409,0.097-4.775,0.687-6.975,1.664c-0.364,0.162-0.724,0.332-1.077,0.514c-1.326,0.685-2.574,1.518-3.72,2.474
			c-2.243,1.871-4.088,4.211-5.286,6.878c-0.928,2.066-1.457,4.292-1.606,6.548c-0.327,4.942,1.174,10.024,4.32,13.863
			c3.74,4.564,9.343,7.203,14.986,8.929c9.866,3.018,20.276,3.666,30.574,4.294c3.856,0.235,7.712,0.471,11.567,0.706
			c17.349,1.059,34.698,2.117,52.047,3.176c6.068,0.37,12.245,0.731,18.149-0.714c6.273-1.536,11.866-5.018,17.337-8.448
			c2.089-1.309,4.225-2.661,5.719-4.622c1.864-2.445,2.399-5.349,2.025-8.301C694.3,281.127,691.344,276.269,687.669,272.978z"/>
		<path fill="#D9D2D9" d="M104.143,60.63c-4.898,2.738-9.796,5.476-14.693,8.213c-2.641,1.476-5.365,3.024-7.156,5.462
			c-3.27,4.45-2.533,10.907,0.385,15.595c2.918,4.688,7.602,7.962,12.272,10.91c0.728,0.46,1.467,0.913,2.211,1.363
			c7.558,4.565,15.892,8.404,24.619,7.743c8.911-0.674,16.231-5.724,23.468-11.269c6.131-4.698,12.203-9.752,19.131-12.805
			c0.449-0.198,0.906-0.367,1.359-0.547c5.134-2.043,10.539-3.01,16.068-3.456c-9.659-15.694-19.684-31.005-33.496-43.048
			c-0.778-0.678-1.572-1.34-2.375-1.992c-0.19,0.265-0.386,0.525-0.574,0.791C131.622,45.27,117.883,52.95,104.143,60.63z"/>
	</g>
</g>
<g id="レイヤー_7">
	<g id="島-後ろ">
	</g>
</g>
<g id="島本体">
</g>
<g id="草木">
</g>
<g id="生き物">
	<g>
		<path fill="#FFFFFF" d="M49.444,240.856c-0.207-1.446-1.069-2.816-2.526-3.259c-1.65-0.501-3.295,0.295-3.966,1.826
			c-0.417,0.31-0.744,0.746-0.897,1.299c-0.557,2.014-0.603,4.065-0.258,6.116c0.166,0.988,0.455,2.024,0.923,2.914
			c0.622,1.185,1.86,1.928,3.194,1.943c1.123,0.013,2.335-0.527,3.072-1.375c0.857-0.986,1.231-2.236,1.204-3.535
			c-0.019-0.885-0.191-1.775-0.307-2.651C49.736,243.042,49.601,241.947,49.444,240.856z"/>
		<path fill="#FFFFFF" d="M93.863,230.736c-0.241-1.291-0.482-2.582-0.723-3.872c-0.14-0.747-0.783-1.34-1.447-1.62
			c-0.108-0.045-0.214-0.065-0.321-0.095c-0.447-0.484-1.078-0.792-1.816-0.824c-2.681-0.115-4.816,2.078-5.489,4.52
			c-0.316,1.146-0.362,2.366-0.389,3.548c-0.027,1.188-0.011,2.45,0.381,3.584c0.449,1.301,1.243,2.399,2.411,3.147
			c0.458,0.293,0.997,0.51,1.534,0.597c0.521,0.084,1.1,0.18,1.62,0.012c0.396-0.128,0.819-0.334,1.103-0.643
			c0.056-0.072,0.111-0.144,0.167-0.216c0.006-0.006,0.006-0.006,0.013-0.013c0.009-0.009,0.009-0.011,0.016-0.019
			c0.117-0.069,0.234-0.138,0.356-0.2c0.31-0.158,0.633-0.29,0.939-0.456c1.058-0.573,1.906-1.518,2.176-2.711
			c0.214-0.944,0.006-1.871-0.168-2.802C94.104,232.026,93.983,231.381,93.863,230.736z"/>
		<path fill="#FFFFFF" d="M133.576,211.783c0.176-0.451,0.214-0.955,0.047-1.472c-0.389-1.201-1.761-2.229-3.075-1.746
			c-1.264,0.464-2.528,0.928-3.792,1.392c-1.485,0.545-2.94,1.032-3.809,2.459c-0.719,1.181-0.69,2.603-0.552,3.924
			c0.153,1.459,0.348,2.916,0.586,4.364c0.205,1.247,0.29,2.839,1.045,3.896c0.665,0.931,1.669,1.487,2.831,1.481
			c0.602-0.003,1.22-0.135,1.817-0.209c0.637-0.079,1.273-0.158,1.91-0.237c0.762-0.095,1.587-0.115,2.327-0.307
			c0.969-0.252,1.757-0.887,2.147-1.81c0.414-0.98,0.137-1.972-0.029-2.975C134.544,217.624,134.06,214.704,133.576,211.783z"/>
		<path fill="#FFFFFF" d="M172.123,192.295c-0.272-1.251-0.446-2.593-0.858-3.806c-0.672-1.979-2.842-2.759-4.711-1.97
			c-0.415,0.175-0.762,0.411-1.081,0.67c-0.073,0.001-0.146-0.003-0.215,0.001c-0.013,0.001-0.011,0.001-0.021,0.002
			c-0.128-0.026-0.254-0.057-0.382-0.084c-0.893-0.188-1.767-0.232-2.59,0.246c-0.609,0.354-1.058,0.919-1.35,1.55
			c-0.995,2.157-1.245,4.485-1.281,6.838c-0.016,1.074-0.013,2.149-0.018,3.223c-0.005,1.014-0.059,2.095,0.258,3.073
			c0.478,1.475,1.621,2.555,3.177,2.765c0.991,0.133,2.022,0.055,3.017-0.019c2.623-0.196,4.978-0.814,7.059-2.477
			c0.701-0.56,0.818-1.625,0.643-2.432C173.222,197.349,172.672,194.822,172.123,192.295z"/>
		<path fill="#FFFFFF" d="M205.075,158.961c-0.955-1.608-1.922-3.21-2.898-4.805c-0.597-0.974-1.682-1.366-2.725-1.138
			c-0.077-0.009-0.151-0.026-0.231-0.028c-2.074-0.055-4.132,0.169-5.767,1.568c-1.716,1.469-1.942,3.601-1.36,5.669
			c0.972,3.454,2.473,6.79,4.398,9.817c0.831,1.306,2.793,1.731,3.927,0.506c0.509-0.55,1.019-1.099,1.563-1.615
			c0.264-0.251,0.539-0.489,0.819-0.723c0.041-0.032,0.09-0.069,0.145-0.107c0.144-0.1,0.289-0.197,0.439-0.289
			c0.149-0.091,0.301-0.178,0.455-0.259c0.109-0.058,0.208-0.104,0.233-0.118c0.337-0.127,0.677-0.241,1.011-0.381
			c1.026-0.433,1.964-1.192,2.245-2.328c0.317-1.279-0.236-2.34-0.861-3.409C206.005,160.534,205.541,159.747,205.075,158.961z
			 M203.181,162.466C203.254,162.435,203.266,162.435,203.181,162.466L203.181,162.466z"/>
	</g>
	<g>
		<path fill="#FFFFFF" d="M314.122,282.014c-0.157-0.291-0.372-0.525-0.644-0.701c-0.241-0.221-0.525-0.37-0.85-0.448
			c-0.64-0.146-1.358-0.114-1.926,0.252c-0.519,0.335-1.035,0.862-1.149,1.494c-0.224,1.242-0.491,2.485-0.642,3.738
			c-0.013,0.344,0.059,0.665,0.215,0.963c0.101,0.31,0.273,0.578,0.517,0.805c0.226,0.244,0.495,0.416,0.805,0.517
			c0.298,0.156,0.619,0.228,0.963,0.215c0.647-0.029,1.317-0.241,1.768-0.732c0.13-0.169,0.26-0.337,0.391-0.506
			c0.119-0.206,0.203-0.421,0.26-0.644c0.182-1.009,0.364-2.018,0.545-3.027c0.104-0.332,0.119-0.665,0.045-0.997
			C314.404,282.61,314.305,282.3,314.122,282.014z"/>
		<path fill="#FFFFFF" d="M333.498,273.195c-0.054-0.1-0.124-0.183-0.191-0.27c-0.077-0.151-0.171-0.292-0.287-0.42
			c-0.176-0.272-0.41-0.487-0.701-0.644c-0.287-0.183-0.597-0.282-0.929-0.297c-0.332-0.074-0.665-0.06-0.997,0.045
			c-0.605,0.196-1.189,0.571-1.494,1.149c-0.316,0.597-0.431,1.262-0.252,1.926c0.252,0.938,0.505,1.877,0.757,2.815
			c0.077,0.325,0.227,0.609,0.448,0.85c0.176,0.272,0.41,0.487,0.701,0.644c0.287,0.183,0.597,0.282,0.929,0.297
			c0.332,0.074,0.665,0.06,0.997-0.045c0.605-0.196,1.189-0.571,1.494-1.149c0.084-0.199,0.168-0.398,0.252-0.597
			c0.039-0.146,0.045-0.291,0.059-0.437c0.085-0.158,0.156-0.323,0.196-0.501c0.03-0.221,0.059-0.443,0.089-0.665
			c-0.001-0.451-0.115-0.872-0.341-1.262C333.984,274.155,333.741,273.675,333.498,273.195z"/>
		<path fill="#FFFFFF" d="M370.056,261.497c-0.016-1.178-0.431-2.362-0.703-3.502c-0.288-1.207-0.576-2.415-0.863-3.622
			c-0.192-0.804-0.545-1.416-1.286-1.82c-0.429-0.235-0.983-0.366-1.503-0.313c-0.295-0.186-0.631-0.311-1.008-0.335
			c-1.236-0.08-2.472-0.159-3.709-0.239c-1.398-0.09-2.539,0.81-2.768,2.2c-0.324,1.971-0.489,3.964-0.479,5.961
			c0.007,1.266-0.017,2.506,0.348,3.727c0.422,1.413,1.728,2.592,3.242,2.631c1.23,0.032,2.199-0.501,3.168-1.183
			c0.02,0.002,0.041,0.003,0.061,0.005c0.168,0.019,0.336,0.046,0.503,0.074c0.964,0.158,1.917,0.218,2.851-0.142
			C369.316,264.398,370.076,262.938,370.056,261.497z"/>
		<path fill="#FFFFFF" d="M399.198,241.569c-0.125-1.354-0.411-2.714-0.686-3.956c-0.239-1.079-0.517-2.127-1.274-2.972
			c-0.714-0.797-1.881-1.258-2.942-1.146c-1.574,0.166-2.819,1.043-3.526,2.295c-0.429,0.169-0.835,0.419-1.196,0.788
			c-0.933,0.954-1.074,2.213-0.925,3.472c0.111,0.932,0.221,1.864,0.331,2.796c0.222,1.872,0.365,3.915,1.828,5.295
			c1.567,1.479,4.011,1.6,5.787,0.406c0.623-0.419,1.104-0.907,1.485-1.439c0.247,0.01,0.497-0.008,0.747-0.09
			c1.25-0.406,2.152-1.738,1.739-3.075C400.294,243.059,399.827,242.236,399.198,241.569z"/>
		<path fill="#FFFFFF" d="M431.571,204.064c-0.033-1.08-0.695-2.062-1.804-2.377c-1.676-0.476-3.362,0.08-4.636,1.208
			c-1.222,1.083-1.748,2.626-1.88,4.208c-0.12,1.438,0.25,2.906,0.537,4.307c0.282,1.378,0.563,2.755,0.845,4.133
			c0.379,1.855,2.932,2.397,4.178,1.103c0.123-0.127,0.538-0.398,0.617-0.567c0.025-0.017,0.049-0.035,0.074-0.051
			c0.121-0.081,0.245-0.156,0.371-0.229c0.126-0.073,0.258-0.134,0.384-0.206c0.011-0.007,0.013-0.008,0.023-0.014
			c0.282-0.099,0.56-0.198,0.852-0.267c0.113-0.027,0.228-0.047,0.341-0.072c0.029-0.006,0.037-0.009,0.058-0.013
			c0.393-0.05,0.795-0.087,1.176-0.198c1.077-0.315,1.93-1.037,2.366-2.071c0.78-1.848-0.356-3.523-1.26-5.066
			C433.065,206.614,432.318,205.339,431.571,204.064z"/>
		<path fill="#FFFFFF" d="M454.759,168.727c-0.108-0.293-0.264-0.572-0.454-0.824c-0.004-0.007-0.006-0.015-0.01-0.022
			c-0.729-1.247-2.197-1.48-3.421-0.897c-3.279,1.563-6.49,3.801-6.848,7.724c-0.187,2.049,0.555,4.146,1.232,6.05
			c0.717,2.016,1.578,3.986,2.562,5.885c0.639,1.232,2.277,1.506,3.421,0.897c1.682-0.896,3.365-1.79,5.046-2.688
			c0.845-0.452,1.696-0.988,2.206-1.829c0.623-1.027,0.663-2.256,0.282-3.375C457.529,175.981,456.097,172.364,454.759,168.727z"/>
	</g>
	<g>
		<path fill="#FFFFFF" d="M486.122,292.616c0.013-0.344-0.059-0.665-0.215-0.963c-0.101-0.31-0.273-0.578-0.517-0.805
			c-0.169-0.13-0.337-0.261-0.506-0.391c-0.39-0.226-0.81-0.34-1.262-0.341c-0.221,0.03-0.443,0.06-0.665,0.089
			c-0.424,0.119-0.791,0.333-1.103,0.643c-0.155,0.184-0.3,0.38-0.445,0.573c-0.022,0.029-0.044,0.059-0.064,0.09
			c-0.04,0.061-0.076,0.125-0.108,0.191c-0.105,0.22-0.195,0.45-0.287,0.675c-0.014,0.034-0.027,0.068-0.039,0.103
			c-0.025,0.073-0.045,0.148-0.06,0.225c-0.007,0.036-0.013,0.072-0.018,0.109c-0.002,0.014-0.003,0.028-0.005,0.042
			c-0.059,0.17-0.099,0.345-0.108,0.529c-0.074,0.332-0.06,0.665,0.045,0.997c0.021,0.05,0.043,0.101,0.064,0.151
			c0.006,0.036,0.009,0.073,0.015,0.109c0.013,0.076,0.033,0.151,0.057,0.225c0.077,0.325,0.227,0.609,0.448,0.85
			c0.176,0.272,0.41,0.487,0.701,0.644c0.199,0.084,0.398,0.168,0.597,0.252c0.443,0.119,0.886,0.119,1.329,0
			c0.009-0.002,0.018-0.004,0.027-0.007c0.086-0.028,0.535-0.214,0.615-0.259c0.007-0.004,0.015-0.008,0.022-0.012
			c0.032-0.019,0.489-0.372,0.516-0.398c0.007-0.007,0.015-0.014,0.022-0.021c0.041-0.039,0.367-0.464,0.398-0.515
			c0.065-0.108,0.093-0.207,0.15-0.341c0.051-0.121,0.111-0.224,0.14-0.347c0.025-0.107,0.084-0.564,0.091-0.677
			c0-0.009,0.002-0.017,0.002-0.026c0-0.127-0.032-0.277-0.047-0.386c-0.001-0.009-0.004-0.033-0.005-0.046l0,0
			C486.063,293.281,486.135,292.96,486.122,292.616z"/>
		<path fill="#FFFFFF" d="M506.029,282.811c-0.023-1.281,0.091-2.717-0.622-3.848c-0.504-0.799-1.229-1.32-2.11-1.629
			c-0.729-0.256-1.481-0.21-2.226-0.087c-0.619,0.102-1.176,0.404-1.682,0.763c-0.345,0.024-0.684,0.103-1.014,0.242
			c-0.964,0.407-1.669,1.195-1.959,2.209c-0.181,0.631-0.166,1.296-0.155,1.944c0.009,0.531,0.018,1.062,0.027,1.593
			c0.011,0.67,0.027,1.312,0.137,1.977c0.159,0.959,0.774,1.738,1.547,2.289c1.033,0.736,2.311,0.641,3.492,0.485
			c0.6-0.08,1.2-0.159,1.8-0.239c1.239-0.166,2.247-0.851,2.659-2.082c0.213-0.637,0.147-1.341,0.135-2.002
			C506.049,283.887,506.039,283.349,506.029,282.811z"/>
		<path fill="#FFFFFF" d="M525.832,259.941c-0.327-1.509-0.456-3.274-1.556-4.452c-0.231-0.248-0.5-0.446-0.79-0.593
			c-0.175-0.199-0.376-0.383-0.612-0.562c-0.885-0.673-2.25-0.763-3.277-0.421c-1.056,0.351-1.964,1.056-2.522,2.025
			c-1.075,1.864-0.602,4.103-0.256,6.094c0.154,0.889,0.334,1.773,0.54,2.651c0.245,1.042,0.428,2.262,1.19,3.068
			c0.582,0.616,1.378,0.946,2.227,0.92c0.612-0.018,1.097-0.241,1.644-0.467c0.854-0.352,1.708-0.705,2.561-1.058
			c0.601-0.248,1.173-0.541,1.494-1.149c0.324-0.614,0.4-1.243,0.252-1.926C526.429,262.695,526.13,261.318,525.832,259.941z"/>
		<path fill="#FFFFFF" d="M538.506,228.52c-0.145-0.948-0.249-1.991-0.752-2.833c-0.771-1.29-2.277-2.132-3.798-1.75
			c-0.073,0.018-0.136,0.047-0.205,0.069c-0.01-0.002-0.019-0.008-0.03-0.01c-1.533-0.305-3.114-0.424-4.554,0.302
			c-1.791,0.902-2.261,2.768-2.286,4.619c-0.042,3.12,0.44,6.285,1.393,9.255c0.495,1.541,2.223,2.318,3.673,1.494
			c0.101-0.06,0.204-0.116,0.309-0.169c0.249-0.117,0.21-0.105-0.116,0.035c0.146-0.122,0.487-0.171,0.668-0.219
			c0.114-0.03,0.228-0.056,0.343-0.08c0.278-0.048,0.23-0.046-0.143,0.007c0.119-0.079,0.472-0.036,0.615-0.038
			c0.192-0.003,0.382,0.012,0.573,0.02c0.083,0.016,0.165,0.031,0.247,0.05c0.218,0.051,0.426,0.123,0.638,0.19
			c0.081,0.04,0.161,0.079,0.24,0.123c1.696,0.903,3.701-0.225,3.762-2.159c0.059-1.886,0.007-3.772-0.169-5.651
			C538.813,230.687,538.672,229.601,538.506,228.52z"/>
		<path fill="#FFFFFF" d="M553.743,197.975c-0.748-4.04-1.496-8.081-2.244-12.121c-0.381-2.058-0.76-4.117-1.143-6.175
			c-0.367-1.969-1.142-3.938-3.233-4.602c-3.332-1.059-6.426,1.675-7.701,4.532c-0.004,0.008-0.006,0.016-0.01,0.024
			c-0.391,0.237-0.666,0.529-0.848,0.852c-1.592-0.292-3.554,0.982-3.057,3.064c1.188,4.978,2.777,9.843,4.759,14.562
			c0.93,2.214,1.851,5.48,4.757,5.613c1.415,0.065,2.751-0.758,4.002-1.321c1.19-0.535,2.379-1.07,3.569-1.606
			C553.653,200.322,553.93,198.986,553.743,197.975z"/>
	</g>
	<g>
		<path fill="#FFFFFF" d="M33.153,136.308c-0.169-0.13-0.337-0.261-0.506-0.391c-0.39-0.226-0.81-0.34-1.262-0.341
			c-0.061,0.008-0.122,0.016-0.183,0.025c-0.311-0.059-0.622-0.047-0.933,0.05c-0.199,0.084-0.398,0.168-0.597,0.252
			c-0.376,0.222-0.675,0.521-0.897,0.897c-0.084,0.199-0.168,0.398-0.252,0.597c-0.104,0.388-0.101,0.776-0.022,1.164
			c-0.037,0.225-0.069,0.452-0.095,0.677c-0.017,0.153-0.018,0.307-0.005,0.46c-0.013,0.344,0.059,0.665,0.215,0.963
			c0.101,0.31,0.273,0.578,0.517,0.805c0.169,0.13,0.337,0.261,0.506,0.391c0.287,0.183,0.597,0.282,0.93,0.297
			c0.222,0.06,0.443,0.06,0.665,0c0.333-0.015,0.643-0.114,0.93-0.297c0.169-0.13,0.337-0.261,0.506-0.391
			c0.31-0.312,0.524-0.68,0.643-1.103c0.042-0.135,0.075-0.272,0.097-0.411c0.028-0.172,0.057-0.35,0.081-0.529
			c0.015-0.02,0.022-0.045,0.038-0.065c-0.007,0.009-0.014,0.019-0.021,0.028c0.063-0.111,0.124-0.223,0.164-0.348
			c0.157-0.298,0.228-0.619,0.215-0.963c0.013-0.344-0.059-0.665-0.215-0.963C33.569,136.803,33.396,136.535,33.153,136.308z"/>
		<path fill="#FFFFFF" d="M68.988,131.096c0.03-0.222,0.06-0.443,0.089-0.665c-0.001-0.451-0.115-0.872-0.341-1.262
			c-0.486-1.017-0.971-2.035-1.457-3.052c-0.094-1.62-0.302-3.197-1.017-4.707c-0.422-0.89-1.587-1.315-2.491-1.194
			c-0.647,0.087-1.15,0.412-1.532,0.866c-0.624-0.081-1.265-0.037-1.879,0.193c-1.101,0.413-1.938,1.078-2.628,2.026
			c-0.495,0.68-0.738,1.482-0.874,2.301c-0.395,0.302-0.69,0.72-0.783,1.246c-0.268,1.512-0.396,3.015-0.051,4.528
			c0.396,1.74,1.643,3.195,3.366,3.719c0.763,0.232,1.576,0.222,2.357,0.042c0.994,0.106,1.951-0.024,2.936-0.262
			c0.305-0.074,0.618-0.128,0.924-0.199c0.06-0.003,0.119-0.005,0.178-0.006c0.061,0.013,0.125,0.026,0.15,0.034
			c1.198,0.353,2.478-0.33,2.949-1.448c0.278-0.659,0.247-1.307,0.001-1.881C68.923,131.283,68.966,131.194,68.988,131.096z"/>
		<path fill="#FFFFFF" d="M109.102,107.856c-0.266-0.768-0.791-1.352-1.517-1.63c-0.187-0.253-0.4-0.49-0.677-0.704
			c-0.477-0.368-0.995-0.649-1.595-0.775c-1.243-0.261-2.553-0.067-3.654,0.577c-1.183,0.691-1.99,1.89-2.328,3.206
			c-0.35,1.364-0.22,2.709-0.03,4.08c0.164,1.181,0.361,2.358,0.544,3.535c0.12,0.772,0.3,1.474,0.791,2.109
			c0.687,0.89,1.593,1.295,2.693,1.404c1.225,0.121,2.578-0.369,3.763-0.643c1.441-0.334,3.001-0.644,3.817-2.04
			c0.987-1.688,0.161-3.431-0.413-5.089C110.032,110.542,109.567,109.199,109.102,107.856z M104.815,115.659
			c0.007,0.016,0.014,0.032,0.02,0.048C104.83,115.706,104.823,115.686,104.815,115.659z"/>
		<path fill="#FFFFFF" d="M147.571,92.446c-0.648-2.396-1.296-4.791-1.943-7.187c-0.276-1.02-1.325-1.884-2.411-1.835
			c-0.154,0.007-0.303,0.028-0.448,0.057c-0.257-0.093-0.532-0.154-0.827-0.155c-2.316-0.01-4.686,0.698-6.539,2.103
			c-0.995,0.754-1.333,1.6-1.149,2.823c0.324,2.149,0.713,4.287,1.174,6.411c0.474,2.184,0.768,5.274,3.383,5.895
			c1.256,0.298,2.575-0.174,3.794-0.464c1.065-0.253,2.14-0.482,3.199-0.761c1.684-0.444,2.82-1.844,2.58-3.63
			C148.236,94.601,147.861,93.518,147.571,92.446z"/>
		<path fill="#FFFFFF" d="M179.54,64.715c-0.562-1.93-1.124-3.859-1.686-5.789c-0.548-1.881-1.029-3.807-1.654-5.658
			c-0.764-2.262-2.688-3.54-4.758-2.309c-1.488,0.884-2.859,2.192-4.242,3.269c-0.083,0.065-0.172,0.129-0.257,0.194
			c-1.987-0.092-3.965,0.747-5.363,2.385c-0.704,0.825-0.843,2.035-0.351,3.03c2.322,4.699,4.152,9.632,5.493,14.782
			c0.44,1.688,1.982,2.14,3.302,1.494c3.069-1.502,6.325-3.128,9.068-5.296C181.118,69.214,180.16,66.845,179.54,64.715z"/>
	</g>
</g>
<g id="レイヤー_8">
</g>
</svg>
