<?xml version="1.0" encoding="utf-8"?>
<!-- Generator: Adobe Illustrator 22.1.0, SVG Export Plug-In . SVG Version: 6.00 Build 0)  -->
<svg version="1.1" id="レイヤー_1" xmlns="http://www.w3.org/2000/svg" xmlns:xlink="http://www.w3.org/1999/xlink" x="0px"
	 y="0px" width="30px" height="30px" viewBox="0 0 30 30" enable-background="new 0 0 30 30" xml:space="preserve">
<path fill="#353432" d="M27.288,12.177c-0.33-0.678-0.845-1.25-1.486-1.647c-0.641-0.398-1.382-0.605-2.136-0.599h-5.095
	c-0.493-1.892-2.628-3.365-4.04-3.365H6.048C5.293,6.559,4.553,6.767,3.912,7.164C3.271,7.562,2.755,8.133,2.426,8.812
	C2.103,9.46,1.953,10.18,1.989,10.903c0.036,0.723,0.258,1.425,0.644,2.037c0.373,0.594,0.891,1.083,1.505,1.422
	c0.614,0.339,1.304,0.516,2.005,0.515H6.37c0.346,0.829,0.874,1.568,1.546,2.164c0.672,0.596,1.469,1.033,2.333,1.278l0.361,0.102
	l0.509-0.682l-0.191-0.316c-0.388-0.641-0.622-1.365-0.682-2.112c0-0.143-0.016-0.291-0.014-0.439h1.137
	c0.181,0.933,0.676,1.775,1.401,2.389c0.726,0.614,1.639,0.961,2.589,0.985c0.003,0.147-0.001,0.294-0.014,0.441
	c-0.059,0.763-0.3,1.502-0.703,2.153l-0.196,0.318l0.482,0.646l0.361-0.098c0.877-0.238,1.687-0.674,2.37-1.274
	c0.683-0.6,1.219-1.348,1.568-2.187h4.342c0.701,0,1.391-0.177,2.005-0.516c0.614-0.339,1.132-0.828,1.505-1.421
	c0.387-0.613,0.609-1.315,0.645-2.039C27.763,13.546,27.612,12.825,27.288,12.177z M11.738,12.177
	c-0.238,0.5-0.383,1.039-0.427,1.591H9.23l-0.055,0.489c-0.098,0.85-0.009,1.711,0.259,2.523c-1.016-0.585-1.786-1.518-2.169-2.626
	l-0.125-0.373H6.143c-0.517,0-1.025-0.132-1.477-0.382c-0.452-0.25-0.833-0.611-1.108-1.048c-0.284-0.458-0.446-0.981-0.471-1.519
	c-0.024-0.538,0.09-1.074,0.332-1.555C3.66,8.788,4.035,8.376,4.5,8.091c0.465-0.286,1.002-0.434,1.548-0.427h8.484
	c0.841,0,2.405,0.984,2.901,2.273H15.36c-0.753-0.007-1.494,0.2-2.134,0.596C12.584,10.93,12.069,11.499,11.738,12.177z
	 M26.154,15.716c-0.275,0.437-0.656,0.797-1.107,1.047c-0.452,0.25-0.959,0.381-1.475,0.381h-5.115l-0.127,0.373
	c-0.379,1.114-1.149,2.052-2.167,2.642c0.148-0.45,0.242-0.917,0.28-1.389c0.03-0.379,0.022-0.76-0.023-1.137l-0.055-0.486h-0.909
	c-0.516,0-1.024-0.132-1.475-0.381c-0.452-0.25-0.833-0.61-1.107-1.047c-0.285-0.457-0.448-0.98-0.473-1.518
	c-0.025-0.538,0.09-1.074,0.332-1.555c0.24-0.49,0.615-0.902,1.08-1.188c0.465-0.286,1.002-0.434,1.548-0.426h8.307
	c0.546-0.007,1.083,0.141,1.548,0.426s0.84,0.698,1.08,1.188c0.242,0.481,0.356,1.016,0.331,1.554
	C26.601,14.737,26.439,15.26,26.154,15.716z"/>
</svg>
