<?xml version="1.0" encoding="utf-8"?>
<!-- Generator: Adobe Illustrator 24.0.1, SVG Export Plug-In . SVG Version: 6.00 Build 0)  -->
<svg version="1.1" xmlns="http://www.w3.org/2000/svg" xmlns:xlink="http://www.w3.org/1999/xlink" x="0px" y="0px"
	 viewBox="0 0 370 127" enable-background="new 0 0 370 127" xml:space="preserve">
<g id="参考画像" display="none">
</g>
<g id="レイヤー_9">
</g>
<g id="大きな島">
</g>
<g id="レイヤー_7">
	<g id="島-後ろ">
	</g>
</g>
<g id="島本体">
	<g>
		<path fill="none" d="M287.477,72.243c3.818,2.057,5.738,6.243,6.595,10.355c-0.255-4.106-0.887-8.899-4.017-11.864
			c-2.656-2.518-7.122-2.531-9.918-0.21c-0.298,0.247-0.563,0.521-0.811,0.807C282.029,70.63,284.979,70.897,287.477,72.243z"/>
		<path fill="none" d="M255.426,96.481c0.376-0.437,0.841-0.794,1.397-1.055c-0.031-0.134-0.049-0.271-0.04-0.414
			c0.167-2.538,1.191-5.106,3.983-5.62c1.557-0.287,3.087,0.107,4.366,0.936c-2.775-5.315-5.836-10.487-8.226-15.993
			c-0.248-0.57-0.486-1.146-0.719-1.726c0.281,1.742,0.39,3.513,0.38,5.225C256.534,83.828,254.905,90.347,255.426,96.481z"/>
		<path fill="none" d="M263.969,97.498c0.599,0.748,1.043,1.567,1.368,2.43c0.087-1.545,0.082-3.156-0.506-4.593
			c-0.461-1.126-1.427-2.3-2.658-2.49c-1.424-0.219-1.764,0.921-1.846,2.166c-0.003,0.042-0.014,0.081-0.019,0.123
			C261.734,95.473,263.028,96.322,263.969,97.498z"/>
		<path fill="none" d="M273.921,49.026c0.013,0.04,0.021,0.079,0.034,0.119c0.158-2.131-0.148-4.25-1.213-6.245
			c-2.098-3.927-7.385-5.763-10.673-2.148c-0.076,0.084-0.142,0.175-0.214,0.262C267.23,39.968,272.27,44.057,273.921,49.026z"/>
		<path fill="none" d="M250.831,71.273c1.088,1.675,1.79,3.567,2.237,5.53c-0.078-2.384-0.427-4.734-1.267-7.005
			c-0.942-2.549-4.294-7.241-7.147-3.959c-0.298,0.342-0.532,0.71-0.73,1.09C246.621,66.967,249.248,68.835,250.831,71.273z"/>
		<path fill="none" d="M338.266,62.576c0.537,0.514,0.984,1.087,1.354,1.696c0.469-0.875,0.587-1.971,0.267-2.925
			c-0.761-2.268-3.229-3.47-5.41-3.939c-3.64-0.783-7.583,0.461-10.382,2.876C328.787,58.618,334.545,59.01,338.266,62.576z"/>
		<path fill="none" d="M5.601,100.142c0.025-0.04,0.048-0.082,0.074-0.121c-0.064-0.086-0.12-0.178-0.182-0.266
			c0.018,0.062,0.037,0.125,0.055,0.187C5.567,100.008,5.582,100.076,5.601,100.142z"/>
		<path opacity="0.1" d="M329.061,86.551c-0.371,0.004-0.742,0.011-1.113,0.028c-1.577,0.073-2.898,1.544-2.411,3.165
			c1.036,3.447,1.788,6.953,2.272,10.502c0.871-1.72,1.826-3.442,2.927-5.047C330.366,92.284,329.803,89.4,329.061,86.551z"/>
		<path opacity="0.1" d="M337.441,121.809c-4.671-0.196-9.452-1.242-13.139-4.27c-1.232-1.012-1.982-2.234-1.676-3.882
			c0.228-1.223,0.659-2.434,1.047-3.614c0.707-2.144,1.541-4.248,2.467-6.307c-0.877,1.556-1.671,3.147-2.396,4.695
			c-1.107,2.367-2.089,4.799-2.906,7.281c-0.389,1.18-0.82,2.391-1.047,3.614c-0.307,1.648,0.443,2.87,1.675,3.882
			c3.687,3.028,8.468,4.074,13.139,4.27c2.368,0.099,4.848-0.079,7.067-0.967c1.094-0.438,2.275-0.993,3.087-1.876
			c1.091-1.187,1.093-2.773,1.163-4.291c0.002-0.052,0.001-0.104,0.004-0.156c-0.466,0.248-0.949,0.466-1.419,0.654
			C342.289,121.73,339.809,121.909,337.441,121.809z"/>
		<path opacity="0.1" d="M361.535,118.132c-0.367,0.12-0.822,0.124-1.254,0.027c-0.376,0.092-0.795,0.101-1.26-0.03
			c-0.968-0.273-1.992-0.287-2.939-0.637c-1.125-0.416-2.13-1.11-2.734-2.174c-1.109-1.955-0.463-4.82-0.301-6.958
			c0.26-3.435,0.634-6.86,1.1-10.272c-1.028,0.077-2.118,0.842-2.274,1.835c-0.736,4.679-1.304,9.384-1.661,14.107
			c-0.162,2.139-0.808,5.003,0.301,6.958c0.604,1.064,1.608,1.758,2.734,2.174c0.948,0.35,1.971,0.364,2.94,0.637
			c0.465,0.131,0.884,0.122,1.26,0.03c0.432,0.098,0.887,0.094,1.254-0.027c1.505-0.492,2.319-2.035,3.145-3.298
			c0.773-1.182,1.484-2.405,2.13-3.662c0.558-1.085,1.052-2.201,1.52-3.328c-0.267,0.444-0.532,0.888-0.816,1.321
			C363.853,116.097,363.04,117.64,361.535,118.132z"/>
		<path opacity="0.1" d="M272.011,103.175c-1.581,1.112-2.587,2.939-2.808,4.859c-0.318,2.756,1.236,5.384,3.49,6.866
			c0.8,0.526,1.959,0.159,2.424-0.636c0.505-0.864,0.166-1.897-0.636-2.424c-1.473-0.968-2.173-2.779-1.524-4.407
			c0.01-0.018,0.038-0.076,0.084-0.177c0.058-0.11,0.119-0.217,0.185-0.322C272.481,105.82,272.031,104.527,272.011,103.175z"/>
		<path opacity="0.1" d="M276.728,105.691c0.04,0.011,0.069,0.018,0.114,0.032c1.77,0.515,3.061,2.161,3.817,3.918
			c1.023,2.378,1.301,5.024,1.922,7.519c0.231,0.929,1.273,1.486,2.179,1.237c0.944-0.259,1.469-1.248,1.238-2.179
			c-1.155-4.641-1.65-10.058-6.042-12.927c-1.26-0.823-2.754-1.271-4.241-1.262C275.309,103.345,275.739,104.737,276.728,105.691z"
			/>
		<path opacity="0.1" d="M294.091,82.9c-0.006-0.099-0.013-0.201-0.019-0.301c-0.857-4.112-2.777-8.298-6.595-10.355
			c-2.498-1.346-5.448-1.614-8.15-0.912c-1.13,1.311-1.73,2.985-1.806,4.698c2.806-2.148,7.11-2.08,9.7,0.375
			c3.206,3.038,3.792,7.996,4.036,12.165c0.304,5.212-0.086,10.442,0.318,15.649c0.403,5.195,1.552,10.416,4.487,14.803
			c1.262,1.886,4.333,0.114,3.06-1.788c-2.877-4.3-3.825-9.138-4.129-14.139c-0.272-1.504-0.465-3.024-0.583-4.545
			C294.006,93.341,294.396,88.111,294.091,82.9z"/>
		<path opacity="0.1" d="M274.18,74.28c-2.287,2.357-3.273,5.707-2.974,8.942c0.766,1.469,1.507,2.944,2.196,4.434
			c0.192,0.415,0.215,0.818,0.131,1.182c1.363,0.646,3.3-0.848,2.319-2.472c-1.005-1.665-1.365-3.693-1.066-5.601
			C273.99,78.717,273.791,76.441,274.18,74.28z"/>
		<path opacity="0.1" d="M302.196,100.49c2.551-7.581,0.621-15.612,0.25-23.371c-0.111-2.323-0.173-4.834,0.285-7.194
			c-0.569,0.548-1.068,1.179-1.473,1.874c-1.89,3.252-1.821,7.352-1.647,10.989c0.371,7.759,2.3,15.79-0.25,23.371
			c-0.002,0.008-0.002,0.015-0.005,0.023c0.208,0.63,0.442,1.253,0.705,1.868c0.898,0.517,2.285,0.335,2.717-0.949
			c0.495-1.47,0.825-2.957,1.044-4.455C302.774,102.602,301.768,101.763,302.196,100.49z"/>
		<path opacity="0.1" d="M306.03,71.765c0.716-0.464,1.565-0.673,2.551-0.44c2.217,0.524,3.164-2.892,0.942-3.417
			c-0.745-0.176-1.485-0.216-2.208-0.149c-0.55,0.896-0.919,1.934-1.101,2.847C306.138,70.989,306.08,71.376,306.03,71.765z"/>
		<path opacity="0.1" d="M310.426,98.331c0.229-3.719,1.653-7.081,2.963-10.517c1.25-3.277,2.186-6.667,2.687-10.141
			c0.48-3.336,0.294-6.703,0.67-10.043c0.098-0.866,0.263-1.704,0.48-2.517c-1.824,2.275-2.964,5.074-3.314,8.187
			c-0.376,3.34-0.19,6.707-0.671,10.043c-0.5,3.474-1.438,6.864-2.687,10.141c-1.311,3.436-2.734,6.798-2.964,10.517
			c-0.25,4.046,0.815,8.059,1.86,11.929c0.593,2.199,4.013,1.266,3.417-0.942c-0.783-2.903-1.604-5.846-1.746-8.865
			c-0.009-0.186-0.005-0.369-0.007-0.553C310.605,103.184,310.276,100.764,310.426,98.331z"/>
		<path opacity="0.1" d="M337.725,65.774c0.867-0.187,1.502-0.768,1.896-1.502c-0.37-0.61-0.818-1.182-1.354-1.696
			c-3.721-3.566-9.479-3.958-14.17-2.293c-0.316,0.272-0.621,0.556-0.906,0.857c-1.531,1.62-2.286,3.51-2.682,5.518
			c2.812-2.871,7.156-4.438,11.135-3.581c1.958,0.421,4.138,1.441,5.115,3.286C336.966,66.087,337.279,65.87,337.725,65.774z"/>
		<path opacity="0.1" d="M337.165,68.839c-0.216,1.226-1.003,2.331-2.274,2.605c-2.228,0.48-1.285,3.896,0.942,3.417
			c2.517-0.542,4.329-2.767,4.784-5.247c0.083-0.455,0.111-0.905,0.114-1.352c-0.614,0.433-1.301,0.765-2.062,0.929
			C338.054,69.323,337.543,69.155,337.165,68.839z"/>
		<path opacity="0.1" d="M265.295,107.178c-0.325-2.169-0.159-4.271-0.009-6.446c0.018-0.265,0.035-0.534,0.05-0.804
			c-0.324-0.863-0.769-1.681-1.368-2.43c-0.941-1.176-2.235-2.025-3.661-2.363c-0.113,0.903-0.786,1.649-1.753,1.649
			c-0.777,0-1.554-0.593-1.732-1.358c-0.556,0.26-1.021,0.618-1.397,1.055c0.165,1.94,0.553,3.839,1.269,5.672
			c0.464-0.321,0.757-0.867,0.797-1.472c0.082-1.245,0.422-2.386,1.846-2.166c1.231,0.19,2.197,1.364,2.658,2.49
			c0.691,1.688,0.579,3.618,0.456,5.397c-0.15,2.175-0.316,4.278,0.009,6.446c0.142,0.947,1.336,1.469,2.18,1.237
			c1.014-0.279,1.379-1.229,1.237-2.179c-0.19-1.271-0.133-2.558-0.032-3.845C265.561,107.841,265.35,107.542,265.295,107.178z"/>
		<path opacity="0.1" d="M255.626,48.911c0.116-1.514,0.375-3.107,0.806-4.654c-2.341,2.776-3.368,6.772-3.641,10.324
			c-0.302,3.945,0.227,7.866,1.245,11.67c1.12,1.94,1.79,4.12,2.151,6.359c0.233,0.579,0.472,1.156,0.719,1.726
			c2.39,5.506,5.451,10.677,8.226,15.993c0.625,0.406,1.196,0.907,1.671,1.501c0.992,1.24,1.565,2.672,1.857,4.182
			c1.192,0.143,2.594-1.199,1.906-2.686c-4.919-10.638-12.366-20.537-14.03-32.411c-0.132-0.941-0.234-1.95-0.29-2.99
			C255.653,54.963,255.394,51.944,255.626,48.911z"/>
		<path opacity="0.1" d="M270.141,60.121c1.72-3.258,3.53-7.136,3.814-10.976c-0.013-0.04-0.021-0.079-0.034-0.119
			c-1.65-4.969-6.691-9.058-12.066-8.012c-1.221,1.449-1.964,3.247-2.376,5.173c3.299-3.276,8.381-1.451,10.428,2.383
			c2.987,5.591,0.074,12.155-2.601,17.221c-1.064,2.015,1.993,3.808,3.059,1.788c0.868-1.644,1.711-3.371,2.421-5.148
			C271.514,63.528,269.193,61.917,270.141,60.121z"/>
		<path opacity="0.1" d="M251.911,92.373c0.21-5.063,1.325-10.399,1.157-15.57c-0.447-1.963-1.149-3.855-2.237-5.53
			c-1.583-2.438-4.21-4.306-6.908-4.344c-0.569,1.094-0.765,2.328-0.771,3.615c2.489-0.914,5.016,2.764,5.813,4.923
			c2.66,7.196,0.416,15.177,0.109,22.575c-0.179,4.307,0.286,8.563,2.106,12.508c0.954,2.068,4.009,0.27,3.06-1.788
			c-1.244-2.697-1.688-5.556-1.746-8.48C251.938,97.707,251.799,95.05,251.911,92.373z"/>
		<path opacity="0.1" d="M239.873,68.471c-4.491,3.875-2.516,9.904-2.404,14.963c0.05,2.277,3.594,2.285,3.543,0
			c-0.034-1.512-0.361-3.237-0.556-4.967c-0.09-0.204-0.147-0.436-0.153-0.702C240.237,74.79,239.535,71.482,239.873,68.471z"/>
		<path opacity="0.1" d="M226.625,90.847c2.369,0.045,4.486,1.98,5.957,3.777c2.465,3.014,4.412,6.592,5.862,10.193
			c0.357,0.887,1.181,1.512,2.179,1.237c0.842-0.231,1.597-1.287,1.237-2.179c-1.427-3.542-3.2-6.92-5.441-10.019
			c-1.943-2.687-4.356-5.379-7.683-6.27c-0.912-0.244-1.88-0.307-2.838-0.225C225.647,88.411,226.054,89.662,226.625,90.847z"/>
		<path opacity="0.1" d="M220.685,89.992c-2.354,2.992-0.957,6.61,0.7,9.554c2.142,3.806,3.617,7.735,4.225,12.078
			c0.133,0.948,1.343,1.467,2.179,1.237c1.021-0.281,1.371-1.228,1.238-2.179c-0.57-4.066-1.877-8.006-3.842-11.612
			c-1.001-1.837-3.078-4.898-1.792-6.798c-0.559-1.203-0.989-2.47-1.096-3.73C221.688,88.933,221.14,89.415,220.685,89.992z"/>
		<path opacity="0.1" d="M127.509,97.799c-0.265-1.621-0.529-3.241-0.793-4.862c-1.86,0.503-3.731,0.96-5.596,1.387
			c-6.395,1.465-12.935,2.51-19.5,2.708c-3.355,0.101-6.809-0.003-10.215-0.415c0.104,1.984,0.233,3.967,0.4,5.948
			c0,0.005,0,0.009,0,0.013c2.342,0.156,4.684,0.193,6.98,0.124c6.565-0.198,13.105-1.243,19.5-2.708
			c1.865-0.427,3.736-0.884,5.597-1.387c0.264,1.621,0.529,3.241,0.793,4.862c0.211,1.294,1.886,2.131,3.076,1.746
			c1.402-0.454,1.972-1.688,1.746-3.075c-0.146-0.891-0.291-1.782-0.436-2.672C128.296,99.186,127.636,98.579,127.509,97.799z"/>
		<path opacity="0.1" d="M93.037,23.847c-0.317-3.216-0.497-6.442-0.328-9.673c0.111-2.122,0.301-4.402,0.843-6.559
			c-2.93,3.249-3.458,8.045-3.677,12.228c-0.069,1.321-0.068,2.64-0.035,3.959C90.907,23.788,91.975,23.794,93.037,23.847z"/>
		<path opacity="0.1" d="M71.211,27.755c-0.26-2.597-0.325-5.213-0.169-7.815c0.252-4.2,1.006-8.387,2.302-12.394
			c-1.003,0.978-1.647,2.352-2.143,3.674c-1.727,4.601-2.699,9.487-2.993,14.389c-0.136,2.275-0.094,4.562,0.09,6.837
			c0.494-1.407,1.2-2.734,2.164-3.906C70.698,28.254,70.951,27.999,71.211,27.755z"/>
		<path opacity="0.1" d="M107.946,45.316c0.228,0.482,0.361,1.001,0.324,1.606c-0.006,0.096-0.022,0.184-0.036,0.274
			c0.402-0.872,0.66-1.81,0.779-2.777C108.677,44.743,108.325,45.049,107.946,45.316z"/>
		<path opacity="0.1" d="M76.258,95.258c0.054-1.227,0.144-2.453,0.249-3.676c-2.665-2.001-4.689-4.698-5.579-8.211
			c-0.731-2.887-0.754-5.914-0.608-8.869c0.166-3.351,0.416-6.7,0.627-10.049c0.316-4.999,0.633-9.998,0.95-14.997
			c-1.967-1.174-3.468-2.888-3.428-5.365c0.005-0.299,0.064-0.561,0.146-0.804c-0.981-2.014-1.359-4.348-1.191-6.547
			c0.071-0.935,0.219-1.864,0.437-2.773c-0.077,0.084-0.16,0.155-0.233,0.245c-1.905,2.317-2.812,5.236-3.038,8.198
			c-0.167,2.199,0.211,4.533,1.191,6.547c-0.082,0.243-0.141,0.505-0.146,0.804c-0.039,2.477,1.461,4.191,3.429,5.365
			c-0.317,4.999-0.633,9.998-0.95,14.997c-0.212,3.349-0.462,6.697-0.627,10.049c-0.146,2.956-0.124,5.982,0.607,8.869
			c0.89,3.513,2.915,6.21,5.579,8.211c-0.105,1.224-0.195,2.449-0.249,3.676c-0.149,3.389-0.712,7.505,2.395,9.752
			c1.095,0.791,2.786,0.189,3.421-0.897c0.687-1.175,0.261-2.434-0.687-3.244c-0.021-0.039-0.039-0.072-0.052-0.095
			c-0.011-0.034-0.022-0.068-0.039-0.117c-0.031-0.113-0.052-0.228-0.075-0.342c0.006-0.041-0.038-0.458-0.039-0.477
			c-0.01-0.251-0.008-0.502-0.008-0.754C75.597,102.461,76.115,98.525,76.258,95.258z"/>
		<path opacity="0.1" d="M134.03,53.059c-1.419-0.233-3.025,0.609-2.933,2.385c0.201,3.882,0.128,7.756-0.204,11.606
			c0.698,0.15,1.392,0.313,2.078,0.506C133.741,62.766,134.092,57.923,134.03,53.059z"/>
		<path opacity="0.1" d="M96.15,51.006c-2.074,0.152-4.141,0.392-6.209,0.597c-0.021,0.002-0.043,0.004-0.064,0.006
			c0.064,1.786,0.15,3.571,0.286,5.35c1.05-0.106,2.101-0.206,3.153-0.283c2.339-0.171,4.688-0.151,7.011-0.519
			c2.085-0.331,4.954-1.002,5.108-3.565c0.037-0.606-0.097-1.124-0.325-1.606c0.709-0.5,1.34-1.112,1.889-1.798
			c-1.06,0.778-2.588,1.102-3.838,1.3C100.839,50.855,98.49,50.835,96.15,51.006z"/>
		<path opacity="0.1" d="M141.179,90.439c0.697-0.792,1.244-1.697,1.507-2.777c0.146-0.597,0.184-1.192,0.174-1.783
			c-0.666,0.545-1.396,1.03-2.141,1.47C140.906,88.374,141.051,89.406,141.179,90.439z"/>
		<path opacity="0.1" d="M86.804,102.564c-0.191-2.271-0.327-4.545-0.435-6.821c-1.264-0.289-2.514-0.619-3.733-1.025
			c-0.449-0.15-0.89-0.315-1.326-0.488c-0.088,1.584-0.136,3.171-0.137,4.758c0,0.283-0.002,0.567,0.01,0.85
			c0.001,0.019,0.044,0.436,0.038,0.477c0.023,0.115,0.044,0.23,0.076,0.342c0.016,0.049,0.028,0.083,0.039,0.117
			c0.012,0.021,0.029,0.053,0.049,0.089c0.711,0.199,1.428,0.384,2.15,0.549c0.108,2.276,0.243,4.55,0.435,6.821
			c0.11,1.3,1.071,2.564,2.5,2.5c1.26-0.056,2.618-1.104,2.5-2.5c-0.091-1.074-0.168-2.149-0.239-3.224
			C87.624,104.764,86.899,103.68,86.804,102.564z"/>
		<path opacity="0.1" d="M136.606,96.538c-0.015-1.132-0.061-2.264-0.147-3.393c-0.046-0.608-0.104-1.215-0.171-1.821
			c-0.029-0.26-0.061-0.519-0.093-0.778c0.053,0.432-0.052-0.371-0.052-0.371c-0.022-0.153-0.051-0.304-0.075-0.456
			c-1.488,0.657-3.008,1.24-4.551,1.764c0.235,1.441,0.47,2.882,0.705,4.323c0.337-0.14,0.678-0.271,1.011-0.418
			c0.024,0.152,0.053,0.304,0.075,0.456c0,0,0.105,0.803,0.053,0.371c0.031,0.259,0.063,0.519,0.093,0.778
			c0.067,0.606,0.125,1.213,0.171,1.821c0.086,1.129,0.132,2.26,0.147,3.393c0.017,1.307,1.138,2.561,2.5,2.5
			c1.34-0.06,2.519-1.099,2.5-2.5c-0.014-1.069-0.07-2.137-0.146-3.204C137.49,98.793,136.622,97.687,136.606,96.538z"/>
		<path opacity="0.1" d="M11.809,95.858c-0.184-0.759-0.331-1.525-0.452-2.296c-0.12-0.129-0.253-0.244-0.409-0.33
			c-0.618-0.342-1.413-0.127-1.89,0.356c-0.308,0.311-0.463,0.705-0.561,1.117c0.207,0.754,0.39,1.513,0.541,2.278
			C9.91,96.499,10.846,96.121,11.809,95.858z"/>
		<path opacity="0.1" d="M33.434,113.783c-2.119,1.03-4.599,1.553-6.65,1.803c-2.111,0.257-4.256,0.257-6.374,0.066
			c-0.034-0.003-0.069-0.008-0.104-0.011c-0.234,0.866-0.5,1.721-0.857,2.548c-0.232,0.537-0.502,1.058-0.829,1.544
			c-0.337,0.501-0.719,1.05-1.281,1.315c-0.596,0.281-1.345,0.144-1.675-0.47c-0.28-0.521-0.154-1.122,0.018-1.655
			c0.443-1.375,1.107-2.664,1.922-3.851c-0.426-0.168-0.823-0.387-1.18-0.668c-0.211,0.689-0.485,1.359-0.831,2.003
			c-0.555,1.033-1.306,2.109-2.227,2.851c-0.507,0.409-1.218,0.63-1.814,0.253c-0.067-0.043-0.123-0.092-0.176-0.142
			c-0.279,0.25-0.554,0.505-0.817,0.772c-0.886,0.902-1.829,1.899-2.25,3.116c-0.233,0.675-0.27,1.494,0.409,1.923
			c0.597,0.376,1.307,0.156,1.814-0.253c0.92-0.742,1.671-1.818,2.226-2.851c0.346-0.644,0.62-1.314,0.831-2.003
			c0.357,0.281,0.755,0.501,1.18,0.668c-0.814,1.188-1.479,2.477-1.922,3.851c-0.172,0.533-0.298,1.133-0.017,1.655
			c0.33,0.614,1.079,0.751,1.674,0.47c0.562-0.265,0.944-0.814,1.281-1.315c0.327-0.486,0.597-1.007,0.829-1.544
			c0.357-0.827,0.624-1.683,0.858-2.548c0.034,0.003,0.069,0.008,0.103,0.011c2.117,0.191,4.263,0.191,6.374-0.066
			c2.051-0.25,4.531-0.773,6.65-1.803c0.182,0.579,0.354,1.162,0.544,1.738c0.423,1.285,0.772,2.806,1.6,3.901
			c0.362,0.479,0.858,0.936,1.505,0.729c0.628-0.2,0.854-0.913,0.855-1.507c0.002-1.419-0.735-2.8-1.329-4.051
			c-0.341-0.718-0.706-1.425-1.077-2.129c0.472-0.383,0.901-0.804,1.264-1.278c0.286,0.411,0.58,0.815,0.884,1.212
			c-0.349-0.835-0.6-1.735-0.868-2.548C33.788,114.945,33.615,114.363,33.434,113.783z"/>
		<path opacity="0.1" d="M15.244,112.822c-0.48-1.21-0.37-2.629,0.156-3.811c0.01-0.022,0.023-0.042,0.034-0.064
			c-0.035-0.058-0.069-0.116-0.103-0.174c-0.231,0.172-0.461,0.345-0.702,0.499c-2.574,1.655-6.062,1.968-8.374-0.308
			c-2.073-2.04-2.393-5.154-1.247-7.747c0.168-0.381,0.373-0.734,0.593-1.075c-0.019-0.066-0.034-0.134-0.053-0.2
			c-0.018-0.062-0.037-0.125-0.055-0.187c-0.826-1.161-1.489-2.421-1.924-3.788c-0.01-0.031-0.019-0.064-0.029-0.095
			c-0.004-0.003-0.007-0.008-0.011-0.011c-0.563-0.524-1.286-0.85-2.046-0.557c-0.709,0.274-1.165,0.948-1.3,1.679
			c-0.276,1.49,0.098,3.232,0.55,4.654c0.468,1.47,1.191,2.822,2.106,4.053c-0.25,0.378-0.479,0.771-0.667,1.196
			c-1.145,2.594-0.826,5.707,1.247,7.747c2.312,2.276,5.8,1.963,8.374,0.308c0.24-0.155,0.471-0.327,0.702-0.499
			c0.034,0.058,0.068,0.117,0.103,0.174c-0.01,0.022-0.024,0.042-0.034,0.064c-0.151,0.34-0.257,0.702-0.335,1.071
			c0.366-0.451,0.767-0.877,1.163-1.279C13.973,113.882,14.6,113.341,15.244,112.822z"/>
		<path opacity="0.1" d="M37.082,120.152c-0.127,0.041-0.247,0.049-0.363,0.044c0.24,0.247,0.464,0.509,0.713,0.746
			c0.556,0.529,1.196,1.246,2.028,1.239c0.688-0.005,1.239-0.518,1.446-1.149c0.229-0.695,0.021-1.392-0.422-1.951
			c-0.496-0.626-1.22-1.063-1.857-1.53c-0.351-0.257-0.702-0.514-1.052-0.772c0.214,0.609,0.364,1.233,0.363,1.866
			C37.937,119.238,37.711,119.951,37.082,120.152z"/>
		<path fill="#FFFFFF" d="M139.809,70.707c1.314-7.15,0.993-14.57-0.966-21.596c-0.739-2.65-5.06-2.217-4.911,0.665
			c0.057,1.096,0.084,2.19,0.098,3.284c0.062,4.863-0.29,9.706-1.06,14.497c-0.686-0.193-1.38-0.356-2.078-0.506
			c-1.635-0.351-3.291-0.598-4.917-0.773c-11.323-1.222-22.855-0.851-34.142,0.874c-0.944-3.33-1.408-6.747-1.671-10.193
			c-0.136-1.778-0.221-3.564-0.286-5.35c0.021-0.002,0.042-0.004,0.064-0.006c2.069-0.205,4.135-0.445,6.209-0.597
			c2.34-0.171,4.689-0.151,7.012-0.519c1.25-0.198,2.778-0.522,3.838-1.3c0.642-0.471,1.106-1.111,1.234-1.991
			c0.013-0.091,0.03-0.178,0.036-0.274c0.037-0.606-0.096-1.124-0.324-1.606c0.379-0.267,0.731-0.572,1.067-0.897
			c1.991-1.92,3.177-4.759,2.876-7.664c-0.538-5.194-4.268-8.823-8.782-10.815c1.721-5.955,2.164-12.229,1.253-18.435
			c-0.282-1.923-0.467-4.657-1.813-6.171c-1.746-1.965-4.398-1.275-6.025,0.456c-1.529,1.627-2.427,3.665-2.971,5.827
			c-0.542,2.156-0.731,4.437-0.843,6.559c-0.168,3.231,0.011,6.457,0.328,9.673c-1.062-0.053-2.129-0.059-3.198-0.045
			c-1.846,0.025-3.694,0.131-5.526,0.31c1.477-6.451,1.36-13.293-0.712-19.579c-0.764-2.317-2.59-4.556-5.336-3.853
			c-2.326,0.595-3.453,2.803-4.229,4.871c-0.247,0.659-0.475,1.325-0.691,1.995c-1.295,4.007-2.049,8.194-2.302,12.394
			c-0.156,2.601-0.091,5.217,0.169,7.815c-0.26,0.244-0.514,0.499-0.75,0.786c-0.963,1.172-1.67,2.498-2.164,3.906
			c-0.174,0.497-0.315,1.005-0.438,1.519c-0.217,0.909-0.366,1.838-0.437,2.773c-0.167,2.199,0.21,4.533,1.191,6.547
			c-0.082,0.243-0.141,0.505-0.146,0.804c-0.04,2.477,1.461,4.191,3.428,5.365c-0.316,4.999-0.633,9.998-0.95,14.997
			c-0.212,3.349-0.461,6.697-0.627,10.049c-0.146,2.956-0.124,5.982,0.608,8.869c0.89,3.513,2.915,6.21,5.579,8.211
			c-0.105,1.224-0.195,2.449-0.249,3.676c-0.143,3.266-0.662,7.203,2.082,9.495c0.103,0.086,0.201,0.175,0.313,0.257
			c1.095,0.791,2.786,0.189,3.42-0.897c0.688-1.175,0.261-2.434-0.687-3.244c-0.001-0.003-0.002-0.004-0.003-0.006
			c-0.02-0.036-0.037-0.068-0.049-0.089c-0.011-0.034-0.022-0.068-0.039-0.117c-0.031-0.113-0.053-0.228-0.076-0.342
			c0.006-0.041-0.037-0.458-0.038-0.477c-0.012-0.283-0.01-0.567-0.01-0.85c0-1.587,0.049-3.174,0.137-4.758
			c0.436,0.173,0.877,0.338,1.326,0.488c1.219,0.406,2.47,0.736,3.733,1.025c0.108,2.276,0.244,4.55,0.435,6.821
			c0.095,1.116,0.819,2.2,1.927,2.445c0.182,0.04,0.372,0.064,0.573,0.055c1.256-0.056,2.607-1.098,2.5-2.487
			c0-0.005,0.001-0.009,0-0.013c-0.167-1.98-0.297-3.963-0.4-5.948c3.406,0.412,6.86,0.516,10.215,0.415
			c6.565-0.198,13.106-1.243,19.5-2.708c1.865-0.427,3.736-0.884,5.596-1.387c0.265,1.621,0.529,3.241,0.793,4.862
			c0.127,0.78,0.788,1.387,1.551,1.668c0.504,0.185,1.051,0.232,1.524,0.078c1.402-0.454,1.972-1.688,1.746-3.075
			c-0.036-0.221-0.072-0.442-0.108-0.664c-0.235-1.441-0.47-2.882-0.705-4.323c1.543-0.524,3.063-1.107,4.551-1.764
			c0.024,0.152,0.053,0.304,0.075,0.456c0,0,0.105,0.803,0.052,0.371c0.032,0.259,0.064,0.519,0.093,0.778
			c0.068,0.606,0.125,1.213,0.171,1.821c0.086,1.129,0.132,2.26,0.147,3.393c0.015,1.149,0.883,2.255,2.019,2.465
			c0.156,0.029,0.316,0.042,0.481,0.035c1.34-0.06,2.518-1.099,2.5-2.5c-0.027-2.037-0.177-4.074-0.427-6.098
			c-0.128-1.034-0.273-2.065-0.459-3.09c0.745-0.44,1.475-0.925,2.141-1.47c1.25-1.022,2.264-2.264,2.661-3.886
			c0.771-3.157-0.821-6.311-2.818-8.654C141.835,72.321,140.859,71.456,139.809,70.707z M102.598,32.816
			c0.473,0.459,0.807,1.011,1,1.656c0.086,0.422,0.172,0.845,0.259,1.267c0.063,0.91-0.105,1.775-0.505,2.596
			c-0.252,0.376-0.503,0.752-0.755,1.127c-0.593,0.663-1.311,1.14-2.151,1.43c-0.052,0.018-0.105,0.036-0.157,0.054
			c-0.628,0.241-1.269,0.315-1.922,0.221c-0.681,0.019-1.328-0.137-1.941-0.468c-0.637-0.283-1.156-0.7-1.558-1.25
			c-0.473-0.459-0.806-1.011-1-1.656c-0.086-0.422-0.173-0.845-0.259-1.267c-0.063-0.91,0.105-1.775,0.505-2.596
			c0.251-0.376,0.503-0.751,0.755-1.127c0.593-0.663,1.31-1.14,2.151-1.43c0.052-0.018,0.104-0.036,0.157-0.054
			c0.344-0.132,0.691-0.209,1.042-0.241c-0.719,0.238-1.346,0.715-1.597,1.458c-0.184,0.544-0.116,1.153,0.245,1.611
			c0.188,0.239,0.437,0.417,0.708,0.554c0.437,0.479,1.061,0.78,1.742,0.716c1.146-0.107,2.167-1.022,2.34-2.171
			c0.085-0.564-0.054-1.12-0.414-1.558C101.781,31.968,102.243,32.331,102.598,32.816z M86.215,39.849
			c-0.651,0.728-1.438,1.25-2.359,1.569c-0.058,0.02-0.115,0.039-0.173,0.059c-0.689,0.264-1.392,0.345-2.108,0.243
			c-0.747,0.021-1.457-0.15-2.129-0.513c-0.698-0.311-1.268-0.768-1.708-1.371c-0.519-0.504-0.885-1.109-1.097-1.816
			c-0.095-0.463-0.189-0.927-0.284-1.39c-0.069-0.998,0.116-1.947,0.554-2.847c0.276-0.412,0.552-0.824,0.828-1.237
			c0.651-0.728,1.437-1.25,2.359-1.569c0.058-0.02,0.115-0.039,0.172-0.059c0.689-0.264,1.393-0.345,2.108-0.243
			c0.747-0.02,1.456,0.151,2.129,0.513c0.006,0.003,0.011,0.007,0.017,0.01c-0.656-0.178-1.381-0.095-1.969,0.247
			c-0.603,0.35-1.009,0.998-1.13,1.677c-0.025,0.139-0.026,0.276-0.026,0.413c-0.18,0.469-0.2,0.992,0.024,1.467
			c0.326,0.692,0.917,1.242,1.652,1.47c0.599,0.185,1.223,0.049,1.712-0.312c1.432-0.476,2.042-2.214,1.405-3.565
			c-0.028-0.06-0.068-0.109-0.1-0.166c0.038,0.047,0.087,0.08,0.123,0.129c0.519,0.504,0.884,1.109,1.097,1.816
			c0.095,0.464,0.189,0.927,0.284,1.39c0.069,0.998-0.116,1.947-0.554,2.847C86.767,39.025,86.491,39.437,86.215,39.849z"/>
		<path fill="#FFFFFF" d="M41.461,111.881c-0.755-0.553-1.51-1.107-2.265-1.66c-0.483-0.354-0.967-0.709-1.45-1.063
			c0.202-1.079-0.039-2.188-0.717-3.135c0.317-0.211,0.636-0.421,0.936-0.661c0.802-0.644,1.543-1.454,1.58-2.538
			c0.018-0.524-0.167-1.075-0.538-1.451c-0.229-0.232-0.562-0.36-0.887-0.284c-0.322,0.075-0.556,0.315-0.792,0.532
			c-0.736,0.679-1.396,1.429-2,2.227c-0.122,0.161-0.224,0.335-0.339,0.5c-0.991-0.488-2.109-0.754-3.199-0.914
			c-3.95-0.578-7.97-0.014-11.623,1.525c-0.169-0.063-0.366-0.06-0.57,0.057c-0.425,0.244-0.851,0.503-1.264,0.784
			c0.798-1.044,1.407-2.221,1.445-3.567c0.072-2.532-1.782-5.261-4.194-6.254c0.355-2.301,0.285-4.675-0.663-6.833
			c-0.254-0.578-0.561-1.263-1.139-1.583c-0.617-0.342-1.412-0.127-1.89,0.356c-0.495,0.5-0.616,1.205-0.691,1.873
			c-0.091,0.811-0.089,1.63-0.022,2.443c0.037,0.446,0.108,0.887,0.178,1.327c0.121,0.771,0.268,1.537,0.452,2.296
			c-0.963,0.263-1.899,0.64-2.771,1.125c-0.151-0.766-0.334-1.525-0.541-2.278c-0.039-0.144-0.073-0.289-0.114-0.432
			c-0.418-1.436-0.889-3.029-2.019-4.081c-0.563-0.524-1.286-0.85-2.045-0.557c-0.709,0.274-1.165,0.948-1.3,1.679
			c-0.27,1.457,0.083,3.154,0.522,4.558c0.01,0.031,0.019,0.064,0.029,0.095c0.435,1.367,1.098,2.627,1.924,3.788
			c0.062,0.088,0.118,0.179,0.182,0.266c-0.026,0.039-0.049,0.081-0.074,0.121c-0.22,0.341-0.425,0.694-0.593,1.075
			c-1.146,2.594-0.826,5.707,1.247,7.747c2.312,2.276,5.8,1.963,8.374,0.308c0.24-0.155,0.471-0.327,0.702-0.499
			c0.034,0.058,0.067,0.117,0.103,0.174c-0.01,0.022-0.024,0.042-0.034,0.064c-0.526,1.182-0.636,2.601-0.156,3.811
			c-0.645,0.518-1.271,1.059-1.851,1.65c-0.396,0.402-0.796,0.828-1.163,1.279c-0.455,0.56-0.854,1.162-1.087,1.837
			c-0.21,0.608-0.256,1.33,0.232,1.781c0.054,0.05,0.109,0.099,0.176,0.142c0.597,0.376,1.308,0.156,1.814-0.253
			c0.92-0.742,1.671-1.818,2.227-2.851c0.346-0.644,0.62-1.314,0.831-2.003c0.357,0.281,0.754,0.501,1.18,0.668
			c-0.814,1.188-1.479,2.477-1.922,3.851c-0.172,0.533-0.298,1.133-0.018,1.655c0.33,0.614,1.079,0.751,1.675,0.47
			c0.562-0.265,0.944-0.814,1.281-1.315c0.327-0.486,0.597-1.007,0.829-1.544c0.357-0.827,0.623-1.683,0.857-2.548
			c0.034,0.003,0.069,0.008,0.104,0.011c2.117,0.191,4.262,0.191,6.374-0.066c2.051-0.25,4.532-0.773,6.65-1.803
			c0.182,0.579,0.354,1.162,0.544,1.738c0.268,0.813,0.519,1.713,0.868,2.548c0.202,0.484,0.428,0.951,0.732,1.353
			c0.291,0.385,0.669,0.749,1.142,0.773c0.116,0.006,0.236-0.003,0.363-0.044c0.628-0.2,0.854-0.913,0.855-1.507
			c0.001-0.633-0.149-1.257-0.363-1.866c-0.267-0.757-0.637-1.492-0.966-2.185c-0.341-0.718-0.706-1.425-1.077-2.129
			c0.472-0.383,0.901-0.804,1.264-1.278c0.557,0.801,1.143,1.581,1.783,2.318c0.535,0.615,1.098,1.205,1.688,1.766
			c0.556,0.529,1.195,1.246,2.028,1.239c0.688-0.005,1.239-0.518,1.446-1.149c0.228-0.695,0.021-1.392-0.422-1.951
			C42.823,112.785,42.099,112.348,41.461,111.881z M9.444,105.33c-0.137,0.384-0.359,0.711-0.666,0.98
			c-0.019,0.017-0.039,0.033-0.058,0.05c-0.225,0.211-0.484,0.354-0.778,0.427c-0.258,0.113-0.53,0.153-0.814,0.136
			c0.549-0.24,1.036-0.746,0.997-1.375c-0.02-0.314-0.18-0.61-0.458-0.768c-0.146-0.082-0.308-0.121-0.475-0.135
			c-0.321-0.153-0.701-0.176-1.034-0.003c-0.515,0.269-0.816,0.862-0.748,1.437c-0.098-0.146-0.196-0.293-0.293-0.439
			c-0.185-0.375-0.263-0.772-0.235-1.19c0.042-0.203,0.083-0.406,0.125-0.61c0.137-0.384,0.359-0.711,0.666-0.98
			c0.02-0.017,0.039-0.033,0.058-0.05c0.225-0.211,0.484-0.354,0.778-0.427c0.286-0.126,0.588-0.172,0.906-0.138
			c0.319,0.01,0.612,0.097,0.878,0.261c0.28,0.113,0.518,0.29,0.712,0.53c0.109,0.164,0.22,0.329,0.329,0.493
			c0.185,0.375,0.263,0.772,0.235,1.19C9.527,104.924,9.486,105.127,9.444,105.33z M14.801,104.372
			c-0.02,0.017-0.039,0.033-0.058,0.05c-0.225,0.211-0.484,0.354-0.778,0.427c-0.286,0.126-0.588,0.172-0.906,0.138
			c-0.005,0-0.01-0.002-0.015-0.002c0.347-0.043,0.675-0.223,0.888-0.5c0.219-0.283,0.286-0.671,0.212-1.017
			c-0.015-0.071-0.042-0.136-0.067-0.202c-0.006-0.258-0.098-0.511-0.296-0.693c-0.29-0.266-0.677-0.413-1.072-0.379
			c-0.32,0.028-0.591,0.214-0.754,0.481c-0.567,0.486-0.539,1.378-0.03,1.907c-0.168-0.104-0.325-0.225-0.455-0.386
			c-0.11-0.164-0.22-0.329-0.33-0.493c-0.185-0.375-0.263-0.772-0.235-1.19c0.042-0.203,0.083-0.406,0.125-0.61
			c0.137-0.385,0.359-0.711,0.666-0.98c0.019-0.017,0.039-0.033,0.058-0.05c0.225-0.211,0.484-0.354,0.778-0.427
			c0.286-0.126,0.587-0.172,0.905-0.138c0.319,0.01,0.612,0.097,0.878,0.261c0.281,0.113,0.518,0.29,0.712,0.53
			c0.11,0.164,0.22,0.329,0.33,0.493c0.185,0.375,0.263,0.772,0.235,1.19c-0.042,0.203-0.083,0.406-0.125,0.61
			C15.33,103.776,15.108,104.103,14.801,104.372z"/>
		<path fill="#737373" d="M87.597,35.765c-0.095-0.463-0.189-0.927-0.284-1.39c-0.213-0.707-0.579-1.312-1.097-1.816
			c-0.036-0.049-0.085-0.082-0.123-0.129c0.032,0.057,0.072,0.106,0.1,0.166c0.637,1.351,0.027,3.089-1.405,3.565
			c-0.49,0.362-1.114,0.498-1.712,0.312c-0.735-0.228-1.326-0.778-1.652-1.47c-0.224-0.474-0.204-0.998-0.024-1.467
			c0-0.137,0.001-0.274,0.026-0.413c0.121-0.679,0.527-1.327,1.13-1.677c0.588-0.342,1.313-0.426,1.969-0.247
			c-0.006-0.003-0.011-0.008-0.017-0.01c-0.673-0.362-1.383-0.533-2.129-0.513c-0.716-0.102-1.419-0.021-2.108,0.243
			c-0.057,0.02-0.115,0.039-0.172,0.059c-0.922,0.318-1.708,0.841-2.359,1.569c-0.276,0.412-0.552,0.824-0.828,1.237
			c-0.438,0.9-0.624,1.849-0.554,2.847c0.095,0.464,0.189,0.927,0.284,1.39c0.212,0.707,0.578,1.313,1.097,1.816
			c0.44,0.603,1.01,1.06,1.708,1.371c0.673,0.362,1.383,0.533,2.129,0.513c0.716,0.102,1.418,0.021,2.108-0.243
			c0.058-0.02,0.115-0.039,0.173-0.059c0.922-0.318,1.708-0.841,2.359-1.569c0.276-0.412,0.552-0.824,0.828-1.237
			C87.481,37.712,87.666,36.763,87.597,35.765z"/>
		<path fill="#737373" d="M101.244,31.69c0.36,0.438,0.499,0.994,0.414,1.558c-0.173,1.149-1.193,2.064-2.34,2.171
			c-0.681,0.064-1.305-0.237-1.742-0.716c-0.271-0.137-0.519-0.315-0.708-0.554c-0.361-0.458-0.428-1.067-0.245-1.611
			c0.251-0.743,0.878-1.22,1.597-1.458c-0.351,0.032-0.699,0.109-1.042,0.241c-0.053,0.018-0.105,0.036-0.157,0.054
			c-0.841,0.29-1.558,0.767-2.151,1.43c-0.252,0.376-0.503,0.752-0.755,1.127c-0.4,0.821-0.568,1.686-0.505,2.596
			c0.086,0.423,0.172,0.845,0.259,1.267c0.194,0.645,0.527,1.197,1,1.656c0.402,0.55,0.921,0.966,1.558,1.25
			c0.613,0.331,1.26,0.486,1.941,0.468c0.653,0.093,1.293,0.019,1.922-0.221c0.052-0.018,0.105-0.036,0.157-0.054
			c0.84-0.29,1.558-0.767,2.151-1.43c0.251-0.376,0.503-0.752,0.755-1.127c0.399-0.821,0.568-1.686,0.505-2.596
			c-0.086-0.422-0.173-0.845-0.259-1.267c-0.194-0.645-0.527-1.197-1-1.656C102.243,32.331,101.781,31.968,101.244,31.69z"/>
		<path fill="#737373" d="M15.467,103.392c0.042-0.203,0.083-0.406,0.125-0.61c0.028-0.418-0.051-0.815-0.235-1.19
			c-0.11-0.164-0.22-0.329-0.33-0.493c-0.194-0.24-0.431-0.417-0.712-0.53c-0.266-0.164-0.559-0.251-0.878-0.261
			c-0.318-0.034-0.62,0.012-0.905,0.138c-0.293,0.073-0.553,0.216-0.778,0.427c-0.019,0.017-0.039,0.033-0.058,0.05
			c-0.307,0.269-0.529,0.596-0.666,0.98c-0.042,0.203-0.083,0.406-0.125,0.61c-0.028,0.418,0.051,0.815,0.235,1.19
			c0.11,0.164,0.22,0.329,0.33,0.493c0.129,0.161,0.286,0.282,0.455,0.386c-0.509-0.529-0.537-1.421,0.03-1.907
			c0.163-0.267,0.434-0.453,0.754-0.481c0.395-0.034,0.782,0.113,1.072,0.379c0.198,0.182,0.291,0.435,0.296,0.693
			c0.026,0.065,0.052,0.131,0.067,0.202c0.074,0.346,0.007,0.734-0.212,1.017c-0.213,0.277-0.542,0.457-0.888,0.5
			c0.005,0,0.01,0.002,0.015,0.002c0.318,0.034,0.62-0.012,0.906-0.138c0.293-0.074,0.553-0.216,0.778-0.427
			c0.019-0.017,0.038-0.033,0.058-0.05C15.108,104.103,15.33,103.776,15.467,103.392z"/>
		<path fill="#737373" d="M9.004,103.037c-0.194-0.24-0.432-0.417-0.712-0.53c-0.266-0.164-0.559-0.251-0.878-0.261
			c-0.318-0.034-0.62,0.012-0.906,0.138c-0.293,0.073-0.553,0.216-0.778,0.427c-0.019,0.017-0.038,0.033-0.058,0.05
			c-0.307,0.269-0.528,0.596-0.666,0.98c-0.042,0.203-0.083,0.406-0.125,0.61c-0.028,0.418,0.051,0.814,0.235,1.19
			c0.098,0.146,0.196,0.293,0.293,0.439c-0.068-0.575,0.232-1.168,0.748-1.437c0.333-0.174,0.712-0.15,1.034,0.003
			c0.167,0.014,0.329,0.053,0.475,0.135c0.278,0.158,0.439,0.453,0.458,0.768c0.039,0.629-0.448,1.135-0.997,1.375
			c0.284,0.016,0.556-0.023,0.814-0.136c0.293-0.074,0.553-0.216,0.778-0.427c0.019-0.017,0.039-0.033,0.058-0.05
			c0.307-0.269,0.529-0.596,0.666-0.98c0.042-0.203,0.083-0.406,0.125-0.61c0.028-0.418-0.051-0.815-0.235-1.19
			C9.224,103.366,9.114,103.202,9.004,103.037z"/>
		<path fill="#FFFFFF" d="M351.516,94.782c0.572-1.73,1.144-3.459,1.716-5.189c0.297-0.897,0.587-1.796,0.325-2.747
			c-0.307-1.113-1.27-1.809-2.303-2.178c-3.189-1.139-6.557-2.027-9.867-2.734c-3.48-0.743-7.044-1.188-10.606-1.024
			c-1.577,0.073-2.897,1.544-2.411,3.165c0.247,0.822,0.474,1.648,0.689,2.477c0.743,2.849,1.305,5.733,1.676,8.648
			c-1.102,1.605-2.056,3.326-2.927,5.047c-0.427,0.844-0.841,1.687-1.229,2.516c-0.151,0.322-0.293,0.649-0.439,0.974
			c-0.926,2.06-1.761,4.163-2.467,6.307c-0.389,1.18-0.82,2.391-1.047,3.614c-0.307,1.648,0.444,2.87,1.676,3.882
			c3.687,3.028,8.468,4.074,13.139,4.27c2.368,0.099,4.848-0.079,7.067-0.967c0.47-0.188,0.953-0.405,1.419-0.654
			c0.619-0.329,1.205-0.719,1.668-1.222c1.091-1.187,1.093-2.773,1.163-4.291c0.164-3.545-0.003-7.084-0.31-10.615
			C349.471,100.968,350.494,97.875,351.516,94.782z M339.019,102.408c-0.398,0.185-0.79,0.222-1.177,0.112
			c-0.396-0.067-0.735-0.27-1.015-0.608c-0.314-0.248-0.554-0.605-0.72-1.071c-0.015-0.037-0.029-0.075-0.044-0.112
			c-0.234-0.601-0.339-1.271-0.314-2.01c0.05-0.378,0.1-0.756,0.15-1.134c0.172-0.754,0.461-1.428,0.865-2.021
			c0.212-0.248,0.424-0.497,0.636-0.745c0.35-0.349,0.72-0.568,1.111-0.657c0.398-0.185,0.791-0.222,1.177-0.112
			c0.396,0.067,0.735,0.269,1.014,0.608c0.314,0.248,0.555,0.605,0.72,1.071c0.015,0.037,0.03,0.075,0.044,0.112
			c0.227,0.581,0.326,1.229,0.31,1.938c-0.013-0.036-0.018-0.075-0.033-0.11c-0.068-0.526-0.304-0.953-0.675-1.128
			c-0.455-0.214-0.989-0.112-1.461,0.234c-0.324,0.237-0.554,0.638-0.683,1.082c-0.062,0.103-0.125,0.206-0.176,0.322
			c-0.253,0.57-0.355,1.266-0.228,1.842c0.128,0.581,0.45,1.037,0.863,1.238c0.401,0.195,0.84,0.143,1.265-0.118
			c-0.173,0.203-0.347,0.406-0.52,0.609C339.78,102.1,339.41,102.319,339.019,102.408z M344.299,102.56
			c-0.342-0.234-0.608-0.571-0.797-1.011c-0.017-0.035-0.033-0.071-0.05-0.106c-0.267-0.568-0.396-1.202-0.39-1.901
			c0.043-0.358,0.086-0.716,0.128-1.074c0.164-0.715,0.453-1.354,0.869-1.918c0.219-0.236,0.439-0.472,0.658-0.708
			c0.364-0.332,0.753-0.541,1.167-0.627c0.419-0.177,0.837-0.214,1.253-0.111c0.425,0.062,0.791,0.252,1.099,0.571
			c0.342,0.234,0.608,0.571,0.797,1.011c0.017,0.035,0.034,0.071,0.05,0.106c0.267,0.568,0.396,1.202,0.39,1.901
			c-0.025,0.206-0.049,0.411-0.074,0.617c-0.017-0.06-0.027-0.122-0.049-0.18c-0.009-0.276-0.056-0.548-0.167-0.794
			c-0.213-0.471-0.638-0.757-1.098-0.811c-1.026-0.119-1.876,0.848-2.206,1.861c-0.16,0.491-0.201,1.068-0.019,1.558
			c0.19,0.509,0.574,0.859,1.042,1.01c0.505,0.163,1.044,0.072,1.504-0.195c-0.196,0.211-0.393,0.423-0.589,0.634
			c-0.364,0.332-0.753,0.541-1.167,0.627c-0.419,0.177-0.837,0.214-1.253,0.111C344.973,103.07,344.607,102.879,344.299,102.56z"/>
		<path fill="#FFFFFF" d="M365.02,96.296c-2.207-1.63-4.665-2.853-7.239-3.789c-1.17-0.425-2.877,0.485-3.075,1.746
			c-0.201,1.276-0.386,2.555-0.561,3.835c-0.466,3.413-0.84,6.838-1.1,10.272c-0.162,2.139-0.809,5.003,0.301,6.958
			c0.604,1.064,1.609,1.758,2.734,2.174c0.947,0.35,1.971,0.364,2.939,0.637c0.465,0.131,0.884,0.122,1.26,0.03
			c0.432,0.098,0.887,0.094,1.254-0.027c1.506-0.492,2.319-2.035,3.145-3.298c0.284-0.433,0.549-0.877,0.816-1.321
			c0.461-0.768,0.905-1.545,1.314-2.341c0.66-1.285,1.244-2.608,1.783-3.949c0.524-1.304,1.103-2.671,1.281-4.073
			C370.274,100.006,367.255,97.947,365.02,96.296z M361.612,105.363c0,0.206-0.032,0.411-0.083,0.615
			c-0.035-0.232-0.12-0.442-0.28-0.588c-0.41-0.373-1.068-0.321-1.532,0.09c-0.275,0.244-0.42,0.606-0.44,0.962
			c-0.061,0.16-0.101,0.326-0.1,0.492c0.001,0.318,0.159,0.579,0.391,0.715c0.332,0.194,0.729,0.116,1.083-0.097
			c-0.162,0.182-0.337,0.343-0.54,0.458c-0.022,0.014-0.045,0.028-0.068,0.042c-0.366,0.224-0.736,0.332-1.111,0.326
			c-0.183-0.037-0.366-0.073-0.549-0.11c-0.348-0.138-0.627-0.382-0.837-0.733c-0.078-0.185-0.156-0.37-0.233-0.555
			c-0.097-0.306-0.122-0.634-0.075-0.983c-0.001-0.353,0.073-0.705,0.222-1.054c0.128-0.357,0.313-0.665,0.554-0.924
			c0.203-0.288,0.444-0.511,0.723-0.669c0.023-0.014,0.046-0.028,0.068-0.042c0.366-0.224,0.736-0.332,1.111-0.326
			c0.183,0.037,0.366,0.073,0.549,0.11c0.348,0.138,0.627,0.382,0.837,0.733c0.078,0.185,0.155,0.37,0.233,0.555
			C361.633,104.686,361.659,105.014,361.612,105.363z M364.381,109.745c-0.023,0.01-0.046,0.02-0.07,0.029
			c-0.374,0.156-0.742,0.205-1.107,0.147c-0.175-0.059-0.351-0.118-0.526-0.177c-0.328-0.175-0.581-0.439-0.758-0.791
			c-0.062-0.181-0.123-0.362-0.184-0.544c-0.07-0.296-0.069-0.601,0.003-0.916c0.027-0.326,0.126-0.64,0.298-0.941
			c0.153-0.312,0.356-0.57,0.611-0.775c0.22-0.237,0.472-0.409,0.756-0.517c0.023-0.01,0.046-0.02,0.07-0.029
			c0.374-0.156,0.742-0.204,1.107-0.147c0.175,0.059,0.351,0.118,0.526,0.177c0.328,0.175,0.581,0.439,0.758,0.791
			c0.062,0.181,0.123,0.362,0.184,0.544c0.07,0.296,0.069,0.601-0.003,0.916c-0.016,0.191-0.064,0.377-0.13,0.56
			c0.037-0.146,0.059-0.294,0.049-0.442c-0.046-0.653-0.598-1.064-1.186-0.795c-0.24,0.024-0.482,0.165-0.652,0.409
			c-0.209,0.299-0.304,0.665-0.281,1c0.016,0.229,0.125,0.402,0.28,0.508c0.027,0.047,0.055,0.093,0.09,0.133
			c0.175,0.196,0.443,0.295,0.72,0.233c0.257-0.057,0.506-0.239,0.695-0.479c-0.137,0.226-0.296,0.429-0.495,0.589
			C364.917,109.465,364.665,109.638,364.381,109.745z"/>
		<path fill="#737373" d="M364.937,109.118c-0.277,0.062-0.544-0.037-0.72-0.233c-0.036-0.04-0.063-0.087-0.09-0.133
			c-0.154-0.106-0.264-0.279-0.28-0.508c-0.023-0.335,0.072-0.7,0.281-1c0.17-0.243,0.412-0.385,0.652-0.409
			c0.587-0.268,1.14,0.142,1.186,0.795c0.01,0.148-0.012,0.296-0.049,0.442c0.065-0.183,0.114-0.369,0.13-0.56
			c0.073-0.315,0.074-0.62,0.003-0.916c-0.062-0.181-0.123-0.362-0.184-0.544c-0.177-0.352-0.43-0.616-0.758-0.791
			c-0.175-0.059-0.351-0.118-0.526-0.177c-0.365-0.058-0.733-0.009-1.107,0.147c-0.023,0.01-0.046,0.02-0.07,0.029
			c-0.285,0.108-0.537,0.28-0.756,0.517c-0.255,0.205-0.458,0.463-0.611,0.775c-0.172,0.302-0.271,0.615-0.298,0.941
			c-0.073,0.315-0.074,0.62-0.003,0.916c0.062,0.181,0.123,0.362,0.184,0.544c0.177,0.352,0.43,0.616,0.758,0.791
			c0.175,0.059,0.351,0.118,0.526,0.177c0.365,0.058,0.733,0.009,1.107-0.147c0.023-0.01,0.046-0.02,0.07-0.029
			c0.285-0.108,0.537-0.28,0.756-0.517c0.199-0.16,0.358-0.363,0.495-0.589C365.443,108.879,365.195,109.06,364.937,109.118z"/>
		<path fill="#737373" d="M361.303,103.825c-0.21-0.35-0.489-0.595-0.837-0.733c-0.183-0.037-0.366-0.073-0.549-0.11
			c-0.375-0.006-0.745,0.102-1.111,0.326c-0.022,0.014-0.045,0.028-0.068,0.042c-0.279,0.159-0.521,0.382-0.723,0.669
			c-0.241,0.258-0.426,0.566-0.554,0.924c-0.148,0.349-0.223,0.701-0.222,1.054c-0.047,0.349-0.022,0.676,0.075,0.983
			c0.078,0.185,0.155,0.37,0.233,0.555c0.21,0.35,0.489,0.595,0.837,0.733c0.183,0.037,0.366,0.073,0.549,0.11
			c0.375,0.006,0.745-0.102,1.111-0.326c0.022-0.014,0.045-0.028,0.068-0.042c0.202-0.115,0.377-0.275,0.54-0.458
			c-0.354,0.213-0.751,0.291-1.083,0.097c-0.232-0.136-0.39-0.397-0.391-0.715c-0.001-0.166,0.039-0.332,0.1-0.492
			c0.021-0.356,0.165-0.718,0.44-0.962c0.463-0.411,1.122-0.463,1.532-0.09c0.16,0.146,0.245,0.356,0.28,0.588
			c0.05-0.204,0.083-0.409,0.083-0.615c0.047-0.349,0.021-0.676-0.075-0.983C361.458,104.195,361.381,104.01,361.303,103.825z"/>
		<path fill="#737373" d="M339.385,101.259c-0.414-0.201-0.735-0.657-0.863-1.238c-0.128-0.576-0.025-1.272,0.228-1.842
			c0.052-0.116,0.114-0.219,0.176-0.322c0.129-0.444,0.359-0.845,0.683-1.082c0.472-0.346,1.006-0.448,1.461-0.234
			c0.371,0.174,0.606,0.602,0.675,1.128c0.015,0.035,0.02,0.074,0.033,0.11c0.016-0.709-0.083-1.357-0.31-1.938
			c-0.015-0.037-0.029-0.075-0.044-0.112c-0.165-0.466-0.405-0.823-0.72-1.071c-0.279-0.338-0.618-0.541-1.014-0.608
			c-0.386-0.11-0.779-0.073-1.177,0.112c-0.391,0.089-0.761,0.308-1.111,0.657c-0.212,0.248-0.424,0.497-0.636,0.745
			c-0.404,0.594-0.693,1.267-0.865,2.021c-0.05,0.378-0.1,0.756-0.15,1.134c-0.025,0.739,0.08,1.408,0.314,2.01
			c0.015,0.037,0.029,0.075,0.044,0.112c0.166,0.466,0.405,0.823,0.72,1.071c0.28,0.338,0.618,0.541,1.015,0.608
			c0.387,0.11,0.779,0.073,1.177-0.112c0.391-0.089,0.761-0.308,1.111-0.657c0.173-0.203,0.347-0.406,0.52-0.609
			C340.226,101.403,339.786,101.454,339.385,101.259z"/>
		<path fill="#737373" d="M346.651,103.02c0.415-0.086,0.804-0.295,1.167-0.627c0.196-0.211,0.393-0.423,0.589-0.634
			c-0.46,0.266-0.999,0.358-1.504,0.195c-0.468-0.151-0.853-0.501-1.042-1.01c-0.183-0.49-0.142-1.067,0.019-1.558
			c0.33-1.014,1.18-1.98,2.206-1.861c0.46,0.053,0.885,0.34,1.098,0.811c0.112,0.246,0.158,0.518,0.167,0.794
			c0.021,0.058,0.032,0.12,0.049,0.18c0.025-0.206,0.049-0.411,0.074-0.617c0.006-0.699-0.124-1.333-0.39-1.901
			c-0.017-0.035-0.034-0.071-0.05-0.106c-0.189-0.44-0.455-0.777-0.797-1.011c-0.308-0.319-0.674-0.509-1.099-0.571
			c-0.416-0.103-0.833-0.066-1.253,0.111c-0.415,0.086-0.804,0.295-1.167,0.627c-0.219,0.236-0.439,0.472-0.658,0.708
			c-0.416,0.564-0.705,1.203-0.869,1.918c-0.042,0.358-0.085,0.716-0.128,1.074c-0.007,0.699,0.123,1.333,0.39,1.901
			c0.017,0.035,0.034,0.071,0.05,0.106c0.189,0.44,0.455,0.777,0.797,1.011c0.308,0.319,0.674,0.509,1.099,0.571
			C345.813,103.234,346.231,103.197,346.651,103.02z"/>
		<path fill="#A0C299" d="M282.789,97.621c-2.049-1.338-4.713-1.695-6.966-0.687c-2.149,0.962-3.521,3.137-3.785,5.43
			c-0.032,0.272-0.031,0.541-0.027,0.81c0.02,1.353,0.471,2.645,1.215,3.76c0.604,0.906,1.391,1.697,2.302,2.296
			c0.8,0.526,1.959,0.159,2.424-0.636c0.506-0.864,0.167-1.897-0.636-2.424c-0.215-0.141-0.408-0.305-0.588-0.48
			c-0.988-0.954-1.418-2.346-1.014-3.663c0.027-0.088,0.043-0.177,0.078-0.265c0.011-0.018,0.039-0.076,0.084-0.177
			c0.061-0.116,0.126-0.229,0.195-0.34c0.165-0.264,0.17-0.261,0.316-0.417c0.352-0.374,0.529-0.534,1.045-0.757
			c0.23-0.099,0.704-0.187,1.032-0.192c0.538-0.009,0.667,0.014,1.212,0.172c1.771,0.515,3.061,2.161,3.817,3.918
			c1.023,2.378,1.301,5.024,1.922,7.519c0.231,0.929,1.273,1.486,2.179,1.237c0.944-0.259,1.469-1.248,1.237-2.179
			C287.677,105.907,287.181,100.49,282.789,97.621z"/>
		<path fill="#A0C299" d="M297.179,78.435c-0.683-4.558-2.58-9.552-6.867-11.861c-4.03-2.171-9.233-1.542-12.681,1.444
			c-1.88,1.629-3.023,3.874-3.452,6.262c-0.388,2.161-0.19,4.437,0.606,6.486c0.231,0.595,0.51,1.172,0.841,1.72
			c1.177,1.95,4.243,0.17,3.06-1.788c-0.843-1.396-1.237-3.047-1.166-4.669c0.075-1.713,0.675-3.387,1.806-4.698
			c0.247-0.286,0.512-0.56,0.811-0.807c2.796-2.321,7.262-2.307,9.918,0.21c3.129,2.966,3.762,7.759,4.017,11.864
			c0.006,0.1,0.013,0.202,0.019,0.301c0.305,5.212-0.085,10.442,0.318,15.649c0.118,1.521,0.311,3.041,0.583,4.545
			c0.657,3.633,1.828,7.156,3.904,10.258c1.262,1.886,4.333,0.114,3.06-1.788c-0.76-1.135-1.381-2.31-1.895-3.513
			c-0.263-0.615-0.497-1.238-0.705-1.868C296.478,97.472,298.524,87.41,297.179,78.435z"/>
		<path fill="#A0C299" d="M306.214,70.607c0.182-0.914,0.551-1.951,1.101-2.847c0.893-1.456,2.264-2.538,4.1-2.104
			c2.217,0.524,3.164-2.892,0.942-3.417c-3.319-0.784-6.59,1.013-8.263,3.892c-0.683,1.174-1.104,2.461-1.362,3.795
			c-0.458,2.36-0.396,4.87-0.285,7.194c0.371,7.759,2.3,15.79-0.25,23.371c-0.428,1.273,0.578,2.112,1.626,2.156
			c0.736,0.031,1.492-0.327,1.791-1.214c2.257-6.71,1.243-13.765,0.636-20.652c-0.258-2.923-0.595-6.057-0.22-9.015
			C306.08,71.376,306.138,70.989,306.214,70.607z"/>
		<path fill="#A0C299" d="M318.309,84.224c0.755-2.734,1.251-5.536,1.526-8.358c0.293-3.014,0.088-6.241,0.673-9.208
			c0.396-2.008,1.151-3.898,2.682-5.518c0.285-0.301,0.59-0.585,0.906-0.857c2.799-2.414,6.742-3.659,10.382-2.876
			c2.181,0.469,4.649,1.671,5.41,3.939c0.32,0.954,0.202,2.05-0.267,2.925c-0.393,0.734-1.028,1.316-1.896,1.502
			c-0.446,0.096-0.759,0.312-0.966,0.589c-0.543,0.725-0.317,1.874,0.406,2.476c0.379,0.316,0.89,0.484,1.502,0.352
			c0.761-0.164,1.448-0.496,2.062-0.929c1.416-0.997,2.404-2.588,2.721-4.318c0.483-2.635-0.42-5.19-2.349-7.038
			c-3.97-3.804-10.257-3.996-15.094-1.932c-4.525,1.931-7.567,5.588-8.78,10.139c-0.217,0.813-0.382,1.652-0.48,2.517
			c-0.376,3.34-0.19,6.707-0.67,10.043c-0.501,3.474-1.438,6.864-2.687,10.141c-1.31,3.436-2.734,6.798-2.963,10.517
			c-0.15,2.433,0.179,4.853,0.689,7.239c0.338,1.581,0.754,3.148,1.17,4.69c0.594,2.199,4.013,1.266,3.417-0.942
			c-0.784-2.903-1.604-5.846-1.746-8.865c-0.138-2.933,0.554-5.642,1.565-8.373C316.49,89.469,317.566,86.914,318.309,84.224z"/>
		<path fill="#A0C299" d="M265.133,90.328c-1.279-0.83-2.81-1.223-4.366-0.936c-2.792,0.515-3.816,3.082-3.983,5.62
			c-0.009,0.142,0.009,0.28,0.04,0.414c0.178,0.765,0.955,1.358,1.732,1.358c0.967,0,1.64-0.746,1.753-1.649
			c0.005-0.041,0.016-0.081,0.019-0.123c0.082-1.245,0.422-2.386,1.846-2.166c1.231,0.19,2.197,1.364,2.658,2.49
			c0.588,1.437,0.593,3.048,0.506,4.593c-0.015,0.27-0.032,0.539-0.05,0.804c-0.15,2.175-0.316,4.278,0.009,6.446
			c0.055,0.363,0.265,0.663,0.55,0.882c0.458,0.353,1.109,0.498,1.629,0.355c1.014-0.279,1.38-1.229,1.237-2.179
			c-0.376-2.511,0.215-5.082,0.197-7.601c-0.006-0.887-0.083-1.768-0.249-2.624c-0.292-1.51-0.865-2.942-1.857-4.182
			C266.329,91.235,265.758,90.734,265.133,90.328z"/>
		<path fill="#A0C299" d="M273.402,87.657c-0.689-1.49-1.431-2.965-2.196-4.434c-4.699-9.015-10.403-17.766-11.834-27.977
			c-0.385-2.743-0.536-6.051,0.107-9.059c0.412-1.926,1.155-3.724,2.376-5.173c0.073-0.086,0.138-0.178,0.214-0.262
			c3.288-3.615,8.575-1.779,10.673,2.148c1.065,1.995,1.371,4.114,1.213,6.245c-0.285,3.84-2.094,7.718-3.814,10.976
			c-0.948,1.796,1.374,3.407,2.646,2.309c0.155-0.134,0.298-0.301,0.414-0.521c2.963-5.613,5.676-12.166,3.555-18.553
			c-1.745-5.256-7.284-9.536-13-7.786c-4.037,1.236-6.241,4.811-7.323,8.686c-0.432,1.547-0.69,3.141-0.806,4.654
			c-0.232,3.033,0.027,6.051,0.621,9.014c0.741,3.696,2.003,7.304,3.495,10.741c3.1,7.142,7.334,13.717,10.6,20.779
			c0.763,1.65,2.858,0.836,3.191-0.606C273.617,88.475,273.594,88.072,273.402,87.657z"/>
		<path fill="#A0C299" d="M256.568,77.835c0.01-1.712-0.1-3.483-0.38-5.225c-0.361-2.239-1.032-4.419-2.151-6.359
			c-0.124-0.215-0.235-0.438-0.371-0.647c-2.382-3.668-7.125-6.073-10.92-2.839c-1.881,1.603-2.634,3.581-2.873,5.706
			c-0.338,3.011,0.365,6.319,0.431,9.294c0.006,0.266,0.063,0.498,0.153,0.702c0.681,1.542,3.435,1.316,3.39-0.702
			c-0.048-2.173-0.703-4.786-0.694-7.22c0.005-1.287,0.202-2.521,0.771-3.615c0.198-0.381,0.433-0.748,0.73-1.09
			c2.853-3.282,6.206,1.41,7.147,3.959c0.839,2.271,1.189,4.62,1.267,7.005c0.168,5.171-0.947,10.507-1.157,15.57
			c-0.111,2.677,0.027,5.334,0.584,7.909c0.339,1.568,0.833,3.106,1.521,4.599c0.955,2.068,4.01,0.27,3.06-1.788
			c-0.143-0.31-0.258-0.626-0.381-0.94c-0.716-1.833-1.104-3.733-1.269-5.672C254.905,90.347,256.534,83.828,256.568,77.835z"/>
		<path fill="#A0C299" d="M239.255,88.187c-1.943-2.687-4.356-5.379-7.684-6.27c-2.823-0.756-6.204,0.057-8.052,2.406
			c-1.04,1.321-1.346,2.765-1.223,4.218c0.107,1.26,0.537,2.528,1.096,3.73c0.256,0.551,0.537,1.089,0.828,1.605
			c2.142,3.806,3.616,7.735,4.225,12.078c0.133,0.948,1.342,1.467,2.179,1.237c1.021-0.281,1.371-1.228,1.237-2.179
			c-0.569-4.066-1.877-8.006-3.842-11.612c-0.389-0.713-0.939-1.611-1.394-2.554c-0.571-1.184-0.978-2.435-0.727-3.485
			c0.176-0.732,0.665-1.368,1.667-1.806c3.119-1.362,5.997,1.133,7.85,3.399c2.466,3.014,4.412,6.592,5.863,10.193
			c0.357,0.887,1.181,1.512,2.179,1.237c0.842-0.231,1.597-1.287,1.237-2.179C243.269,94.663,241.496,91.285,239.255,88.187z"/>
	</g>
</g>
<g id="草木">
</g>
<g id="生き物">
</g>
<g id="レイヤー_8">
</g>
</svg>
