<?xml version="1.0" encoding="utf-8"?>
<!-- Generator: Adobe Illustrator 24.0.1, SVG Export Plug-In . SVG Version: 6.00 Build 0)  -->
<svg version="1.1" xmlns="http://www.w3.org/2000/svg" xmlns:xlink="http://www.w3.org/1999/xlink" x="0px" y="0px"
	 viewBox="0 0 1540 850" enable-background="new 0 0 1540 850" xml:space="preserve">
<g id="参考画像" display="none">
</g>
<g id="レイヤー_9">
</g>
<g id="大きな島">
</g>
<g id="レイヤー_7">
	<g id="島-後ろ">
	</g>
</g>
<g id="島本体">
	<g>
		<path fill="none" d="M592.142,436.881c0.851,2.651,1.731,5.297,2.688,7.913c0.49,1.34,1.034,2.666,1.678,3.938
			c3.096-1.753,6.653-2.694,10.224-2.682c-0.061-0.656-0.121-1.312-0.182-1.968c-0.733-5.242-1.466-10.485-2.199-15.728
			c-5.362-0.331-10.639-2.148-15.039-5.124c0.465,3.669,1.125,7.307,1.972,10.901C591.568,435.049,591.849,435.967,592.142,436.881z
			"/>
		<path fill="none" d="M615.773,448.32c0.163,0.097,0.29,0.207,0.437,0.311c3.332-9.003,6.083-18.209,8.237-27.561
			c-2.123,1.864-4.433,3.601-7.014,4.845c-3.428,1.651-7.146,2.438-10.88,2.495c0.604,5.906,1.208,11.812,1.812,17.719
			C610.922,446.339,613.563,447.007,615.773,448.32z"/>
		<path fill="#7DDDB2" d="M613.612,375.596c0.109-0.845,0.125-1.737-0.318-2.485c-0.622-1.051-1.882-1.247-2.991-1.394
			c-0.611-0.081-1.226-0.124-1.842-0.119c-0.269,0.002-0.539,0.013-0.808,0.032c-0.312,0.022-0.648,0.026-0.932,0.169
			c-0.64,0.321-0.636,0.964-0.547,1.579c0.064,0.439,0.13,0.878,0.196,1.317C608.799,374.7,611.234,374.988,613.612,375.596z"/>
		<path fill="#E0D47F" d="M625.266,420.338c-0.269,0.246-0.543,0.489-0.818,0.731c-2.154,9.352-4.905,18.558-8.237,27.561
			c-0.147-0.103-0.274-0.214-0.437-0.311c-2.21-1.312-4.851-1.98-7.408-2.193c-0.604-5.906-1.208-11.812-1.812-17.719
			c-0.734,0.011-1.468-0.009-2.202-0.054c0.733,5.242,1.466,10.485,2.199,15.728c0.061,0.656,0.121,1.312,0.182,1.968
			c-3.572-0.012-7.128,0.929-10.224,2.682c-0.644-1.272-1.188-2.597-1.678-3.938c-0.957-2.616-1.836-5.261-2.688-7.913
			c-0.294-0.914-0.575-1.832-0.858-2.749c-0.848-3.594-1.507-7.233-1.972-10.901c-1.102-0.746-2.142-1.568-3.12-2.454
			c-0.031,0.108-0.045,0.225-0.015,0.359c1.548,6.982,3.469,13.872,5.74,20.648c0.834,2.668,1.771,5.306,2.818,7.905
			c-0.448,0.135-0.885,0.294-1.282,0.532c-0.94,0.563-1.477,1.405-1.77,2.353c-0.062,0.068-0.128,0.133-0.189,0.202
			c-0.273,0.31-0.231,0.655-0.049,0.895c-0.095,0.796-0.066,1.622,0.026,2.4c0.135,1.13,0.37,2.238,0.652,3.334
			c0.388,2.797,0.937,5.569,1.679,8.296c0.446,1.639,0.956,3.26,1.529,4.859c0.55,1.536,1.038,3.521,2.085,4.807
			c0.811,0.995,2.108,1.149,3.311,1.315c1.886,0.26,3.794,0.301,5.687,0.093c2.932-0.322,6.122-1.12,8.051-3.532
			c1.95-2.437,2.143-5.782,2.556-8.748c0.506-3.629,1.038-7.256,1.517-10.889c0.262-1.989,0.172-3.798-0.71-5.279
			c1.288-3.772,2.493-7.571,3.605-11.397c2.339-6.727,4.294-13.583,5.855-20.535C626.628,419.06,625.955,419.71,625.266,420.338z
			 M616.573,452.765c-0.351,2.117-2.602,2.591-4.371,2.695c-1.689,0.1-3.382,0.125-5.074,0.078c-3.55-0.1-7.094-0.526-10.577-1.218
			c-0.975-0.194-1.653-1.16-1.791-2.078c-0.158-1.047,0.362-1.911,1.194-2.491c1.509-1.051,3.255-1.561,5.074-1.7
			c0.017-0.001,0.034,0.003,0.051,0.003c0.124-0.051,0.251-0.097,0.388-0.12c4.812-0.788,9.565-0.126,13.957,2.008
			C616.477,450.454,616.745,451.731,616.573,452.765z"/>
		<path fill="#95D487" d="M615.424,449.942c-4.392-2.133-9.145-2.796-13.957-2.008c-0.137,0.022-0.264,0.069-0.388,0.12
			c-0.017,0.001-0.034-0.004-0.051-0.003c-1.82,0.139-3.565,0.648-5.074,1.7c-0.832,0.579-1.351,1.444-1.194,2.491
			c0.138,0.918,0.815,1.885,1.791,2.078c3.482,0.692,7.027,1.118,10.577,1.218c1.691,0.047,3.385,0.022,5.074-0.078
			c1.769-0.104,4.02-0.578,4.371-2.695C616.745,451.731,616.477,450.454,615.424,449.942z"/>
		<path fill="#EB5B1E" d="M633.65,393.838c-2.198-8.252-9.898-15.093-18.671-17.664c-0.269-0.215-0.605-0.387-1.015-0.497
			c-0.117-0.031-0.236-0.05-0.352-0.08c-2.378-0.608-4.812-0.896-7.243-0.902c-9.41-0.022-18.715,4.298-24.041,11.812
			c-6.848,9.66-6.194,22.899,1.517,31.896c0.723,0.843,1.518,1.624,2.346,2.374c0.979,0.886,2.018,1.708,3.12,2.454
			c4.4,2.976,9.677,4.793,15.039,5.124c0.734,0.045,1.468,0.065,2.202,0.054c3.734-0.057,7.452-0.843,10.88-2.495
			c2.581-1.244,4.891-2.981,7.014-4.845c0.276-0.242,0.549-0.486,0.818-0.731c0.689-0.627,1.362-1.278,2.022-1.941
			c1.561-1.569,3.013-3.244,4.17-5.09C635.032,407.601,635.335,400.16,633.65,393.838z M599.285,377.771
			c1.257-0.118,2.515-0.235,3.772-0.353c1.568-0.406,3.161-0.653,4.791-0.563c0.387-0.034,0.775-0.067,1.161-0.099
			c0.052-0.004,0.089,0.012,0.135,0.016c0.168-0.241,0.481-0.395,0.768-0.294c2.642,0.935,4.9,2.581,7.123,4.246
			c0.307,0.23,0.466,0.607,0.254,0.97c-0.188,0.321-0.647,0.46-0.97,0.254c-0.321-0.205-0.649-0.398-0.975-0.593
			c-0.045-0.016-0.089-0.019-0.135-0.045c-1.67-0.967-3.386-1.851-5.142-2.65c-0.135-0.062-0.218-0.181-0.274-0.315
			c-0.444,1.732-0.888,3.465-1.331,5.197c0.009,0.042,0.011,0.085,0.021,0.127c0.085,0.374-0.111,0.766-0.495,0.872
			c-0.244,0.067-0.514-0.022-0.693-0.199c-0.118,0.045-0.242,0.072-0.359,0.058c-0.347-0.041-0.612-0.346-0.614-0.696
			c-0.011-1.776,0.261-3.55,0.786-5.246c-0.977,0.091-1.955,0.183-2.933,0.274c-0.9,0.155-1.791,0.352-2.668,0.615
			c-0.413,0.124-0.823,0.257-1.228,0.412c-0.492,0.167-0.805-0.187-0.843-0.584c-0.05,0.005-0.099,0.009-0.149,0.014
			C598.375,379.273,598.384,377.855,599.285,377.771z M623.015,417.701c-4.091,3.828-8.904,7.215-14.497,8.25
			c-0.098,0.069-0.211,0.124-0.353,0.138c-1.35,0.135-2.69,0.092-4.011-0.091c-5.873-0.567-11.529-3.03-15.872-7.075
			c-5.232-4.873-8.284-11.815-8.531-18.939c-0.032-0.914,1.386-0.91,1.417,0c0.002,0.055,0.008,0.11,0.01,0.166
			c0.428-0.127,0.936,0.081,0.869,0.635c-0.817,6.734,3.141,12.601,8.139,16.703c4.012,3.293,8.967,6.396,14.23,7.106
			c0.304,0.028,0.609,0.048,0.913,0.065c-0.783-4.645-1.141-9.331-1.085-14.016c-0.166-3.964-0.018-7.942,0.485-11.894
			c0.11-0.865,1.428-0.893,1.411-0.077c0.281,0.134,0.503,0.414,0.442,0.799c-0.572,3.578-0.873,7.19-0.933,10.804
			c0.167,4.451,0.754,8.882,1.771,13.24c10.403-3.309,19.141-10.924,23.861-20.77c0.353-0.736,1.519-0.207,1.295,0.546
			C630.898,408.942,627.274,413.716,623.015,417.701z"/>
		<path fill="#BB541F" d="M599.285,379.188c0.05-0.005,0.099-0.009,0.149-0.014c0.039,0.397,0.351,0.751,0.843,0.584
			c0.405-0.155,0.816-0.288,1.228-0.412c0.877-0.263,1.768-0.46,2.668-0.615c0.977-0.091,1.955-0.183,2.933-0.274
			c-0.525,1.696-0.797,3.47-0.786,5.246c0.002,0.35,0.268,0.655,0.614,0.696c0.117,0.014,0.241-0.013,0.359-0.058
			c0.179,0.177,0.449,0.266,0.693,0.199c0.384-0.105,0.58-0.497,0.495-0.872c-0.01-0.042-0.012-0.085-0.021-0.127
			c0.444-1.732,0.888-3.465,1.331-5.197c0.056,0.134,0.139,0.253,0.274,0.315c1.756,0.799,3.472,1.684,5.142,2.65
			c0.046,0.027,0.09,0.03,0.135,0.045c0.326,0.196,0.654,0.389,0.975,0.593c0.323,0.206,0.782,0.067,0.97-0.254
			c0.212-0.362,0.053-0.739-0.254-0.97c-2.223-1.665-4.48-3.311-7.123-4.246c-0.286-0.101-0.599,0.053-0.768,0.294
			c-0.046-0.005-0.084-0.021-0.135-0.016c-0.386,0.032-0.773,0.065-1.161,0.099c-1.63-0.09-3.223,0.157-4.791,0.563
			c-1.257,0.118-2.515,0.235-3.772,0.353C598.384,377.855,598.375,379.273,599.285,379.188z"/>
		<path fill="#BB541F" d="M632.576,403.291c0.224-0.753-0.942-1.282-1.295-0.546c-4.72,9.846-13.457,17.461-23.861,20.77
			c-1.017-4.358-1.604-8.789-1.771-13.24c0.061-3.614,0.361-7.225,0.933-10.804c0.062-0.385-0.161-0.665-0.442-0.799
			c0.017-0.815-1.301-0.787-1.411,0.077c-0.503,3.953-0.651,7.931-0.485,11.894c-0.055,4.686,0.302,9.371,1.085,14.016
			c-0.305-0.017-0.61-0.037-0.913-0.065c-5.264-0.71-10.218-3.813-14.23-7.106c-4.998-4.103-8.956-9.969-8.139-16.703
			c0.067-0.555-0.441-0.763-0.869-0.635c-0.002-0.055-0.008-0.11-0.01-0.166c-0.032-0.91-1.449-0.914-1.417,0
			c0.247,7.124,3.299,14.066,8.531,18.939c4.343,4.045,9.999,6.508,15.872,7.075c1.321,0.183,2.661,0.226,4.011,0.091
			c0.143-0.014,0.255-0.069,0.353-0.138c5.593-1.035,10.406-4.422,14.497-8.25C627.274,413.716,630.898,408.942,632.576,403.291z"/>
	</g>
</g>
<g id="草木">
</g>
<g id="生き物">
</g>
<g id="レイヤー_8">
</g>
</svg>
